<?xml version="1.0" standalone="no"?>
<!DOCTYPE svg PUBLIC "-//W3C//DTD SVG 1.1//EN" "http://www.w3.org/Graphics/SVG/1.1/DTD/svg11.dtd" >
<svg xmlns="http://www.w3.org/2000/svg" xmlns:xlink="http://www.w3.org/1999/xlink" version="1.1">
<metadata>
Created by FontForge 20201107 at Fri Apr  9 12:29:23 2021
 By 
Copyright 2021 Indian Type Foundry. All rights reserved.
</metadata>
<defs>
<font id="ClashDisplayVariable-Bold" horiz-adv-x="248" >
  <font-face 
    font-family="Clash Display Variable"
    font-weight="700"
    font-stretch="normal"
    units-per-em="1000"
    panose-1="0 0 0 0 0 0 0 0 0 0"
    ascent="800"
    descent="-200"
    x-height="504"
    cap-height="670"
    bbox="-232 -241 1579 889"
    underline-thickness="50"
    underline-position="-125"
    unicode-range="U+000D-FB04"
  />
<missing-glyph horiz-adv-x="756" 
d="M378 -5q-96 0 -166 39t-108.5 109t-38.5 162t38.5 162t108.5 109.5t166 39.5t166 -39.5t108.5 -109.5t38.5 -162t-38.5 -162t-108.5 -109t-166 -39zM378 158q-58 0 -98 27t-68 58l31 29q24 -24 43 -35t40.5 -14t51.5 -3q31 0 52.5 3t40.5 14t43 35l30 -29
q-27 -31 -67 -58t-99 -27zM302 327q-25 0 -40 13t-15 34t15 34t40 13q24 0 39 -13t15 -34t-15 -34t-39 -13zM378 79q76 0 123 19t69 68t22 139q0 91 -22 139.5t-69 67.5t-123 19q-75 0 -122.5 -19t-69.5 -67.5t-22 -139.5q0 -90 22 -139t69.5 -68t122.5 -19zM455 327
q-24 0 -39 13t-15 34t15 34t39 13q25 0 39.5 -13t14.5 -34t-14.5 -34t-39.5 -13z" />
    <glyph glyph-name="f_f" unicode="ff" horiz-adv-x="810" 
d="M261 0h-188v464q0 57 31.5 103.5t94.5 74.5t156 28h40v-134h-70q-53 0 -68.5 -12.5t4.5 -60.5v-30v-433zM395 350h-390v154h390v-154zM666 0h-188v464q0 57 31.5 103.5t94.5 74.5t156 28h40v-134h-70q-53 0 -68.5 -12.5t4.5 -60.5v-30v-433zM800 350h-390v154h390v-154z
" />
    <glyph glyph-name="fi" unicode="fi" horiz-adv-x="653" 
d="M261 0h-188v464q0 57 31.5 103.5t94.5 74.5t156 28h40v-134h-70q-53 0 -68.5 -12.5t4.5 -60.5v-30v-433zM395 350h-390v154h390v-154zM623 0h-188v504h188v-504zM623 550h-188v120h188v-120z" />
    <glyph glyph-name="fl" unicode="fl" horiz-adv-x="653" 
d="M261 0h-188v464q0 57 31.5 103.5t94.5 74.5t156 28h40v-134h-70q-53 0 -68.5 -12.5t4.5 -60.5v-30v-433zM395 350h-390v154h390v-154zM623 0h-188v670h188v-670z" />
    <glyph glyph-name="f_f_i" unicode="ffi" horiz-adv-x="1058" 
d="M261 0h-188v464q0 57 31.5 103.5t94.5 74.5t156 28h40v-134h-70q-53 0 -68.5 -12.5t4.5 -60.5v-30v-433zM395 350h-390v154h390v-154zM666 0h-188v464q0 57 31.5 103.5t94.5 74.5t156 28h40v-134h-70q-53 0 -68.5 -12.5t4.5 -60.5v-30v-433zM800 350h-390v154h390v-154z
M1028 0h-188v504h188v-504zM1028 550h-188v120h188v-120z" />
    <glyph glyph-name="f_f_l" unicode="ffl" horiz-adv-x="1058" 
d="M261 0h-188v464q0 57 31.5 103.5t94.5 74.5t156 28h40v-134h-70q-53 0 -68.5 -12.5t4.5 -60.5v-30v-433zM395 350h-390v154h390v-154zM666 0h-188v464q0 57 31.5 103.5t94.5 74.5t156 28h40v-134h-70q-53 0 -68.5 -12.5t4.5 -60.5v-30v-433zM800 350h-390v154h390v-154z
M1028 0h-188v670h188v-670z" />
    <glyph glyph-name="f_b" unicode="fb" horiz-adv-x="1074" 
d="M261 0h-188v464q0 57 31.5 103.5t94.5 74.5t156 28h40v-134h-70q-53 0 -68.5 -12.5t4.5 -60.5v-30v-433zM395 350h-390v154h390v-154zM815 -10q-88 0 -135 35.5t-59 110.5h-31l14 115h19q0 -36 13.5 -55.5t41 -26.5t69.5 -7q44 0 69.5 8.5t36.5 28.5t11 53q0 34 -11 53.5
t-36.5 28.5t-69.5 9q-63 0 -93.5 -16t-30.5 -69h-19v116h29q11 63 56 101.5t134 38.5q74 0 125.5 -31.5t78.5 -90t27 -140.5q0 -81 -27.5 -140t-81 -90.5t-130.5 -31.5zM611 0h-176v670h188v-515l-12 -13v-142z" />
    <glyph glyph-name="f_f_b" unicode="ffb" horiz-adv-x="1479" 
d="M261 0h-188v464q0 57 31.5 103.5t94.5 74.5t156 28h40v-134h-70q-53 0 -68.5 -12.5t4.5 -60.5v-30v-433zM395 350h-390v154h390v-154zM666 0h-188v464q0 57 31.5 103.5t94.5 74.5t156 28h40v-134h-70q-53 0 -68.5 -12.5t4.5 -60.5v-30v-433zM800 350h-390v154h390v-154z
M1220 -10q-88 0 -135 35.5t-59 110.5h-31l14 115h19q0 -36 13.5 -55.5t41 -26.5t69.5 -7q44 0 69.5 8.5t36.5 28.5t11 53q0 34 -11 53.5t-36.5 28.5t-69.5 9q-63 0 -93.5 -16t-30.5 -69h-19v116h29q11 63 56 101.5t134 38.5q74 0 125.5 -31.5t78.5 -90t27 -140.5
q0 -81 -27.5 -140t-81 -90.5t-130.5 -31.5zM1016 0h-176v670h188v-515l-12 -13v-142z" />
    <glyph glyph-name="f_f_h" unicode="ffh" horiz-adv-x="1463" 
d="M261 0h-188v464q0 57 31.5 103.5t94.5 74.5t156 28h40v-134h-70q-53 0 -68.5 -12.5t4.5 -60.5v-30v-433zM395 350h-390v154h390v-154zM666 0h-188v464q0 57 31.5 103.5t94.5 74.5t156 28h40v-134h-70q-53 0 -68.5 -12.5t4.5 -60.5v-30v-433zM800 350h-390v154h390v-154z
M1437 0h-188v254q0 53 -24 72.5t-89 19.5q-43 0 -66.5 -8t-32.5 -26.5t-9 -51.5h-23v91h33q8 43 30.5 80t64.5 60t106 23q67 0 111 -26t65.5 -70.5t21.5 -100.5v-317zM1028 0h-188v670h188v-670z" />
    <glyph glyph-name="f_f_j" unicode="ffj" horiz-adv-x="1058" 
d="M261 0h-188v464q0 57 31.5 103.5t94.5 74.5t156 28h40v-134h-70q-53 0 -68.5 -12.5t4.5 -60.5v-30v-433zM395 350h-390v154h390v-154zM666 0h-188v464q0 57 31.5 103.5t94.5 74.5t156 28h40v-134h-70q-53 0 -68.5 -12.5t4.5 -60.5v-30v-433zM800 350h-390v154h390v-154z
M802 -170h-18v138h19q19 0 28 8t9 28v500h188v-472q0 -79 -26.5 -123t-77 -61.5t-122.5 -17.5zM1028 550h-188v120h188v-120z" />
    <glyph glyph-name="f_f_k" unicode="ffk" horiz-adv-x="1440" 
d="M261 0h-188v464q0 57 31.5 103.5t94.5 74.5t156 28h40v-134h-70q-53 0 -68.5 -12.5t4.5 -60.5v-30v-433zM395 350h-390v154h390v-154zM666 0h-188v464q0 57 31.5 103.5t94.5 74.5t156 28h40v-134h-70q-53 0 -68.5 -12.5t4.5 -60.5v-30v-433zM800 350h-390v154h390v-154z
M1447 0h-222l-106 161h-178v168h176l111 175h222l-179 -245zM1028 0h-188v670h188v-670z" />
    <glyph glyph-name="f_h" unicode="fh" horiz-adv-x="1058" 
d="M261 0h-188v464q0 57 31.5 103.5t94.5 74.5t156 28h40v-134h-70q-53 0 -68.5 -12.5t4.5 -60.5v-30v-433zM395 350h-390v154h390v-154zM1032 0h-188v254q0 53 -24 72.5t-89 19.5q-43 0 -66.5 -8t-32.5 -26.5t-9 -51.5h-23v91h33q8 43 30.5 80t64.5 60t106 23q67 0 111 -26
t65.5 -70.5t21.5 -100.5v-317zM623 0h-188v670h188v-670z" />
    <glyph glyph-name="f_j" unicode="fj" horiz-adv-x="653" 
d="M261 0h-188v464q0 57 31.5 103.5t94.5 74.5t156 28h40v-134h-70q-53 0 -68.5 -12.5t4.5 -60.5v-30v-433zM395 350h-390v154h390v-154zM397 -170h-18v138h19q19 0 28 8t9 28v500h188v-472q0 -79 -26.5 -123t-77 -61.5t-122.5 -17.5zM623 550h-188v120h188v-120z" />
    <glyph glyph-name="f_k" unicode="fk" horiz-adv-x="1035" 
d="M261 0h-188v464q0 57 31.5 103.5t94.5 74.5t156 28h40v-134h-70q-53 0 -68.5 -12.5t4.5 -60.5v-30v-433zM395 350h-390v154h390v-154zM1042 0h-222l-106 161h-178v168h176l111 175h222l-179 -245zM623 0h-188v670h188v-670z" />
    <glyph glyph-name="f_t" unicode="ft" horiz-adv-x="783" 
d="M261 0h-188v464q0 57 31.5 103.5t94.5 74.5t156 28h40v-134h-70q-53 0 -68.5 -12.5t4.5 -60.5v-30v-433zM395 350h-390v154h390v-154zM768 0h-132q-94 0 -147.5 47t-53.5 145v399h188v-372q0 -30 11.5 -40t43.5 -10h90v-169zM768 350h-407v154h407v-154z" />
    <glyph glyph-name=".notdef" horiz-adv-x="756" 
d="M378 -5q-96 0 -166 39t-108.5 109t-38.5 162t38.5 162t108.5 109.5t166 39.5t166 -39.5t108.5 -109.5t38.5 -162t-38.5 -162t-108.5 -109t-166 -39zM378 158q-58 0 -98 27t-68 58l31 29q24 -24 43 -35t40.5 -14t51.5 -3q31 0 52.5 3t40.5 14t43 35l30 -29
q-27 -31 -67 -58t-99 -27zM302 327q-25 0 -40 13t-15 34t15 34t40 13q24 0 39 -13t15 -34t-15 -34t-39 -13zM378 79q76 0 123 19t69 68t22 139q0 91 -22 139.5t-69 67.5t-123 19q-75 0 -122.5 -19t-69.5 -67.5t-22 -139.5q0 -90 22 -139t69.5 -68t122.5 -19zM455 327
q-24 0 -39 13t-15 34t15 34t39 13q25 0 39.5 -13t14.5 -34t-14.5 -34t-39.5 -13z" />
    <glyph glyph-name=".null" horiz-adv-x="600" 
 />
    <glyph glyph-name="nonmarkingreturn" horiz-adv-x="333" 
 />
    <glyph glyph-name="CR" unicode="&#xd;" horiz-adv-x="600" 
 />
    <glyph glyph-name="space" unicode=" " horiz-adv-x="140" 
 />
    <glyph glyph-name="exclam" unicode="!" horiz-adv-x="352" 
d="M272 220h-192q0 20 -2.5 57.5t-6.5 83t-8 92t-6.5 85.5t-2.5 62v70h244v-70q0 -23 -2.5 -62t-6.5 -85.5t-8 -92t-6.5 -83t-2.5 -57.5zM283 0h-215v177h215v-177z" />
    <glyph glyph-name="quotedbl" unicode="&#x22;" horiz-adv-x="495" 
d="M436 350h-118l-38 158v162h195v-162zM177 350h-118l-39 158v162h195v-162z" />
    <glyph glyph-name="numbersign" unicode="#" horiz-adv-x="881" 
d="M251 0h-183l48 119h-96v168h163l28 70h-133v168h200l58 145h183l-58 -145h110l58 145h183l-58 -145h107v-168h-174l-28 -70h143v-168h-210l-48 -119h-183l48 119h-110zM390 361l-31 -77h121l31 77h-121z" />
    <glyph glyph-name="dollar" unicode="$" horiz-adv-x="684" 
d="M450 587h-175v183h175v-183zM450 -100h-175v181h175v-181zM355 -10q-102 0 -176 25.5t-114 79t-40 138.5v6h188v-21q0 -22 9.5 -34.5t39.5 -17.5t93 -5q57 0 84 3.5t34.5 12t7.5 23.5q0 18 -13.5 27t-54.5 14l-210 28q-62 9 -104 33.5t-63 64.5t-21 94q0 40 17 79
t55 70.5t100 50.5t153 19q107 0 176.5 -29.5t104 -84t34.5 -129.5v-6h-188v15q0 24 -10.5 38t-42 20t-94.5 6q-48 0 -73 -4.5t-34.5 -13.5t-9.5 -24q0 -10 4.5 -17.5t15 -11.5t28.5 -7l210 -31q82 -12 127 -41.5t63 -69.5t18 -83q0 -57 -31.5 -106.5t-100.5 -80t-182 -30.5z
" />
    <glyph glyph-name="percent" unicode="%" horiz-adv-x="823" 
d="M632 -11q-55 0 -96 19.5t-63 57t-22 90.5t22 90.5t63 57.5t96 20q56 0 96.5 -20t62.5 -57.5t22 -90.5t-22 -90.5t-62.5 -57t-96.5 -19.5zM191 347q-55 0 -96 19.5t-63 57t-22 90.5t22 90.5t63 57.5t96 20q56 0 96.5 -20t62.5 -57.5t22 -90.5t-22 -90.5t-62.5 -57
t-96.5 -19.5zM191 467q29 0 39.5 9t10.5 38t-10.5 39t-39.5 10t-39.5 -10t-10.5 -39t10.5 -38t39.5 -9zM632 109q29 0 39.5 9t10.5 38t-10.5 39t-39.5 10t-39.5 -10t-10.5 -39t10.5 -38t39.5 -9zM218 0h-181l569 670h181z" />
    <glyph glyph-name="ampersand" unicode="&#x26;" horiz-adv-x="773" 
d="M340 -10q-154 0 -237 47t-83 151q0 77 47 116.5t121 44.5v13q-69 6 -103 46.5t-34 95.5q0 95 73 137.5t205 42.5h105v-171h-132q-32 0 -47.5 -8t-15.5 -40q0 -31 15 -38.5t43 -7.5h456v-154h-481q-28 0 -44.5 -9.5t-16.5 -42.5q0 -20 10.5 -31.5t40 -16t85.5 -4.5
q55 0 81 4.5t34.5 21t8.5 51.5v266h185v-256q0 -78 -28 -136t-96.5 -90t-191.5 -32z" />
    <glyph glyph-name="quotesingle" unicode="'" horiz-adv-x="235" 
d="M177 350h-118l-39 158v162h195v-162z" />
    <glyph glyph-name="parenleft" unicode="(" horiz-adv-x="349" 
d="M339 15l-95 -87q-39 34 -79 76t-72.5 92.5t-52.5 110t-20 128.5t20 128.5t52.5 110t72.5 92.5t79 76l95 -87q-36 -50 -58 -88t-33.5 -72t-15.5 -72t-4 -88t4 -88t15.5 -72t33.5 -72t58 -88z" />
    <glyph glyph-name="parenright" unicode=")" horiz-adv-x="393" 
d="M40 655l95 87q39 -34 79 -76t72.5 -92.5t52.5 -110t20 -128.5t-20 -128.5t-52.5 -110t-72.5 -92.5t-79 -76l-95 87q36 50 58 88t33.5 72t15.5 72t4 88t-4 88t-15.5 72t-33.5 72t-58 88z" />
    <glyph glyph-name="asterisk" unicode="*" horiz-adv-x="410" 
d="M199 394l-50 -80l-107 77l61 72l-3 10l-90 23l40 125l89 -38l8 7l-8 94h132l-8 -94l8 -7l90 37l39 -125l-92 -22l-4 -10l62 -72l-108 -78l-47 81h-12z" />
    <glyph glyph-name="plus" unicode="+" horiz-adv-x="534" 
d="M347 98h-160v474h160v-474zM504 258h-474v154h474v-154z" />
    <glyph glyph-name="comma" unicode="," horiz-adv-x="304" 
d="M274 0h-244v192h244v-192zM108 -166h-69v116h63q18 0 26.5 7t8.5 29v37h137v-36q0 -77 -43.5 -115t-122.5 -38z" />
    <glyph glyph-name="hyphen" unicode="-" horiz-adv-x="481" 
d="M451 217h-421v160h421v-160z" />
    <glyph glyph-name="period" unicode="." horiz-adv-x="304" 
d="M274 0h-244v192h244v-192z" />
    <glyph glyph-name="slash" unicode="/" horiz-adv-x="514" 
d="M181 -20h-201l360 710h201z" />
    <glyph glyph-name="zero" unicode="0" horiz-adv-x="733" 
d="M367 -10q-114 0 -191 43.5t-116.5 121t-39.5 180.5t39.5 180.5t116.5 121t191 43.5t191 -43.5t116 -121t39 -180.5t-39 -180.5t-116 -121t-191 -43.5zM367 173q57 0 88.5 14.5t43.5 50t12 97.5t-12 97.5t-43.5 50t-88.5 14.5t-88.5 -14.5t-44 -50t-12.5 -97.5t12.5 -97.5
t44 -50t88.5 -14.5z" />
    <glyph glyph-name="one" unicode="1" horiz-adv-x="407" 
d="M377 0h-188v460h-179v127h25q55 0 97 16t70 67h175v-670z" />
    <glyph glyph-name="two" unicode="2" horiz-adv-x="660" 
d="M638 0h-625v118q0 57 19 97.5t62.5 69.5t115.5 52l182 58q22 7 35 14.5t19 18t6 25.5q0 17 -7.5 29.5t-32 19.5t-75.5 7q-56 0 -85.5 -9.5t-40.5 -29t-11 -50.5v-13h-184v15q0 68 33 126.5t105 95t190 36.5q106 0 171 -29t95 -80.5t30 -120.5q0 -63 -26 -105t-72 -68.5
t-106 -41.5l-150 -37q-22 -5 -39 -10.5t-26.5 -15t-9.5 -26.5l188 23h239v-169z" />
    <glyph glyph-name="three" unicode="3" horiz-adv-x="688" 
d="M352 -10q-113 0 -186.5 28t-109.5 82.5t-36 133.5v16h200v-18q0 -25 6 -38.5t32 -18.5t85 -5q57 0 88.5 4t43.5 15.5t12 31.5q0 25 -15 34.5t-48 9.5h-199v154h185q28 0 38.5 9.5t10.5 28.5q0 16 -8.5 25.5t-34 13.5t-75.5 4q-51 0 -77 -5t-35 -18.5t-9 -38.5v-3h-200v1
q0 75 37.5 129.5t112.5 84.5t189 30q140 0 213.5 -44.5t73.5 -135.5q0 -58 -34.5 -94t-101.5 -44v-13q75 -8 121.5 -45.5t46.5 -114.5q0 -99 -85.5 -149t-240.5 -50z" />
    <glyph glyph-name="four" unicode="4" horiz-adv-x="721" 
d="M711 121h-701v127l393 422h163l-122 -215h-24l-148 -152v-13h439v-169zM621 0h-188v670h188v-670z" />
    <glyph glyph-name="five" unicode="5" horiz-adv-x="725" 
d="M365 -10q-111 0 -185.5 23t-112 72.5t-37.5 128.5v6h194v-6q0 -19 10.5 -31t41.5 -17t92 -5q55 0 82 7.5t36 24t9 43.5q0 29 -9 45.5t-36 24t-82 7.5q-65 0 -99.5 -8t-44.5 -34h-42l-3 93h53q8 20 32.5 42.5t70 38t114.5 15.5q87 0 141 -26.5t79.5 -76t25.5 -119.5
q0 -74 -33.5 -130t-106.5 -87t-190 -31zM73 670h582v-169h-415l-30 -230h-177z" />
    <glyph glyph-name="six" unicode="6" horiz-adv-x="718" 
d="M380 -10q-129 0 -209 37t-116.5 112.5t-36.5 190.5q0 93 26 159.5t72.5 108.5t109 62t135.5 20q99 0 170.5 -29t109.5 -80.5t38 -120.5v-9h-210v9q0 23 -11 33.5t-35 13.5t-62 3q-50 0 -81 -8.5t-45.5 -36.5t-14.5 -87v-36h13q15 22 41.5 40.5t67.5 30t97 11.5
q83 0 140 -21t86.5 -65.5t29.5 -114.5q0 -102 -79.5 -162.5t-235.5 -60.5zM369 171q54 0 81.5 6t37 18.5t9.5 31.5q0 22 -9.5 35t-37 18.5t-81.5 5.5q-60 0 -89.5 -5.5t-39 -18.5t-9.5 -35q0 -19 10 -31.5t40 -18.5t88 -6z" />
    <glyph glyph-name="seven" unicode="7" horiz-adv-x="611" 
d="M336 0h-218q0 88 19.5 156t52.5 120t73 91t81 68.5t76 52.5v13h-410v169h601v-151q-67 -66 -118.5 -122t-86.5 -113t-52.5 -125.5t-17.5 -158.5z" />
    <glyph glyph-name="eight" unicode="8" horiz-adv-x="694" 
d="M348 -10q-101 0 -176 20.5t-116 63.5t-41 111q0 55 23 88.5t58.5 51t73.5 24.5v13q-63 12 -98 46.5t-35 94.5q0 83 79 130t231 47q155 0 233.5 -47t78.5 -130q0 -60 -35 -94.5t-100 -46.5v-13q43 -7 78 -24.5t56 -51t21 -88.5q0 -68 -41.5 -111t-115.5 -63.5t-174 -20.5z
M347 170q58 0 88 5.5t41.5 18t11.5 32.5q0 21 -10.5 32.5t-41 16.5t-89.5 5t-89.5 -5t-41 -16.5t-10.5 -32.5q0 -20 11.5 -32.5t42 -18t87.5 -5.5zM347 407q52 0 79 5t36.5 15t9.5 26q0 18 -9.5 28.5t-36.5 14.5t-79 4q-50 0 -76.5 -4t-36 -14.5t-9.5 -28.5q0 -16 9.5 -26
t36 -15t76.5 -5z" />
    <glyph glyph-name="nine" unicode="9" horiz-adv-x="718" 
d="M359 -10q-99 0 -170 29t-109.5 80.5t-38.5 120.5v9h210v-9q0 -23 11 -33.5t35 -13.5t62 -3q48 0 77.5 8.5t43 37t13.5 86.5v36h-13q-15 -22 -41.5 -40.5t-67 -30t-97.5 -11.5q-83 0 -140 21t-86.5 65.5t-29.5 114.5q0 102 79.5 162.5t235.5 60.5q130 0 209.5 -37
t116 -112t36.5 -191q0 -93 -25.5 -159.5t-71 -108.5t-106.5 -62t-133 -20zM344 384q60 0 89.5 5.5t39 18.5t9.5 35q0 20 -10 32t-39.5 18t-88.5 6q-53 0 -81 -6t-37.5 -18t-9.5 -32q0 -22 9.5 -35t37.5 -18.5t81 -5.5z" />
    <glyph glyph-name="colon" unicode=":" horiz-adv-x="304" 
d="M274 313h-244v192h244v-192zM274 0h-244v192h244v-192z" />
    <glyph glyph-name="semicolon" unicode=";" horiz-adv-x="304" 
d="M274 0h-244v192h244v-192zM108 -166h-69v116h63q18 0 26.5 7t8.5 29v37h137v-36q0 -77 -43.5 -115t-122.5 -38zM274 313h-244v192h244v-192z" />
    <glyph glyph-name="less" unicode="&#x3c;" horiz-adv-x="534" 
d="M26 448l474 124v-173l-305 -58v-12l305 -58v-173l-474 124v226z" />
    <glyph glyph-name="equal" unicode="=" horiz-adv-x="534" 
d="M505 373h-475v154h475v-154zM504 141h-474v154h474v-154z" />
    <glyph glyph-name="greater" unicode="&#x3e;" horiz-adv-x="534" 
d="M504 222l-474 -124v173l305 58v12l-305 58v173l474 -124v-226z" />
    <glyph glyph-name="question" unicode="?" horiz-adv-x="652" 
d="M381 223h-188v37q0 42 18.5 69t47.5 44t60 28l70 26q29 11 42 20t13 25q0 11 -7 19t-31 13t-76 5q-80 0 -107.5 -17t-27.5 -52v-48h-185v30q0 68 33 127t106.5 95t194.5 36q104 0 167.5 -27t92 -72.5t28.5 -101.5q0 -55 -21 -89t-52 -53.5t-63 -31.5l-75 -28
q-27 -10 -33.5 -21.5t-6.5 -27.5v-5zM395 0h-215v177h215v-177z" />
    <glyph glyph-name="at" unicode="@" horiz-adv-x="921" 
d="M407 -149q-121 0 -207.5 46t-133 133t-46.5 211q0 127 56 220.5t160 145.5t247 52q136 0 229 -45t141 -126t48 -189q0 -81 -26.5 -139t-74.5 -88.5t-112 -30.5q-92 0 -140.5 39t-48.5 99v156l10 11v94h164v-230q0 -16 7 -23.5t22 -7.5q17 0 26 7.5t12.5 29.5t3.5 67
q0 86 -25.5 134t-85 68t-161.5 20q-84 0 -139.5 -12.5t-87.5 -42.5t-45.5 -81t-13.5 -128q0 -97 22 -151.5t75 -76.5t145 -22q45 0 85 6t68 13l29 -124q-46 -16 -92 -25.5t-111 -9.5zM384 41q-40 0 -75 19.5t-56.5 64t-21.5 120.5q0 106 45.5 154.5t110.5 48.5q48 0 78 -25
t34 -68h27l-12 -91h-15q0 21 -4 34t-14 18.5t-29 5.5q-28 0 -38 -16.5t-10 -60.5t10 -61t38 -17q19 0 29 5.5t14 18.5t4 35h15v-93h-18q-4 -21 -16 -42.5t-35.5 -35.5t-60.5 -14z" />
    <glyph glyph-name="A" unicode="A" horiz-adv-x="828" 
d="M201 0h-211l289 670h269l290 -670h-216l-159 387l-44 113h-13l-43 -113zM655 124h-494v169h494v-169z" />
    <glyph glyph-name="B" unicode="B" horiz-adv-x="714" 
d="M479 0h-449v670h426q73 0 121 -18.5t72 -54.5t24 -89q0 -64 -37.5 -106t-129.5 -46v-10q101 -4 149.5 -47t48.5 -113q0 -56 -23 -98t-72.5 -65t-129.5 -23zM217 262v-93h238q34 0 46.5 9.5t12.5 37.5t-12 37t-47 9h-238zM217 501v-85h219q29 0 39 9.5t10 32.5t-12.5 33
t-41.5 10h-214z" />
    <glyph glyph-name="C" unicode="C" horiz-adv-x="770" 
d="M390 -10q-116 0 -199 42.5t-127 120t-44 182.5t44 182.5t127 120t199 42.5q113 0 193.5 -34t123.5 -98t43 -154v-17h-210v17q0 57 -32 81.5t-115 24.5q-68 0 -105.5 -13.5t-52.5 -49t-15 -102.5q0 -66 15 -102t52.5 -49.5t105.5 -13.5q83 0 115 24.5t32 81.5v17h210v-17
q0 -89 -43 -153.5t-123.5 -98.5t-193.5 -34z" />
    <glyph glyph-name="D" unicode="D" horiz-adv-x="761" 
d="M380 0h-292v169h292q60 0 95 10t50 45.5t15 110.5q0 76 -15 111t-50 45t-95 10h-292v169h292q111 0 192 -39.5t125 -114.5t44 -181t-44 -181t-125 -114.5t-192 -39.5zM229 0h-188v670h188v-670z" />
    <glyph glyph-name="E" unicode="E" horiz-adv-x="648" 
d="M218 0h-188v670h188v-670zM625 0h-544v169h544v-169zM610 253h-529v168h529v-168zM625 501h-544v169h544v-169z" />
    <glyph glyph-name="F" unicode="F" horiz-adv-x="648" 
d="M218 0h-188v670h188v-670zM614 233h-533v168h533v-168zM629 501h-548v169h548v-169z" />
    <glyph glyph-name="G" unicode="G" horiz-adv-x="797" 
d="M354 -10q-105 0 -180 42.5t-114.5 120t-39.5 182.5t46 182.5t133 120t209 42.5q114 0 195 -32t124 -91.5t43 -142.5v-7h-210v7q0 47 -34 66.5t-123 19.5q-72 0 -111.5 -13.5t-55.5 -49t-16 -102.5q0 -66 15 -102t52.5 -49.5t105.5 -13.5q81 0 122 5.5t54.5 24t13.5 57.5
v37l188 4v-14l-163 -141h-22q-9 -39 -33.5 -74t-72 -57t-126.5 -22zM771 0h-175v191l-13 21v145h188v-357zM771 228h-396v138h396v-138z" />
    <glyph glyph-name="H" unicode="H" horiz-adv-x="748" 
d="M718 0h-188v670h188v-670zM218 0h-188v670h188v-670zM627 252h-548v169h548v-169z" />
    <glyph glyph-name="I" unicode="I" 
d="M218 0h-188v670h188v-670z" />
    <glyph glyph-name="J" unicode="J" horiz-adv-x="664" 
d="M323 -10q-114 0 -183 34t-99.5 100t-30.5 163v26h200v-24q0 -45 6 -70.5t29.5 -36t77.5 -10.5t78 9.5t30.5 33t6.5 64.5v391h200v-393q0 -93 -31 -157t-100 -97t-184 -33z" />
    <glyph glyph-name="K" unicode="K" horiz-adv-x="731" 
d="M736 0h-225l-156 238h-192v183h190l163 249h225l-232 -329zM218 0h-188v670h188v-670z" />
    <glyph glyph-name="L" unicode="L" horiz-adv-x="625" 
d="M218 0h-188v670h188v-670zM605 0h-523v169h523v-169z" />
    <glyph glyph-name="M" unicode="M" horiz-adv-x="952" 
d="M218 0h-188v670h255l123 -278l66 -173h13l63 173l117 278h255v-670h-188v277l7 112h-13l-38 -112l-100 -237h-228l-100 237l-38 112h-13l7 -112v-277z" />
    <glyph glyph-name="N" unicode="N" horiz-adv-x="736" 
d="M218 0h-188v670h200l186 -251l98 -154h13l-9 146v259h188v-670h-200l-198 258l-85 132h-13l8 -128v-262z" />
    <glyph glyph-name="O" unicode="O" horiz-adv-x="786" 
d="M391 -10q-116 0 -199.5 42.5t-127.5 120t-44 182.5t44 182.5t127.5 120t199.5 42.5q120 0 203.5 -42.5t127.5 -120t44 -182.5t-44 -182.5t-127.5 -120t-203.5 -42.5zM391 170q68 0 106 13.5t53.5 49.5t15.5 102q0 67 -15.5 102.5t-53.5 49t-106 13.5t-105 -13.5
t-51.5 -49t-14.5 -102.5q0 -66 14.5 -102t51.5 -49.5t105 -13.5z" />
    <glyph glyph-name="P" unicode="P" horiz-adv-x="670" 
d="M401 169h-308v169h287q50 0 71.5 15t21.5 67q0 51 -21.5 66t-71.5 15h-287v169h308q80 0 138 -29.5t89.5 -85t31.5 -135.5q0 -79 -31.5 -135.5t-89.5 -86t-138 -29.5zM218 0h-188v670h188v-670z" />
    <glyph glyph-name="Q" unicode="Q" horiz-adv-x="786" 
d="M391 -10q-116 0 -199.5 42.5t-127.5 120t-44 182.5t44 182.5t127.5 120t199.5 42.5q120 0 203.5 -42.5t127.5 -120t44 -182.5t-44 -182.5t-127.5 -120t-203.5 -42.5zM702 -141h-247l-231 282h217zM391 170q68 0 106 13.5t53.5 49.5t15.5 102q0 67 -15.5 102.5t-53.5 49
t-106 13.5t-105 -13.5t-51.5 -49t-14.5 -102.5q0 -66 14.5 -102t51.5 -49.5t105 -13.5z" />
    <glyph glyph-name="R" unicode="R" horiz-adv-x="709" 
d="M218 0h-188v670h391q89 0 149 -24t90.5 -69.5t30.5 -111.5q0 -53 -18.5 -91.5t-58.5 -62t-104 -31.5v-10q52 -13 74.5 -38.5t41.5 -63.5l83 -168h-217l-80 164q-12 25 -25 39t-34 19.5t-58 5.5h-77v-228zM218 501v-133h201q41 0 58 12t17 55q0 40 -17 53t-58 13h-201z
" />
    <glyph glyph-name="S" unicode="S" horiz-adv-x="684" 
d="M355 -10q-102 0 -176 25.5t-114 79t-40 138.5v6h188v-21q0 -22 9.5 -34.5t39.5 -17.5t93 -5q57 0 84 3.5t34.5 12t7.5 23.5q0 18 -13.5 27t-54.5 14l-210 28q-62 9 -104 33.5t-63 64.5t-21 94q0 40 17 79t55 70.5t100 50.5t153 19q107 0 176.5 -29.5t104 -84t34.5 -129.5
v-6h-188v15q0 24 -10.5 38t-42 20t-94.5 6q-48 0 -73 -4.5t-34.5 -13.5t-9.5 -24q0 -10 4.5 -17.5t15 -11.5t28.5 -7l210 -31q82 -12 127 -41.5t63 -69.5t18 -83q0 -57 -31.5 -106.5t-100.5 -80t-182 -30.5z" />
    <glyph glyph-name="T" unicode="T" horiz-adv-x="691" 
d="M440 0h-188v670h188v-670zM676 501h-661v169h661v-169z" />
    <glyph glyph-name="U" unicode="U" horiz-adv-x="736" 
d="M368 -10q-117 0 -192.5 35.5t-112.5 101t-37 154.5v389h188v-374q0 -48 12 -75t45.5 -38t96.5 -11q64 0 97 11t45 38t12 75v374h188v-389q0 -89 -37 -154.5t-112.5 -101t-192.5 -35.5z" />
    <glyph glyph-name="V" unicode="V" horiz-adv-x="788" 
d="M529 0h-270l-269 670h227l173 -480h13l169 480h226z" />
    <glyph glyph-name="W" unicode="W" horiz-adv-x="1123" 
d="M428 0h-279l-140 670h210l56 -341l18 -151h13l27 151l90 341h283l82 -341l24 -151h13l20 151l63 341h206l-153 -670h-279l-70 287l-44 210h-13l-47 -210z" />
    <glyph glyph-name="X" unicode="X" horiz-adv-x="800" 
d="M236 0h-246l253 329v13l-253 328h246l162 -217h13l153 217h246l-252 -332v-13l252 -325h-246l-161 218h-13z" />
    <glyph glyph-name="Y" unicode="Y" horiz-adv-x="766" 
d="M473 211h-186l-302 459h233l101 -159l57 -94h13l57 94l101 159h234zM474 0h-188v318h188v-318z" />
    <glyph glyph-name="Z" unicode="Z" horiz-adv-x="697" 
d="M672 0h-647v169l357 319v13h-351v169h635v-169l-373 -319v-13h379v-169z" />
    <glyph glyph-name="bracketleft" unicode="[" horiz-adv-x="327" 
d="M204 -60h-174v790h174v-790zM317 -60h-287v154h287v-154zM317 576h-287v154h287v-154z" />
    <glyph glyph-name="backslash" unicode="\" horiz-adv-x="521" 
d="M541 -20h-201l-360 710h201z" />
    <glyph glyph-name="bracketright" unicode="]" horiz-adv-x="352" 
d="M128 730h174v-790h-174v790zM15 730h287v-154h-287v154zM15 94h287v-154h-287v154z" />
    <glyph glyph-name="asciicircum" unicode="^" horiz-adv-x="527" 
d="M205 280h-175l123 390h222l122 -390h-175l-52 220h-13z" />
    <glyph glyph-name="underscore" unicode="_" horiz-adv-x="380" 
d="M370 -133h-360v133h360v-133z" />
    <glyph glyph-name="a" unicode="a" horiz-adv-x="595" 
d="M569 0h-176v112h-10v179q0 38 -19.5 48.5t-69.5 10.5q-46 0 -63.5 -11t-17.5 -43v-4h-188v2q0 67 35 116.5t99 76.5t149 27q88 0 146 -27.5t86.5 -78t28.5 -121.5v-287zM193 -10q-85 0 -131.5 37t-46.5 101q0 36 17 64t53 45.5t93 23.5l215 21v-104l-165 -19
q-13 -1 -18.5 -6t-5.5 -13q0 -12 11.5 -15.5t33.5 -3.5q50 0 79 5.5t42 20.5t13 43l14 4v-88h-14q-14 -53 -61 -84.5t-129 -31.5z" />
    <glyph glyph-name="b" unicode="b" horiz-adv-x="669" 
d="M410 -10q-88 0 -135 35.5t-59 110.5h-31l14 115h19q0 -36 13.5 -55.5t41 -26.5t69.5 -7q44 0 69.5 8.5t36.5 28.5t11 53q0 34 -11 53.5t-36.5 28.5t-69.5 9q-63 0 -93.5 -16t-30.5 -69h-19v116h29q11 63 56 101.5t134 38.5q74 0 125.5 -31.5t78.5 -90t27 -140.5
q0 -81 -27.5 -140t-81 -90.5t-130.5 -31.5zM206 0h-176v670h188v-515l-12 -13v-142z" />
    <glyph glyph-name="c" unicode="c" horiz-adv-x="615" 
d="M313 -10q-89 0 -155 31.5t-102 90.5t-36 140q0 82 36 140.5t102 90t155 31.5q86 0 149.5 -27.5t98 -77.5t34.5 -118v-16h-187v8q0 39 -26.5 51t-72.5 12q-52 0 -77 -17.5t-25 -76.5q0 -58 25 -75.5t77 -17.5q46 0 72.5 11.5t26.5 50.5v9h187v-17q0 -67 -34.5 -117
t-98 -78t-149.5 -28z" />
    <glyph glyph-name="d" unicode="d" horiz-adv-x="669" 
d="M259 -10q-77 0 -130.5 31.5t-81 90.5t-27.5 140q0 82 27 140.5t78.5 90t125.5 31.5q89 0 134 -38.5t56 -101.5h29v-116h-19q0 53 -30.5 69t-93.5 16q-43 0 -69 -9t-37 -28.5t-11 -53.5q0 -33 11 -53t37 -28.5t69 -8.5q42 0 69.5 7t41 26.5t13.5 55.5h19l14 -115h-31
q-12 -75 -58.5 -110.5t-135.5 -35.5zM639 0h-176v142l-12 13v515h188v-670z" />
    <glyph glyph-name="e" unicode="e" horiz-adv-x="612" 
d="M311 -10q-85 0 -151 26t-103 84t-37 152q0 82 37 140.5t101.5 90t148.5 31.5q87 0 151 -28.5t99 -84t35 -136.5q0 -13 -0.5 -23.5t-2.5 -24.5h-446v95h310l-41 -59v17.5v17.5q0 46 -23.5 64t-85.5 18q-64 0 -86.5 -20t-22.5 -72v-48q0 -53 23 -72t87 -19q57 0 76.5 10.5
t19.5 32.5v11h188v-12q0 -56 -34 -99t-96 -67.5t-147 -24.5z" />
    <glyph glyph-name="f" unicode="f" horiz-adv-x="405" 
d="M261 0h-188v464q0 57 31.5 103.5t94.5 74.5t156 28h40v-134h-70q-53 0 -68.5 -12.5t4.5 -60.5v-30v-433zM395 350h-390v154h390v-154z" />
    <glyph glyph-name="g" unicode="g" horiz-adv-x="659" 
d="M328 -180q-88 0 -150 24t-95 70t-33 112h188q0 -20 5.5 -31.5t27 -15.5t70.5 -4q41 0 62.5 6.5t29.5 27.5t8 63v308h12v124h176v-419q0 -90 -35 -148.5t-102 -87.5t-164 -29zM254 56q-75 0 -127 27.5t-79.5 79t-27.5 123.5q0 71 28.5 122t82.5 78.5t128 27.5
q77 0 125.5 -31.5t58.5 -96.5h31l-14 -99h-19q0 27 -12.5 41t-38.5 19t-68 5q-44 0 -68.5 -6.5t-34 -20.5t-9.5 -39t9.5 -40t34 -22t68.5 -7q63 0 91 11.5t28 51.5h19v-102h-29q-10 -55 -52 -88.5t-125 -33.5z" />
    <glyph glyph-name="h" unicode="h" horiz-adv-x="653" 
d="M627 0h-188v254q0 53 -24 72.5t-89 19.5q-43 0 -66.5 -8t-32.5 -26.5t-9 -51.5h-23v91h33q8 43 30.5 80t64.5 60t106 23q67 0 111 -26t65.5 -70.5t21.5 -100.5v-317zM218 0h-188v670h188v-670z" />
    <glyph glyph-name="i" unicode="i" 
d="M218 0h-188v504h188v-504zM218 550h-188v120h188v-120z" />
    <glyph glyph-name="j" unicode="j" 
d="M-8 -170h-18v138h19q19 0 28 8t9 28v500h188v-472q0 -79 -26.5 -123t-77 -61.5t-122.5 -17.5zM218 550h-188v120h188v-120z" />
    <glyph glyph-name="k" unicode="k" horiz-adv-x="630" 
d="M637 0h-222l-106 161h-178v168h176l111 175h222l-179 -245zM218 0h-188v670h188v-670z" />
    <glyph glyph-name="l" unicode="l" 
d="M218 0h-188v670h188v-670z" />
    <glyph glyph-name="m" unicode="m" horiz-adv-x="1002" 
d="M976 0h-188v254q0 53 -19.5 72.5t-78.5 19.5q-58 0 -75.5 -18.5t-17.5 -67.5h-19l-16 91h34q6 42 25.5 79t59.5 60.5t105 23.5t107 -25t62.5 -68t20.5 -98v-323zM218 0h-188v504h176v-155l12 -5v-344zM597 0h-188v254q0 53 -19.5 72.5t-78.5 19.5q-58 0 -75.5 -18.5
t-17.5 -67.5h-19l-16 91h33q6 42 25 79t57.5 60.5t101.5 23.5q66 0 107 -26t60.5 -69.5t19.5 -95.5h10v-323z" />
    <glyph glyph-name="n" unicode="n" horiz-adv-x="643" 
d="M617 0h-188v254q0 53 -23 72.5t-85 19.5t-82.5 -18.5t-20.5 -67.5h-19l-16 91h33q6 42 27.5 79t64 60.5t109.5 23.5q68 0 112.5 -25t66 -68t21.5 -98v-323zM218 0h-188v504h176v-155l12 -5v-344z" />
    <glyph glyph-name="o" unicode="o" horiz-adv-x="618" 
d="M309 -10q-87 0 -153.5 31.5t-103.5 90.5t-37 140q0 82 37 140.5t103.5 90t153.5 31.5q88 0 154 -31.5t103 -90t37 -140.5q0 -81 -37 -140t-103 -90.5t-154 -31.5zM309 156q64 0 86 20.5t22 75.5t-22 76t-86 21t-86 -21t-22 -76t22 -75.5t86 -20.5z" />
    <glyph glyph-name="p" unicode="p" horiz-adv-x="669" 
d="M418 -10q-89 0 -134 38.5t-56 101.5h-29v116h19q0 -35 13.5 -53.5t41 -25t69.5 -6.5q44 0 69.5 9t36.5 29t11 53q0 34 -11 53.5t-36.5 28t-69.5 8.5q-63 0 -93.5 -17t-30.5 -72h-19l-14 115h31q12 75 59 110.5t135 35.5q77 0 130.5 -31.5t81 -90t27.5 -140.5t-27 -140.5
t-78.5 -90t-125.5 -31.5zM218 -170h-188v674h176v-142l12 -13v-519z" />
    <glyph glyph-name="q" unicode="q" horiz-adv-x="669" 
d="M251 -10q-74 0 -125.5 31.5t-78.5 90t-27 140.5t27.5 140.5t81 90t130.5 31.5q89 0 135.5 -35.5t58.5 -110.5h31l-14 -115h-19q0 55 -30.5 72t-93.5 17q-43 0 -69 -8.5t-37 -28t-11 -53.5q0 -33 11 -53t37 -29t69 -9q42 0 69.5 6.5t41 25t13.5 53.5h19v-116h-29
q-11 -63 -56 -101.5t-134 -38.5zM639 -170h-188v519l12 13v142h176v-674z" />
    <glyph glyph-name="r" unicode="r" horiz-adv-x="547" 
d="M218 0h-188v504h176v-144l12 -5v-355zM218 301h-35v71h33q7 42 27 74t54.5 50t84.5 18q56 0 90 -22.5t49.5 -61.5t15.5 -90v-100h-188v59q0 32 -14 44.5t-51 12.5q-38 0 -52 -12.5t-14 -42.5z" />
    <glyph glyph-name="s" unicode="s" horiz-adv-x="577" 
d="M301 -10q-133 0 -203 49t-70 136v4h188v-10q0 -21 17.5 -26t68.5 -5q49 0 62 5.5t13 18.5q0 12 -10 16.5t-45 8.5l-146 16q-78 8 -119 44.5t-41 100.5q0 45 25.5 82.5t83 60.5t151.5 23q88 0 147.5 -21t90 -62.5t30.5 -103.5v-4h-188v6q0 13 -5.5 21.5t-24 12.5t-56.5 4
q-46 0 -57.5 -6.5t-11.5 -20.5q0 -10 11.5 -16t55.5 -11l100 -11q110 -12 152 -49t42 -101q0 -47 -30.5 -83.5t-88.5 -57.5t-142 -21z" />
    <glyph glyph-name="t" unicode="t" horiz-adv-x="422" 
d="M407 0h-132q-94 0 -147.5 47t-53.5 145v399h188v-372q0 -30 11.5 -40t43.5 -10h90v-169zM407 350h-407v154h407v-154z" />
    <glyph glyph-name="u" unicode="u" horiz-adv-x="653" 
d="M237 -10q-70 0 -116 25t-68.5 68t-22.5 98v323h188v-254q0 -52 24.5 -72t88.5 -20q65 0 86.5 18.5t21.5 67.5h19l16 -91h-33q-5 -42 -27 -79t-65 -60.5t-112 -23.5zM627 0h-176v155l-12 5v344h188v-504z" />
    <glyph glyph-name="v" unicode="v" horiz-adv-x="672" 
d="M451 0h-232l-224 504h210l126 -321h13l127 321h206z" />
    <glyph glyph-name="w" unicode="w" horiz-adv-x="939" 
d="M357 0h-235l-127 504h195l36 -182l19 -180h13l42 200l50 162h242l50 -162l42 -200h13l20 180l35 182h192l-133 -504h-235l-65 202l-37 151h-13l-38 -151z" />
    <glyph glyph-name="x" unicode="x" horiz-adv-x="649" 
d="M217 0h-227l188 244v10l-188 250h230l103 -152h10l99 152h227l-188 -247v-10l188 -247h-230l-103 148h-10z" />
    <glyph glyph-name="y" unicode="y" horiz-adv-x="648" 
d="M141 -170h-91v170h146q23 0 35 6t18 21l14 34l-18 -84l-255 527h214l87 -198l36 -116h13l33 118l75 196h210l-239 -524q-27 -59 -63.5 -92t-88.5 -45.5t-126 -12.5z" />
    <glyph glyph-name="z" unicode="z" horiz-adv-x="578" 
d="M563 0h-548v160l182 122l105 53v13l-105 -8h-167v164h518v-160l-198 -127l-98 -50v-13l98 10h213v-164z" />
    <glyph glyph-name="braceleft" unicode="{" horiz-adv-x="379" 
d="M359 -60h-30q-111 0 -165 54t-54 140v60q0 29 -13.5 41t-48.5 12h-28v176h28q35 0 48.5 12t13.5 41v60q0 86 54 140t165 54h30v-183h-35q-22 0 -31.5 -9.5t-9.5 -29.5v-47q0 -67 -35.5 -93.5t-91.5 -26.5v-12q56 0 91.5 -26.5t35.5 -93.5v-47q0 -20 9.5 -29.5t31.5 -9.5
h35v-183z" />
    <glyph glyph-name="bar" unicode="|" horiz-adv-x="233" 
d="M203 -100h-173v870h173v-870z" />
    <glyph glyph-name="braceright" unicode="}" horiz-adv-x="384" 
d="M25 730h30q111 0 165 -54t54 -140v-60q0 -29 13.5 -41t48.5 -12h28v-176h-28q-35 0 -48.5 -12t-13.5 -41v-60q0 -86 -54 -140t-165 -54h-30v183h35q22 0 31.5 9.5t9.5 29.5v47q0 67 35.5 93.5t91.5 26.5v12q-56 0 -91.5 26.5t-35.5 93.5v47q0 20 -9.5 29.5t-31.5 9.5h-35
v183z" />
    <glyph glyph-name="asciitilde" unicode="~" horiz-adv-x="582" 
d="M187 237h-157v46q0 22 4 47.5t16.5 48.5t39.5 37.5t73 14.5q20 0 39 -3t36 -8l85 -21q20 -4 34 -7t22 -3q9 0 13 4.5t4 17.5v9h156v-54q0 -38 -10.5 -69t-36 -48.5t-72.5 -17.5q-29 0 -55 5t-55 12l-82 19q-8 2 -17 4t-15 2q-16 0 -19 -8.5t-3 -19.5v-8z" />
    <glyph glyph-name="nbspace" unicode="&#xa0;" horiz-adv-x="140" 
 />
    <glyph glyph-name="exclamdown" unicode="&#xa1;" horiz-adv-x="304" 
d="M56 280h192q0 -20 2.5 -57.5t6.5 -83t8 -92t6.5 -85.5t2.5 -62v-70h-244v70q0 23 2.5 62t6.5 85.5t8 92t6.5 83t2.5 57.5zM45 500h215v-177h-215v177z" />
    <glyph glyph-name="cent" unicode="&#xa2;" horiz-adv-x="615" 
d="M405 422h-175v178h175v-178zM405 -100h-175v183h175v-183zM313 -10q-89 0 -155 31.5t-102 90.5t-36 140q0 82 36 140.5t102 90t155 31.5q86 0 149.5 -27.5t98 -77.5t34.5 -118v-16h-187v8q0 39 -26.5 51t-72.5 12q-52 0 -77 -17.5t-25 -76.5q0 -58 25 -75.5t77 -17.5
q46 0 72.5 11.5t26.5 50.5v9h187v-17q0 -67 -34.5 -117t-98 -78t-149.5 -28z" />
    <glyph glyph-name="sterling" unicode="&#xa3;" horiz-adv-x="711" 
d="M263 107h-210v62h42q24 0 38 5t20.5 14t6.5 22t-5 29t-13 35l-18 40q-19 42 -32.5 81.5t-13.5 79.5q0 60 34.5 106t103 72.5t168.5 26.5q112 0 177 -32.5t92.5 -87t27.5 -119.5v-16h-185v18q0 27 -8.5 41t-32.5 19.5t-73 5.5q-46 0 -71 -5.5t-35 -18.5t-10 -35
q0 -13 4.5 -30.5t12.5 -38.5l19 -49q9 -23 13 -42t4 -34q0 -36 -18 -53.5t-38 -23.5v-72zM691 0h-661v169h661v-169zM476 228h-446v154h446v-154z" />
    <glyph glyph-name="yen" unicode="&#xa5;" horiz-adv-x="807" 
d="M487 199h-167l-317 471h246l70 -125l80 -165h13l79 165l71 125h242zM497 0h-187v317h187v-317zM363 309h-336v154h199zM780 108h-753v154h753v-154zM780 309h-337l137 154h200v-154z" />
    <glyph glyph-name="brokenbar" unicode="&#xa6;" horiz-adv-x="273" 
d="M223 375h-173v395h173v-395zM223 -100h-173v395h173v-395z" />
    <glyph glyph-name="section" unicode="&#xa7;" horiz-adv-x="586" 
d="M306 -10q-124 0 -196 51t-72 136v4h188v-10q0 -14 5.5 -22.5t24 -12t56.5 -3.5q46 0 57.5 7t11.5 19t-9.5 17t-44.5 9l-178 24q-68 9 -98.5 32.5t-30.5 63.5q0 36 26.5 59.5t72.5 26.5v10q-22 5 -45 18.5t-38.5 37.5t-15.5 62q0 45 28.5 82.5t86 60.5t145.5 23
q124 0 196 -50.5t72 -136.5v-4h-188v10q0 15 -5.5 23t-24 11.5t-56.5 3.5q-46 0 -57.5 -7t-11.5 -19t10 -16.5t44 -9.5l204 -26q49 -6 76 -27t27 -63q0 -37 -26 -62t-73 -28v-10q22 -5 45 -18t38.5 -37.5t15.5 -62.5q0 -44 -28.5 -82t-86 -61t-145.5 -23zM228 325l127 -16
q10 -1 15.5 0.5t8 6t2.5 10.5q0 8 -5.5 13t-19.5 6l-125 16q-8 1 -14 -0.5t-9 -5t-3 -10.5q0 -10 5.5 -14t17.5 -6z" />
    <glyph glyph-name="copyright" unicode="&#xa9;" horiz-adv-x="776" 
d="M388 -9q-112 0 -195 41.5t-128 118.5t-45 184t45 184t128 118.5t195 41.5q113 0 195.5 -41.5t127.5 -118.5t45 -184t-45 -184t-127.5 -118.5t-195.5 -41.5zM388 121q82 0 130.5 17.5t70.5 63.5t22 133t-22 133t-70.5 63.5t-130.5 17.5q-81 0 -130 -17.5t-71 -63.5
t-22 -133t22 -133t71 -63.5t130 -17.5zM391 154q-63 0 -106.5 22.5t-66.5 63t-23 95.5q0 56 23 96.5t66.5 62.5t106.5 22q57 0 99.5 -19.5t66.5 -55t24 -85.5v-8h-133v6q0 21 -12.5 31t-44.5 10q-38 0 -50.5 -12.5t-12.5 -47.5q0 -34 12.5 -47t50.5 -13q32 0 44.5 11
t12.5 30v6h133v-8q0 -49 -24 -85t-66.5 -55.5t-99.5 -19.5z" />
    <glyph glyph-name="ordfeminine" unicode="&#xaa;" horiz-adv-x="228" 
d="M208 527h-59v32l-2 6v35l-2 5v5q0 14 -6 17.5t-22 3.5q-15 0 -22 -2.5t-7 -13.5v-1h-62v2q0 29 24.5 46.5t70.5 17.5q44 0 65.5 -19t21.5 -56v-78zM81 524q-28 0 -44.5 10.5t-16.5 30.5q0 17 13.5 27.5t44.5 13.5l70 7l1 -30l-56 -7q-5 -1 -8 -2t-3 -5q0 -7 19 -7
q20 0 33 4.5t13 18.5h4v-27h-5q-4 -18 -20 -26t-45 -8z" />
    <glyph glyph-name="guillemotleft" unicode="&#xab;" horiz-adv-x="500" 
d="M270 410l200 130v-192l-75 -36v-14l75 -36v-192l-200 130v210zM30 410l200 130v-192l-75 -36v-14l75 -36v-192l-200 130v210z" />
    <glyph glyph-name="softhyphen" unicode="&#xad;" horiz-adv-x="600" 
d="M451 217h-421v160h421v-160z" />
    <glyph glyph-name="registered" unicode="&#xae;" horiz-adv-x="426" 
d="M213 325q-56 0 -99.5 22t-68.5 62.5t-25 97.5t25 98t68.5 62.5t99.5 21.5t99.5 -21.5t68.5 -62.5t25 -98t-25 -97.5t-68.5 -62.5t-99.5 -22zM213 398q46 0 70.5 10.5t34 34.5t9.5 64t-9.5 64t-34 34.5t-70.5 10.5t-70.5 -10.5t-34 -34.5t-9.5 -64t9.5 -64t34 -34.5
t70.5 -10.5zM193 439h-58v140h96q29 0 45.5 -11t16.5 -34q0 -20 -12 -30.5t-29 -10.5v-2q14 -5 26 -22l20 -30h-64l-19 31q-3 5 -7 6.5t-11 1.5h-4v-39zM193 531v-16h35q5 0 7 2t2 6q0 5 -2 6.5t-7 1.5h-35z" />
    <glyph glyph-name="degree" unicode="&#xb0;" horiz-adv-x="238" 
d="M119 490q-51 0 -80 25.5t-29 69.5t29 69.5t80 25.5t80 -25.5t29 -69.5t-29 -69.5t-80 -25.5zM119 559q19 0 26 5.5t7 20.5t-7 20.5t-26 5.5t-26 -5.5t-7 -20.5t7 -20.5t26 -5.5z" />
    <glyph glyph-name="plusminus" unicode="&#xb1;" horiz-adv-x="535" 
d="M347 106h-159v466h159v-466zM504 -14h-474v154h474v-154zM505 258h-475v154h475v-154z" />
    <glyph glyph-name="twosuperior" unicode="&#xb2;" horiz-adv-x="390" 
d="M359 340h-333v54q0 48 24 73t63 37l105 32q12 4 16.5 7.5t4.5 10.5q0 8 -7 11.5t-35 3.5t-38 -5.5t-10 -22.5v-10h-129v15q0 36 20 66.5t61 49t105 18.5q82 0 123 -32t41 -85q0 -43 -27.5 -67t-87.5 -36l-104 -22q0 -1 0.5 -4t0.5 -4l159 20h48v-110z" />
    <glyph glyph-name="threesuperior" unicode="&#xb3;" horiz-adv-x="401" 
d="M208 335q-95 0 -141.5 32t-46.5 92v11h130v-6q0 -13 8.5 -16t40.5 -3q33 0 41.5 2.5t8.5 12.5q0 7 -4 10t-15 3h-70v76h57q12 0 16 2.5t4 9.5q0 8 -7 11t-36 3q-30 0 -37 -4t-7 -13v-3h-130v3q0 54 48.5 88t136.5 34q81 0 121.5 -23.5t40.5 -64.5q0 -30 -18.5 -49
t-61.5 -24v-5q42 -5 68 -23t26 -56q0 -34 -20.5 -56t-59.5 -33t-93 -11z" />
    <glyph glyph-name="paragraph" unicode="&#xb6;" horiz-adv-x="793" 
d="M469 270h-193q-76 0 -133.5 21.5t-90 65.5t-32.5 111q0 69 32.5 114t90 66.5t133.5 21.5h193v-400zM534 0h-188v670h188v-670zM763 0h-188v670h188v-670z" />
    <glyph glyph-name="periodcentered" unicode="&#xb7;" horiz-adv-x="304" 
d="M274 250h-244v192h244v-192z" />
    <glyph glyph-name="onesuperior" unicode="&#xb9;" horiz-adv-x="258" 
d="M238 335h-130v193h-98v101h18q26 0 48 8t38 33h124v-335z" />
    <glyph glyph-name="ordmasculine" unicode="&#xba;" horiz-adv-x="220" 
d="M110 524q-42 0 -66 20.5t-24 57.5t24 57.5t66 20.5t66 -20.5t24 -57.5t-24 -57.5t-66 -20.5zM110 580q16 0 21.5 5t5.5 17t-5.5 17t-21.5 5t-21.5 -5t-5.5 -17t5.5 -17t21.5 -5z" />
    <glyph glyph-name="guillemotright" unicode="&#xbb;" horiz-adv-x="500" 
d="M230 200l-200 -130v192l75 36v14l-75 36v192l200 -130v-210zM470 200l-200 -130v192l75 36v14l-75 36v192l200 -130v-210z" />
    <glyph glyph-name="onequarter" unicode="&#xbc;" horiz-adv-x="845" 
d="M269 335h-130v193h-98v101h18q26 0 48 8t38 33h124v-335zM211 0h-181l569 670h181zM815 63h-374v103l164 169h91l-62 -108h-14l-37 -39v-10h232v-115zM760 0h-130v335h130v-335z" />
    <glyph glyph-name="onehalf" unicode="&#xbd;" horiz-adv-x="874" 
d="M269 335h-130v193h-98v101h18q26 0 48 8t38 33h124v-335zM211 0h-181l569 670h181zM833 0h-333v54q0 48 24 73t63 37l105 32q12 4 16.5 7.5t4.5 10.5q0 8 -7 11.5t-35 3.5t-38 -5.5t-10 -22.5v-10h-129v15q0 36 20 66.5t61 49t105 18.5q82 0 123 -32t41 -85
q0 -43 -27.5 -67t-87.5 -36l-104 -22q0 -1 0.5 -4t0.5 -4l159 20h48v-110z" />
    <glyph glyph-name="threequarters" unicode="&#xbe;" horiz-adv-x="913" 
d="M218 335q-95 0 -141.5 32t-46.5 92v11h130v-6q0 -13 8.5 -16t40.5 -3q33 0 41.5 2.5t8.5 12.5q0 7 -4 10t-15 3h-70v76h57q12 0 16 2.5t4 9.5q0 8 -7 11t-36 3q-30 0 -37 -4t-7 -13v-3h-130v3q0 54 48.5 88t136.5 34q81 0 121.5 -23.5t40.5 -64.5q0 -30 -18.5 -49
t-61.5 -24v-5q42 -5 68 -23t26 -56q0 -34 -20.5 -56t-59.5 -33t-93 -11zM287 0h-181l569 670h181zM883 63h-374v103l164 169h91l-62 -108h-14l-37 -39v-10h232v-115zM828 0h-130v335h130v-335z" />
    <glyph glyph-name="questiondown" unicode="&#xbf;" horiz-adv-x="652" 
d="M271 277h188v-37q0 -42 -18.5 -69t-47 -43.5t-60.5 -28.5l-70 -26q-29 -10 -42 -19t-13 -26q0 -10 7 -18.5t31 -13.5t76 -5q80 0 107.5 17t27.5 52v48h185v-30q0 -68 -33 -127t-106 -95t-195 -36q-104 0 -167.5 27t-92 72.5t-28.5 101.5q0 55 21 89t52.5 53.5t62.5 31.5
l75 28q27 11 33.5 22t6.5 27v5zM257 500h215v-177h-215v177z" />
    <glyph glyph-name="Agrave" unicode="&#xc0;" horiz-adv-x="828" 
d="M201 0h-211l289 670h269l290 -670h-216l-159 387l-44 113h-13l-43 -113zM655 124h-494v169h494v-169zM516 730h-202l-202 134h271z" />
    <glyph glyph-name="Aacute" unicode="&#xc1;" horiz-adv-x="828" 
d="M201 0h-211l289 670h269l290 -670h-216l-159 387l-44 113h-13l-43 -113zM655 124h-494v169h494v-169zM514 730h-202l133 134h271z" />
    <glyph glyph-name="Acircumflex" unicode="&#xc2;" horiz-adv-x="828" 
d="M201 0h-211l289 670h269l290 -670h-216l-159 387l-44 113h-13l-43 -113zM655 124h-494v169h494v-169zM368 730h-201l133 130h227l134 -130h-202l-39 42h-12z" />
    <glyph glyph-name="Atilde" unicode="&#xc3;" horiz-adv-x="828" 
d="M201 0h-211l289 670h269l290 -670h-216l-159 387l-44 113h-13l-43 -113zM655 124h-494v169h494v-169zM333 712h-125v50q0 26 7.5 52t30 43.5t66.5 17.5q17 0 38.5 -4.5t49.5 -14.5l34 -12q13 -4 23 -7t17 -3q11 0 16.5 6t5.5 19v7h124v-49q0 -49 -22.5 -81.5t-73.5 -32.5
q-23 0 -46 6t-45 13l-46 15q-13 5 -22 7t-15 2q-10 0 -13.5 -5.5t-3.5 -12.5v-16z" />
    <glyph glyph-name="Adieresis" unicode="&#xc4;" horiz-adv-x="828" 
d="M201 0h-211l289 670h269l290 -670h-216l-159 387l-44 113h-13l-43 -113zM655 124h-494v169h494v-169zM621 730h-178v139h178v-139zM385 730h-178v139h178v-139z" />
    <glyph glyph-name="Aring" unicode="&#xc5;" horiz-adv-x="828" 
d="M413 584q-74 0 -120 39.5t-46 104.5q0 66 46 105t120 39t119.5 -39t45.5 -105q0 -65 -45.5 -104.5t-119.5 -39.5zM412 694q33 0 42.5 7.5t9.5 26.5t-9.5 26.5t-42.5 7.5t-42.5 -7.5t-9.5 -26.5t9.5 -26.5t42.5 -7.5zM201 0h-211l289 670h269l290 -670h-216l-159 387
l-44 113h-13l-43 -113zM655 124h-494v169h494v-169z" />
    <glyph glyph-name="AE" unicode="&#xc6;" horiz-adv-x="1216" 
d="M225 0h-233l485 670h133v-158h-22zM731 124h-429v169h429v-169zM786 0h-188v670h188v-670zM1193 0h-544v169h544v-169zM1178 253h-529v168h529v-168zM1193 501h-544v169h544v-169z" />
    <glyph glyph-name="Ccedilla" unicode="&#xc7;" horiz-adv-x="770" 
d="M390 -10q-116 0 -199 42.5t-127 120t-44 182.5t44 182.5t127 120t199 42.5q113 0 193.5 -34t123.5 -98t43 -154v-17h-210v17q0 57 -32 81.5t-115 24.5q-68 0 -105.5 -13.5t-52.5 -49t-15 -102.5q0 -66 15 -102t52.5 -49.5t105.5 -13.5q83 0 115 24.5t32 81.5v17h210v-17
q0 -89 -43 -153.5t-123.5 -98.5t-193.5 -34zM438 -241h-109v97h112q5 0 6.5 1.5t1.5 4.5q0 4 -1.5 5.5t-6.5 1.5h-112v134h95v-39h14q57 0 86.5 -27.5t29.5 -73.5q0 -47 -29.5 -75.5t-86.5 -28.5z" />
    <glyph glyph-name="Egrave" unicode="&#xc8;" horiz-adv-x="648" 
d="M218 0h-188v670h188v-670zM625 0h-544v169h544v-169zM610 253h-529v168h529v-168zM625 501h-544v169h544v-169zM429 730h-202l-202 134h271z" />
    <glyph glyph-name="Eacute" unicode="&#xc9;" horiz-adv-x="648" 
d="M218 0h-188v670h188v-670zM625 0h-544v169h544v-169zM610 253h-529v168h529v-168zM625 501h-544v169h544v-169zM427 730h-202l133 134h271z" />
    <glyph glyph-name="Ecircumflex" unicode="&#xca;" horiz-adv-x="648" 
d="M218 0h-188v670h188v-670zM625 0h-544v169h544v-169zM610 253h-529v168h529v-168zM625 501h-544v169h544v-169zM281 730h-201l133 130h227l134 -130h-202l-39 42h-12z" />
    <glyph glyph-name="Edieresis" unicode="&#xcb;" horiz-adv-x="648" 
d="M218 0h-188v670h188v-670zM625 0h-544v169h544v-169zM610 253h-529v168h529v-168zM625 501h-544v169h544v-169zM534 730h-178v139h178v-139zM298 730h-178v139h178v-139z" />
    <glyph glyph-name="Igrave" unicode="&#xcc;" 
d="M218 0h-188v670h188v-670zM226 730h-202l-202 134h271z" />
    <glyph glyph-name="Iacute" unicode="&#xcd;" 
d="M218 0h-188v670h188v-670zM224 730h-202l133 134h271z" />
    <glyph glyph-name="Icircumflex" unicode="&#xce;" 
d="M218 0h-188v670h188v-670zM78 730h-201l133 130h227l134 -130h-202l-39 42h-12z" />
    <glyph glyph-name="Idieresis" unicode="&#xcf;" 
d="M218 0h-188v670h188v-670zM331 730h-178v139h178v-139zM95 730h-178v139h178v-139z" />
    <glyph glyph-name="Eth" unicode="&#xd0;" horiz-adv-x="834" 
d="M453 0h-292v169h292q60 0 95 10t50 45.5t15 110.5q0 76 -15 111t-50 45t-95 10h-292v169h292q111 0 192 -39.5t125 -114.5t44 -181t-44 -181t-125 -114.5t-192 -39.5zM302 0h-188v670h188v-670zM484 251h-474v168h474v-168z" />
    <glyph glyph-name="Ntilde" unicode="&#xd1;" horiz-adv-x="736" 
d="M218 0h-188v670h200l186 -251l98 -154h13l-9 146v259h188v-670h-200l-198 258l-85 132h-13l8 -128v-262zM287 712h-125v50q0 26 7.5 52t30 43.5t66.5 17.5q17 0 38.5 -4.5t49.5 -14.5l34 -12q13 -4 23 -7t17 -3q11 0 16.5 6t5.5 19v7h124v-49q0 -49 -22.5 -81.5
t-73.5 -32.5q-23 0 -46 6t-45 13l-46 15q-13 5 -22 7t-15 2q-10 0 -13.5 -5.5t-3.5 -12.5v-16z" />
    <glyph glyph-name="Ograve" unicode="&#xd2;" horiz-adv-x="786" 
d="M391 -10q-116 0 -199.5 42.5t-127.5 120t-44 182.5t44 182.5t127.5 120t199.5 42.5q120 0 203.5 -42.5t127.5 -120t44 -182.5t-44 -182.5t-127.5 -120t-203.5 -42.5zM391 170q68 0 106 13.5t53.5 49.5t15.5 102q0 67 -15.5 102.5t-53.5 49t-106 13.5t-105 -13.5
t-51.5 -49t-14.5 -102.5q0 -66 14.5 -102t51.5 -49.5t105 -13.5zM495 730h-202l-202 134h271z" />
    <glyph glyph-name="Oacute" unicode="&#xd3;" horiz-adv-x="786" 
d="M391 -10q-116 0 -199.5 42.5t-127.5 120t-44 182.5t44 182.5t127.5 120t199.5 42.5q120 0 203.5 -42.5t127.5 -120t44 -182.5t-44 -182.5t-127.5 -120t-203.5 -42.5zM391 170q68 0 106 13.5t53.5 49.5t15.5 102q0 67 -15.5 102.5t-53.5 49t-106 13.5t-105 -13.5
t-51.5 -49t-14.5 -102.5q0 -66 14.5 -102t51.5 -49.5t105 -13.5zM493 730h-202l133 134h271z" />
    <glyph glyph-name="Ocircumflex" unicode="&#xd4;" horiz-adv-x="786" 
d="M391 -10q-116 0 -199.5 42.5t-127.5 120t-44 182.5t44 182.5t127.5 120t199.5 42.5q120 0 203.5 -42.5t127.5 -120t44 -182.5t-44 -182.5t-127.5 -120t-203.5 -42.5zM391 170q68 0 106 13.5t53.5 49.5t15.5 102q0 67 -15.5 102.5t-53.5 49t-106 13.5t-105 -13.5
t-51.5 -49t-14.5 -102.5q0 -66 14.5 -102t51.5 -49.5t105 -13.5zM347 730h-201l133 130h227l134 -130h-202l-39 42h-12z" />
    <glyph glyph-name="Otilde" unicode="&#xd5;" horiz-adv-x="786" 
d="M391 -10q-116 0 -199.5 42.5t-127.5 120t-44 182.5t44 182.5t127.5 120t199.5 42.5q120 0 203.5 -42.5t127.5 -120t44 -182.5t-44 -182.5t-127.5 -120t-203.5 -42.5zM391 170q68 0 106 13.5t53.5 49.5t15.5 102q0 67 -15.5 102.5t-53.5 49t-106 13.5t-105 -13.5
t-51.5 -49t-14.5 -102.5q0 -66 14.5 -102t51.5 -49.5t105 -13.5zM312 712h-125v50q0 26 7.5 52t29.5 43.5t67 17.5q17 0 38.5 -4.5t49.5 -14.5l34 -12q13 -4 23 -7t17 -3q11 0 16.5 6t5.5 19v7h124v-49q0 -49 -22.5 -81.5t-73.5 -32.5q-23 0 -46 6t-45 13l-46 15
q-13 5 -22 7t-15 2q-10 0 -13.5 -5.5t-3.5 -12.5v-16z" />
    <glyph glyph-name="Odieresis" unicode="&#xd6;" horiz-adv-x="786" 
d="M391 -10q-116 0 -199.5 42.5t-127.5 120t-44 182.5t44 182.5t127.5 120t199.5 42.5q120 0 203.5 -42.5t127.5 -120t44 -182.5t-44 -182.5t-127.5 -120t-203.5 -42.5zM391 170q68 0 106 13.5t53.5 49.5t15.5 102q0 67 -15.5 102.5t-53.5 49t-106 13.5t-105 -13.5
t-51.5 -49t-14.5 -102.5q0 -66 14.5 -102t51.5 -49.5t105 -13.5zM600 730h-178v139h178v-139zM364 730h-178v139h178v-139z" />
    <glyph glyph-name="multiply" unicode="&#xd7;" horiz-adv-x="522" 
d="M492 217l-113 -113l-349 349l112 113zM491 456l-351 -351l-109 109l351 351z" />
    <glyph glyph-name="Oslash" unicode="&#xd8;" horiz-adv-x="786" 
d="M391 -10q-116 0 -199.5 42.5t-127.5 120t-44 182.5t44 182.5t127.5 120t199.5 42.5q120 0 203.5 -42.5t127.5 -120t44 -182.5t-44 -182.5t-127.5 -120t-203.5 -42.5zM391 170q68 0 106 13.5t53.5 49.5t15.5 102q0 67 -15.5 102.5t-53.5 49t-106 13.5t-105 -13.5
t-51.5 -49t-14.5 -102.5q0 -66 14.5 -102t51.5 -49.5t105 -13.5zM787 592l-700 -610l-88 95l700 610z" />
    <glyph glyph-name="Ugrave" unicode="&#xd9;" horiz-adv-x="736" 
d="M368 -10q-117 0 -192.5 35.5t-112.5 101t-37 154.5v389h188v-374q0 -48 12 -75t45.5 -38t96.5 -11q64 0 97 11t45 38t12 75v374h188v-389q0 -89 -37 -154.5t-112.5 -101t-192.5 -35.5zM470 730h-202l-202 134h271z" />
    <glyph glyph-name="Uacute" unicode="&#xda;" horiz-adv-x="736" 
d="M368 -10q-117 0 -192.5 35.5t-112.5 101t-37 154.5v389h188v-374q0 -48 12 -75t45.5 -38t96.5 -11q64 0 97 11t45 38t12 75v374h188v-389q0 -89 -37 -154.5t-112.5 -101t-192.5 -35.5zM468 730h-202l133 134h271z" />
    <glyph glyph-name="Ucircumflex" unicode="&#xdb;" horiz-adv-x="736" 
d="M368 -10q-117 0 -192.5 35.5t-112.5 101t-37 154.5v389h188v-374q0 -48 12 -75t45.5 -38t96.5 -11q64 0 97 11t45 38t12 75v374h188v-389q0 -89 -37 -154.5t-112.5 -101t-192.5 -35.5zM322 730h-201l133 130h227l134 -130h-202l-39 42h-12z" />
    <glyph glyph-name="Udieresis" unicode="&#xdc;" horiz-adv-x="736" 
d="M368 -10q-117 0 -192.5 35.5t-112.5 101t-37 154.5v389h188v-374q0 -48 12 -75t45.5 -38t96.5 -11q64 0 97 11t45 38t12 75v374h188v-389q0 -89 -37 -154.5t-112.5 -101t-192.5 -35.5zM575 730h-178v139h178v-139zM339 730h-178v139h178v-139z" />
    <glyph glyph-name="Yacute" unicode="&#xdd;" horiz-adv-x="766" 
d="M473 211h-186l-302 459h233l101 -159l57 -94h13l57 94l101 159h234zM474 0h-188v318h188v-318zM483 730h-202l133 134h271z" />
    <glyph glyph-name="Thorn" unicode="&#xde;" horiz-adv-x="680" 
d="M411 82h-318v169h297q50 0 71.5 15.5t21.5 69.5q0 53 -21.5 68.5t-71.5 15.5h-297v169h318q80 0 138 -29.5t89.5 -86t31.5 -137.5t-31.5 -137.5t-89.5 -86.5t-138 -30zM218 0h-188v670h188v-670z" />
    <glyph glyph-name="germandbls" unicode="&#xdf;" horiz-adv-x="714" 
d="M235 0h-185v421q0 79 34.5 137t107.5 90t190 32q100 0 164 -23.5t95.5 -63.5t31.5 -91q0 -64 -37.5 -103t-129.5 -43v-10q101 -4 149.5 -50t48.5 -120q0 -80 -52.5 -128t-172.5 -48h-204v169h180q34 0 46.5 9.5t12.5 37.5t-12 37t-47 9h-180v154h161q29 0 39 7.5t10 29.5
q0 17 -8 27.5t-32.5 15.5t-75.5 5q-61 0 -89.5 -7t-36.5 -24t-8 -47v-423z" />
    <glyph glyph-name="agrave" unicode="&#xe0;" horiz-adv-x="595" 
d="M569 0h-176v112h-10v179q0 38 -19.5 48.5t-69.5 10.5q-46 0 -63.5 -11t-17.5 -43v-4h-188v2q0 67 35 116.5t99 76.5t149 27q88 0 146 -27.5t86.5 -78t28.5 -121.5v-287zM193 -10q-85 0 -131.5 37t-46.5 101q0 36 17 64t53 45.5t93 23.5l215 21v-104l-165 -19
q-13 -1 -18.5 -6t-5.5 -13q0 -12 11.5 -15.5t33.5 -3.5q50 0 79 5.5t42 20.5t13 43l14 4v-88h-14q-14 -53 -61 -84.5t-129 -31.5zM397 560h-203l-202 130h272z" />
    <glyph glyph-name="aacute" unicode="&#xe1;" horiz-adv-x="595" 
d="M569 0h-176v112h-10v179q0 38 -19.5 48.5t-69.5 10.5q-46 0 -63.5 -11t-17.5 -43v-4h-188v2q0 67 35 116.5t99 76.5t149 27q88 0 146 -27.5t86.5 -78t28.5 -121.5v-287zM193 -10q-85 0 -131.5 37t-46.5 101q0 36 17 64t53 45.5t93 23.5l215 21v-104l-165 -19
q-13 -1 -18.5 -6t-5.5 -13q0 -12 11.5 -15.5t33.5 -3.5q50 0 79 5.5t42 20.5t13 43l14 4v-88h-14q-14 -53 -61 -84.5t-129 -31.5zM400 560h-204l134 130h272z" />
    <glyph glyph-name="acircumflex" unicode="&#xe2;" horiz-adv-x="595" 
d="M569 0h-176v112h-10v179q0 38 -19.5 48.5t-69.5 10.5q-46 0 -63.5 -11t-17.5 -43v-4h-188v2q0 67 35 116.5t99 76.5t149 27q88 0 146 -27.5t86.5 -78t28.5 -121.5v-287zM193 -10q-85 0 -131.5 37t-46.5 101q0 36 17 64t53 45.5t93 23.5l215 21v-104l-165 -19
q-13 -1 -18.5 -6t-5.5 -13q0 -12 11.5 -15.5t33.5 -3.5q50 0 79 5.5t42 20.5t13 43l14 4v-88h-14q-14 -53 -61 -84.5t-129 -31.5zM252 560h-201l133 130h227l134 -130h-202l-39 42h-12z" />
    <glyph glyph-name="atilde" unicode="&#xe3;" horiz-adv-x="595" 
d="M569 0h-176v112h-10v179q0 38 -19.5 48.5t-69.5 10.5q-46 0 -63.5 -11t-17.5 -43v-4h-188v2q0 67 35 116.5t99 76.5t149 27q88 0 146 -27.5t86.5 -78t28.5 -121.5v-287zM193 -10q-85 0 -131.5 37t-46.5 101q0 36 17 64t53 45.5t93 23.5l215 21v-104l-165 -19
q-13 -1 -18.5 -6t-5.5 -13q0 -12 11.5 -15.5t33.5 -3.5q50 0 79 5.5t42 20.5t13 43l14 4v-88h-14q-14 -53 -61 -84.5t-129 -31.5zM217 542h-125v50q0 26 7.5 52t30 43.5t66.5 17.5q17 0 38.5 -4.5t49.5 -14.5l34 -12q13 -4 23 -7t17 -3q11 0 16.5 6t5.5 19v7h124v-49
q0 -49 -22.5 -81.5t-73.5 -32.5q-23 0 -46 6t-45 13l-46 15q-13 5 -22 7t-15 2q-10 0 -13.5 -5.5t-3.5 -12.5v-16z" />
    <glyph glyph-name="adieresis" unicode="&#xe4;" horiz-adv-x="595" 
d="M569 0h-176v112h-10v179q0 38 -19.5 48.5t-69.5 10.5q-46 0 -63.5 -11t-17.5 -43v-4h-188v2q0 67 35 116.5t99 76.5t149 27q88 0 146 -27.5t86.5 -78t28.5 -121.5v-287zM193 -10q-85 0 -131.5 37t-46.5 101q0 36 17 64t53 45.5t93 23.5l215 21v-104l-165 -19
q-13 -1 -18.5 -6t-5.5 -13q0 -12 11.5 -15.5t33.5 -3.5q50 0 79 5.5t42 20.5t13 43l14 4v-88h-14q-14 -53 -61 -84.5t-129 -31.5zM505 560h-178v139h178v-139zM269 560h-178v139h178v-139z" />
    <glyph glyph-name="aring" unicode="&#xe5;" horiz-adv-x="595" 
d="M569 0h-176v112h-10v179q0 38 -19.5 48.5t-69.5 10.5q-46 0 -63.5 -11t-17.5 -43v-4h-188v2q0 67 35 116.5t99 76.5t149 27q88 0 146 -27.5t86.5 -78t28.5 -121.5v-287zM193 -10q-85 0 -131.5 37t-46.5 101q0 36 17 64t53 45.5t93 23.5l215 21v-104l-165 -19
q-13 -1 -18.5 -6t-5.5 -13q0 -12 11.5 -15.5t33.5 -3.5q50 0 79 5.5t42 20.5t13 43l14 4v-88h-14q-14 -53 -61 -84.5t-129 -31.5zM298 544q-47 0 -76.5 24t-29.5 64t29.5 64t76.5 24t76.5 -24t29.5 -64t-29.5 -64t-76.5 -24zM298 615q19 0 24 4.5t5 12.5t-5 12.5t-24 4.5
t-24 -4.5t-5 -12.5t5 -12.5t24 -4.5z" />
    <glyph glyph-name="ae" unicode="&#xe6;" horiz-adv-x="976" 
d="M686 -10q-85 0 -151 26t-103 84t-37 152q0 82 36.5 140.5t101.5 90t149 31.5q87 0 151 -28.5t99 -84t35 -136.5q0 -13 -0.5 -23.5t-2.5 -24.5h-446v95h310l-41 -59v18v17q0 46 -23.5 64t-85.5 18q-64 0 -86.5 -20t-22.5 -72v-48q0 -53 23 -72t87 -19q57 0 76.5 10.5
t19.5 32.5v11h188v-12q0 -56 -34 -99t-96 -67.5t-147 -24.5zM199 -10q-88 0 -136 37t-48 101q0 37 17 65.5t53 47t93 23.5l227 22l9 -107l-186 -20q-13 -1 -18.5 -6t-5.5 -13q0 -12 11.5 -15.5t33.5 -3.5q57 0 91 6.5t48.5 23.5t14.5 49l14 4l15 -98h-14q-12 -36 -41.5 -62
t-74 -40t-103.5 -14zM569 251h-174v40q0 38 -19.5 48.5t-70.5 10.5q-52 0 -72 -11t-20 -43v-9h-188v7q0 67 35 116.5t99 76.5t149 27q88 0 146 -27.5t86.5 -78t28.5 -121.5v-36z" />
    <glyph glyph-name="ccedilla" unicode="&#xe7;" horiz-adv-x="615" 
d="M313 -10q-89 0 -155 31.5t-102 90.5t-36 140q0 82 36 140.5t102 90t155 31.5q86 0 149.5 -27.5t98 -77.5t34.5 -118v-16h-187v8q0 39 -26.5 51t-72.5 12q-52 0 -77 -17.5t-25 -76.5q0 -58 25 -75.5t77 -17.5q46 0 72.5 11.5t26.5 50.5v9h187v-17q0 -67 -34.5 -117
t-98 -78t-149.5 -28zM366 -241h-109v97h112q5 0 6.5 1.5t1.5 4.5q0 4 -1.5 5.5t-6.5 1.5h-112v134h95v-39h14q57 0 86.5 -27.5t29.5 -73.5q0 -47 -29.5 -75.5t-86.5 -28.5z" />
    <glyph glyph-name="egrave" unicode="&#xe8;" horiz-adv-x="612" 
d="M311 -10q-85 0 -151 26t-103 84t-37 152q0 82 37 140.5t101.5 90t148.5 31.5q87 0 151 -28.5t99 -84t35 -136.5q0 -13 -0.5 -23.5t-2.5 -24.5h-446v95h310l-41 -59v17.5v17.5q0 46 -23.5 64t-85.5 18q-64 0 -86.5 -20t-22.5 -72v-48q0 -53 23 -72t87 -19q57 0 76.5 10.5
t19.5 32.5v11h188v-12q0 -56 -34 -99t-96 -67.5t-147 -24.5zM405 560h-203l-202 130h272z" />
    <glyph glyph-name="eacute" unicode="&#xe9;" horiz-adv-x="612" 
d="M311 -10q-85 0 -151 26t-103 84t-37 152q0 82 37 140.5t101.5 90t148.5 31.5q87 0 151 -28.5t99 -84t35 -136.5q0 -13 -0.5 -23.5t-2.5 -24.5h-446v95h310l-41 -59v17.5v17.5q0 46 -23.5 64t-85.5 18q-64 0 -86.5 -20t-22.5 -72v-48q0 -53 23 -72t87 -19q57 0 76.5 10.5
t19.5 32.5v11h188v-12q0 -56 -34 -99t-96 -67.5t-147 -24.5zM408 560h-204l134 130h272z" />
    <glyph glyph-name="ecircumflex" unicode="&#xea;" horiz-adv-x="612" 
d="M311 -10q-85 0 -151 26t-103 84t-37 152q0 82 37 140.5t101.5 90t148.5 31.5q87 0 151 -28.5t99 -84t35 -136.5q0 -13 -0.5 -23.5t-2.5 -24.5h-446v95h310l-41 -59v17.5v17.5q0 46 -23.5 64t-85.5 18q-64 0 -86.5 -20t-22.5 -72v-48q0 -53 23 -72t87 -19q57 0 76.5 10.5
t19.5 32.5v11h188v-12q0 -56 -34 -99t-96 -67.5t-147 -24.5zM260 560h-201l133 130h227l134 -130h-202l-39 42h-12z" />
    <glyph glyph-name="edieresis" unicode="&#xeb;" horiz-adv-x="612" 
d="M311 -10q-85 0 -151 26t-103 84t-37 152q0 82 37 140.5t101.5 90t148.5 31.5q87 0 151 -28.5t99 -84t35 -136.5q0 -13 -0.5 -23.5t-2.5 -24.5h-446v95h310l-41 -59v17.5v17.5q0 46 -23.5 64t-85.5 18q-64 0 -86.5 -20t-22.5 -72v-48q0 -53 23 -72t87 -19q57 0 76.5 10.5
t19.5 32.5v11h188v-12q0 -56 -34 -99t-96 -67.5t-147 -24.5zM513 560h-178v139h178v-139zM277 560h-178v139h178v-139z" />
    <glyph glyph-name="igrave" unicode="&#xec;" horiz-adv-x="279" 
d="M233 0h-187v500h187v-500zM239 560h-203l-202 130h272z" />
    <glyph glyph-name="iacute" unicode="&#xed;" horiz-adv-x="279" 
d="M233 0h-187v500h187v-500zM242 560h-204l134 130h272z" />
    <glyph glyph-name="icircumflex" unicode="&#xee;" horiz-adv-x="279" 
d="M233 0h-187v500h187v-500zM94 560h-201l133 130h227l134 -130h-202l-39 42h-12z" />
    <glyph glyph-name="idieresis" unicode="&#xef;" horiz-adv-x="279" 
d="M233 0h-187v500h187v-500zM347 560h-178v139h178v-139zM111 560h-178v139h178v-139z" />
    <glyph glyph-name="eth" unicode="&#xf0;" horiz-adv-x="700" 
d="M329 -10q-157 0 -233 66.5t-76 177.5q0 75 30 122.5t85.5 70t129.5 22.5q86 0 133.5 -31t65.5 -81h12q-4 43 -30 87t-67 87t-90.5 83.5t-100.5 75.5h254q43 -23 85.5 -60.5t77 -87.5t55 -112t20.5 -135q0 -89 -39 -153t-117 -98t-195 -34zM340 173q55 0 84 4.5t40 17.5
t11 36q0 26 -10 39.5t-38.5 18.5t-86.5 5q-52 0 -79.5 -5t-37.5 -18.5t-10 -38.5q0 -34 25.5 -46.5t101.5 -12.5zM663 558l-450 -78l-17 83l450 78z" />
    <glyph glyph-name="ntilde" unicode="&#xf1;" horiz-adv-x="643" 
d="M617 0h-188v254q0 53 -23 72.5t-85 19.5t-82.5 -18.5t-20.5 -67.5h-19l-16 91h33q6 42 27.5 79t64 60.5t109.5 23.5q68 0 112.5 -25t66 -68t21.5 -98v-323zM218 0h-188v504h176v-155l12 -5v-344zM242 542h-125v50q0 26 7.5 52t30 43.5t66.5 17.5q17 0 38.5 -4.5
t49.5 -14.5l34 -12q13 -4 23 -7t17 -3q11 0 16.5 6t5.5 19v7h124v-49q0 -49 -22.5 -81.5t-73.5 -32.5q-23 0 -46 6t-45 13l-46 15q-13 5 -22 7t-15 2q-10 0 -13.5 -5.5t-3.5 -12.5v-16z" />
    <glyph glyph-name="ograve" unicode="&#xf2;" horiz-adv-x="618" 
d="M309 -10q-87 0 -153.5 31.5t-103.5 90.5t-37 140q0 82 37 140.5t103.5 90t153.5 31.5q88 0 154 -31.5t103 -90t37 -140.5q0 -81 -37 -140t-103 -90.5t-154 -31.5zM309 156q64 0 86 20.5t22 75.5t-22 76t-86 21t-86 -21t-22 -76t22 -75.5t86 -20.5zM408 560h-203l-202 130
h272z" />
    <glyph glyph-name="oacute" unicode="&#xf3;" horiz-adv-x="618" 
d="M309 -10q-87 0 -153.5 31.5t-103.5 90.5t-37 140q0 82 37 140.5t103.5 90t153.5 31.5q88 0 154 -31.5t103 -90t37 -140.5q0 -81 -37 -140t-103 -90.5t-154 -31.5zM309 156q64 0 86 20.5t22 75.5t-22 76t-86 21t-86 -21t-22 -76t22 -75.5t86 -20.5zM411 560h-204l134 130
h272z" />
    <glyph glyph-name="ocircumflex" unicode="&#xf4;" horiz-adv-x="618" 
d="M309 -10q-87 0 -153.5 31.5t-103.5 90.5t-37 140q0 82 37 140.5t103.5 90t153.5 31.5q88 0 154 -31.5t103 -90t37 -140.5q0 -81 -37 -140t-103 -90.5t-154 -31.5zM309 156q64 0 86 20.5t22 75.5t-22 76t-86 21t-86 -21t-22 -76t22 -75.5t86 -20.5zM263 560h-201l133 130
h227l134 -130h-202l-39 42h-12z" />
    <glyph glyph-name="otilde" unicode="&#xf5;" horiz-adv-x="618" 
d="M309 -10q-87 0 -153.5 31.5t-103.5 90.5t-37 140q0 82 37 140.5t103.5 90t153.5 31.5q88 0 154 -31.5t103 -90t37 -140.5q0 -81 -37 -140t-103 -90.5t-154 -31.5zM309 156q64 0 86 20.5t22 75.5t-22 76t-86 21t-86 -21t-22 -76t22 -75.5t86 -20.5zM228 542h-125v50
q0 26 7.5 52t30 43.5t66.5 17.5q17 0 38.5 -4.5t49.5 -14.5l34 -12q13 -4 23 -7t17 -3q11 0 16.5 6t5.5 19v7h124v-49q0 -49 -22.5 -81.5t-73.5 -32.5q-23 0 -46 6t-45 13l-46 15q-13 5 -22 7t-15 2q-10 0 -13.5 -5.5t-3.5 -12.5v-16z" />
    <glyph glyph-name="odieresis" unicode="&#xf6;" horiz-adv-x="618" 
d="M309 -10q-87 0 -153.5 31.5t-103.5 90.5t-37 140q0 82 37 140.5t103.5 90t153.5 31.5q88 0 154 -31.5t103 -90t37 -140.5q0 -81 -37 -140t-103 -90.5t-154 -31.5zM309 156q64 0 86 20.5t22 75.5t-22 76t-86 21t-86 -21t-22 -76t22 -75.5t86 -20.5zM516 560h-178v139h178
v-139zM280 560h-178v139h178v-139z" />
    <glyph glyph-name="divide" unicode="&#xf7;" horiz-adv-x="534" 
d="M371 472h-199v167h199v-167zM371 31h-199v167h199v-167zM508 258h-474v154h474v-154z" />
    <glyph glyph-name="oslash" unicode="&#xf8;" horiz-adv-x="618" 
d="M309 -10q-87 0 -153.5 31.5t-103.5 90.5t-37 140q0 82 37 140.5t103.5 90t153.5 31.5q88 0 154 -31.5t103 -90t37 -140.5q0 -81 -37 -140t-103 -90.5t-154 -31.5zM309 156q64 0 86 20.5t22 75.5t-22 76t-86 21t-86 -21t-22 -76t22 -75.5t86 -20.5zM613 452l-543 -473
l-66 73l543 473z" />
    <glyph glyph-name="ugrave" unicode="&#xf9;" horiz-adv-x="653" 
d="M237 -10q-70 0 -116 25t-68.5 68t-22.5 98v323h188v-254q0 -52 24.5 -72t88.5 -20q65 0 86.5 18.5t21.5 67.5h19l16 -91h-33q-5 -42 -27 -79t-65 -60.5t-112 -23.5zM627 0h-176v155l-12 5v344h188v-504zM427 560h-203l-202 130h272z" />
    <glyph glyph-name="uacute" unicode="&#xfa;" horiz-adv-x="653" 
d="M237 -10q-70 0 -116 25t-68.5 68t-22.5 98v323h188v-254q0 -52 24.5 -72t88.5 -20q65 0 86.5 18.5t21.5 67.5h19l16 -91h-33q-5 -42 -27 -79t-65 -60.5t-112 -23.5zM627 0h-176v155l-12 5v344h188v-504zM430 560h-204l134 130h272z" />
    <glyph glyph-name="ucircumflex" unicode="&#xfb;" horiz-adv-x="653" 
d="M237 -10q-70 0 -116 25t-68.5 68t-22.5 98v323h188v-254q0 -52 24.5 -72t88.5 -20q65 0 86.5 18.5t21.5 67.5h19l16 -91h-33q-5 -42 -27 -79t-65 -60.5t-112 -23.5zM627 0h-176v155l-12 5v344h188v-504zM282 560h-201l133 130h227l134 -130h-202l-39 42h-12z" />
    <glyph glyph-name="udieresis" unicode="&#xfc;" horiz-adv-x="653" 
d="M237 -10q-70 0 -116 25t-68.5 68t-22.5 98v323h188v-254q0 -52 24.5 -72t88.5 -20q65 0 86.5 18.5t21.5 67.5h19l16 -91h-33q-5 -42 -27 -79t-65 -60.5t-112 -23.5zM627 0h-176v155l-12 5v344h188v-504zM535 560h-178v139h178v-139zM299 560h-178v139h178v-139z" />
    <glyph glyph-name="yacute" unicode="&#xfd;" horiz-adv-x="648" 
d="M141 -170h-91v170h146q23 0 35 6t18 21l14 34l-18 -84l-255 527h214l87 -198l36 -116h13l33 118l75 196h210l-239 -524q-27 -59 -63.5 -92t-88.5 -45.5t-126 -12.5zM426 560h-204l134 130h272z" />
    <glyph glyph-name="thorn" unicode="&#xfe;" horiz-adv-x="669" 
d="M418 -10q-89 0 -134 38.5t-56 101.5h-29v116h19q0 -35 13.5 -53.5t41 -25t69.5 -6.5q44 0 69.5 9t36.5 29t11 53q0 34 -11 53.5t-36.5 28.5t-69.5 9q-42 0 -69.5 -6.5t-41 -24.5t-13.5 -54h-19v116h29q11 63 56 101.5t134 38.5q74 0 125.5 -31.5t78.5 -90t27 -140.5
t-27 -140.5t-78.5 -90t-125.5 -31.5zM218 -170h-188v840h188v-840z" />
    <glyph glyph-name="ydieresis" unicode="&#xff;" horiz-adv-x="648" 
d="M141 -170h-91v170h146q23 0 35 6t18 21l14 34l-18 -84l-255 527h214l87 -198l36 -116h13l33 118l75 196h210l-239 -524q-27 -59 -63.5 -92t-88.5 -45.5t-126 -12.5zM531 560h-178v139h178v-139zM295 560h-178v139h178v-139z" />
    <glyph glyph-name="Amacron" unicode="&#x100;" horiz-adv-x="828" 
d="M201 0h-211l289 670h269l290 -670h-216l-159 387l-44 113h-13l-43 -113zM655 124h-494v169h494v-169zM591 731h-355v134h355v-134z" />
    <glyph glyph-name="amacron" unicode="&#x101;" horiz-adv-x="595" 
d="M569 0h-176v112h-10v179q0 38 -19.5 48.5t-69.5 10.5q-46 0 -63.5 -11t-17.5 -43v-4h-188v2q0 67 35 116.5t99 76.5t149 27q88 0 146 -27.5t86.5 -78t28.5 -121.5v-287zM193 -10q-85 0 -131.5 37t-46.5 101q0 36 17 64t53 45.5t93 23.5l215 21v-104l-165 -19
q-13 -1 -18.5 -6t-5.5 -13q0 -12 11.5 -15.5t33.5 -3.5q50 0 79 5.5t42 20.5t13 43l14 4v-88h-14q-14 -53 -61 -84.5t-129 -31.5zM475 558h-355v134h355v-134z" />
    <glyph glyph-name="Abreve" unicode="&#x102;" horiz-adv-x="828" 
d="M201 0h-211l289 670h269l290 -670h-216l-159 387l-44 113h-13l-43 -113zM655 124h-494v169h494v-169zM414 720q-79 0 -127.5 39.5t-48.5 100.5v13h131v-10q0 -16 8 -23.5t37 -7.5q30 0 37.5 7.5t7.5 23.5v10h131v-13q0 -61 -48.5 -100.5t-127.5 -39.5z" />
    <glyph glyph-name="abreve" unicode="&#x103;" horiz-adv-x="595" 
d="M569 0h-176v112h-10v179q0 38 -19.5 48.5t-69.5 10.5q-46 0 -63.5 -11t-17.5 -43v-4h-188v2q0 67 35 116.5t99 76.5t149 27q88 0 146 -27.5t86.5 -78t28.5 -121.5v-287zM193 -10q-85 0 -131.5 37t-46.5 101q0 36 17 64t53 45.5t93 23.5l215 21v-104l-165 -19
q-13 -1 -18.5 -6t-5.5 -13q0 -12 11.5 -15.5t33.5 -3.5q50 0 79 5.5t42 20.5t13 43l14 4v-88h-14q-14 -53 -61 -84.5t-129 -31.5zM298 550q-79 0 -127.5 39.5t-48.5 100.5v4h131v-1q0 -19 8 -26.5t37 -7.5q30 0 37.5 7.5t7.5 26.5v1h131v-4q0 -61 -48.5 -100.5t-127.5 -39.5
z" />
    <glyph glyph-name="Aogonek" unicode="&#x104;" horiz-adv-x="828" 
d="M201 0h-211l289 670h269l290 -670h-216l-159 387l-44 113h-13l-43 -113zM655 124h-494v169h494v-169zM847 -187h-100q-57 0 -80 20t-23 51q0 28 15.5 49.5t34.5 42.5l23 24h121l-45 -56q-4 -4 -6 -8t-2 -7t2 -4.5t6 -1.5h54v-110z" />
    <glyph glyph-name="aogonek" unicode="&#x105;" horiz-adv-x="595" 
d="M569 0h-176v112h-10v179q0 38 -19.5 48.5t-69.5 10.5q-46 0 -63.5 -11t-17.5 -43v-4h-188v2q0 67 35 116.5t99 76.5t149 27q88 0 146 -27.5t86.5 -78t28.5 -121.5v-287zM193 -10q-85 0 -131.5 37t-46.5 101q0 36 17 64t53 45.5t93 23.5l215 21v-104l-165 -19
q-13 -1 -18.5 -6t-5.5 -13q0 -12 11.5 -15.5t33.5 -3.5q50 0 79 5.5t42 20.5t13 43l14 4v-88h-14q-14 -53 -61 -84.5t-129 -31.5zM578 -187h-100q-57 0 -80 20t-23 51q0 28 15.5 49.5t34.5 42.5l23 24h121l-45 -56q-4 -4 -6 -8t-2 -7t2 -4.5t6 -1.5h54v-110z" />
    <glyph glyph-name="Cacute" unicode="&#x106;" horiz-adv-x="770" 
d="M390 -10q-116 0 -199 42.5t-127 120t-44 182.5t44 182.5t127 120t199 42.5q113 0 193.5 -34t123.5 -98t43 -154v-17h-210v17q0 57 -32 81.5t-115 24.5q-68 0 -105.5 -13.5t-52.5 -49t-15 -102.5q0 -66 15 -102t52.5 -49.5t105.5 -13.5q83 0 115 24.5t32 81.5v17h210v-17
q0 -89 -43 -153.5t-123.5 -98.5t-193.5 -34zM485 730h-202l133 134h271z" />
    <glyph glyph-name="cacute" unicode="&#x107;" horiz-adv-x="615" 
d="M313 -10q-89 0 -155 31.5t-102 90.5t-36 140q0 82 36 140.5t102 90t155 31.5q86 0 149.5 -27.5t98 -77.5t34.5 -118v-16h-187v8q0 39 -26.5 51t-72.5 12q-52 0 -77 -17.5t-25 -76.5q0 -58 25 -75.5t77 -17.5q46 0 72.5 11.5t26.5 50.5v9h187v-17q0 -67 -34.5 -117
t-98 -78t-149.5 -28zM410 560h-204l134 130h272z" />
    <glyph glyph-name="Ccircumflex" unicode="&#x108;" horiz-adv-x="770" 
d="M390 -10q-116 0 -199 42.5t-127 120t-44 182.5t44 182.5t127 120t199 42.5q113 0 193.5 -34t123.5 -98t43 -154v-17h-210v17q0 57 -32 81.5t-115 24.5q-68 0 -105.5 -13.5t-52.5 -49t-15 -102.5q0 -66 15 -102t52.5 -49.5t105.5 -13.5q83 0 115 24.5t32 81.5v17h210v-17
q0 -89 -43 -153.5t-123.5 -98.5t-193.5 -34zM339 730h-201l133 130h227l134 -130h-202l-39 42h-12z" />
    <glyph glyph-name="ccircumflex" unicode="&#x109;" horiz-adv-x="615" 
d="M313 -10q-89 0 -155 31.5t-102 90.5t-36 140q0 82 36 140.5t102 90t155 31.5q86 0 149.5 -27.5t98 -77.5t34.5 -118v-16h-187v8q0 39 -26.5 51t-72.5 12q-52 0 -77 -17.5t-25 -76.5q0 -58 25 -75.5t77 -17.5q46 0 72.5 11.5t26.5 50.5v9h187v-17q0 -67 -34.5 -117
t-98 -78t-149.5 -28zM262 560h-201l133 130h227l134 -130h-202l-39 42h-12z" />
    <glyph glyph-name="Cdotaccent" unicode="&#x10a;" horiz-adv-x="770" 
d="M390 -10q-116 0 -199 42.5t-127 120t-44 182.5t44 182.5t127 120t199 42.5q113 0 193.5 -34t123.5 -98t43 -154v-17h-210v17q0 57 -32 81.5t-115 24.5q-68 0 -105.5 -13.5t-52.5 -49t-15 -102.5q0 -66 15 -102t52.5 -49.5t105.5 -13.5q83 0 115 24.5t32 81.5v17h210v-17
q0 -89 -43 -153.5t-123.5 -98.5t-193.5 -34zM479 730h-188v139h188v-139z" />
    <glyph glyph-name="cdotaccent" unicode="&#x10b;" horiz-adv-x="615" 
d="M313 -10q-89 0 -155 31.5t-102 90.5t-36 140q0 82 36 140.5t102 90t155 31.5q86 0 149.5 -27.5t98 -77.5t34.5 -118v-16h-187v8q0 39 -26.5 51t-72.5 12q-52 0 -77 -17.5t-25 -76.5q0 -58 25 -75.5t77 -17.5q46 0 72.5 11.5t26.5 50.5v9h187v-17q0 -67 -34.5 -117
t-98 -78t-149.5 -28zM402 560h-188v139h188v-139z" />
    <glyph glyph-name="Ccaron" unicode="&#x10c;" horiz-adv-x="770" 
d="M390 -10q-116 0 -199 42.5t-127 120t-44 182.5t44 182.5t127 120t199 42.5q113 0 193.5 -34t123.5 -98t43 -154v-17h-210v17q0 57 -32 81.5t-115 24.5q-68 0 -105.5 -13.5t-52.5 -49t-15 -102.5q0 -66 15 -102t52.5 -49.5t105.5 -13.5q83 0 115 24.5t32 81.5v17h210v-17
q0 -89 -43 -153.5t-123.5 -98.5t-193.5 -34zM431 860h201l-133 -130h-227l-134 130h202l39 -42h12z" />
    <glyph glyph-name="ccaron" unicode="&#x10d;" horiz-adv-x="615" 
d="M313 -10q-89 0 -155 31.5t-102 90.5t-36 140q0 82 36 140.5t102 90t155 31.5q86 0 149.5 -27.5t98 -77.5t34.5 -118v-16h-187v8q0 39 -26.5 51t-72.5 12q-52 0 -77 -17.5t-25 -76.5q0 -58 25 -75.5t77 -17.5q46 0 72.5 11.5t26.5 50.5v9h187v-17q0 -67 -34.5 -117
t-98 -78t-149.5 -28zM421 560h-227l-133 130h209l32 -42h12l32 42h209z" />
    <glyph glyph-name="Dcaron" unicode="&#x10e;" horiz-adv-x="761" 
d="M380 0h-292v169h292q60 0 95 10t50 45.5t15 110.5q0 76 -15 111t-50 45t-95 10h-292v169h292q111 0 192 -39.5t125 -114.5t44 -181t-44 -181t-125 -114.5t-192 -39.5zM229 0h-188v670h188v-670zM437 860h201l-133 -130h-227l-134 130h202l39 -42h12z" />
    <glyph glyph-name="dcaron" unicode="&#x10f;" horiz-adv-x="822" 
d="M259 -10q-77 0 -130.5 31.5t-81 90.5t-27.5 140q0 82 27 140.5t78.5 90t125.5 31.5q89 0 134 -38.5t56 -101.5h29v-116h-19q0 53 -30.5 69t-93.5 16q-43 0 -69 -9t-37 -28.5t-11 -53.5q0 -33 11 -53t37 -28.5t69 -8.5q42 0 69.5 7t41 26.5t13.5 55.5h19l14 -115h-31
q-12 -75 -58.5 -110.5t-135.5 -35.5zM639 0h-176v142l-12 13v515h188v-670zM843 540h-178v130h178v-130zM723 416h-51v91h46q14 0 20 5t6 20v24h99v-22q0 -60 -31 -89t-89 -29z" />
    <glyph glyph-name="Dcroat" unicode="&#x110;" horiz-adv-x="834" 
d="M453 0h-292v169h292q60 0 95 10t50 45.5t15 110.5q0 76 -15 111t-50 45t-95 10h-292v169h292q111 0 192 -39.5t125 -114.5t44 -181t-44 -181t-125 -114.5t-192 -39.5zM302 0h-188v670h188v-670zM484 251h-474v168h474v-168z" />
    <glyph glyph-name="dcroat" unicode="&#x111;" horiz-adv-x="715" 
d="M259 -10q-77 0 -130.5 29t-81 83.5t-27.5 129.5q0 76 27 130t78.5 83t125.5 29q56 0 95.5 -17.5t63.5 -49t31 -73.5h29v-96h-19q0 27 -13.5 41t-41 19t-69.5 5q-43 0 -69 -7t-37 -22.5t-11 -41.5t11 -41.5t37 -22t69 -6.5q42 0 69.5 5.5t41 20.5t13.5 43h19l14 -95h-31
q-12 -67 -58.5 -106.5t-135.5 -39.5zM639 0h-176v162l-12 13v495h188v-670zM719 474h-367v140h367v-140z" />
    <glyph glyph-name="Emacron" unicode="&#x112;" horiz-adv-x="648" 
d="M218 0h-188v670h188v-670zM625 0h-544v169h544v-169zM610 253h-529v168h529v-168zM625 501h-544v169h544v-169zM504 731h-355v134h355v-134z" />
    <glyph glyph-name="emacron" unicode="&#x113;" horiz-adv-x="612" 
d="M311 -10q-85 0 -151 26t-103 84t-37 152q0 82 37 140.5t101.5 90t148.5 31.5q87 0 151 -28.5t99 -84t35 -136.5q0 -13 -0.5 -23.5t-2.5 -24.5h-446v95h310l-41 -59v17.5v17.5q0 46 -23.5 64t-85.5 18q-64 0 -86.5 -20t-22.5 -72v-48q0 -53 23 -72t87 -19q57 0 76.5 10.5
t19.5 32.5v11h188v-12q0 -56 -34 -99t-96 -67.5t-147 -24.5zM483 558h-355v134h355v-134z" />
    <glyph glyph-name="Ebreve" unicode="&#x114;" horiz-adv-x="648" 
d="M218 0h-188v670h188v-670zM625 0h-544v169h544v-169zM610 253h-529v168h529v-168zM625 501h-544v169h544v-169zM327 720q-79 0 -127.5 39.5t-48.5 100.5v13h131v-10q0 -16 8 -23.5t37 -7.5q30 0 37.5 7.5t7.5 23.5v10h131v-13q0 -61 -48.5 -100.5t-127.5 -39.5z" />
    <glyph glyph-name="ebreve" unicode="&#x115;" horiz-adv-x="612" 
d="M311 -10q-85 0 -151 26t-103 84t-37 152q0 82 37 140.5t101.5 90t148.5 31.5q87 0 151 -28.5t99 -84t35 -136.5q0 -13 -0.5 -23.5t-2.5 -24.5h-446v95h310l-41 -59v17.5v17.5q0 46 -23.5 64t-85.5 18q-64 0 -86.5 -20t-22.5 -72v-48q0 -53 23 -72t87 -19q57 0 76.5 10.5
t19.5 32.5v11h188v-12q0 -56 -34 -99t-96 -67.5t-147 -24.5zM306 550q-79 0 -127.5 39.5t-48.5 100.5v4h131v-1q0 -19 8 -26.5t37 -7.5q30 0 37.5 7.5t7.5 26.5v1h131v-4q0 -61 -48.5 -100.5t-127.5 -39.5z" />
    <glyph glyph-name="Edotaccent" unicode="&#x116;" horiz-adv-x="648" 
d="M218 0h-188v670h188v-670zM625 0h-544v169h544v-169zM610 253h-529v168h529v-168zM625 501h-544v169h544v-169zM421 730h-188v139h188v-139z" />
    <glyph glyph-name="edotaccent" unicode="&#x117;" horiz-adv-x="612" 
d="M311 -10q-85 0 -151 26t-103 84t-37 152q0 82 37 140.5t101.5 90t148.5 31.5q87 0 151 -28.5t99 -84t35 -136.5q0 -13 -0.5 -23.5t-2.5 -24.5h-446v95h310l-41 -59v17.5v17.5q0 46 -23.5 64t-85.5 18q-64 0 -86.5 -20t-22.5 -72v-48q0 -53 23 -72t87 -19q57 0 76.5 10.5
t19.5 32.5v11h188v-12q0 -56 -34 -99t-96 -67.5t-147 -24.5zM400 560h-188v139h188v-139z" />
    <glyph glyph-name="Eogonek" unicode="&#x118;" horiz-adv-x="648" 
d="M218 0h-188v670h188v-670zM625 0h-544v169h544v-169zM610 253h-529v168h529v-168zM625 501h-544v169h544v-169zM634 -187h-100q-57 0 -80 20t-23 51q0 28 15.5 49.5t34.5 42.5l23 24h121l-45 -56q-4 -4 -6 -8t-2 -7t2 -4.5t6 -1.5h54v-110z" />
    <glyph glyph-name="eogonek" unicode="&#x119;" horiz-adv-x="612" 
d="M311 -10q-85 0 -151 26t-103 84t-37 152q0 82 37 140.5t101.5 90t148.5 31.5q87 0 151 -28.5t99 -84t35 -136.5q0 -13 -0.5 -23.5t-2.5 -24.5h-446v95h310l-41 -59v17.5v17.5q0 46 -23.5 64t-85.5 18q-64 0 -86.5 -20t-22.5 -72v-48q0 -53 23 -72t87 -19q57 0 76.5 10.5
t19.5 32.5v11h188v-12q0 -56 -34 -99t-96 -67.5t-147 -24.5zM417 -187h-100q-57 0 -80 20t-23 51q0 28 15.5 49.5t34.5 42.5l23 24h121l-45 -56q-4 -4 -6 -8t-2 -7t2 -4.5t6 -1.5h54v-110z" />
    <glyph glyph-name="Ecaron" unicode="&#x11a;" horiz-adv-x="648" 
d="M218 0h-188v670h188v-670zM625 0h-544v169h544v-169zM610 253h-529v168h529v-168zM625 501h-544v169h544v-169zM373 860h201l-133 -130h-227l-134 130h202l39 -42h12z" />
    <glyph glyph-name="ecaron" unicode="&#x11b;" horiz-adv-x="612" 
d="M311 -10q-85 0 -151 26t-103 84t-37 152q0 82 37 140.5t101.5 90t148.5 31.5q87 0 151 -28.5t99 -84t35 -136.5q0 -13 -0.5 -23.5t-2.5 -24.5h-446v95h310l-41 -59v17.5v17.5q0 46 -23.5 64t-85.5 18q-64 0 -86.5 -20t-22.5 -72v-48q0 -53 23 -72t87 -19q57 0 76.5 10.5
t19.5 32.5v11h188v-12q0 -56 -34 -99t-96 -67.5t-147 -24.5zM419 560h-227l-133 130h209l32 -42h12l32 42h209z" />
    <glyph glyph-name="Gcircumflex" unicode="&#x11c;" horiz-adv-x="797" 
d="M354 -10q-105 0 -180 42.5t-114.5 120t-39.5 182.5t46 182.5t133 120t209 42.5q114 0 195 -32t124 -91.5t43 -142.5v-7h-210v7q0 47 -34 66.5t-123 19.5q-72 0 -111.5 -13.5t-55.5 -49t-16 -102.5q0 -66 15 -102t52.5 -49.5t105.5 -13.5q81 0 122 5.5t54.5 24t13.5 57.5
v37l188 4v-14l-163 -141h-22q-9 -39 -33.5 -74t-72 -57t-126.5 -22zM771 0h-175v191l-13 21v145h188v-357zM771 228h-396v138h396v-138zM361 730h-201l133 130h227l134 -130h-202l-39 42h-12z" />
    <glyph glyph-name="gcircumflex" unicode="&#x11d;" horiz-adv-x="659" 
d="M328 -180q-88 0 -150 24t-95 70t-33 112h188q0 -20 5.5 -31.5t27 -15.5t70.5 -4q41 0 62.5 6.5t29.5 27.5t8 63v308h12v124h176v-419q0 -90 -35 -148.5t-102 -87.5t-164 -29zM254 56q-75 0 -127 27.5t-79.5 79t-27.5 123.5q0 71 28.5 122t82.5 78.5t128 27.5
q77 0 125.5 -31.5t58.5 -96.5h31l-14 -99h-19q0 27 -12.5 41t-38.5 19t-68 5q-44 0 -68.5 -6.5t-34 -20.5t-9.5 -39t9.5 -40t34 -22t68.5 -7q63 0 91 11.5t28 51.5h19v-102h-29q-10 -55 -52 -88.5t-125 -33.5zM279 560h-201l133 130h227l134 -130h-202l-39 42h-12z" />
    <glyph glyph-name="Gbreve" unicode="&#x11e;" horiz-adv-x="797" 
d="M354 -10q-105 0 -180 42.5t-114.5 120t-39.5 182.5t46 182.5t133 120t209 42.5q114 0 195 -32t124 -91.5t43 -142.5v-7h-210v7q0 47 -34 66.5t-123 19.5q-72 0 -111.5 -13.5t-55.5 -49t-16 -102.5q0 -66 15 -102t52.5 -49.5t105.5 -13.5q81 0 122 5.5t54.5 24t13.5 57.5
v37l188 4v-14l-163 -141h-22q-9 -39 -33.5 -74t-72 -57t-126.5 -22zM771 0h-175v191l-13 21v145h188v-357zM771 228h-396v138h396v-138zM407 720q-79 0 -127.5 39.5t-48.5 100.5v13h131v-10q0 -16 8 -23.5t37 -7.5q30 0 37.5 7.5t7.5 23.5v10h131v-13q0 -61 -48.5 -100.5
t-127.5 -39.5z" />
    <glyph glyph-name="gbreve" unicode="&#x11f;" horiz-adv-x="659" 
d="M328 -180q-88 0 -150 24t-95 70t-33 112h188q0 -20 5.5 -31.5t27 -15.5t70.5 -4q41 0 62.5 6.5t29.5 27.5t8 63v308h12v124h176v-419q0 -90 -35 -148.5t-102 -87.5t-164 -29zM254 56q-75 0 -127 27.5t-79.5 79t-27.5 123.5q0 71 28.5 122t82.5 78.5t128 27.5
q77 0 125.5 -31.5t58.5 -96.5h31l-14 -99h-19q0 27 -12.5 41t-38.5 19t-68 5q-44 0 -68.5 -6.5t-34 -20.5t-9.5 -39t9.5 -40t34 -22t68.5 -7q63 0 91 11.5t28 51.5h19v-102h-29q-10 -55 -52 -88.5t-125 -33.5zM325 550q-79 0 -127.5 39.5t-48.5 100.5v4h131v-1
q0 -19 8 -26.5t37 -7.5q30 0 37.5 7.5t7.5 26.5v1h131v-4q0 -61 -48.5 -100.5t-127.5 -39.5z" />
    <glyph glyph-name="Gdotaccent" unicode="&#x120;" horiz-adv-x="797" 
d="M354 -10q-105 0 -180 42.5t-114.5 120t-39.5 182.5t46 182.5t133 120t209 42.5q114 0 195 -32t124 -91.5t43 -142.5v-7h-210v7q0 47 -34 66.5t-123 19.5q-72 0 -111.5 -13.5t-55.5 -49t-16 -102.5q0 -66 15 -102t52.5 -49.5t105.5 -13.5q81 0 122 5.5t54.5 24t13.5 57.5
v37l188 4v-14l-163 -141h-22q-9 -39 -33.5 -74t-72 -57t-126.5 -22zM771 0h-175v191l-13 21v145h188v-357zM771 228h-396v138h396v-138zM501 730h-188v139h188v-139z" />
    <glyph glyph-name="gdotaccent" unicode="&#x121;" horiz-adv-x="659" 
d="M328 -180q-88 0 -150 24t-95 70t-33 112h188q0 -20 5.5 -31.5t27 -15.5t70.5 -4q41 0 62.5 6.5t29.5 27.5t8 63v308h12v124h176v-419q0 -90 -35 -148.5t-102 -87.5t-164 -29zM254 56q-75 0 -127 27.5t-79.5 79t-27.5 123.5q0 71 28.5 122t82.5 78.5t128 27.5
q77 0 125.5 -31.5t58.5 -96.5h31l-14 -99h-19q0 27 -12.5 41t-38.5 19t-68 5q-44 0 -68.5 -6.5t-34 -20.5t-9.5 -39t9.5 -40t34 -22t68.5 -7q63 0 91 11.5t28 51.5h19v-102h-29q-10 -55 -52 -88.5t-125 -33.5zM419 560h-188v139h188v-139z" />
    <glyph glyph-name="Gcommaaccent" unicode="&#x122;" horiz-adv-x="797" 
d="M354 -10q-105 0 -180 42.5t-114.5 120t-39.5 182.5t46 182.5t133 120t209 42.5q114 0 195 -32t124 -91.5t43 -142.5v-7h-210v7q0 47 -34 66.5t-123 19.5q-72 0 -111.5 -13.5t-55.5 -49t-16 -102.5q0 -66 15 -102t52.5 -49.5t105.5 -13.5q81 0 122 5.5t54.5 24t13.5 57.5
v37l188 4v-14l-163 -141h-22q-9 -39 -33.5 -74t-72 -57t-126.5 -22zM771 0h-175v191l-13 21v145h188v-357zM771 228h-396v138h396v-138zM381 -200h-220l112 130h273z" />
    <glyph glyph-name="gcommaaccent" unicode="&#x123;" horiz-adv-x="659" 
d="M328 -180q-88 0 -150 24t-95 70t-33 112h188q0 -20 5.5 -31.5t27 -15.5t70.5 -4q41 0 62.5 6.5t29.5 27.5t8 63v308h12v124h176v-419q0 -90 -35 -148.5t-102 -87.5t-164 -29zM254 56q-75 0 -127 27.5t-79.5 79t-27.5 123.5q0 71 28.5 122t82.5 78.5t128 27.5
q77 0 125.5 -31.5t58.5 -96.5h31l-14 -99h-19q0 27 -12.5 41t-38.5 19t-68 5q-44 0 -68.5 -6.5t-34 -20.5t-9.5 -39t9.5 -40t34 -22t68.5 -7q63 0 91 11.5t28 51.5h19v-102h-29q-10 -55 -52 -88.5t-125 -33.5zM345 690h191l-94 -130h-245z" />
    <glyph glyph-name="Hcircumflex" unicode="&#x124;" horiz-adv-x="748" 
d="M718 0h-188v670h188v-670zM218 0h-188v670h188v-670zM627 252h-548v169h548v-169zM328 730h-201l133 130h227l134 -130h-202l-39 42h-12z" />
    <glyph glyph-name="hcircumflex" unicode="&#x125;" horiz-adv-x="653" 
d="M627 0h-188v254q0 53 -24 72.5t-89 19.5q-43 0 -66.5 -8t-32.5 -26.5t-9 -51.5h-23v91h33q8 43 30.5 80t64.5 60t106 23q67 0 111 -26t65.5 -70.5t21.5 -100.5v-317zM218 0h-188v670h188v-670zM76 730h-201l133 130h227l134 -130h-202l-39 42h-12z" />
    <glyph glyph-name="Hbar" unicode="&#x126;" horiz-adv-x="748" 
d="M718 0h-188v670h188v-670zM218 0h-188v670h188v-670zM627 252h-548v169h548v-169zM788 457h-829v169h829v-169z" />
    <glyph glyph-name="hbar" unicode="&#x127;" horiz-adv-x="706" 
d="M680 0h-188v214q0 53 -24 72.5t-89 19.5q-43 0 -66.5 -8t-32.5 -26.5t-9 -51.5h-23v91h33q8 43 30.5 80t64.5 60t106 23q67 0 111 -26t65.5 -70.5t21.5 -100.5v-277zM271 0h-188v670h188v-670zM367 474h-367v140h367v-140z" />
    <glyph glyph-name="Itilde" unicode="&#x128;" 
d="M218 0h-188v670h188v-670zM43 712h-125v50q0 26 7.5 52t30 43.5t66.5 17.5q17 0 38.5 -4.5t49.5 -14.5l34 -12q13 -4 23 -7t17 -3q11 0 16.5 6t5.5 19v7h124v-49q0 -49 -22.5 -81.5t-73.5 -32.5q-23 0 -46 6t-45 13l-46 15q-13 5 -22 7t-15 2q-10 0 -13.5 -5.5
t-3.5 -12.5v-16z" />
    <glyph glyph-name="itilde" unicode="&#x129;" horiz-adv-x="279" 
d="M233 0h-187v500h187v-500zM59 542h-125v50q0 26 7.5 52t30 43.5t66.5 17.5q17 0 38.5 -4.5t49.5 -14.5l34 -12q13 -4 23 -7t17 -3q11 0 16.5 6t5.5 19v7h124v-49q0 -49 -22.5 -81.5t-73.5 -32.5q-23 0 -46 6t-45 13l-46 15q-13 5 -22 7t-15 2q-10 0 -13.5 -5.5
t-3.5 -12.5v-16z" />
    <glyph glyph-name="Imacron" unicode="&#x12a;" 
d="M218 0h-188v670h188v-670zM301 731h-355v134h355v-134z" />
    <glyph glyph-name="imacron" unicode="&#x12b;" horiz-adv-x="279" 
d="M233 0h-187v500h187v-500zM317 558h-355v134h355v-134z" />
    <glyph glyph-name="Ibreve" unicode="&#x12c;" 
d="M218 0h-188v670h188v-670zM124 720q-79 0 -127.5 39.5t-48.5 100.5v13h131v-10q0 -16 8 -23.5t37 -7.5q30 0 37.5 7.5t7.5 23.5v10h131v-13q0 -61 -48.5 -100.5t-127.5 -39.5z" />
    <glyph glyph-name="ibreve" unicode="&#x12d;" horiz-adv-x="279" 
d="M233 0h-187v500h187v-500zM140 550q-79 0 -127.5 39.5t-48.5 100.5v4h131v-1q0 -19 8 -26.5t37 -7.5q30 0 37.5 7.5t7.5 26.5v1h131v-4q0 -61 -48.5 -100.5t-127.5 -39.5z" />
    <glyph glyph-name="Iogonek" unicode="&#x12e;" 
d="M218 0h-188v670h188v-670zM227 -187h-100q-57 0 -80 20t-23 51q0 28 15.5 49.5t34.5 42.5l23 24h121l-45 -56q-4 -4 -6 -8t-2 -7t2 -4.5t6 -1.5h54v-110z" />
    <glyph glyph-name="iogonek" unicode="&#x12f;" 
d="M218 0h-188v504h188v-504zM218 550h-188v120h188v-120zM227 -187h-100q-57 0 -80 20t-23 51q0 28 15.5 49.5t34.5 42.5l23 24h121l-45 -56q-4 -4 -6 -8t-2 -7t2 -4.5t6 -1.5h54v-110z" />
    <glyph glyph-name="Idotaccent" unicode="&#x130;" 
d="M218 0h-188v670h188v-670zM218 730h-188v139h188v-139z" />
    <glyph glyph-name="dotlessi" unicode="&#x131;" horiz-adv-x="279" 
d="M233 0h-187v500h187v-500z" />
    <glyph glyph-name="IJ" unicode="&#x132;" horiz-adv-x="912" 
d="M218 0h-188v670h188v-670zM571 -10q-114 0 -183 34t-99.5 100t-30.5 163v26h200v-24q0 -45 6 -70.5t29.5 -36t77.5 -10.5t78 9.5t30.5 33t6.5 64.5v391h200v-393q0 -93 -31 -157t-100 -97t-184 -33z" />
    <glyph glyph-name="ij" unicode="&#x133;" horiz-adv-x="496" 
d="M218 0h-188v504h188v-504zM218 550h-188v120h188v-120zM240 -170h-18v138h19q19 0 28 8t9 28v500h188v-472q0 -79 -26.5 -123t-77 -61.5t-122.5 -17.5zM466 550h-188v120h188v-120z" />
    <glyph glyph-name="Jcircumflex" unicode="&#x134;" horiz-adv-x="664" 
d="M323 -10q-114 0 -183 34t-99.5 100t-30.5 163v26h200v-24q0 -45 6 -70.5t29.5 -36t77.5 -10.5t78 9.5t30.5 33t6.5 64.5v391h200v-393q0 -93 -31 -157t-100 -97t-184 -33zM492 730h-201l133 130h227l134 -130h-202l-39 42h-12z" />
    <glyph glyph-name="jcircumflex" unicode="&#x135;" 
d="M-8 -170h-18v138h19q19 0 28 8t9 28v500h188v-472q0 -79 -26.5 -123t-77 -61.5t-122.5 -17.5zM78 560h-201l133 130h227l134 -130h-202l-39 42h-12z" />
    <glyph glyph-name="Kcommaaccent" unicode="&#x136;" horiz-adv-x="731" 
d="M736 0h-225l-156 238h-192v183h190l163 249h225l-232 -329zM218 0h-188v670h188v-670zM357 -200h-220l112 130h273z" />
    <glyph glyph-name="kcommaaccent" unicode="&#x137;" horiz-adv-x="630" 
d="M637 0h-222l-106 161h-178v168h176l111 175h222l-179 -245zM218 0h-188v670h188v-670zM323 -200h-191l94 130h245z" />
    <glyph glyph-name="Lacute" unicode="&#x139;" horiz-adv-x="625" 
d="M218 0h-188v670h188v-670zM605 0h-523v169h523v-169zM232 730h-202l133 134h271z" />
    <glyph glyph-name="lacute" unicode="&#x13a;" 
d="M218 0h-188v670h188v-670zM232 730h-202l133 134h271z" />
    <glyph glyph-name="Lcommaaccent" unicode="&#x13b;" horiz-adv-x="625" 
d="M218 0h-188v670h188v-670zM605 0h-523v169h523v-169zM306 -200h-220l112 130h273z" />
    <glyph glyph-name="lcommaaccent" unicode="&#x13c;" 
d="M218 0h-188v670h188v-670zM97 -200h-191l94 130h245z" />
    <glyph glyph-name="Lcaron" unicode="&#x13d;" horiz-adv-x="625" 
d="M218 0h-188v670h188v-670zM605 0h-523v169h523v-169zM568 478h-244v192h244v-192zM402 302h-68v125h62q18 0 26.5 7t8.5 29v38h137v-36q0 -82 -43 -122.5t-123 -40.5z" />
    <glyph glyph-name="lcaron" unicode="&#x13e;" horiz-adv-x="463" 
d="M218 0h-188v670h188v-670zM458 540h-178v130h178v-130zM338 416h-51v91h46q14 0 20 5t6 20v24h99v-22q0 -60 -31 -89t-89 -29z" />
    <glyph glyph-name="Ldot" unicode="&#x13f;" horiz-adv-x="625" 
d="M218 0h-188v670h188v-670zM605 0h-523v169h523v-169zM226 730h-188v139h188v-139z" />
    <glyph glyph-name="ldot" unicode="&#x140;" horiz-adv-x="436" 
d="M436 266h-188v139h188v-139zM218 0h-188v670h188v-670z" />
    <glyph glyph-name="Lslash" unicode="&#x141;" horiz-adv-x="679" 
d="M272 0h-188v670h188v-670zM659 0h-523v169h523v-169zM476 336l-466 -162v174l466 162v-174z" />
    <glyph glyph-name="lslash" unicode="&#x142;" horiz-adv-x="402" 
d="M295 0h-188v670h188v-670zM412 405l-371 -164l-51 105l371 164z" />
    <glyph glyph-name="Nacute" unicode="&#x143;" horiz-adv-x="736" 
d="M218 0h-188v670h200l186 -251l98 -154h13l-9 146v259h188v-670h-200l-198 258l-85 132h-13l8 -128v-262zM468 730h-202l133 134h271z" />
    <glyph glyph-name="nacute" unicode="&#x144;" horiz-adv-x="643" 
d="M617 0h-188v254q0 53 -23 72.5t-85 19.5t-82.5 -18.5t-20.5 -67.5h-19l-16 91h33q6 42 27.5 79t64 60.5t109.5 23.5q68 0 112.5 -25t66 -68t21.5 -98v-323zM218 0h-188v504h176v-155l12 -5v-344zM425 560h-204l134 130h272z" />
    <glyph glyph-name="Ncommaaccent" unicode="&#x145;" horiz-adv-x="736" 
d="M218 0h-188v670h200l186 -251l98 -154h13l-9 146v259h188v-670h-200l-198 258l-85 132h-13l8 -128v-262zM357 -200h-220l112 130h273z" />
    <glyph glyph-name="ncommaaccent" unicode="&#x146;" horiz-adv-x="643" 
d="M617 0h-188v254q0 53 -23 72.5t-85 19.5t-82.5 -18.5t-20.5 -67.5h-19l-16 91h33q6 42 27.5 79t64 60.5t109.5 23.5q68 0 112.5 -25t66 -68t21.5 -98v-323zM218 0h-188v504h176v-155l12 -5v-344zM306 -200h-191l94 130h245z" />
    <glyph glyph-name="Ncaron" unicode="&#x147;" horiz-adv-x="736" 
d="M218 0h-188v670h200l186 -251l98 -154h13l-9 146v259h188v-670h-200l-198 258l-85 132h-13l8 -128v-262zM414 860h201l-133 -130h-227l-134 130h202l39 -42h12z" />
    <glyph glyph-name="ncaron" unicode="&#x148;" horiz-adv-x="643" 
d="M617 0h-188v254q0 53 -23 72.5t-85 19.5t-82.5 -18.5t-20.5 -67.5h-19l-16 91h33q6 42 27.5 79t64 60.5t109.5 23.5q68 0 112.5 -25t66 -68t21.5 -98v-323zM218 0h-188v504h176v-155l12 -5v-344zM436 560h-227l-133 130h209l32 -42h12l32 42h209z" />
    <glyph glyph-name="Eng" unicode="&#x14a;" horiz-adv-x="736" 
d="M447 -170h-122v168h118q40 0 50.5 8t10.5 27l2 -33l-198 258l-85 132h-13l8 -128v-262h-188v670h200l186 -251l98 -154h13l-9 146v259h188v-595q0 -95 -32 -148.5t-90 -75t-137 -21.5z" />
    <glyph glyph-name="eng" unicode="&#x14b;" horiz-adv-x="643" 
d="M391 -170h-18v138h19q19 0 28 8t9 28v250q0 53 -23 72.5t-85 19.5t-82.5 -18.5t-20.5 -67.5h-19l-16 91h33q6 42 27.5 79t64 60.5t109.5 23.5q68 0 112.5 -25t66 -68t21.5 -98v-326q0 -64 -28.5 -100.5t-79 -51.5t-118.5 -15zM218 0h-188v504h176v-155l12 -5v-344z" />
    <glyph glyph-name="Omacron" unicode="&#x14c;" horiz-adv-x="786" 
d="M391 -10q-116 0 -199.5 42.5t-127.5 120t-44 182.5t44 182.5t127.5 120t199.5 42.5q120 0 203.5 -42.5t127.5 -120t44 -182.5t-44 -182.5t-127.5 -120t-203.5 -42.5zM391 170q68 0 106 13.5t53.5 49.5t15.5 102q0 67 -15.5 102.5t-53.5 49t-106 13.5t-105 -13.5
t-51.5 -49t-14.5 -102.5q0 -66 14.5 -102t51.5 -49.5t105 -13.5zM570 731h-355v134h355v-134z" />
    <glyph glyph-name="omacron" unicode="&#x14d;" horiz-adv-x="618" 
d="M309 -10q-87 0 -153.5 31.5t-103.5 90.5t-37 140q0 82 37 140.5t103.5 90t153.5 31.5q88 0 154 -31.5t103 -90t37 -140.5q0 -81 -37 -140t-103 -90.5t-154 -31.5zM309 156q64 0 86 20.5t22 75.5t-22 76t-86 21t-86 -21t-22 -76t22 -75.5t86 -20.5zM486 558h-355v134h355
v-134z" />
    <glyph glyph-name="Obreve" unicode="&#x14e;" horiz-adv-x="786" 
d="M391 -10q-116 0 -199.5 42.5t-127.5 120t-44 182.5t44 182.5t127.5 120t199.5 42.5q120 0 203.5 -42.5t127.5 -120t44 -182.5t-44 -182.5t-127.5 -120t-203.5 -42.5zM391 170q68 0 106 13.5t53.5 49.5t15.5 102q0 67 -15.5 102.5t-53.5 49t-106 13.5t-105 -13.5
t-51.5 -49t-14.5 -102.5q0 -66 14.5 -102t51.5 -49.5t105 -13.5zM393 720q-79 0 -127.5 39.5t-48.5 100.5v13h131v-10q0 -16 8 -23.5t37 -7.5q30 0 37.5 7.5t7.5 23.5v10h131v-13q0 -61 -48.5 -100.5t-127.5 -39.5z" />
    <glyph glyph-name="obreve" unicode="&#x14f;" horiz-adv-x="618" 
d="M309 -10q-87 0 -153.5 31.5t-103.5 90.5t-37 140q0 82 37 140.5t103.5 90t153.5 31.5q88 0 154 -31.5t103 -90t37 -140.5q0 -81 -37 -140t-103 -90.5t-154 -31.5zM309 156q64 0 86 20.5t22 75.5t-22 76t-86 21t-86 -21t-22 -76t22 -75.5t86 -20.5zM309 550
q-79 0 -127.5 39.5t-48.5 100.5v4h131v-1q0 -19 8 -26.5t37 -7.5q30 0 37.5 7.5t7.5 26.5v1h131v-4q0 -61 -48.5 -100.5t-127.5 -39.5z" />
    <glyph glyph-name="Ohungarumlaut" unicode="&#x150;" horiz-adv-x="786" 
d="M391 -10q-116 0 -199.5 42.5t-127.5 120t-44 182.5t44 182.5t127.5 120t199.5 42.5q120 0 203.5 -42.5t127.5 -120t44 -182.5t-44 -182.5t-127.5 -120t-203.5 -42.5zM391 170q68 0 106 13.5t53.5 49.5t15.5 102q0 67 -15.5 102.5t-53.5 49t-106 13.5t-105 -13.5
t-51.5 -49t-14.5 -102.5q0 -66 14.5 -102t51.5 -49.5t105 -13.5zM607 730h-190l80 134h246zM315 730h-190l79 134h247z" />
    <glyph glyph-name="ohungarumlaut" unicode="&#x151;" horiz-adv-x="618" 
d="M309 -10q-87 0 -153.5 31.5t-103.5 90.5t-37 140q0 82 37 140.5t103.5 90t153.5 31.5q88 0 154 -31.5t103 -90t37 -140.5q0 -81 -37 -140t-103 -90.5t-154 -31.5zM309 156q64 0 86 20.5t22 75.5t-22 76t-86 21t-86 -21t-22 -76t22 -75.5t86 -20.5zM530 560h-190l80 130
h246zM238 560h-190l79 130h247z" />
    <glyph glyph-name="OE" unicode="&#x152;" horiz-adv-x="1141" 
d="M578 0h-206q-105 0 -184.5 39.5t-123.5 114.5t-44 181t44 181t123.5 114.5t184.5 39.5h206v-169h-206q-55 0 -88 -10t-47.5 -45t-14.5 -111q0 -75 14.5 -110.5t47.5 -45.5t88 -10h206v-169zM711 0h-188v670h188v-670zM1118 0h-544v169h544v-169zM1103 253h-529v168h529
v-168zM1118 501h-544v169h544v-169z" />
    <glyph glyph-name="oe" unicode="&#x153;" horiz-adv-x="1021" 
d="M309 -10q-87 0 -153.5 31.5t-103.5 90.5t-37 140q0 82 37 140.5t103.5 90t153.5 31.5q88 0 154 -31.5t103 -90t37 -140.5q0 -81 -37 -140t-103 -90.5t-154 -31.5zM309 156q64 0 86 20.5t22 75.5t-22 76t-86 21t-86 -21t-22 -76t22 -75.5t86 -20.5zM720 -10q-85 0 -151 26
t-103 84t-37 152q0 82 37 140.5t101.5 90t148.5 31.5q87 0 151 -28.5t99 -84t35 -136.5q0 -13 -0.5 -23.5t-2.5 -24.5h-446v95h310l-41 -59v17.5v17.5q0 46 -23.5 64t-85.5 18q-64 0 -86.5 -20t-22.5 -72v-48q0 -53 23 -72t87 -19q57 0 76.5 10.5t19.5 32.5v11h188v-12
q0 -56 -34 -99t-96 -67.5t-147 -24.5z" />
    <glyph glyph-name="Racute" unicode="&#x154;" horiz-adv-x="709" 
d="M218 0h-188v670h391q89 0 149 -24t90.5 -69.5t30.5 -111.5q0 -53 -18.5 -91.5t-58.5 -62t-104 -31.5v-10q52 -13 74.5 -38.5t41.5 -63.5l83 -168h-217l-80 164q-12 25 -25 39t-34 19.5t-58 5.5h-77v-228zM218 501v-133h201q41 0 58 12t17 55q0 40 -17 53t-58 13h-201z
M449 730h-202l133 134h271z" />
    <glyph glyph-name="racute" unicode="&#x155;" horiz-adv-x="547" 
d="M218 0h-188v504h176v-144l12 -5v-355zM218 301h-35v71h33q7 42 27 74t54.5 50t84.5 18q56 0 90 -22.5t49.5 -61.5t15.5 -90v-100h-188v59q0 32 -14 44.5t-51 12.5q-38 0 -52 -12.5t-14 -42.5zM385 560h-204l134 130h272z" />
    <glyph glyph-name="Rcommaaccent" unicode="&#x156;" horiz-adv-x="709" 
d="M218 0h-188v670h391q89 0 149 -24t90.5 -69.5t30.5 -111.5q0 -53 -18.5 -91.5t-58.5 -62t-104 -31.5v-10q52 -13 74.5 -38.5t41.5 -63.5l83 -168h-217l-80 164q-12 25 -25 39t-34 19.5t-58 5.5h-77v-228zM218 501v-133h201q41 0 58 12t17 55q0 40 -17 53t-58 13h-201z
M338 -200h-220l112 130h273z" />
    <glyph glyph-name="rcommaaccent" unicode="&#x157;" horiz-adv-x="547" 
d="M218 0h-188v504h176v-144l12 -5v-355zM218 301h-35v71h33q7 42 27 74t54.5 50t84.5 18q56 0 90 -22.5t49.5 -61.5t15.5 -90v-100h-188v59q0 32 -14 44.5t-51 12.5q-38 0 -52 -12.5t-14 -42.5zM96 -200h-191l94 130h245z" />
    <glyph glyph-name="Rcaron" unicode="&#x158;" horiz-adv-x="709" 
d="M218 0h-188v670h391q89 0 149 -24t90.5 -69.5t30.5 -111.5q0 -53 -18.5 -91.5t-58.5 -62t-104 -31.5v-10q52 -13 74.5 -38.5t41.5 -63.5l83 -168h-217l-80 164q-12 25 -25 39t-34 19.5t-58 5.5h-77v-228zM218 501v-133h201q41 0 58 12t17 55q0 40 -17 53t-58 13h-201z
M395 860h201l-133 -130h-227l-134 130h202l39 -42h12z" />
    <glyph glyph-name="rcaron" unicode="&#x159;" horiz-adv-x="547" 
d="M218 0h-188v504h176v-144l12 -5v-355zM218 301h-35v71h33q7 42 27 74t54.5 50t84.5 18q56 0 90 -22.5t49.5 -61.5t15.5 -90v-100h-188v59q0 32 -14 44.5t-51 12.5q-38 0 -52 -12.5t-14 -42.5zM396 560h-227l-133 130h209l32 -42h12l32 42h209z" />
    <glyph glyph-name="Sacute" unicode="&#x15a;" horiz-adv-x="684" 
d="M355 -10q-102 0 -176 25.5t-114 79t-40 138.5v6h188v-21q0 -22 9.5 -34.5t39.5 -17.5t93 -5q57 0 84 3.5t34.5 12t7.5 23.5q0 18 -13.5 27t-54.5 14l-210 28q-62 9 -104 33.5t-63 64.5t-21 94q0 40 17 79t55 70.5t100 50.5t153 19q107 0 176.5 -29.5t104 -84t34.5 -129.5
v-6h-188v15q0 24 -10.5 38t-42 20t-94.5 6q-48 0 -73 -4.5t-34.5 -13.5t-9.5 -24q0 -10 4.5 -17.5t15 -11.5t28.5 -7l210 -31q82 -12 127 -41.5t63 -69.5t18 -83q0 -57 -31.5 -106.5t-100.5 -80t-182 -30.5zM442 730h-202l133 134h271z" />
    <glyph glyph-name="sacute" unicode="&#x15b;" horiz-adv-x="577" 
d="M301 -10q-133 0 -203 49t-70 136v4h188v-10q0 -21 17.5 -26t68.5 -5q49 0 62 5.5t13 18.5q0 12 -10 16.5t-45 8.5l-146 16q-78 8 -119 44.5t-41 100.5q0 45 25.5 82.5t83 60.5t151.5 23q88 0 147.5 -21t90 -62.5t30.5 -103.5v-4h-188v6q0 13 -5.5 21.5t-24 12.5t-56.5 4
q-46 0 -57.5 -6.5t-11.5 -20.5q0 -10 11.5 -16t55.5 -11l100 -11q110 -12 152 -49t42 -101q0 -47 -30.5 -83.5t-88.5 -57.5t-142 -21zM391 560h-204l134 130h272z" />
    <glyph glyph-name="Scircumflex" unicode="&#x15c;" horiz-adv-x="684" 
d="M355 -10q-102 0 -176 25.5t-114 79t-40 138.5v6h188v-21q0 -22 9.5 -34.5t39.5 -17.5t93 -5q57 0 84 3.5t34.5 12t7.5 23.5q0 18 -13.5 27t-54.5 14l-210 28q-62 9 -104 33.5t-63 64.5t-21 94q0 40 17 79t55 70.5t100 50.5t153 19q107 0 176.5 -29.5t104 -84t34.5 -129.5
v-6h-188v15q0 24 -10.5 38t-42 20t-94.5 6q-48 0 -73 -4.5t-34.5 -13.5t-9.5 -24q0 -10 4.5 -17.5t15 -11.5t28.5 -7l210 -31q82 -12 127 -41.5t63 -69.5t18 -83q0 -57 -31.5 -106.5t-100.5 -80t-182 -30.5zM296 730h-201l133 130h227l134 -130h-202l-39 42h-12z" />
    <glyph glyph-name="scircumflex" unicode="&#x15d;" horiz-adv-x="577" 
d="M301 -10q-133 0 -203 49t-70 136v4h188v-10q0 -21 17.5 -26t68.5 -5q49 0 62 5.5t13 18.5q0 12 -10 16.5t-45 8.5l-146 16q-78 8 -119 44.5t-41 100.5q0 45 25.5 82.5t83 60.5t151.5 23q88 0 147.5 -21t90 -62.5t30.5 -103.5v-4h-188v6q0 13 -5.5 21.5t-24 12.5t-56.5 4
q-46 0 -57.5 -6.5t-11.5 -20.5q0 -10 11.5 -16t55.5 -11l100 -11q110 -12 152 -49t42 -101q0 -47 -30.5 -83.5t-88.5 -57.5t-142 -21zM243 560h-201l133 130h227l134 -130h-202l-39 42h-12z" />
    <glyph glyph-name="Scedilla" unicode="&#x15e;" horiz-adv-x="684" 
d="M355 -10q-102 0 -176 25.5t-114 79t-40 138.5v6h188v-21q0 -22 9.5 -34.5t39.5 -17.5t93 -5q57 0 84 3.5t34.5 12t7.5 23.5q0 18 -13.5 27t-54.5 14l-210 28q-62 9 -104 33.5t-63 64.5t-21 94q0 40 17 79t55 70.5t100 50.5t153 19q107 0 176.5 -29.5t104 -84t34.5 -129.5
v-6h-188v15q0 24 -10.5 38t-42 20t-94.5 6q-48 0 -73 -4.5t-34.5 -13.5t-9.5 -24q0 -10 4.5 -17.5t15 -11.5t28.5 -7l210 -31q82 -12 127 -41.5t63 -69.5t18 -83q0 -57 -31.5 -106.5t-100.5 -80t-182 -30.5zM366 -241h-109v97h112q5 0 6.5 1.5t1.5 4.5q0 4 -1.5 5.5
t-6.5 1.5h-112v134h95v-39h14q57 0 86.5 -27.5t29.5 -73.5q0 -47 -29.5 -75.5t-86.5 -28.5z" />
    <glyph glyph-name="scedilla" unicode="&#x15f;" horiz-adv-x="577" 
d="M301 -10q-133 0 -203 49t-70 136v4h188v-10q0 -21 17.5 -26t68.5 -5q49 0 62 5.5t13 18.5q0 12 -10 16.5t-45 8.5l-146 16q-78 8 -119 44.5t-41 100.5q0 45 25.5 82.5t83 60.5t151.5 23q88 0 147.5 -21t90 -62.5t30.5 -103.5v-4h-188v6q0 13 -5.5 21.5t-24 12.5t-56.5 4
q-46 0 -57.5 -6.5t-11.5 -20.5q0 -10 11.5 -16t55.5 -11l100 -11q110 -12 152 -49t42 -101q0 -47 -30.5 -83.5t-88.5 -57.5t-142 -21zM342 -241h-109v97h112q5 0 6.5 1.5t1.5 4.5q0 4 -1.5 5.5t-6.5 1.5h-112v134h95v-39h14q57 0 86.5 -27.5t29.5 -73.5q0 -47 -29.5 -75.5
t-86.5 -28.5z" />
    <glyph glyph-name="Scaron" unicode="&#x160;" horiz-adv-x="684" 
d="M355 -10q-102 0 -176 25.5t-114 79t-40 138.5v6h188v-21q0 -22 9.5 -34.5t39.5 -17.5t93 -5q57 0 84 3.5t34.5 12t7.5 23.5q0 18 -13.5 27t-54.5 14l-210 28q-62 9 -104 33.5t-63 64.5t-21 94q0 40 17 79t55 70.5t100 50.5t153 19q107 0 176.5 -29.5t104 -84t34.5 -129.5
v-6h-188v15q0 24 -10.5 38t-42 20t-94.5 6q-48 0 -73 -4.5t-34.5 -13.5t-9.5 -24q0 -10 4.5 -17.5t15 -11.5t28.5 -7l210 -31q82 -12 127 -41.5t63 -69.5t18 -83q0 -57 -31.5 -106.5t-100.5 -80t-182 -30.5zM388 860h201l-133 -130h-227l-134 130h202l39 -42h12z" />
    <glyph glyph-name="scaron" unicode="&#x161;" horiz-adv-x="577" 
d="M301 -10q-133 0 -203 49t-70 136v4h188v-10q0 -21 17.5 -26t68.5 -5q49 0 62 5.5t13 18.5q0 12 -10 16.5t-45 8.5l-146 16q-78 8 -119 44.5t-41 100.5q0 45 25.5 82.5t83 60.5t151.5 23q88 0 147.5 -21t90 -62.5t30.5 -103.5v-4h-188v6q0 13 -5.5 21.5t-24 12.5t-56.5 4
q-46 0 -57.5 -6.5t-11.5 -20.5q0 -10 11.5 -16t55.5 -11l100 -11q110 -12 152 -49t42 -101q0 -47 -30.5 -83.5t-88.5 -57.5t-142 -21zM402 560h-227l-133 130h209l32 -42h12l32 42h209z" />
    <glyph glyph-name="Tcedilla" unicode="&#x162;" horiz-adv-x="691" 
d="M440 0h-188v670h188v-670zM676 501h-661v169h661v-169zM394 -241h-109v97h112q5 0 6.5 1.5t1.5 4.5q0 4 -1.5 5.5t-6.5 1.5h-112v134h95v-39h14q57 0 86.5 -27.5t29.5 -73.5q0 -47 -29.5 -75.5t-86.5 -28.5z" />
    <glyph glyph-name="tcedilla" unicode="&#x163;" horiz-adv-x="422" 
d="M407 0h-132q-94 0 -147.5 47t-53.5 145v399h188v-372q0 -30 11.5 -40t43.5 -10h90v-169zM407 350h-407v154h407v-154zM329 -241h-109v97h112q5 0 6.5 1.5t1.5 4.5q0 4 -1.5 5.5t-6.5 1.5h-112v134h95v-39h14q57 0 86.5 -27.5t29.5 -73.5q0 -47 -29.5 -75.5t-86.5 -28.5z
" />
    <glyph glyph-name="Tcaron" unicode="&#x164;" horiz-adv-x="691" 
d="M440 0h-188v670h188v-670zM676 501h-661v169h661v-169zM392 860h201l-133 -130h-227l-134 130h202l39 -42h12z" />
    <glyph glyph-name="tcaron" unicode="&#x165;" horiz-adv-x="363" 
d="M407 0h-132q-94 0 -147.5 47t-53.5 145v399h188v-372q0 -30 11.5 -40t43.5 -10h90v-169zM407 350h-407v154h407v-154zM462 674h-178v130h178v-130zM342 550h-51v91h46q14 0 20 5t6 20v24h99v-22q0 -60 -31 -89t-89 -29z" />
    <glyph glyph-name="Tbar" unicode="&#x166;" horiz-adv-x="691" 
d="M440 0h-188v670h188v-670zM676 501h-661v169h661v-169zM583 229h-474v168h474v-168z" />
    <glyph glyph-name="tbar" unicode="&#x167;" horiz-adv-x="422" 
d="M407 0h-132q-94 0 -147.5 47t-53.5 145v399h188v-372q0 -30 11.5 -40t43.5 -10h90v-169zM407 203h-407v133h407v-133zM407 370h-407v134h407v-134z" />
    <glyph glyph-name="Utilde" unicode="&#x168;" horiz-adv-x="736" 
d="M368 -10q-117 0 -192.5 35.5t-112.5 101t-37 154.5v389h188v-374q0 -48 12 -75t45.5 -38t96.5 -11q64 0 97 11t45 38t12 75v374h188v-389q0 -89 -37 -154.5t-112.5 -101t-192.5 -35.5zM287 712h-125v50q0 26 7.5 52t30 43.5t66.5 17.5q17 0 38.5 -4.5t49.5 -14.5l34 -12
q13 -4 23 -7t17 -3q11 0 16.5 6t5.5 19v7h124v-49q0 -49 -22.5 -81.5t-73.5 -32.5q-23 0 -46 6t-45 13l-46 15q-13 5 -22 7t-15 2q-10 0 -13.5 -5.5t-3.5 -12.5v-16z" />
    <glyph glyph-name="utilde" unicode="&#x169;" horiz-adv-x="653" 
d="M237 -10q-70 0 -116 25t-68.5 68t-22.5 98v323h188v-254q0 -52 24.5 -72t88.5 -20q65 0 86.5 18.5t21.5 67.5h19l16 -91h-33q-5 -42 -27 -79t-65 -60.5t-112 -23.5zM627 0h-176v155l-12 5v344h188v-504zM247 542h-125v50q0 26 7.5 52t30 43.5t66.5 17.5q17 0 38.5 -4.5
t49.5 -14.5l34 -12q13 -4 23 -7t17 -3q11 0 16.5 6t5.5 19v7h124v-49q0 -49 -22.5 -81.5t-73.5 -32.5q-23 0 -46 6t-45 13l-46 15q-13 5 -22 7t-15 2q-10 0 -13.5 -5.5t-3.5 -12.5v-16z" />
    <glyph glyph-name="Umacron" unicode="&#x16a;" horiz-adv-x="736" 
d="M368 -10q-117 0 -192.5 35.5t-112.5 101t-37 154.5v389h188v-374q0 -48 12 -75t45.5 -38t96.5 -11q64 0 97 11t45 38t12 75v374h188v-389q0 -89 -37 -154.5t-112.5 -101t-192.5 -35.5zM545 731h-355v134h355v-134z" />
    <glyph glyph-name="umacron" unicode="&#x16b;" horiz-adv-x="653" 
d="M237 -10q-70 0 -116 25t-68.5 68t-22.5 98v323h188v-254q0 -52 24.5 -72t88.5 -20q65 0 86.5 18.5t21.5 67.5h19l16 -91h-33q-5 -42 -27 -79t-65 -60.5t-112 -23.5zM627 0h-176v155l-12 5v344h188v-504zM505 558h-355v134h355v-134z" />
    <glyph glyph-name="Ubreve" unicode="&#x16c;" horiz-adv-x="736" 
d="M368 -10q-117 0 -192.5 35.5t-112.5 101t-37 154.5v389h188v-374q0 -48 12 -75t45.5 -38t96.5 -11q64 0 97 11t45 38t12 75v374h188v-389q0 -89 -37 -154.5t-112.5 -101t-192.5 -35.5zM368 720q-79 0 -127.5 39.5t-48.5 100.5v13h131v-10q0 -16 8 -23.5t37 -7.5
q30 0 37.5 7.5t7.5 23.5v10h131v-13q0 -61 -48.5 -100.5t-127.5 -39.5z" />
    <glyph glyph-name="ubreve" unicode="&#x16d;" horiz-adv-x="653" 
d="M237 -10q-70 0 -116 25t-68.5 68t-22.5 98v323h188v-254q0 -52 24.5 -72t88.5 -20q65 0 86.5 18.5t21.5 67.5h19l16 -91h-33q-5 -42 -27 -79t-65 -60.5t-112 -23.5zM627 0h-176v155l-12 5v344h188v-504zM328 550q-79 0 -127.5 39.5t-48.5 100.5v4h131v-1q0 -19 8 -26.5
t37 -7.5q30 0 37.5 7.5t7.5 26.5v1h131v-4q0 -61 -48.5 -100.5t-127.5 -39.5z" />
    <glyph glyph-name="Uring" unicode="&#x16e;" horiz-adv-x="736" 
d="M368 -10q-117 0 -192.5 35.5t-112.5 101t-37 154.5v389h188v-374q0 -48 12 -75t45.5 -38t96.5 -11q64 0 97 11t45 38t12 75v374h188v-389q0 -89 -37 -154.5t-112.5 -101t-192.5 -35.5zM368 675q-57 0 -93 29.5t-36 77.5t36 77.5t93 29.5t93 -29.5t36 -77.5t-36 -77.5
t-93 -29.5zM368 759q20 0 27.5 5t7.5 18q0 14 -7.5 18.5t-27.5 4.5q-19 0 -27 -4.5t-8 -18.5q0 -13 8 -18t27 -5z" />
    <glyph glyph-name="uring" unicode="&#x16f;" horiz-adv-x="653" 
d="M237 -10q-70 0 -116 25t-68.5 68t-22.5 98v323h188v-254q0 -52 24.5 -72t88.5 -20q65 0 86.5 18.5t21.5 67.5h19l16 -91h-33q-5 -42 -27 -79t-65 -60.5t-112 -23.5zM627 0h-176v155l-12 5v344h188v-504zM328 544q-47 0 -76.5 24t-29.5 64t29.5 64t76.5 24t76.5 -24
t29.5 -64t-29.5 -64t-76.5 -24zM328 615q19 0 24 4.5t5 12.5t-5 12.5t-24 4.5t-24 -4.5t-5 -12.5t5 -12.5t24 -4.5z" />
    <glyph glyph-name="Uhungarumlaut" unicode="&#x170;" horiz-adv-x="736" 
d="M368 -10q-117 0 -192.5 35.5t-112.5 101t-37 154.5v389h188v-374q0 -48 12 -75t45.5 -38t96.5 -11q64 0 97 11t45 38t12 75v374h188v-389q0 -89 -37 -154.5t-112.5 -101t-192.5 -35.5zM582 730h-190l80 134h246zM290 730h-190l79 134h247z" />
    <glyph glyph-name="uhungarumlaut" unicode="&#x171;" horiz-adv-x="653" 
d="M237 -10q-70 0 -116 25t-68.5 68t-22.5 98v323h188v-254q0 -52 24.5 -72t88.5 -20q65 0 86.5 18.5t21.5 67.5h19l16 -91h-33q-5 -42 -27 -79t-65 -60.5t-112 -23.5zM627 0h-176v155l-12 5v344h188v-504zM549 560h-190l80 130h246zM257 560h-190l79 130h247z" />
    <glyph glyph-name="Uogonek" unicode="&#x172;" horiz-adv-x="736" 
d="M368 -10q-117 0 -192.5 35.5t-112.5 101t-37 154.5v389h188v-374q0 -48 12 -75t45.5 -38t96.5 -11q64 0 97 11t45 38t12 75v374h188v-389q0 -89 -37 -154.5t-112.5 -101t-192.5 -35.5zM479 -187h-100q-57 0 -80 20t-23 51q0 28 15.5 49.5t34.5 42.5l23 24h121l-45 -56
q-4 -4 -6 -8t-2 -7t2 -4.5t6 -1.5h54v-110z" />
    <glyph glyph-name="uogonek" unicode="&#x173;" horiz-adv-x="653" 
d="M237 -10q-70 0 -116 25t-68.5 68t-22.5 98v323h188v-254q0 -52 24.5 -72t88.5 -20q65 0 86.5 18.5t21.5 67.5h19l16 -91h-33q-5 -42 -27 -79t-65 -60.5t-112 -23.5zM627 0h-176v155l-12 5v344h188v-504zM636 -187h-100q-57 0 -80 20t-23 51q0 28 15.5 49.5t34.5 42.5
l23 24h121l-45 -56q-4 -4 -6 -8t-2 -7t2 -4.5t6 -1.5h54v-110z" />
    <glyph glyph-name="Wcircumflex" unicode="&#x174;" horiz-adv-x="1123" 
d="M428 0h-279l-140 670h210l56 -341l18 -151h13l27 151l90 341h283l82 -341l24 -151h13l20 151l63 341h206l-153 -670h-279l-70 287l-44 210h-13l-47 -210zM516 730h-201l133 130h227l134 -130h-202l-39 42h-12z" />
    <glyph glyph-name="wcircumflex" unicode="&#x175;" horiz-adv-x="939" 
d="M357 0h-235l-127 504h195l36 -182l19 -180h13l42 200l50 162h242l50 -162l42 -200h13l20 180l35 182h192l-133 -504h-235l-65 202l-37 151h-13l-38 -151zM423 560h-201l133 130h227l134 -130h-202l-39 42h-12z" />
    <glyph glyph-name="Ycircumflex" unicode="&#x176;" horiz-adv-x="766" 
d="M473 211h-186l-302 459h233l101 -159l57 -94h13l57 94l101 159h234zM474 0h-188v318h188v-318zM337 730h-201l133 130h227l134 -130h-202l-39 42h-12z" />
    <glyph glyph-name="ycircumflex" unicode="&#x177;" horiz-adv-x="648" 
d="M141 -170h-91v170h146q23 0 35 6t18 21l14 34l-18 -84l-255 527h214l87 -198l36 -116h13l33 118l75 196h210l-239 -524q-27 -59 -63.5 -92t-88.5 -45.5t-126 -12.5zM278 560h-201l133 130h227l134 -130h-202l-39 42h-12z" />
    <glyph glyph-name="Ydieresis" unicode="&#x178;" horiz-adv-x="766" 
d="M473 211h-186l-302 459h233l101 -159l57 -94h13l57 94l101 159h234zM474 0h-188v318h188v-318zM590 730h-178v139h178v-139zM354 730h-178v139h178v-139z" />
    <glyph glyph-name="Zacute" unicode="&#x179;" horiz-adv-x="697" 
d="M672 0h-647v169l357 319v13h-351v169h635v-169l-373 -319v-13h379v-169zM449 730h-202l133 134h271z" />
    <glyph glyph-name="zacute" unicode="&#x17a;" horiz-adv-x="578" 
d="M563 0h-548v160l182 122l105 53v13l-105 -8h-167v164h518v-160l-198 -127l-98 -50v-13l98 10h213v-164zM391 560h-204l134 130h272z" />
    <glyph glyph-name="Zdotaccent" unicode="&#x17b;" horiz-adv-x="697" 
d="M672 0h-647v169l357 319v13h-351v169h635v-169l-373 -319v-13h379v-169zM443 730h-188v139h188v-139z" />
    <glyph glyph-name="zdotaccent" unicode="&#x17c;" horiz-adv-x="578" 
d="M563 0h-548v160l182 122l105 53v13l-105 -8h-167v164h518v-160l-198 -127l-98 -50v-13l98 10h213v-164zM383 560h-188v139h188v-139z" />
    <glyph glyph-name="Zcaron" unicode="&#x17d;" horiz-adv-x="697" 
d="M672 0h-647v169l357 319v13h-351v169h635v-169l-373 -319v-13h379v-169zM395 860h201l-133 -130h-227l-134 130h202l39 -42h12z" />
    <glyph glyph-name="zcaron" unicode="&#x17e;" horiz-adv-x="578" 
d="M563 0h-548v160l182 122l105 53v13l-105 -8h-167v164h518v-160l-198 -127l-98 -50v-13l98 10h213v-164zM402 560h-227l-133 130h209l32 -42h12l32 42h209z" />
    <glyph glyph-name="florin" unicode="&#x192;" horiz-adv-x="574" 
d="M46 -170h-56l29 169h36q42 0 62.5 4.5t29.5 20t15 48.5l61 350q23 131 102 189.5t230 58.5h29l-29 -169h-35q-41 0 -62.5 -4.5t-30.5 -19.5t-15 -49l-61 -350q-17 -94 -52.5 -148t-96.5 -77t-156 -23zM510 251h-420l30 168h420z" />
    <glyph glyph-name="AEacute" unicode="&#x1fc;" horiz-adv-x="1216" 
d="M225 0h-233l485 670h133v-158h-22zM731 124h-429v169h429v-169zM786 0h-188v670h188v-670zM1193 0h-544v169h544v-169zM1178 253h-529v168h529v-168zM1193 501h-544v169h544v-169zM995 730h-202l133 134h271z" />
    <glyph glyph-name="aeacute" unicode="&#x1fd;" horiz-adv-x="976" 
d="M686 -10q-85 0 -151 26t-103 84t-37 152q0 82 36.5 140.5t101.5 90t149 31.5q87 0 151 -28.5t99 -84t35 -136.5q0 -13 -0.5 -23.5t-2.5 -24.5h-446v95h310l-41 -59v18v17q0 46 -23.5 64t-85.5 18q-64 0 -86.5 -20t-22.5 -72v-48q0 -53 23 -72t87 -19q57 0 76.5 10.5
t19.5 32.5v11h188v-12q0 -56 -34 -99t-96 -67.5t-147 -24.5zM199 -10q-88 0 -136 37t-48 101q0 37 17 65.5t53 47t93 23.5l227 22l9 -107l-186 -20q-13 -1 -18.5 -6t-5.5 -13q0 -12 11.5 -15.5t33.5 -3.5q57 0 91 6.5t48.5 23.5t14.5 49l14 4l15 -98h-14q-12 -36 -41.5 -62
t-74 -40t-103.5 -14zM569 251h-174v40q0 38 -19.5 48.5t-70.5 10.5q-52 0 -72 -11t-20 -43v-9h-188v7q0 67 35 116.5t99 76.5t149 27q88 0 146 -27.5t86.5 -78t28.5 -121.5v-36zM593 560h-204l134 130h272z" />
    <glyph glyph-name="Oslashacute" unicode="&#x1fe;" horiz-adv-x="786" 
d="M391 -10q-116 0 -199.5 42.5t-127.5 120t-44 182.5t44 182.5t127.5 120t199.5 42.5q120 0 203.5 -42.5t127.5 -120t44 -182.5t-44 -182.5t-127.5 -120t-203.5 -42.5zM391 170q68 0 106 13.5t53.5 49.5t15.5 102q0 67 -15.5 102.5t-53.5 49t-106 13.5t-105 -13.5
t-51.5 -49t-14.5 -102.5q0 -66 14.5 -102t51.5 -49.5t105 -13.5zM787 592l-700 -610l-88 95l700 610zM493 730h-202l133 134h271z" />
    <glyph glyph-name="oslashacute" unicode="&#x1ff;" horiz-adv-x="618" 
d="M309 -10q-87 0 -153.5 31.5t-103.5 90.5t-37 140q0 82 37 140.5t103.5 90t153.5 31.5q88 0 154 -31.5t103 -90t37 -140.5q0 -81 -37 -140t-103 -90.5t-154 -31.5zM309 156q64 0 86 20.5t22 75.5t-22 76t-86 21t-86 -21t-22 -76t22 -75.5t86 -20.5zM613 452l-543 -473
l-66 73l543 473zM411 560h-204l134 130h272z" />
    <glyph glyph-name="Scommaaccent" unicode="&#x218;" horiz-adv-x="684" 
d="M355 -10q-102 0 -176 25.5t-114 79t-40 138.5v6h188v-21q0 -22 9.5 -34.5t39.5 -17.5t93 -5q57 0 84 3.5t34.5 12t7.5 23.5q0 18 -13.5 27t-54.5 14l-210 28q-62 9 -104 33.5t-63 64.5t-21 94q0 40 17 79t55 70.5t100 50.5t153 19q107 0 176.5 -29.5t104 -84t34.5 -129.5
v-6h-188v15q0 24 -10.5 38t-42 20t-94.5 6q-48 0 -73 -4.5t-34.5 -13.5t-9.5 -24q0 -10 4.5 -17.5t15 -11.5t28.5 -7l210 -31q82 -12 127 -41.5t63 -69.5t18 -83q0 -57 -31.5 -106.5t-100.5 -80t-182 -30.5zM345 -200h-220l112 130h273z" />
    <glyph glyph-name="scommaaccent" unicode="&#x219;" horiz-adv-x="577" 
d="M301 -10q-133 0 -203 49t-70 136v4h188v-10q0 -21 17.5 -26t68.5 -5q49 0 62 5.5t13 18.5q0 12 -10 16.5t-45 8.5l-146 16q-78 8 -119 44.5t-41 100.5q0 45 25.5 82.5t83 60.5t151.5 23q88 0 147.5 -21t90 -62.5t30.5 -103.5v-4h-188v6q0 13 -5.5 21.5t-24 12.5t-56.5 4
q-46 0 -57.5 -6.5t-11.5 -20.5q0 -10 11.5 -16t55.5 -11l100 -11q110 -12 152 -49t42 -101q0 -47 -30.5 -83.5t-88.5 -57.5t-142 -21zM272 -200h-191l94 130h245z" />
    <glyph glyph-name="Tcommaaccent" unicode="&#x21a;" horiz-adv-x="691" 
d="M440 0h-188v670h188v-670zM676 501h-661v169h661v-169zM373 -200h-220l112 130h273z" />
    <glyph glyph-name="tcommaaccent" unicode="&#x21b;" horiz-adv-x="422" 
d="M407 0h-132q-94 0 -147.5 47t-53.5 145v399h188v-372q0 -30 11.5 -40t43.5 -10h90v-169zM407 350h-407v154h407v-154zM259 -200h-191l94 130h245z" />
    <glyph glyph-name="dotlessj" unicode="&#x237;" 
d="M-8 -170h-18v138h19q19 0 28 8t9 28v500h188v-472q0 -79 -26.5 -123t-77 -61.5t-122.5 -17.5z" />
    <glyph glyph-name="gravecomb" unicode="&#x300;" horiz-adv-x="452" 
d="M321 560h-203l-202 130h272z" />
    <glyph glyph-name="acutecomb" unicode="&#x301;" horiz-adv-x="452" 
d="M332 560h-204l134 130h272z" />
    <glyph glyph-name="circumflexcomb" unicode="&#x302;" horiz-adv-x="534" 
d="M221 560h-201l133 130h227l134 -130h-202l-39 42h-12z" />
    <glyph glyph-name="tildecomb" unicode="&#x303;" horiz-adv-x="505" 
d="M176 542h-125v50q0 26 7.5 52t30 43.5t66.5 17.5q17 0 38.5 -4.5t49.5 -14.5l34 -12q13 -4 23 -7t17 -3q11 0 16.5 6t5.5 19v7h124v-49q0 -49 -22.5 -81.5t-73.5 -32.5q-23 0 -46 6t-45 13l-46 15q-13 5 -22 7t-15 2q-10 0 -13.5 -5.5t-3.5 -12.5v-16z" />
    <glyph glyph-name="macroncomb" unicode="&#x304;" horiz-adv-x="475" 
d="M415 558h-355v134h355v-134z" />
    <glyph glyph-name="brevecomb" unicode="&#x306;" horiz-adv-x="414" 
d="M207 550q-79 0 -127.5 39.5t-48.5 100.5v4h131v-1q0 -19 8 -26.5t37 -7.5q30 0 37.5 7.5t7.5 26.5v1h131v-4q0 -61 -48.5 -100.5t-127.5 -39.5z" />
    <glyph glyph-name="dotaccentcomb" unicode="&#x307;" horiz-adv-x="242" 
d="M215 560h-188v139h188v-139z" />
    <glyph glyph-name="dieresiscomb" unicode="&#x308;" horiz-adv-x="450" 
d="M432 560h-178v139h178v-139zM196 560h-178v139h178v-139z" />
    <glyph glyph-name="ringcomb" unicode="&#x30a;" horiz-adv-x="268" 
d="M134 544q-47 0 -76.5 24t-29.5 64t29.5 64t76.5 24t76.5 -24t29.5 -64t-29.5 -64t-76.5 -24zM134 615q19 0 24 4.5t5 12.5t-5 12.5t-24 4.5t-24 -4.5t-5 -12.5t5 -12.5t24 -4.5z" />
    <glyph glyph-name="hungarumlautcomb" unicode="&#x30b;" horiz-adv-x="670" 
d="M549 560h-190l80 130h246zM257 560h-190l79 130h247z" />
    <glyph glyph-name="caroncomb" unicode="&#x30c;" horiz-adv-x="534" 
d="M380 560h-227l-133 130h209l32 -42h12l32 42h209z" />
    <glyph glyph-name="commaturnedabovecomb" unicode="&#x312;" horiz-adv-x="659" 
d="M346 690h191l-94 -130h-245z" />
    <glyph glyph-name="commaaccentcomb" unicode="&#x326;" horiz-adv-x="415" 
d="M234 -200h-191l94 130h245z" />
    <glyph glyph-name="cedillacomb" unicode="&#x327;" horiz-adv-x="332" 
d="M235 -241h-109v97h112q5 0 6.5 1.5t1.5 4.5q0 4 -1.5 5.5t-6.5 1.5h-112v134h95v-39h14q57 0 86.5 -27.5t29.5 -73.5q0 -47 -29.5 -75.5t-86.5 -28.5z" />
    <glyph glyph-name="ogonekcomb" unicode="&#x328;" horiz-adv-x="261" 
d="M239 -187h-100q-57 0 -80 20t-23 51q0 28 15.5 49.5t34.5 42.5l23 24h121l-45 -56q-4 -4 -6 -8t-2 -7t2 -4.5t6 -1.5h54v-110z" />
    <glyph glyph-name="strokeshortcomb" unicode="&#x335;" horiz-adv-x="715" 
d="M541 474h-367v140h367v-140z" />
    <glyph glyph-name="slashshortcomb" unicode="&#x337;" horiz-adv-x="422" 
d="M422 405l-371 -164l-51 105l371 164z" />
    <glyph glyph-name="slashlongcomb" unicode="&#x338;" horiz-adv-x="609" 
d="M609 452l-543 -473l-66 73l543 473z" />
    <glyph glyph-name="Wgrave" unicode="&#x1e80;" horiz-adv-x="1123" 
d="M428 0h-279l-140 670h210l56 -341l18 -151h13l27 151l90 341h283l82 -341l24 -151h13l20 151l63 341h206l-153 -670h-279l-70 287l-44 210h-13l-47 -210zM664 730h-202l-202 134h271z" />
    <glyph glyph-name="wgrave" unicode="&#x1e81;" horiz-adv-x="939" 
d="M357 0h-235l-127 504h195l36 -182l19 -180h13l42 200l50 162h242l50 -162l42 -200h13l20 180l35 182h192l-133 -504h-235l-65 202l-37 151h-13l-38 -151zM568 560h-203l-202 130h272z" />
    <glyph glyph-name="Wacute" unicode="&#x1e82;" horiz-adv-x="1123" 
d="M428 0h-279l-140 670h210l56 -341l18 -151h13l27 151l90 341h283l82 -341l24 -151h13l20 151l63 341h206l-153 -670h-279l-70 287l-44 210h-13l-47 -210zM662 730h-202l133 134h271z" />
    <glyph glyph-name="wacute" unicode="&#x1e83;" horiz-adv-x="939" 
d="M357 0h-235l-127 504h195l36 -182l19 -180h13l42 200l50 162h242l50 -162l42 -200h13l20 180l35 182h192l-133 -504h-235l-65 202l-37 151h-13l-38 -151zM571 560h-204l134 130h272z" />
    <glyph glyph-name="Wdieresis" unicode="&#x1e84;" horiz-adv-x="1123" 
d="M428 0h-279l-140 670h210l56 -341l18 -151h13l27 151l90 341h283l82 -341l24 -151h13l20 151l63 341h206l-153 -670h-279l-70 287l-44 210h-13l-47 -210zM769 730h-178v139h178v-139zM533 730h-178v139h178v-139z" />
    <glyph glyph-name="wdieresis" unicode="&#x1e85;" horiz-adv-x="939" 
d="M357 0h-235l-127 504h195l36 -182l19 -180h13l42 200l50 162h242l50 -162l42 -200h13l20 180l35 182h192l-133 -504h-235l-65 202l-37 151h-13l-38 -151zM676 560h-178v139h178v-139zM440 560h-178v139h178v-139z" />
    <glyph glyph-name="Etilde" unicode="&#x1ebc;" horiz-adv-x="648" 
d="M218 0h-188v670h188v-670zM625 0h-544v169h544v-169zM610 253h-529v168h529v-168zM625 501h-544v169h544v-169zM246 712h-125v50q0 26 7.5 52t30 43.5t66.5 17.5q17 0 38.5 -4.5t49.5 -14.5l34 -12q13 -4 23 -7t17 -3q11 0 16.5 6t5.5 19v7h124v-49q0 -49 -22.5 -81.5
t-73.5 -32.5q-23 0 -46 6t-45 13l-46 15q-13 5 -22 7t-15 2q-10 0 -13.5 -5.5t-3.5 -12.5v-16z" />
    <glyph glyph-name="etilde" unicode="&#x1ebd;" horiz-adv-x="612" 
d="M311 -10q-85 0 -151 26t-103 84t-37 152q0 82 37 140.5t101.5 90t148.5 31.5q87 0 151 -28.5t99 -84t35 -136.5q0 -13 -0.5 -23.5t-2.5 -24.5h-446v95h310l-41 -59v17.5v17.5q0 46 -23.5 64t-85.5 18q-64 0 -86.5 -20t-22.5 -72v-48q0 -53 23 -72t87 -19q57 0 76.5 10.5
t19.5 32.5v11h188v-12q0 -56 -34 -99t-96 -67.5t-147 -24.5zM225 542h-125v50q0 26 7.5 52t30 43.5t66.5 17.5q17 0 38.5 -4.5t49.5 -14.5l34 -12q13 -4 23 -7t17 -3q11 0 16.5 6t5.5 19v7h124v-49q0 -49 -22.5 -81.5t-73.5 -32.5q-23 0 -46 6t-45 13l-46 15q-13 5 -22 7
t-15 2q-10 0 -13.5 -5.5t-3.5 -12.5v-16z" />
    <glyph glyph-name="Ygrave" unicode="&#x1ef2;" horiz-adv-x="766" 
d="M473 211h-186l-302 459h233l101 -159l57 -94h13l57 94l101 159h234zM474 0h-188v318h188v-318zM485 730h-202l-202 134h271z" />
    <glyph glyph-name="ygrave" unicode="&#x1ef3;" horiz-adv-x="648" 
d="M141 -170h-91v170h146q23 0 35 6t18 21l14 34l-18 -84l-255 527h214l87 -198l36 -116h13l33 118l75 196h210l-239 -524q-27 -59 -63.5 -92t-88.5 -45.5t-126 -12.5zM423 560h-203l-202 130h272z" />
    <glyph glyph-name="Ytilde" unicode="&#x1ef8;" horiz-adv-x="766" 
d="M473 211h-186l-302 459h233l101 -159l57 -94h13l57 94l101 159h234zM474 0h-188v318h188v-318zM302 712h-125v50q0 26 7.5 52t30 43.5t66.5 17.5q17 0 38.5 -4.5t49.5 -14.5l34 -12q13 -4 23 -7t17 -3q11 0 16.5 6t5.5 19v7h124v-49q0 -49 -22.5 -81.5t-73.5 -32.5
q-23 0 -46 6t-45 13l-46 15q-13 5 -22 7t-15 2q-10 0 -13.5 -5.5t-3.5 -12.5v-16z" />
    <glyph glyph-name="ytilde" unicode="&#x1ef9;" horiz-adv-x="648" 
d="M141 -170h-91v170h146q23 0 35 6t18 21l14 34l-18 -84l-255 527h214l87 -198l36 -116h13l33 118l75 196h210l-239 -524q-27 -59 -63.5 -92t-88.5 -45.5t-126 -12.5zM243 542h-125v50q0 26 7.5 52t30 43.5t66.5 17.5q17 0 38.5 -4.5t49.5 -14.5l34 -12q13 -4 23 -7t17 -3
q11 0 16.5 6t5.5 19v7h124v-49q0 -49 -22.5 -81.5t-73.5 -32.5q-23 0 -46 6t-45 13l-46 15q-13 5 -22 7t-15 2q-10 0 -13.5 -5.5t-3.5 -12.5v-16z" />
    <glyph glyph-name="endash" unicode="&#x2013;" horiz-adv-x="626" 
d="M596 217h-566v160h566v-160z" />
    <glyph glyph-name="emdash" unicode="&#x2014;" horiz-adv-x="1108" 
d="M1078 217h-1048v160h1048v-160z" />
    <glyph glyph-name="quoteleft" unicode="&#x2018;" horiz-adv-x="304" 
d="M30 504h244v-192h-244v192zM196 670h69v-116h-63q-18 0 -26.5 -7t-8.5 -29v-37h-137v36q0 77 43.5 115t122.5 38z" />
    <glyph glyph-name="quoteright" unicode="&#x2019;" horiz-adv-x="304" 
d="M274 478h-244v192h244v-192zM108 312h-69v116h63q18 0 26.5 7t8.5 29v37h137v-36q0 -77 -43.5 -115t-122.5 -38z" />
    <glyph glyph-name="quotesinglbase" unicode="&#x201a;" horiz-adv-x="304" 
d="M274 0h-244v192h244v-192zM108 -166h-69v116h63q18 0 26.5 7t8.5 29v37h137v-36q0 -77 -43.5 -115t-122.5 -38z" />
    <glyph glyph-name="quotedblleft" unicode="&#x201c;" horiz-adv-x="598" 
d="M30 504h244v-192h-244v192zM196 670h69v-116h-63q-18 0 -26.5 -7t-8.5 -29v-37h-137v36q0 77 43.5 115t122.5 38zM324 504h244v-192h-244v192zM490 670h69v-116h-63q-18 0 -26.5 -7t-8.5 -29v-37h-137v36q0 77 43.5 115t122.5 38z" />
    <glyph glyph-name="quotedblright" unicode="&#x201d;" horiz-adv-x="598" 
d="M568 478h-244v192h244v-192zM402 312h-69v116h63q18 0 26.5 7t8.5 29v37h137v-36q0 -77 -43.5 -115t-122.5 -38zM274 478h-244v192h244v-192zM108 312h-69v116h63q18 0 26.5 7t8.5 29v37h137v-36q0 -77 -43.5 -115t-122.5 -38z" />
    <glyph glyph-name="quotedblbase" unicode="&#x201e;" horiz-adv-x="598" 
d="M274 0h-244v192h244v-192zM108 -166h-69v116h63q18 0 26.5 7t8.5 29v37h137v-36q0 -77 -43.5 -115t-122.5 -38zM568 0h-244v192h244v-192zM402 -166h-69v116h63q18 0 26.5 7t8.5 29v37h137v-36q0 -77 -43.5 -115t-122.5 -38z" />
    <glyph glyph-name="dagger" unicode="&#x2020;" horiz-adv-x="560" 
d="M373 0h-187v670h187v-670zM540 366h-520v154h520v-154z" />
    <glyph glyph-name="daggerdbl" unicode="&#x2021;" horiz-adv-x="560" 
d="M373 0h-187v670h187v-670zM540 150h-520v155h520v-155zM540 366h-520v154h520v-154z" />
    <glyph glyph-name="bullet" unicode="&#x2022;" horiz-adv-x="369" 
d="M184 170q-45 0 -82 20t-59.5 57t-22.5 88q0 52 22.5 88.5t59.5 56.5t82 20q46 0 83 -20t59.5 -56.5t22.5 -88.5q0 -51 -22.5 -88t-59.5 -57t-83 -20z" />
    <glyph glyph-name="ellipsis" unicode="&#x2026;" horiz-adv-x="912" 
d="M274 0h-244v192h244v-192zM578 0h-244v192h244v-192zM882 0h-244v192h244v-192z" />
    <glyph glyph-name="perthousand" unicode="&#x2030;" horiz-adv-x="1213" 
d="M1022 -11q-55 0 -96 19.5t-63 57t-22 90.5t22 90.5t63 57.5t96 20q56 0 96.5 -20t62.5 -57.5t22 -90.5t-22 -90.5t-62.5 -57t-96.5 -19.5zM1022 109q29 0 39.5 9t10.5 38t-10.5 39t-39.5 10t-39.5 -10t-10.5 -39t10.5 -38t39.5 -9zM632 -11q-55 0 -96 19.5t-63 57
t-22 90.5t22 90.5t63 57.5t96 20q56 0 96.5 -20t62.5 -57.5t22 -90.5t-22 -90.5t-62.5 -57t-96.5 -19.5zM191 347q-55 0 -96 19.5t-63 57t-22 90.5t22 90.5t63 57.5t96 20q56 0 96.5 -20t62.5 -57.5t22 -90.5t-22 -90.5t-62.5 -57t-96.5 -19.5zM191 467q29 0 39.5 9t10.5 38
t-10.5 39t-39.5 10t-39.5 -10t-10.5 -39t10.5 -38t39.5 -9zM632 109q29 0 39.5 9t10.5 38t-10.5 39t-39.5 10t-39.5 -10t-10.5 -39t10.5 -38t39.5 -9zM218 0h-181l569 670h181z" />
    <glyph glyph-name="guilsinglleft" unicode="&#x2039;" horiz-adv-x="260" 
d="M30 410l200 130v-192l-75 -36v-14l75 -36v-192l-200 130v210z" />
    <glyph glyph-name="guilsinglright" unicode="&#x203a;" horiz-adv-x="260" 
d="M230 200l-200 -130v192l75 36v14l-75 36v192l200 -130v-210z" />
    <glyph glyph-name="fraction" unicode="&#x2044;" horiz-adv-x="284" 
d="M-51 0h-181l569 670h181z" />
    <glyph glyph-name="zero.superior" unicode="&#x2070;" horiz-adv-x="422" 
d="M211 325q-59 0 -102 21t-66 60.5t-23 95.5t23 96t66 61t102 21t102 -21t66 -61t23 -96t-23 -95.5t-66 -60.5t-102 -21zM211 447q31 0 42.5 12t11.5 43t-11.5 43.5t-42.5 12.5t-42.5 -12.5t-11.5 -43.5t11.5 -43t42.5 -12z" />
    <glyph glyph-name="four.superior" unicode="&#x2074;" horiz-adv-x="394" 
d="M384 398h-374v103l164 169h91l-62 -108h-14l-37 -39v-10h232v-115zM329 335h-130v335h130v-335z" />
    <glyph glyph-name="Euro" unicode="&#x20ac;" horiz-adv-x="674" 
d="M644 0h-196q-110 0 -191.5 39.5t-125.5 114.5t-44 181t44 181t125.5 114.5t191.5 39.5h196v-169h-196q-59 0 -94 -10t-50 -45t-15 -111q0 -75 15 -110.5t50 -45.5t94 -10h196v-169zM537 204h-527v114h527v-114zM537 350h-527v114h527v-114z" />
    <glyph glyph-name="indianrupee" unicode="&#x20b9;" horiz-adv-x="608" 
d="M579 0h-257l-140 132q-28 26 -51 34.5t-54 8.5h-47v155h173q32 0 47.5 5.5t20.5 21t5 43.5v211h188v-198q0 -49 -16 -88t-54.5 -61.5t-105.5 -23.5v-13q42 -8 69.5 -28t61.5 -51zM588 361h-558v139h558v-139zM588 531h-558v139h558v-139z" />
    <glyph glyph-name="trademark" unicode="&#x2122;" horiz-adv-x="553" 
d="M341 469h-76v201h107l26 -124h3l24 124h108v-201h-76v52l2 51h-4l-10 -80h-89l-15 80h-3l3 -52v-51zM175 469h-85v123h-70v78h225v-78h-70v-123z" />
    <glyph glyph-name="minus" unicode="&#x2212;" horiz-adv-x="534" 
d="M504 258h-474v154h474v-154z" />
    <glyph glyph-name="approxequal" unicode="&#x2248;" horiz-adv-x="581" 
d="M187 151h-157v43q0 44 14.5 77t52.5 49v14h-67v59q0 39 12 69.5t40 48t74 17.5q32 0 58 -6.5t54 -14.5l74 -21q9 -2 17.5 -3.5t13.5 -1.5q16 0 19 8t3 19v4h156v-43q0 -52 -14.5 -82.5t-53.5 -47.5v-10h68v-43q0 -39 -10.5 -72t-36 -53t-72.5 -20q-32 0 -60.5 5.5
t-57.5 12.5l-74 18q-9 2 -16 3t-12 1q-16 0 -20.5 -7.5t-4.5 -18.5v-4zM396 290q27 0 27 34v8q-4 -1 -9 -2.5t-13 -1.5q-19 0 -37.5 4t-45.5 12l-86 26q-11 3 -20 4.5t-17 1.5q-20 0 -27.5 -10t-7.5 -24v-7q15 4 34 4q11 0 24.5 -2.5t23.5 -5.5l89 -26q19 -5 35.5 -10
t29.5 -5z" />
    <glyph glyph-name="notequal" unicode="&#x2260;" horiz-adv-x="534" 
d="M475 610l-298 -610l-118 59l298 611zM505 374h-475v154h475v-154zM504 142h-474v154h474v-154z" />
    <glyph glyph-name="lessequal" unicode="&#x2264;" horiz-adv-x="535" 
d="M505 -17h-475v155h308v13l-308 71v226l475 124v-173l-306 -58v-12l306 -58v-288z" />
    <glyph glyph-name="greaterequal" unicode="&#x2265;" horiz-adv-x="534" 
d="M504 -17h-474v288l305 58v12l-305 58v173l474 -124v-226l-308 -71v-13h308v-155z" />
    <glyph glyph-name="t_t" horiz-adv-x="784" 
d="M407 0h-132q-94 0 -147.5 47t-53.5 145v399h188v-372q0 -30 11.5 -40t43.5 -10h90v-169zM407 350h-407v154h407v-154zM769 0h-132q-94 0 -147.5 47t-53.5 145v399h188v-372q0 -30 11.5 -40t43.5 -10h90v-169zM769 350h-407v154h407v-154z" />
    <glyph glyph-name="d.component" horiz-adv-x="715" 
d="M259 -10q-77 0 -130.5 29t-81 83.5t-27.5 129.5q0 76 27 130t78.5 83t125.5 29q56 0 95.5 -17.5t63.5 -49t31 -73.5h29v-96h-19q0 27 -13.5 41t-41 19t-69.5 5q-43 0 -69 -7t-37 -22.5t-11 -41.5t11 -41.5t37 -22t69 -6.5q42 0 69.5 5.5t41 20.5t13.5 43h19l14 -95h-31
q-12 -67 -58.5 -106.5t-135.5 -39.5zM639 0h-176v162l-12 13v495h188v-670z" />
    <glyph glyph-name="h.component" horiz-adv-x="706" 
d="M680 0h-188v214q0 53 -24 72.5t-89 19.5q-43 0 -66.5 -8t-32.5 -26.5t-9 -51.5h-23v91h33q8 43 30.5 80t64.5 60t106 23q67 0 111 -26t65.5 -70.5t21.5 -100.5v-277zM271 0h-188v670h188v-670z" />
    <glyph glyph-name="caroncomb.alt" horiz-adv-x="500" 
d="M339 540h-178v130h178v-130zM219 416h-51v91h46q14 0 20 5t6 20v24h99v-22q0 -60 -31 -89t-89 -29z" />
    <glyph glyph-name="dieresiscomb.case" horiz-adv-x="450" 
d="M432 730h-178v139h178v-139zM196 730h-178v139h178v-139z" />
    <glyph glyph-name="dotaccentcomb.case" horiz-adv-x="242" 
d="M215 730h-188v139h188v-139z" />
    <glyph glyph-name="gravecomb.case" horiz-adv-x="452" 
d="M324 730h-202l-202 134h271z" />
    <glyph glyph-name="acutecomb.case" horiz-adv-x="452" 
d="M329 730h-202l133 134h271z" />
    <glyph glyph-name="hungarumlautcomb.case" horiz-adv-x="670" 
d="M542 730h-190l80 134h246zM250 730h-190l79 134h247z" />
    <glyph glyph-name="caroncomb.alt.case" horiz-adv-x="616" 
d="M430 478h-244v192h244v-192zM264 302h-68v125h62q18 0 26.5 7t8.5 29v38h137v-36q0 -82 -43 -122.5t-123 -40.5z" />
    <glyph glyph-name="circumflexcomb.case" horiz-adv-x="534" 
d="M221 730h-201l133 130h227l134 -130h-202l-39 42h-12z" />
    <glyph glyph-name="caroncomb.case" horiz-adv-x="534" 
d="M313 860h201l-133 -130h-227l-134 130h202l39 -42h12z" />
    <glyph glyph-name="brevecomb.case" horiz-adv-x="414" 
d="M207 720q-79 0 -127.5 39.5t-48.5 100.5v13h131v-10q0 -16 8 -23.5t37 -7.5q30 0 37.5 7.5t7.5 23.5v10h131v-13q0 -61 -48.5 -100.5t-127.5 -39.5z" />
    <glyph glyph-name="ringcomb.case" horiz-adv-x="268" 
d="M134 675q-57 0 -93 29.5t-36 77.5t36 77.5t93 29.5t93 -29.5t36 -77.5t-36 -77.5t-93 -29.5zM134 759q20 0 27.5 5t7.5 18q0 14 -7.5 18.5t-27.5 4.5q-19 0 -27 -4.5t-8 -18.5q0 -13 8 -18t27 -5z" />
    <glyph glyph-name="tildecomb.case" horiz-adv-x="505" 
d="M171 712h-125v50q0 26 7.5 52t30 43.5t66.5 17.5q17 0 38.5 -4.5t49.5 -14.5l34 -12q13 -4 23 -7t17 -3q11 0 16.5 6t5.5 19v7h124v-49q0 -49 -22.5 -81.5t-73.5 -32.5q-23 0 -46 6t-45 13l-46 15q-13 5 -22 7t-15 2q-10 0 -13.5 -5.5t-3.5 -12.5v-16z" />
    <glyph glyph-name="macroncomb.case" horiz-adv-x="475" 
d="M415 731h-355v134h355v-134z" />
    <glyph glyph-name="commaaccentcomb.case" horiz-adv-x="415" 
d="M255 -200h-220l112 130h273z" />
    <glyph glyph-name="cedillacomb.case" horiz-adv-x="332" 
d="M230 -241h-109v97h112q5 0 6.5 1.5t1.5 4.5q0 4 -1.5 5.5t-6.5 1.5h-112v134h95v-39h14q57 0 86.5 -27.5t29.5 -73.5q0 -47 -29.5 -75.5t-86.5 -28.5z" />
    <glyph glyph-name="ogonekcomb.case" horiz-adv-x="261" 
d="M230 -187h-100q-57 0 -80 20t-23 51q0 28 15.5 49.5t34.5 42.5l23 24h121l-45 -56q-4 -4 -6 -8t-2 -7t2 -4.5t6 -1.5h54v-110z" />
    <glyph glyph-name="strokeshortcomb.case" horiz-adv-x="827" 
d="M650 251h-474v168h474v-168z" />
    <glyph glyph-name="strokelongcomb.case" horiz-adv-x="849" 
d="M839 458h-829v169h829v-169z" />
    <glyph glyph-name="slashshortcomb.case" horiz-adv-x="689" 
d="M577 336l-466 -162v174l466 162v-174z" />
    <glyph glyph-name="slashlongcomb.case" horiz-adv-x="786" 
d="M787 593l-700 -610l-88 95l700 610z" />
    <glyph glyph-name="ITF" horiz-adv-x="1639" 
d="M60 0v700h216v-700h-216zM321 496v204h216v-204h-216zM581 0v700h217v-700h-217zM842 496v204h216v-204h-216zM1102 0v700h217v-700h-217zM1363 496v204h216v-204h-216zM1363 247v205h216v-205h-216z" />
  </font>
</defs>
</svg>
