<?xml version="1.0" standalone="no"?>
<!DOCTYPE svg PUBLIC "-//W3C//DTD SVG 1.1//EN" "http://www.w3.org/Graphics/SVG/1.1/DTD/svg11.dtd" >
<svg xmlns="http://www.w3.org/2000/svg" xmlns:xlink="http://www.w3.org/1999/xlink" version="1.1">
<metadata>
Created by FontForge 20201107 at Fri Apr  9 12:29:10 2021
 By 
Copyright 2021 Indian Type Foundry. All rights reserved.
</metadata>
<defs>
<font id="false" horiz-adv-x="177" >
  <font-face 
    font-family="Clash Display Light"
    font-weight="300"
    font-stretch="normal"
    units-per-em="1000"
    panose-1="0 0 0 0 0 0 0 0 0 0"
    ascent="800"
    descent="-200"
    x-height="491"
    cap-height="670"
    bbox="-232 -200 1625 890"
    underline-thickness="50"
    underline-position="-125"
    unicode-range="U+000D-FB04"
  />
<missing-glyph horiz-adv-x="756" 
d="M378 -5q-141 0 -227 89t-86 221q0 131 86.5 221t226.5 90t226.5 -90t86.5 -221q0 -132 -86 -221t-227 -89zM378 79q115 0 164.5 51t49.5 175t-49.5 175t-164.5 51t-164.5 -51t-49.5 -175t49.5 -175t164.5 -51zM302 327q-25 0 -40 13t-15 34t15 34t40 13q24 0 39 -13
t15 -34t-15 -34t-39 -13zM455 327q-24 0 -39 13t-15 34t15 34t39 13q25 0 39.5 -13t14.5 -34t-14.5 -34t-39.5 -13zM378 158q-91 0 -166 85l31 29q34 -34 60 -43t75 -9t75.5 9t60.5 43l30 -29q-73 -85 -166 -85z" />
    <glyph glyph-name="f_f" unicode="ff" horiz-adv-x="705" 
d="M145 0h-45v452h-81v39h81q5 90 57 134.5t144 44.5h57v-38h-63q-76 0 -114 -33t-36 -108h293q5 90 57 134.5t144 44.5h56v-38h-62q-76 0 -114 -33t-37 -108h213v-39h-213v-452h-44v452h-293v-452z" />
    <glyph glyph-name="fi" unicode="fi" horiz-adv-x="545" 
d="M145 0h-45v452h-81v39h81q5 90 57 134.5t144 44.5h57v-38h-63q-76 0 -114 -33t-36 -108h213v-39h-213v-452zM478 559h-44v111h44v-111zM478 0h-44v491h44v-491z" />
    <glyph glyph-name="fl" unicode="fl" horiz-adv-x="545" 
d="M145 0h-45v452h-81v39h81q5 90 57 134.5t144 44.5h57v-38h-63q-76 0 -114 -33t-36 -108h213v-39h-213v-452zM478 0h-44v670h44v-670z" />
    <glyph glyph-name="f_f_i" unicode="ffi" horiz-adv-x="882" 
d="M145 0h-45v452h-81v39h81q5 90 57 134.5t144 44.5h57v-38h-63q-76 0 -114 -33t-36 -108h293q5 90 57 134.5t144 44.5h56v-38h-62q-76 0 -114 -33t-37 -108h213v-39h-213v-452h-44v452h-293v-452zM816 559h-44v111h44v-111zM816 0h-44v491h44v-491z" />
    <glyph glyph-name="f_f_l" unicode="ffl" horiz-adv-x="882" 
d="M145 0h-45v452h-81v39h81q5 90 57 134.5t144 44.5h57v-38h-63q-76 0 -114 -33t-36 -108h293q5 90 57 134.5t144 44.5h56v-38h-62q-76 0 -114 -33t-37 -108h213v-39h-213v-452h-44v452h-293v-452zM816 0h-44v670h44v-670z" />
    <glyph glyph-name="f_b" unicode="fb" horiz-adv-x="969" 
d="M145 0h-45v452h-81v39h81q5 90 57 134.5t144 44.5h57v-38h-63q-76 0 -114 -33t-36 -108h213v-39h-213v-452zM473 0h-39v670h44v-318h4q18 67 74 108t142 41q115 0 178.5 -71t63.5 -184q0 -114 -64.5 -185t-182.5 -71q-82 0 -140 42.5t-77 116.5h-3v-149zM478 236
q0 -95 57 -150t152 -55q100 0 154.5 50t54.5 165q0 214 -206 214q-100 0 -156 -57t-56 -157v-10z" />
    <glyph glyph-name="f_f_b" unicode="ffb" horiz-adv-x="1307" 
d="M145 0h-45v452h-81v39h81q5 90 57 134.5t144 44.5h57v-38h-63q-76 0 -114 -33t-36 -108h293q5 90 57 134.5t144 44.5h56v-38h-62q-76 0 -114 -33t-37 -108h213v-39h-213v-452h-44v452h-293v-452zM810 0h-38v670h44v-318h4q18 67 74 108t142 41q114 0 178 -71t64 -184
q0 -114 -64.5 -185t-182.5 -71q-82 0 -140 42.5t-77 116.5h-4v-149zM816 236q0 -95 57 -150t152 -55q100 0 154.5 50t54.5 165q0 214 -207 214q-100 0 -155.5 -57t-55.5 -157v-10z" />
    <glyph glyph-name="f_f_h" unicode="ffh" horiz-adv-x="1300" 
d="M145 0h-45v452h-81v39h81q5 90 57 134.5t144 44.5h57v-38h-63q-76 0 -114 -33t-36 -108h293q5 90 57 134.5t144 44.5h56v-38h-62q-76 0 -114 -33t-37 -108h213v-39h-213v-452h-44v452h-293v-452zM816 0h-44v670h44v-329h4q14 68 67 114t140 46q101 0 155.5 -61t54.5 -160
v-280h-44v283q0 91 -43.5 134.5t-132.5 43.5q-103 0 -152 -63.5t-49 -172.5v-225z" />
    <glyph glyph-name="f_f_j" unicode="ffj" horiz-adv-x="884" 
d="M145 0h-45v452h-81v39h81q5 90 57 134.5t144 44.5h57v-38h-63q-76 0 -114 -33t-36 -108h293q5 90 57 134.5t144 44.5h56v-38h-62q-76 0 -114 -33t-37 -108h213v-39h-213v-452h-44v452h-293v-452zM818 559h-44v111h44v-111zM681 -170h-42v40h48q87 0 87 82v539h44v-527
q0 -68 -38 -101t-99 -33z" />
    <glyph glyph-name="f_f_k" unicode="ffk" horiz-adv-x="1243" 
d="M145 0h-45v452h-81v39h81q5 90 57 134.5t144 44.5h57v-38h-63q-76 0 -114 -33t-36 -108h293q5 90 57 134.5t144 44.5h56v-38h-62q-76 0 -114 -33t-37 -108h213v-39h-213v-452h-44v452h-293v-452zM816 0h-44v670h44v-393h185l177 214h52l-194 -233l194 -258h-52l-179 237
h-183v-237z" />
    <glyph glyph-name="f_h" unicode="fh" horiz-adv-x="962" 
d="M145 0h-45v452h-81v39h81q5 90 57 134.5t144 44.5h57v-38h-63q-76 0 -114 -33t-36 -108h213v-39h-213v-452zM478 0h-44v670h44v-329h4q14 68 67 114t140 46q102 0 156 -60.5t54 -160.5v-280h-44v283q0 91 -43.5 134.5t-132.5 43.5q-102 0 -151.5 -64t-49.5 -172v-225z
" />
    <glyph glyph-name="f_j" unicode="fj" horiz-adv-x="547" 
d="M145 0h-45v452h-81v39h81q5 90 57 134.5t144 44.5h57v-38h-63q-76 0 -114 -33t-36 -108h213v-39h-213v-452zM480 559h-44v111h44v-111zM343 -170h-41v40h47q87 0 87 82v539h44v-527q0 -68 -38 -101t-99 -33z" />
    <glyph glyph-name="f_k" unicode="fk" horiz-adv-x="905" 
d="M145 0h-45v452h-81v39h81q5 90 57 134.5t144 44.5h57v-38h-63q-76 0 -114 -33t-36 -108h213v-39h-213v-452zM478 0h-44v670h44v-393h185l177 214h52l-193 -233l193 -258h-52l-179 237h-183v-237z" />
    <glyph glyph-name="f_t" unicode="ft" horiz-adv-x="706" 
d="M145 0h-45v452h-81v39h81q5 90 57 134.5t144 44.5h57v-38h-63q-76 0 -114 -33t-36 -108h289v126h44v-126h208v-39h-208v-314q0 -55 28.5 -76t89.5 -21h90v-41h-101q-73 0 -112 34t-39 115v303h-289v-452z" />
    <glyph glyph-name=".notdef" horiz-adv-x="756" 
d="M378 -5q-141 0 -227 89t-86 221q0 131 86.5 221t226.5 90t226.5 -90t86.5 -221q0 -132 -86 -221t-227 -89zM378 79q115 0 164.5 51t49.5 175t-49.5 175t-164.5 51t-164.5 -51t-49.5 -175t49.5 -175t164.5 -51zM302 327q-25 0 -40 13t-15 34t15 34t40 13q24 0 39 -13
t15 -34t-15 -34t-39 -13zM455 327q-24 0 -39 13t-15 34t15 34t39 13q25 0 39.5 -13t14.5 -34t-14.5 -34t-39.5 -13zM378 158q-91 0 -166 85l31 29q34 -34 60 -43t75 -9t75.5 9t60.5 43l30 -29q-73 -85 -166 -85z" />
    <glyph glyph-name=".null" horiz-adv-x="600" 
 />
    <glyph glyph-name="nonmarkingreturn" horiz-adv-x="333" 
 />
    <glyph glyph-name="CR" unicode="&#xd;" horiz-adv-x="600" 
 />
    <glyph glyph-name="space" unicode=" " horiz-adv-x="195" 
 />
    <glyph glyph-name="exclam" unicode="!" horiz-adv-x="135" 
d="M86 220h-37q0 65 -4 206t-4 174v70h53v-70q0 -33 -4 -174t-4 -206zM93 0h-50v125h50v-125z" />
    <glyph glyph-name="quotedbl" unicode="&#x22;" horiz-adv-x="199" 
d="M158 467h-20l-13 107v96h45v-96zM61 467h-19l-13 107v96h45v-96z" />
    <glyph glyph-name="numbersign" unicode="#" horiz-adv-x="824" 
d="M165 0h-46l65 172h-164v40h180l91 241h-178v40h194l67 177h46l-67 -177h237l67 177h46l-67 -177h168v-40h-184l-91 -241h182v-40h-198l-65 -172h-46l65 172h-237zM335 454l-92 -243h242l92 243h-242z" />
    <glyph glyph-name="dollar" unicode="$" horiz-adv-x="604" 
d="M313 -100h-42v92q-119 9 -179 68.5t-60 147.5v6h45v-12q0 -169 235 -169q211 0 211 131q0 61 -37 91t-123 49l-127 26q-92 19 -144.5 58.5t-52.5 116.5q0 69 58.5 119t173.5 55v91h42v-90q122 -4 184 -65.5t62 -152.5v-6h-45v12q0 168 -219 168q-211 0 -211 -126
q0 -63 37 -91.5t127 -48.5l126 -26q92 -19 143 -59.5t51 -115.5t-65.5 -127t-189.5 -52v-90z" />
    <glyph glyph-name="percent" unicode="%" horiz-adv-x="788" 
d="M193 349q-79 0 -122 49t-43 117q0 67 43 116t122 49t121.5 -49t42.5 -116q0 -69 -42.5 -117.5t-121.5 -48.5zM132 0h-46l569 670h46zM193 385q125 0 125 130q0 129 -125 129q-126 0 -126 -129q0 -130 126 -130zM595 -10q-79 0 -122 49t-43 117q0 67 43 116t122 49
t121.5 -49t42.5 -116q0 -69 -42.5 -117.5t-121.5 -48.5zM595 26q125 0 125 130q0 129 -125 129q-126 0 -126 -129q0 -130 126 -130z" />
    <glyph glyph-name="ampersand" unicode="&#x26;" horiz-adv-x="652" 
d="M267 -10q-119 0 -187.5 49.5t-68.5 139.5q0 68 37.5 113t106.5 60v5q-61 12 -93.5 51.5t-32.5 95.5q0 80 58 123.5t161 43.5h167v-41h-169q-92 0 -132.5 -31t-40.5 -99q0 -129 181 -129h252v120h44v-120h118v-40h-118v-110q0 -110 -74.5 -170.5t-208.5 -60.5zM268 31
q125 0 181.5 45.5t56.5 143.5v111h-268q-88 0 -135.5 -37.5t-47.5 -112.5q0 -78 50.5 -114t162.5 -36z" />
    <glyph glyph-name="quotesingle" unicode="'" horiz-adv-x="103" 
d="M61 467h-19l-13 107v96h45v-96z" />
    <glyph glyph-name="parenleft" unicode="(" horiz-adv-x="263" 
d="M253 -51l-24 -21q-182 187 -182 407t182 407l24 -21q-39 -48 -57.5 -73.5t-47.5 -77t-42 -109.5t-13 -126t13 -126t42 -109.5t47.5 -77t57.5 -73.5z" />
    <glyph glyph-name="parenright" unicode=")" horiz-adv-x="267" 
d="M13 721l23 21q182 -187 182 -407t-182 -407l-23 21q32 41 45 57.5t40.5 60t39.5 76.5t23 85t11 107t-11 107t-23 85t-39.5 76.5t-40.5 60t-45 57.5z" />
    <glyph glyph-name="asterisk" unicode="*" horiz-adv-x="344" 
d="M169 499l-66 -101l-32 23l76 94l-2 5l-117 32l13 38l112 -42l5 3l-5 120h39l-5 -120l5 -3l112 42l12 -38l-116 -32l-2 -5l75 -94l-31 -23l-66 101h-7z" />
    <glyph glyph-name="plus" unicode="+" horiz-adv-x="448" 
d="M245 150h-42v165h-164v40h164v165h42v-165h164v-40h-164v-165z" />
    <glyph glyph-name="comma" unicode="," horiz-adv-x="112" 
d="M36 -70h-10v26h10q9 0 13 3.5t4 14.5v26h-23v126h52v-151q0 -45 -46 -45z" />
    <glyph glyph-name="hyphen" unicode="-" horiz-adv-x="298" 
d="M268 272h-238v39h238v-39z" />
    <glyph glyph-name="period" unicode="." horiz-adv-x="112" 
d="M82 0h-52v126h52v-126z" />
    <glyph glyph-name="slash" unicode="/" horiz-adv-x="367" 
d="M27 -20h-47l360 710h47z" />
    <glyph glyph-name="zero" unicode="0" horiz-adv-x="681" 
d="M341 -10q-138 0 -220.5 91.5t-82.5 253.5t82.5 253.5t220.5 91.5t220 -92t82 -253t-82 -253t-220 -92zM341 32q125 0 190.5 76.5t65.5 226.5t-65.5 226.5t-190.5 76.5t-191 -76.5t-66 -226.5t66 -226.5t191 -76.5z" />
    <glyph glyph-name="one" unicode="1" horiz-adv-x="273" 
d="M207 0h-44v550h-153v37h38q55 0 83 18t45 65h31v-670z" />
    <glyph glyph-name="two" unicode="2" horiz-adv-x="601" 
d="M561 0h-510v33q0 100 39.5 154.5t138.5 91.5l144 52q82 31 113.5 65t31.5 94q0 147 -206 147q-220 0 -220 -171v-12h-45v7q0 94 67 156.5t199 62.5q123 0 186.5 -54t63.5 -136q0 -72 -43.5 -118.5t-133.5 -78.5l-135 -48q-91 -33 -123.5 -77.5t-32.5 -128.5l141 2h325
v-41z" />
    <glyph glyph-name="three" unicode="3" horiz-adv-x="622" 
d="M317 -10q-140 0 -209.5 61.5t-69.5 156.5v16h46v-12q0 -91 53.5 -135.5t178.5 -44.5q118 0 171.5 37.5t53.5 118.5q0 71 -47.5 107t-135.5 36h-178v40h163q180 0 180 131q0 69 -49 102.5t-161 33.5q-120 0 -174.5 -45t-54.5 -135v-10h-46v14q0 95 69.5 156.5t206.5 61.5
q120 0 186.5 -46.5t66.5 -128.5q0 -56 -32.5 -95.5t-93.5 -52.5v-5q70 -15 107 -58.5t37 -108.5q0 -92 -72 -143.5t-196 -51.5z" />
    <glyph glyph-name="four" unicode="4" horiz-adv-x="665" 
d="M504 0h-45v147h-431v35l423 488h53v-482h133v-41h-133v-147zM89 188h370v425h-4l-366 -421v-4z" />
    <glyph glyph-name="five" unicode="5" horiz-adv-x="613" 
d="M316 -10q-129 0 -203 56t-74 146v15h45v-15q0 -81 60.5 -121t171.5 -40q213 0 213 172q0 167 -212 167q-130 0 -227 -56l-1 1v-1l-40 13l32 343h467v-41h-429l-27 -283l4 -2q39 28 101 46.5t127 18.5q111 0 180.5 -53.5t69.5 -152.5q0 -98 -71 -155.5t-187 -57.5z" />
    <glyph glyph-name="six" unicode="6" horiz-adv-x="664" 
d="M344 -10q-156 0 -226.5 82.5t-70.5 271.5q0 152 73.5 244t224.5 92q110 0 181.5 -56.5t71.5 -154.5v-6h-46v6q0 76 -49.5 122.5t-157.5 46.5q-135 0 -193.5 -74.5t-58.5 -224.5v-66h5q16 63 86 102.5t171 39.5q122 0 192 -58t70 -154q0 -98 -73 -155.5t-200 -57.5z
M343 32q229 0 229 174q0 172 -228 172q-106 0 -171.5 -44.5t-65.5 -120.5q0 -88 62.5 -134.5t173.5 -46.5z" />
    <glyph glyph-name="seven" unicode="7" horiz-adv-x="535" 
d="M230 -1h-46q0 117 22.5 215t65 173t89.5 130t110 108v4h-461v41h516v-36q-155 -134 -225.5 -280.5t-70.5 -354.5z" />
    <glyph glyph-name="eight" unicode="8" horiz-adv-x="632" 
d="M316 -10q-136 0 -211.5 49t-75.5 142q0 62 42.5 108t127.5 63v5q-72 10 -112.5 51t-40.5 99q0 78 70 125.5t200 47.5t200 -47.5t70 -125.5q0 -58 -40 -99.5t-113 -50.5v-5q85 -17 127.5 -63t42.5 -108q0 -93 -75.5 -142t-211.5 -49zM316 368q226 0 226 134q0 66 -52 101
t-174 35q-121 0 -173.5 -35t-52.5 -101q0 -134 226 -134zM316 32q127 0 185 36.5t58 116.5q0 150 -243 150t-243 -150q0 -80 58 -116.5t185 -36.5z" />
    <glyph glyph-name="nine" unicode="9" horiz-adv-x="664" 
d="M320 -10q-111 0 -182.5 56.5t-71.5 154.5v6h47v-6q0 -76 49.5 -122.5t157.5 -46.5q134 0 192.5 77t58.5 231v66h-5q-17 -67 -86.5 -109t-170.5 -42q-122 0 -192 58t-70 154q0 98 73 155.5t200 57.5q156 0 226.5 -80.5t70.5 -264.5q0 -155 -73 -250t-224 -95zM319 292
q106 0 172 47.5t66 126.5q0 83 -63 127.5t-173 44.5q-229 0 -229 -174q0 -172 227 -172z" />
    <glyph glyph-name="colon" unicode=":" horiz-adv-x="112" 
d="M82 365h-52v126h52v-126zM82 0h-52v126h52v-126z" />
    <glyph glyph-name="semicolon" unicode=";" horiz-adv-x="112" 
d="M82 365h-52v126h52v-126zM36 -70h-10v26h10q9 0 13 3.5t4 14.5v26h-23v126h52v-151q0 -45 -46 -45z" />
    <glyph glyph-name="less" unicode="&#x3c;" horiz-adv-x="439" 
d="M30 359l370 187v-47l-328 -162v-4l328 -162v-47l-370 187v48z" />
    <glyph glyph-name="equal" unicode="=" horiz-adv-x="448" 
d="M409 417h-370v39h370v-39zM409 214h-370v39h370v-39z" />
    <glyph glyph-name="greater" unicode="&#x3e;" horiz-adv-x="439" 
d="M409 311l-370 -187v47l328 162v4l-328 162v47l370 -187v-48z" />
    <glyph glyph-name="question" unicode="?" horiz-adv-x="550" 
d="M261 214h-44v31q0 35 15.5 59t58.5 43l73 35q59 28 86 56t27 74q0 127 -195 127q-121 0 -174.5 -42.5t-53.5 -129.5v-14h-44v17q0 92 69 151t204 59q119 0 178.5 -47t59.5 -119q0 -60 -37.5 -99t-101.5 -68l-70 -32q-30 -13 -40.5 -26.5t-10.5 -40.5v-34zM265 0h-50v125
h50v-125z" />
    <glyph glyph-name="at" unicode="@" horiz-adv-x="873" 
d="M408 41q-91 0 -146.5 55t-55.5 149t55.5 149t146.5 55q68 0 112 -32.5t62 -86.5h3v110h40v-272q0 -47 18 -68t60 -21q54 0 81 48.5t27 157.5q0 160 -92 247.5t-274 87.5q-183 0 -287.5 -92t-104.5 -274t102 -273.5t282 -91.5q88 0 181 28l9 -33q-84 -33 -192 -33
q-194 0 -309 109.5t-115 293.5t118.5 294.5t315.5 110.5q184 0 296 -98.5t112 -274.5q0 -110 -41 -177.5t-110 -67.5q-54 0 -84 31.5t-35 86.5h-2q-19 -53 -62.5 -85.5t-110.5 -32.5zM249 245q0 -167 165 -167q72 0 120 42t48 118v14q0 76 -48 118t-120 42q-165 0 -165 -167
z" />
    <glyph glyph-name="A" unicode="A" horiz-adv-x="690" 
d="M56 0h-48l306 670h61l306 -670h-48l-99 213h-380zM307 544l-134 -290h342l-134 290l-36 82h-4z" />
    <glyph glyph-name="B" unicode="B" horiz-adv-x="634" 
d="M399 0h-342v670h335q87 0 141 -44.5t54 -122.5q0 -58 -33 -97.5t-95 -51.5v-4q71 -15 109 -58.5t38 -107.5q0 -86 -57.5 -135t-149.5 -49zM101 629v-260h280q162 0 162 130t-153 130h-289zM101 329v-288h296q164 0 164 146q0 142 -164 142h-296z" />
    <glyph glyph-name="C" unicode="C" horiz-adv-x="694" 
d="M365 -10q-143 0 -235 95t-92 250t92 250t235 95q124 0 207 -66.5t83 -173.5v-11h-47v11q0 93 -64 145t-179 52q-132 0 -206.5 -79t-74.5 -223t74.5 -222.5t206.5 -78.5q115 0 179 52t64 145v10h47v-10q0 -108 -83 -174.5t-207 -66.5z" />
    <glyph glyph-name="D" unicode="D" horiz-adv-x="706" 
d="M346 0h-279v670h279q148 0 235 -91t87 -244t-87 -244t-235 -91zM346 629h-234v-588h234q136 0 206 75.5t70 218.5t-70 218.5t-206 75.5z" />
    <glyph glyph-name="E" unicode="E" horiz-adv-x="599" 
d="M556 0h-490v670h490v-41h-445v-272h430v-40h-430v-276h445v-41z" />
    <glyph glyph-name="F" unicode="F" horiz-adv-x="585" 
d="M111 0h-45v670h481v-41h-436v-292h421v-40h-421v-297z" />
    <glyph glyph-name="G" unicode="G" horiz-adv-x="710" 
d="M361 -10q-141 0 -232 95t-91 250t92.5 250t235.5 95q124 0 207.5 -66t83.5 -173v-9h-47v9q0 92 -64 144t-180 52q-132 0 -207 -79t-75 -223t74.5 -222.5t206.5 -78.5q120 0 184 54t64 159v37h-280v38h324v-322h-38v147h-4q-26 -81 -94.5 -119t-159.5 -38z" />
    <glyph glyph-name="H" unicode="H" horiz-adv-x="680" 
d="M111 0h-45v670h45v-312h458v312h44v-670h-44v318h-458v-318z" />
    <glyph glyph-name="I" unicode="I" 
d="M111 0h-45v670h45v-670z" />
    <glyph glyph-name="J" unicode="J" horiz-adv-x="605" 
d="M286 -10q-130 0 -194 67.5t-64 173.5v35h46v-40q0 -95 51 -143.5t161 -48.5q212 0 212 191v445h45v-440q0 -106 -63.5 -173t-193.5 -67z" />
    <glyph glyph-name="K" unicode="K" horiz-adv-x="661" 
d="M111 0h-45v670h45v-315h256l222 315h52l-235 -332l237 -338h-52l-222 314h-258v-314z" />
    <glyph glyph-name="L" unicode="L" horiz-adv-x="565" 
d="M545 0h-479v670h45v-629h434v-41z" />
    <glyph glyph-name="M" unicode="M" horiz-adv-x="870" 
d="M111 0h-45v670h62l248 -474l57 -113h4l57 113l249 474h61v-670h-45v516l1 86h-4l-43 -86l-251 -476h-54l-251 476l-43 86h-4l1 -86v-516z" />
    <glyph glyph-name="N" unicode="N" horiz-adv-x="697" 
d="M111 0h-45v670h50l389 -502l78 -102h4l-1 101v503h44v-670h-49l-384 495l-83 108h-4l1 -108v-495z" />
    <glyph glyph-name="O" unicode="O" horiz-adv-x="739" 
d="M369 -10q-145 0 -238 95t-93 250t93 250t238 95q146 0 238.5 -95t92.5 -250t-92.5 -250t-238.5 -95zM369 34q134 0 209.5 78.5t75.5 222.5t-75.5 223t-209.5 79t-209.5 -79t-75.5 -223t75.5 -222.5t209.5 -78.5z" />
    <glyph glyph-name="P" unicode="P" horiz-adv-x="624" 
d="M111 0h-45v670h294q109 0 176.5 -59t67.5 -162t-67.5 -162t-176.5 -59h-249v-228zM358 629h-247v-360h247q201 0 201 180t-201 180z" />
    <glyph glyph-name="Q" unicode="Q" horiz-adv-x="739" 
d="M369 -10q-145 0 -238 95t-93 250t93 250t238 95q146 0 238.5 -95t92.5 -250q0 -138 -74.5 -229.5t-196.5 -110.5l90 -136h-49l-85 131h-16zM369 34q134 0 209.5 78.5t75.5 222.5t-75.5 223t-209.5 79t-209.5 -79t-75.5 -223t75.5 -222.5t209.5 -78.5z" />
    <glyph glyph-name="R" unicode="R" horiz-adv-x="643" 
d="M111 0h-45v670h314q101 0 164 -51t63 -140q0 -85 -59.5 -136t-153.5 -51v-4q49 -14 87 -74l135 -214h-50l-129 201q-27 45 -63.5 64t-103.5 19h-159v-284zM111 629v-306h269q181 0 181 153t-181 153h-269z" />
    <glyph glyph-name="S" unicode="S" horiz-adv-x="604" 
d="M312 -10q-140 0 -210 61t-70 157v6h45v-12q0 -169 235 -169q211 0 211 131q0 61 -37 91t-123 49l-127 26q-92 19 -144.5 58.5t-52.5 116.5q0 73 65 124t192 51q130 0 196.5 -62t66.5 -156v-6h-45v12q0 168 -219 168q-211 0 -211 -126q0 -63 37 -91.5t127 -48.5l126 -26
q92 -19 143 -59.5t51 -115.5t-65.5 -127t-190.5 -52z" />
    <glyph glyph-name="T" unicode="T" horiz-adv-x="634" 
d="M339 0h-44v629h-285v41h613v-41h-284v-629z" />
    <glyph glyph-name="U" unicode="U" horiz-adv-x="709" 
d="M354 -10q-134 0 -213.5 74.5t-79.5 211.5v394h45v-393q0 -243 248 -243q249 0 249 243v393h44v-394q0 -137 -79.5 -211.5t-213.5 -74.5z" />
    <glyph glyph-name="V" unicode="V" horiz-adv-x="659" 
d="M360 0h-61l-300 670h51l278 -625h4l278 625h50z" />
    <glyph glyph-name="W" unicode="W" horiz-adv-x="1008" 
d="M290 0h-66l-206 670h49l151 -489l39 -135h4l43 135l171 489h58l192 -489l50 -135h4l33 135l130 489h48l-178 -670h-66l-185 470l-54 143h-6l-48 -143z" />
    <glyph glyph-name="X" unicode="X" horiz-adv-x="655" 
d="M64 0h-56l283 336v4l-283 330h56l262 -302h4l261 302h56l-283 -329v-4l283 -337h-56l-261 309h-4z" />
    <glyph glyph-name="Y" unicode="Y" horiz-adv-x="620" 
d="M332 0h-44v243l-289 427h52l204 -299l55 -80h3l54 80l202 299h53l-290 -425v-245z" />
    <glyph glyph-name="Z" unicode="Z" horiz-adv-x="653" 
d="M615 0h-576v41l500 584v4h-482v41h543v-41l-502 -584v-4h517v-41z" />
    <glyph glyph-name="bracketleft" unicode="[" horiz-adv-x="220" 
d="M210 -60h-144v790h144v-39h-101v-712h101v-39z" />
    <glyph glyph-name="backslash" unicode="\" horiz-adv-x="367" 
d="M387 -20h-47l-360 710h47z" />
    <glyph glyph-name="bracketright" unicode="]" horiz-adv-x="222" 
d="M-8 -21h101v712h-101v39h143v-790h-143v39z" />
    <glyph glyph-name="asciicircum" unicode="^" horiz-adv-x="456" 
d="M54 280h-42l189 390h54l189 -390h-42l-172 349h-4z" />
    <glyph glyph-name="underscore" unicode="_" horiz-adv-x="380" 
d="M370 -35h-360v35h360v-35z" />
    <glyph glyph-name="a" unicode="a" horiz-adv-x="544" 
d="M198 -10q-72 0 -116 33t-44 90q0 106 158 124l243 28v44q0 81 -38.5 116.5t-125.5 35.5q-181 0 -181 -141v-5h-44v5q0 76 60.5 128.5t166.5 52.5q102 0 153 -52.5t51 -134.5v-314h-39v139h-3q-24 -71 -88 -110t-153 -39zM82 116q0 -89 123 -89q100 0 167 50.5t67 145.5v9
l-227 -26q-69 -7 -99.5 -26.5t-30.5 -63.5z" />
    <glyph glyph-name="b" unicode="b" horiz-adv-x="602" 
d="M105 0h-39v670h45v-318h3q18 67 74.5 108t142.5 41q114 0 178 -71t64 -184q0 -114 -64.5 -185t-183.5 -71q-82 0 -139.5 42.5t-76.5 116.5h-4v-149zM111 236q0 -95 56.5 -150t151.5 -55q100 0 154.5 50t54.5 165q0 214 -206 214q-100 0 -155.5 -57t-55.5 -157v-10z" />
    <glyph glyph-name="c" unicode="c" horiz-adv-x="569" 
d="M292 -10q-113 0 -183.5 72t-70.5 184q0 111 70.5 183t183.5 72q99 0 168.5 -55t69.5 -140v-6h-44v5q0 73 -51 114.5t-143 41.5q-107 0 -158.5 -56.5t-51.5 -158.5t51.5 -158.5t158.5 -56.5q92 0 143 41t51 114v6h44v-6q0 -85 -69.5 -140.5t-168.5 -55.5z" />
    <glyph glyph-name="d" unicode="d" horiz-adv-x="602" 
d="M276 -10q-116 0 -181.5 71t-65.5 185q0 112 65 183.5t177 71.5q84 0 141 -41.5t75 -107.5h4v318h44v-670h-38v149h-4q-19 -74 -77.5 -116.5t-139.5 -42.5zM74 246q0 -215 208 -215q94 0 151.5 55.5t57.5 149.5v10q0 100 -56.5 157t-154.5 57q-206 0 -206 -214z" />
    <glyph glyph-name="e" unicode="e" horiz-adv-x="568" 
d="M292 -10q-116 0 -185 71.5t-69 184.5q0 112 69 183.5t185 71.5q105 0 171.5 -60t66.5 -166q0 -27 -5 -45h-444q3 -95 55 -148t155 -53q93 0 140.5 34t47.5 97v6h44v-6q0 -75 -66 -122.5t-165 -47.5zM291 463q-103 0 -155 -53t-55 -148h407q1 8 1 23q0 86 -52 132t-146 46
z" />
    <glyph glyph-name="f" unicode="f" horiz-adv-x="368" 
d="M145 0h-45v452h-81v39h81q5 90 57 134.5t144 44.5h57v-38h-63q-76 0 -114 -33t-36 -108h213v-39h-213v-452z" />
    <glyph glyph-name="g" unicode="g" horiz-adv-x="604" 
d="M276 37q-108 0 -173 65t-65 167t67 167t179 65q80 0 138.5 -37t73.5 -102h3v129h39v-453q0 -113 -65 -165.5t-176 -52.5q-96 0 -161 48t-65 128h44q0 -137 183 -137q106 0 151 40t45 138v134h-4q-17 -60 -74 -97t-140 -37zM83 269q0 -102 54.5 -147t146.5 -45
q97 0 153.5 51t56.5 138v19q0 80 -56 128t-148 48q-95 0 -151 -45.5t-56 -146.5z" />
    <glyph glyph-name="h" unicode="h" horiz-adv-x="595" 
d="M111 0h-45v670h45v-329h3q14 68 67 114t141 46q101 0 155 -60.5t54 -160.5v-280h-44v283q0 91 -43.5 134.5t-132.5 43.5q-102 0 -151 -63.5t-49 -172.5v-225z" />
    <glyph glyph-name="i" unicode="i" 
d="M111 559h-45v111h45v-111zM111 0h-45v491h45v-491z" />
    <glyph glyph-name="j" unicode="j" horiz-adv-x="179" 
d="M112 559h-44v111h44v-111zM-24 -170h-42v40h47q87 0 87 82v539h44v-527q0 -68 -38 -101t-98 -33z" />
    <glyph glyph-name="k" unicode="k" horiz-adv-x="537" 
d="M111 0h-45v670h45v-393h184l178 214h51l-193 -233l193 -258h-52l-178 237h-183v-237z" />
    <glyph glyph-name="l" unicode="l" 
d="M111 0h-45v670h45v-670z" />
    <glyph glyph-name="m" unicode="m" horiz-adv-x="956" 
d="M111 0h-45v491h39v-147h3q11 68 60.5 112.5t135.5 44.5q79 0 127.5 -44t61.5 -120h4q12 70 62 117t136 47q94 0 145.5 -61t51.5 -160v-280h-44v283q0 178 -163 178q-184 0 -184 -226v-235h-44v283q0 178 -162 178q-95 0 -139.5 -57t-44.5 -169v-235z" />
    <glyph glyph-name="n" unicode="n" horiz-adv-x="594" 
d="M111 0h-45v491h39v-155h4q15 68 71 116.5t141 48.5q100 0 155 -63t55 -158v-280h-45v283q0 85 -43 131.5t-131 46.5q-96 0 -148.5 -60t-52.5 -166v-235z" />
    <glyph glyph-name="o" unicode="o" horiz-adv-x="602" 
d="M301 -10q-118 0 -190.5 72t-72.5 184q0 111 72.5 183t190.5 72q117 0 190 -72t73 -183t-73 -183.5t-190 -72.5zM301 30q108 0 163.5 57.5t55.5 158.5q0 100 -55.5 157.5t-163.5 57.5t-163.5 -57.5t-55.5 -157.5q0 -101 55.5 -158.5t163.5 -57.5z" />
    <glyph glyph-name="p" unicode="p" horiz-adv-x="602" 
d="M111 -170h-45v661h39v-139h8q18 67 75 108t142 41q113 0 178 -71.5t65 -183.5q0 -114 -65.5 -185t-181.5 -71q-80 0 -138.5 42t-76.5 112v-314zM111 236q0 -94 57.5 -149.5t150.5 -55.5q209 0 209 215q0 214 -206 214q-98 0 -154.5 -57t-56.5 -157v-10z" />
    <glyph glyph-name="q" unicode="q" horiz-adv-x="602" 
d="M276 -10q-116 0 -181.5 71t-65.5 185q0 112 65 183.5t178 71.5q84 0 141 -41t75 -108h9v139h38v-661h-44v314q-19 -71 -77 -112.5t-138 -41.5zM74 246q0 -215 208 -215q94 0 151.5 55.5t57.5 149.5v10q0 100 -56.5 157t-154.5 57q-206 0 -206 -214z" />
    <glyph glyph-name="r" unicode="r" horiz-adv-x="475" 
d="M111 0h-45v491h39v-134h4q12 62 57 103t119 41q81 0 123.5 -51.5t42.5 -124.5v-37h-44v33q0 72 -32 106.5t-102 34.5q-162 0 -162 -201v-261z" />
    <glyph glyph-name="s" unicode="s" horiz-adv-x="520" 
d="M272 -10q-111 0 -172 44t-61 128v2h44v-5q0 -71 44 -100.5t145 -29.5q90 0 128 23t38 73q0 44 -28 64t-98 31l-129 19q-70 11 -107 40t-37 86q0 64 57.5 100t152.5 36q103 0 164.5 -44.5t61.5 -127.5v-2h-44v5q0 66 -42 98.5t-141 32.5q-86 0 -125.5 -23t-39.5 -75
q0 -43 25.5 -62.5t92.5 -29.5l125 -19q76 -11 116 -40.5t40 -86.5q0 -67 -58 -102t-152 -35z" />
    <glyph glyph-name="t" unicode="t" horiz-adv-x="372" 
d="M352 0h-101q-73 0 -112 34t-39 115v303h-91v39h91v126h45v-126h207v-39h-207v-314q0 -55 28 -76t89 -21h90v-41z" />
    <glyph glyph-name="u" unicode="u" horiz-adv-x="595" 
d="M273 -10q-100 0 -154.5 63t-54.5 158v280h44v-283q0 -177 175 -177q96 0 149 59.5t53 166.5v234h44v-491h-39v155h-3q-15 -69 -71.5 -117t-142.5 -48z" />
    <glyph glyph-name="v" unicode="v" horiz-adv-x="557" 
d="M305 0h-53l-239 491h47l217 -447h4l216 447h47z" />
    <glyph glyph-name="w" unicode="w" horiz-adv-x="836" 
d="M233 0h-55l-165 491h46l121 -359l26 -88h4l33 90l147 357h56l148 -357l33 -89h4l25 87l121 359h46l-166 -491h-55l-143 351l-39 100h-4l-38 -100z" />
    <glyph glyph-name="x" unicode="x" horiz-adv-x="563" 
d="M66 0h-53l234 247v3l-234 241h53l214 -216h4l213 216h53l-235 -239v-4l235 -248h-54l-214 224h-3z" />
    <glyph glyph-name="y" unicode="y" horiz-adv-x="546" 
d="M122 -170h-56v41h59q39 0 59 13.5t37 48.5l32 69l-245 489h48l158 -315l59 -122h4l58 122l151 315h47l-274 -571q-23 -49 -55 -69.5t-82 -20.5z" />
    <glyph glyph-name="z" unicode="z" horiz-adv-x="547" 
d="M518 0h-489v40l309 308l104 100v4l-104 -1h-294v40h459v-40l-329 -325l-87 -83v-4l87 1h344v-40z" />
    <glyph glyph-name="braceleft" unicode="{" horiz-adv-x="246" 
d="M235 -60h-12q-113 0 -113 114v206q0 29 -10.5 39.5t-40.5 10.5h-39v50h39q30 0 40.5 10.5t10.5 39.5v206q0 114 113 114h12v-42h-16q-37 0 -51.5 -15t-14.5 -55v-206q0 -75 -63 -75v-4q63 0 63 -75v-206q0 -40 14.5 -55t51.5 -15h16v-42z" />
    <glyph glyph-name="bar" unicode="|" horiz-adv-x="176" 
d="M109 -100h-43v870h43v-870z" />
    <glyph glyph-name="braceright" unicode="}" horiz-adv-x="247" 
d="M11 730h12q114 0 114 -114v-206q0 -29 10.5 -39.5t40.5 -10.5h39v-50h-39q-30 0 -40.5 -10.5t-10.5 -39.5v-206q0 -114 -114 -114h-12v42h16q37 0 52 15t15 55v206q0 75 63 75v4q-63 0 -63 75v206q0 40 -15 55t-52 15h-16v42z" />
    <glyph glyph-name="asciitilde" unicode="~" horiz-adv-x="545" 
d="M115 253h-39v80q0 87 81 87q7 0 13.5 -1t13.5 -3.5t11.5 -4t12.5 -6t11.5 -6.5t12.5 -8.5t11.5 -8t12.5 -9.5t12 -9l36 -25q51 -39 74 -44q8 -2 16 -2q42 0 42 50v76h40v-80q0 -36 -18.5 -61t-59.5 -25q-20 0 -41.5 8.5t-33 16t-33.5 24.5l-44 31q-3 2 -12.5 9.5
t-13 10.5t-11.5 8.5t-13 8t-12 5.5t-13 4t-13 1q-43 0 -43 -50v-77z" />
    <glyph glyph-name="nbspace" unicode="&#xa0;" horiz-adv-x="195" 
 />
    <glyph glyph-name="exclamdown" unicode="&#xa1;" horiz-adv-x="131" 
d="M40 500h50v-125h-50v125zM47 280h37q0 -65 4 -206t4 -174v-70h-53v70q0 33 4 174t4 206z" />
    <glyph glyph-name="cent" unicode="&#xa2;" horiz-adv-x="550" 
d="M297 -100h-42v92q-98 12 -157.5 82t-59.5 172q0 101 59.5 171t157.5 82v101h42v-99q98 -2 165.5 -56.5t67.5 -138.5v-6h-44v5q0 73 -51 114.5t-143 41.5q-107 0 -158.5 -56.5t-51.5 -158.5t51.5 -158.5t158.5 -56.5q92 0 143 41t51 114v6h44v-6q0 -85 -68.5 -140.5
t-164.5 -55.5v-90z" />
    <glyph glyph-name="sterling" unicode="&#xa3;" horiz-adv-x="611" 
d="M419 313h-247l24 -37q48 -74 48 -121q0 -37 -23 -66t-57 -45v-3h418v-41h-552v41h29q61 0 104 31t43 79q0 38 -45 106l-37 56h-94v39h68q-45 70 -45 138q0 81 66 135.5t193 54.5q134 0 201 -63t67 -163v-25h-44v20q0 96 -52.5 143t-171.5 47q-215 0 -215 -153
q0 -25 8 -51t16.5 -41.5t24.5 -41.5h273v-39z" />
    <glyph glyph-name="yen" unicode="&#xa5;" horiz-adv-x="624" 
d="M334 0h-44v231h-278v39h260l-74 108h-186v40h159l-171 252h54l174 -257l84 -127h4l82 127l172 257h54l-171 -252h160v-40h-187l-74 -108h261v-39h-279v-231z" />
    <glyph glyph-name="brokenbar" unicode="&#xa6;" horiz-adv-x="143" 
d="M93 375h-43v395h43v-395zM93 -100h-43v395h43v-395z" />
    <glyph glyph-name="section" unicode="&#xa7;" horiz-adv-x="480" 
d="M256 -10q-109 0 -168.5 44t-59.5 128v3h44v-6q0 -68 39.5 -99.5t144.5 -31.5q85 0 124.5 20.5t39.5 66.5q0 36 -27.5 55.5t-89.5 29.5l-133 20q-149 23 -149 120q0 42 29 69t81 35v3q-110 21 -110 106q0 59 56 93t145 34q112 0 173.5 -44t61.5 -128v-2h-44v5
q0 68 -41 99.5t-151 31.5q-80 0 -118 -21t-38 -68q0 -38 27 -56t90 -27l135 -20q147 -20 147 -114q0 -44 -30.5 -73.5t-82.5 -36.5v-4q113 -25 113 -106q0 -60 -58 -93t-150 -33zM188 254l45 -7q100 -16 143.5 8t43.5 73q0 40 -28 59.5t-95 28.5l-51 7q-181 25 -181 -79
q0 -41 27.5 -60t95.5 -30z" />
    <glyph glyph-name="copyright" unicode="&#xa9;" horiz-adv-x="758" 
d="M379 4q-159 0 -254.5 92t-95.5 239t95.5 239t254.5 92t254.5 -92t95.5 -239t-95.5 -239t-254.5 -92zM379 41q153 0 231 78.5t78 215.5t-78 215.5t-231 78.5t-231.5 -78.5t-78.5 -215.5t78.5 -215.5t231.5 -78.5zM382 154q-86 0 -140.5 50.5t-54.5 130.5t54.5 130.5
t140.5 50.5q78 0 129.5 -39t51.5 -95v-8h-39v6q0 51 -39 75.5t-103 24.5q-73 0 -114.5 -35.5t-41.5 -109.5t41.5 -109.5t114.5 -35.5q64 0 103 24.5t39 75.5v6h39v-8q0 -56 -51.5 -95t-129.5 -39z" />
    <glyph glyph-name="ordfeminine" unicode="&#xaa;" horiz-adv-x="210" 
d="M89 524q-51 0 -51 40q0 33 46 38l58 7v10q0 17 -7.5 25t-29.5 8t-28.5 -7t-6.5 -23v-2h-31v3q0 25 18.5 41t49.5 16t48 -17t17 -46v-90h-27v26h-2q-15 -29 -54 -29zM67 565q0 -17 29 -17q48 0 48 40l-54 -7q-23 -2 -23 -16z" />
    <glyph glyph-name="guillemotleft" unicode="&#xab;" horiz-adv-x="482" 
d="M252 325l200 147v-47l-165 -118v-4l165 -118v-47l-200 147v40zM12 325l200 147v-47l-165 -118v-4l165 -118v-47l-200 147v40z" />
    <glyph glyph-name="softhyphen" unicode="&#xad;" horiz-adv-x="600" 
d="M268 272h-238v39h238v-39z" />
    <glyph glyph-name="registered" unicode="&#xae;" horiz-adv-x="382" 
d="M191 351q-77 0 -124 45t-47 111t47 111t124 45t124 -45t47 -111t-47 -111t-124 -45zM191 381q62 0 101 31t39 95q0 65 -39 95.5t-101 30.5q-61 0 -100 -30.5t-39 -95.5q0 -64 39 -95t100 -31zM146 439h-26v140h91q58 0 58 -44q0 -36 -39 -38v-2q14 -5 26 -26l18 -30h-31
l-15 26q-9 16 -15.5 21t-20.5 5h-46v-52zM146 555v-43h69q15 0 21 4.5t6 16.5q0 13 -5.5 17.5t-21.5 4.5h-69z" />
    <glyph glyph-name="degree" unicode="&#xb0;" horiz-adv-x="233" 
d="M116 506q-38 0 -62 25.5t-24 61.5t24 61.5t62 25.5q39 0 63 -25.5t24 -61.5t-24 -61.5t-63 -25.5zM116 539q53 0 53 54t-53 54t-53 -54t53 -54z" />
    <glyph glyph-name="plusminus" unicode="&#xb1;" horiz-adv-x="449" 
d="M409 109h-370v39h164v167h-164v40h164v165h42v-165h164v-40h-164v-167h164v-39z" />
    <glyph glyph-name="twosuperior" unicode="&#xb2;" horiz-adv-x="351" 
d="M332 340h-296v11q0 54 25 83t80 48l69 24q46 17 65 31.5t19 41.5q0 33 -23.5 49.5t-82.5 16.5q-62 0 -91 -20.5t-29 -64.5v-7h-38v8q0 49 41 84t118 35q67 0 104.5 -28.5t37.5 -72.5q0 -39 -26.5 -60.5t-83.5 -41.5l-67 -23q-41 -15 -59.5 -32.5t-18.5 -47.5l90 1h166
v-35z" />
    <glyph glyph-name="threesuperior" unicode="&#xb3;" horiz-adv-x="361" 
d="M193 335q-81 0 -122.5 30t-41.5 77v11h37v-11q0 -38 28 -55t98 -17q55 0 82.5 14t27.5 52q0 37 -25.5 49t-87.5 12h-81v32h73q62 0 84.5 10.5t22.5 46.5q0 29 -22 44t-79 15q-67 0 -94 -17t-27 -55v-10h-37v10q0 47 41.5 77t117.5 30q61 0 100 -22.5t39 -65.5
q0 -66 -67 -74v-5q37 -4 59 -24.5t22 -56.5q0 -47 -43 -72t-105 -25z" />
    <glyph glyph-name="paragraph" unicode="&#xb6;" horiz-adv-x="607" 
d="M338 0h-44v270h-57q-94 0 -155.5 52t-61.5 151q0 96 61.5 146.5t155.5 50.5h101v-670zM541 0h-44v670h44v-670z" />
    <glyph glyph-name="periodcentered" unicode="&#xb7;" horiz-adv-x="130" 
d="M91 250h-52v126h52v-126z" />
    <glyph glyph-name="onesuperior" unicode="&#xb9;" horiz-adv-x="228" 
d="M144 335h-39v259h-100v35h47q31 0 43.5 9t15.5 32h33v-335z" />
    <glyph glyph-name="ordmasculine" unicode="&#xba;" horiz-adv-x="231" 
d="M115 524q-34 0 -55.5 22.5t-21.5 55.5t21.5 55.5t55.5 22.5q35 0 56.5 -22.5t21.5 -55.5t-21.5 -55.5t-56.5 -22.5zM115 553q48 0 48 49t-48 49q-47 0 -47 -49t47 -49z" />
    <glyph glyph-name="guillemotright" unicode="&#xbb;" horiz-adv-x="482" 
d="M230 285l-200 -147v47l165 118v4l-165 118v47l200 -147v-40zM470 285l-200 -147v47l165 118v4l-165 118v47l200 -147v-40z" />
    <glyph glyph-name="onequarter" unicode="&#xbc;" horiz-adv-x="668" 
d="M158 335h-39v259h-100v35h46q32 0 44 8.5t16 32.5h33v-335zM58 0h-46l569 670h46zM580 0h-39v69h-236v28l232 238h43v-230h68v-36h-68v-69zM361 105h180v178h-4l-176 -174v-4z" />
    <glyph glyph-name="onehalf" unicode="&#xbd;" horiz-adv-x="728" 
d="M158 335h-39v259h-100v35h46q32 0 44 8.5t16 32.5h33v-335zM58 0h-46l569 670h46zM716 0h-296v11q0 54 25 83t80 48l69 24q46 17 65 31.5t19 41.5q0 33 -23.5 49.5t-82.5 16.5q-62 0 -91 -20.5t-29 -64.5v-7h-38v8q0 49 41 84t118 35q67 0 104.5 -28.5t37.5 -72.5
q0 -38 -26.5 -60t-83.5 -42l-67 -23q-42 -15 -60.5 -32.5t-18.5 -47.5l91 1h166v-35z" />
    <glyph glyph-name="threequarters" unicode="&#xbe;" horiz-adv-x="737" 
d="M184 335q-80 0 -121.5 30t-41.5 77v11h37v-11q0 -38 28 -55t98 -17q55 0 82.5 14t27.5 52q0 37 -25.5 49t-87.5 12h-81v32h72q62 0 85 10.5t23 46.5q0 29 -22 44t-79 15q-67 0 -94 -17t-27 -55v-10h-37v10q0 47 41 77t118 30q61 0 100 -22.5t39 -65.5q0 -65 -67 -74v-5
q37 -4 59 -24.5t22 -56.5q0 -47 -43.5 -72t-105.5 -25zM136 0h-46l569 670h46zM632 -1h-39v69h-235v28l231 238h43v-230h68v-36h-68v-69zM413 104h180v178h-3l-177 -174v-4z" />
    <glyph glyph-name="questiondown" unicode="&#xbf;" horiz-adv-x="532" 
d="M267 500h49v-125h-49v125zM271 286h44v-31q0 -35 -16 -59t-58 -43l-73 -34q-59 -29 -86 -57t-27 -74q0 -127 195 -127q121 0 174.5 42.5t53.5 129.5v14h44v-17q0 -92 -69 -151t-204 -59q-119 0 -178.5 47t-59.5 119q0 60 37.5 99t101.5 68l70 32q30 13 40.5 26.5
t10.5 40.5v34z" />
    <glyph glyph-name="Agrave" unicode="&#xc0;" horiz-adv-x="690" 
d="M366 730h-46l-135 121h58zM56 0h-48l306 670h61l306 -670h-48l-99 213h-380zM307 544l-134 -290h342l-134 290l-36 82h-4z" />
    <glyph glyph-name="Aacute" unicode="&#xc1;" horiz-adv-x="690" 
d="M369 730h-45l123 121h58zM56 0h-48l306 670h61l306 -670h-48l-99 213h-380zM307 544l-134 -290h342l-134 290l-36 82h-4z" />
    <glyph glyph-name="Acircumflex" unicode="&#xc2;" horiz-adv-x="690" 
d="M241 730h-48l130 130h44l129 -130h-47l-102 101h-5zM56 0h-48l306 670h61l306 -670h-48l-99 213h-380zM307 544l-134 -290h342l-134 290l-36 82h-4z" />
    <glyph glyph-name="Atilde" unicode="&#xc3;" horiz-adv-x="690" 
d="M247 756h-33v31q0 73 62 73q30 0 68 -32l19 -16q27 -23 49 -23q32 0 32 41v29h32v-32q0 -33 -15 -52.5t-44 -19.5q-36 0 -70 32l-20 16q-25 23 -49 23q-31 0 -31 -41v-29zM56 0h-48l306 670h61l306 -670h-48l-99 213h-380zM307 544l-134 -290h342l-134 290l-36 82h-4z
" />
    <glyph glyph-name="Adieresis" unicode="&#xc4;" horiz-adv-x="690" 
d="M441 730h-43v113h43v-113zM292 730h-43v113h43v-113zM56 0h-48l306 670h61l306 -670h-48l-99 213h-380zM307 544l-134 -290h342l-134 290l-36 82h-4z" />
    <glyph glyph-name="Aring" unicode="&#xc5;" horiz-adv-x="690" 
d="M56 0h-48l298 653q-30 9 -47 32t-17 55q0 42 28 67.5t75 25.5q46 0 74.5 -25.5t28.5 -67.5q0 -67 -65 -88l298 -652h-48l-99 213h-380zM345 678q70 0 70 62t-70 62q-71 0 -71 -62t71 -62zM307 544l-134 -290h342l-134 290l-36 82h-4z" />
    <glyph glyph-name="AE" unicode="&#xc6;" horiz-adv-x="1068" 
d="M53 0h-54l524 670h502v-41h-446v-272h431v-40h-431v-276h446v-41h-490v213h-314zM532 608l-279 -354h282v354h-3z" />
    <glyph glyph-name="Ccedilla" unicode="&#xc7;" horiz-adv-x="694" 
d="M394 -195h-72v33h72q41 0 41 33t-41 33h-60v87q-131 11 -213.5 104.5t-82.5 239.5q0 155 92 250t235 95q124 0 207 -66.5t83 -173.5v-11h-47v11q0 93 -64 145t-179 52q-132 0 -206.5 -79t-74.5 -223t74.5 -222.5t206.5 -78.5q115 0 179 52t64 145v10h47v-10
q0 -108 -82.5 -174.5t-204.5 -66.5v-52h26q36 0 56.5 -18t20.5 -48q0 -31 -20.5 -49t-56.5 -18z" />
    <glyph glyph-name="Egrave" unicode="&#xc8;" horiz-adv-x="599" 
d="M332 730h-46l-135 121h58zM556 0h-490v670h490v-41h-445v-272h430v-40h-430v-276h445v-41z" />
    <glyph glyph-name="Eacute" unicode="&#xc9;" horiz-adv-x="599" 
d="M335 730h-45l123 121h58zM556 0h-490v670h490v-41h-445v-272h430v-40h-430v-276h445v-41z" />
    <glyph glyph-name="Ecircumflex" unicode="&#xca;" horiz-adv-x="599" 
d="M206 730h-47l130 130h44l129 -130h-47l-102 101h-5zM556 0h-490v670h490v-41h-445v-272h430v-40h-430v-276h445v-41z" />
    <glyph glyph-name="Edieresis" unicode="&#xcb;" horiz-adv-x="599" 
d="M407 730h-44v113h44v-113zM258 730h-43v113h43v-113zM556 0h-490v670h490v-41h-445v-272h430v-40h-430v-276h445v-41z" />
    <glyph glyph-name="Igrave" unicode="&#xcc;" 
d="M110 730h-46l-136 121h59zM111 0h-45v670h45v-670z" />
    <glyph glyph-name="Iacute" unicode="&#xcd;" 
d="M113 730h-45l122 121h59zM111 0h-45v670h45v-670z" />
    <glyph glyph-name="Icircumflex" unicode="&#xce;" 
d="M-16 730h-47l129 130h45l129 -130h-47l-102 101h-5zM111 0h-45v670h45v-670z" />
    <glyph glyph-name="Idieresis" unicode="&#xcf;" 
d="M184 730h-43v113h43v-113zM36 730h-43v113h43v-113zM111 0h-45v670h45v-670z" />
    <glyph glyph-name="Eth" unicode="&#xd0;" horiz-adv-x="749" 
d="M389 0h-279v315h-100v40h100v315h279q148 0 235 -91t87 -244t-87 -244t-235 -91zM402 315h-247v-274h234q136 0 206 75.5t70 218.5t-70 218.5t-206 75.5h-234v-274h247v-40z" />
    <glyph glyph-name="Ntilde" unicode="&#xd1;" horiz-adv-x="697" 
d="M251 756h-33v31q0 73 62 73q29 0 69 -32l18 -16q27 -23 49 -23q32 0 32 41v29h32v-32q0 -33 -15 -52.5t-44 -19.5q-34 0 -70 32l-20 16q-25 23 -49 23q-31 0 -31 -41v-29zM111 0h-45v670h50l389 -502l78 -102h4l-1 101v503h44v-670h-49l-384 495l-83 108h-4l1 -108v-495z
" />
    <glyph glyph-name="Ograve" unicode="&#xd2;" horiz-adv-x="739" 
d="M390 730h-45l-136 121h58zM369 -10q-145 0 -238 95t-93 250t93 250t238 95q146 0 238.5 -95t92.5 -250t-92.5 -250t-238.5 -95zM369 34q134 0 209.5 78.5t75.5 222.5t-75.5 223t-209.5 79t-209.5 -79t-75.5 -223t75.5 -222.5t209.5 -78.5z" />
    <glyph glyph-name="Oacute" unicode="&#xd3;" horiz-adv-x="739" 
d="M394 730h-46l123 121h58zM369 -10q-145 0 -238 95t-93 250t93 250t238 95q146 0 238.5 -95t92.5 -250t-92.5 -250t-238.5 -95zM369 34q134 0 209.5 78.5t75.5 222.5t-75.5 223t-209.5 79t-209.5 -79t-75.5 -223t75.5 -222.5t209.5 -78.5z" />
    <glyph glyph-name="Ocircumflex" unicode="&#xd4;" horiz-adv-x="739" 
d="M265 730h-47l129 130h44l130 -130h-48l-101 101h-5zM369 -10q-145 0 -238 95t-93 250t93 250t238 95q146 0 238.5 -95t92.5 -250t-92.5 -250t-238.5 -95zM369 34q134 0 209.5 78.5t75.5 222.5t-75.5 223t-209.5 79t-209.5 -79t-75.5 -223t75.5 -222.5t209.5 -78.5z" />
    <glyph glyph-name="Otilde" unicode="&#xd5;" horiz-adv-x="739" 
d="M271 756h-32v31q0 73 61 73q29 0 69 -32l19 -16q27 -23 49 -23q32 0 32 41v29h32v-32q0 -33 -15.5 -52.5t-44.5 -19.5q-34 0 -70 32l-20 16q-25 23 -48 23q-32 0 -32 -41v-29zM369 -10q-145 0 -238 95t-93 250t93 250t238 95q146 0 238.5 -95t92.5 -250t-92.5 -250
t-238.5 -95zM369 34q134 0 209.5 78.5t75.5 222.5t-75.5 223t-209.5 79t-209.5 -79t-75.5 -223t75.5 -222.5t209.5 -78.5z" />
    <glyph glyph-name="Odieresis" unicode="&#xd6;" horiz-adv-x="739" 
d="M465 730h-43v113h43v-113zM317 730h-44v113h44v-113zM369 -10q-145 0 -238 95t-93 250t93 250t238 95q146 0 238.5 -95t92.5 -250t-92.5 -250t-238.5 -95zM369 34q134 0 209.5 78.5t75.5 222.5t-75.5 223t-209.5 79t-209.5 -79t-75.5 -223t75.5 -222.5t209.5 -78.5z" />
    <glyph glyph-name="multiply" unicode="&#xd7;" horiz-adv-x="438" 
d="M372 212l-29 -30l-125 124l-123 -123l-28 28l123 123l-124 124l30 30l124 -124l123 123l28 -28l-123 -123z" />
    <glyph glyph-name="Oslash" unicode="&#xd8;" horiz-adv-x="739" 
d="M369 -10q-130 0 -218 76l-75 -85l-28 25l76 86q-86 96 -86 243q0 155 93 250t238 95q125 0 213 -72l72 81l27 -25l-72 -81q91 -96 91 -248q0 -155 -92.5 -250t-238.5 -95zM84 335q0 -134 67 -213l405 457q-73 58 -187 58q-134 0 -209.5 -79t-75.5 -223zM369 34
q134 0 209.5 78.5t75.5 222.5q0 139 -71 218l-405 -457q73 -62 191 -62z" />
    <glyph glyph-name="Ugrave" unicode="&#xd9;" horiz-adv-x="709" 
d="M375 730h-45l-136 121h58zM354 -10q-134 0 -213.5 74.5t-79.5 211.5v394h45v-393q0 -243 248 -243q249 0 249 243v393h44v-394q0 -137 -79.5 -211.5t-213.5 -74.5z" />
    <glyph glyph-name="Uacute" unicode="&#xda;" horiz-adv-x="709" 
d="M379 730h-46l123 121h58zM354 -10q-134 0 -213.5 74.5t-79.5 211.5v394h45v-393q0 -243 248 -243q249 0 249 243v393h44v-394q0 -137 -79.5 -211.5t-213.5 -74.5z" />
    <glyph glyph-name="Ucircumflex" unicode="&#xdb;" horiz-adv-x="709" 
d="M250 730h-47l129 130h44l130 -130h-47l-102 101h-5zM354 -10q-134 0 -213.5 74.5t-79.5 211.5v394h45v-393q0 -243 248 -243q249 0 249 243v393h44v-394q0 -137 -79.5 -211.5t-213.5 -74.5z" />
    <glyph glyph-name="Udieresis" unicode="&#xdc;" horiz-adv-x="709" 
d="M450 730h-43v113h43v-113zM302 730h-44v113h44v-113zM354 -10q-134 0 -213.5 74.5t-79.5 211.5v394h45v-393q0 -243 248 -243q249 0 249 243v393h44v-394q0 -137 -79.5 -211.5t-213.5 -74.5z" />
    <glyph glyph-name="Yacute" unicode="&#xdd;" horiz-adv-x="620" 
d="M335 730h-46l123 121h58zM332 0h-44v243l-289 427h52l204 -299l55 -80h3l54 80l202 299h53l-290 -425v-245z" />
    <glyph glyph-name="Thorn" unicode="&#xde;" horiz-adv-x="624" 
d="M111 0h-45v670h45v-114h250q109 0 176.5 -59t67.5 -162t-67.5 -162t-176.5 -59h-250v-114zM359 516h-248v-361h248q201 0 201 180q0 181 -201 181z" />
    <glyph glyph-name="germandbls" unicode="&#xdf;" horiz-adv-x="595" 
d="M94 0h-44v442q0 229 271 229q113 0 174.5 -45t61.5 -119q0 -58 -42 -98.5t-123 -52.5v-5q88 -10 136 -55.5t48 -113.5q0 -87 -61 -134.5t-173 -47.5h-124v41h121q103 0 147.5 34.5t44.5 110.5q0 145 -201 145h-112v40h97q95 0 146.5 33.5t51.5 98.5q0 62 -43.5 94
t-149.5 32q-124 0 -175 -42.5t-51 -144.5v-442z" />
    <glyph glyph-name="agrave" unicode="&#xe0;" horiz-adv-x="544" 
d="M303 560h-43l-136 130h56zM198 -10q-72 0 -116 33t-44 90q0 106 158 124l243 28v44q0 81 -38.5 116.5t-125.5 35.5q-181 0 -181 -141v-5h-44v5q0 76 60.5 128.5t166.5 52.5q102 0 153 -52.5t51 -134.5v-314h-39v139h-3q-24 -71 -88 -110t-153 -39zM82 116q0 -89 123 -89
q100 0 167 50.5t67 145.5v9l-227 -26q-69 -7 -99.5 -26.5t-30.5 -63.5z" />
    <glyph glyph-name="aacute" unicode="&#xe1;" horiz-adv-x="544" 
d="M299 560h-43l123 130h56zM198 -10q-72 0 -116 33t-44 90q0 106 158 124l243 28v44q0 81 -38.5 116.5t-125.5 35.5q-181 0 -181 -141v-5h-44v5q0 76 60.5 128.5t166.5 52.5q102 0 153 -52.5t51 -134.5v-314h-39v139h-3q-24 -71 -88 -110t-153 -39zM82 116q0 -89 123 -89
q100 0 167 50.5t67 145.5v9l-227 -26q-69 -7 -99.5 -26.5t-30.5 -63.5z" />
    <glyph glyph-name="acircumflex" unicode="&#xe2;" horiz-adv-x="544" 
d="M174 560h-47l129 130h44l129 -130h-47l-102 101h-4zM198 -10q-72 0 -116 33t-44 90q0 106 158 124l243 28v44q0 81 -38.5 116.5t-125.5 35.5q-181 0 -181 -141v-5h-44v5q0 76 60.5 128.5t166.5 52.5q102 0 153 -52.5t51 -134.5v-314h-39v139h-3q-24 -71 -88 -110
t-153 -39zM82 116q0 -89 123 -89q100 0 167 50.5t67 145.5v9l-227 -26q-69 -7 -99.5 -26.5t-30.5 -63.5z" />
    <glyph glyph-name="atilde" unicode="&#xe3;" horiz-adv-x="544" 
d="M179 586h-32v33q0 71 62 71q28 0 68 -32l18 -16q27 -23 49 -23q32 0 32 41v29h32v-32q0 -33 -15 -52.5t-44 -19.5q-34 0 -70 32l-20 16q-27 23 -48 23q-32 0 -32 -39v-31zM198 -10q-72 0 -116 33t-44 90q0 106 158 124l243 28v44q0 81 -38.5 116.5t-125.5 35.5
q-181 0 -181 -141v-5h-44v5q0 76 60.5 128.5t166.5 52.5q102 0 153 -52.5t51 -134.5v-314h-39v139h-3q-24 -71 -88 -110t-153 -39zM82 116q0 -89 123 -89q100 0 167 50.5t67 145.5v9l-227 -26q-69 -7 -99.5 -26.5t-30.5 -63.5z" />
    <glyph glyph-name="adieresis" unicode="&#xe4;" horiz-adv-x="544" 
d="M374 560h-43v113h43v-113zM225 560h-43v113h43v-113zM198 -10q-72 0 -116 33t-44 90q0 106 158 124l243 28v44q0 81 -38.5 116.5t-125.5 35.5q-181 0 -181 -141v-5h-44v5q0 76 60.5 128.5t166.5 52.5q102 0 153 -52.5t51 -134.5v-314h-39v139h-3q-24 -71 -88 -110
t-153 -39zM82 116q0 -89 123 -89q100 0 167 50.5t67 145.5v9l-227 -26q-69 -7 -99.5 -26.5t-30.5 -63.5z" />
    <glyph glyph-name="aring" unicode="&#xe5;" horiz-adv-x="544" 
d="M278 544q-44 0 -71 24t-27 64t27 64t71 24t71 -24t27 -64t-27 -64t-71 -24zM278 571q68 0 68 61t-68 61t-68 -61t68 -61zM198 -10q-72 0 -116 33t-44 90q0 106 158 124l243 28v44q0 81 -38.5 116.5t-125.5 35.5q-181 0 -181 -141v-5h-44v5q0 76 60.5 128.5t166.5 52.5
q102 0 153 -52.5t51 -134.5v-314h-39v139h-3q-24 -71 -88 -110t-153 -39zM82 116q0 -89 123 -89q100 0 167 50.5t67 145.5v9l-227 -26q-69 -7 -99.5 -26.5t-30.5 -63.5z" />
    <glyph glyph-name="ae" unicode="&#xe6;" horiz-adv-x="964" 
d="M203 -10q-76 0 -123 33.5t-47 90.5q0 105 159 124l252 27v44q0 81 -39.5 116.5t-131.5 35.5q-184 0 -184 -141v-6h-44v6q0 77 61 129t168 52q162 0 202 -122q31 57 88 89.5t133 32.5q106 0 172.5 -60t66.5 -166q0 -27 -5 -45h-444q3 -95 55 -148t155 -53q93 0 140.5 34
t47.5 97v6h44v-6q0 -75 -66 -122.5t-165 -47.5q-91 0 -154 44.5t-87 120.5h-3q-24 -81 -93.5 -123t-157.5 -42zM697 463q-103 0 -155 -53t-55 -148h407q1 8 1 23q0 86 -52 132t-146 46zM78 117q0 -90 132 -90q98 0 163.5 50t71.5 149q-1 2 -1 6l-237 -26q-66 -6 -97.5 -26
t-31.5 -63z" />
    <glyph glyph-name="ccedilla" unicode="&#xe7;" horiz-adv-x="569" 
d="M292 -10q-113 0 -183.5 72t-70.5 184q0 111 70.5 183t183.5 72q99 0 168.5 -55t69.5 -140v-6h-44v5q0 73 -51 114.5t-143 41.5q-107 0 -158.5 -56.5t-51.5 -158.5t51.5 -158.5t158.5 -56.5q92 0 143 41t51 114v6h44v-6q0 -77 -58.5 -131t-146.5 -63v-54h27q36 0 56.5 -18
t20.5 -48q0 -31 -20.5 -49t-56.5 -18h-72v33h72q41 0 41 33t-41 33h-60v86z" />
    <glyph glyph-name="egrave" unicode="&#xe8;" horiz-adv-x="568" 
d="M309 560h-42l-137 130h56zM292 -10q-116 0 -185 71.5t-69 184.5q0 112 69 183.5t185 71.5q105 0 171.5 -60t66.5 -166q0 -27 -5 -45h-444q3 -95 55 -148t155 -53q93 0 140.5 34t47.5 97v6h44v-6q0 -75 -66 -122.5t-165 -47.5zM291 463q-103 0 -155 -53t-55 -148h407
q1 8 1 23q0 86 -52 132t-146 46z" />
    <glyph glyph-name="eacute" unicode="&#xe9;" horiz-adv-x="568" 
d="M305 560h-43l123 130h57zM292 -10q-116 0 -185 71.5t-69 184.5q0 112 69 183.5t185 71.5q105 0 171.5 -60t66.5 -166q0 -27 -5 -45h-444q3 -95 55 -148t155 -53q93 0 140.5 34t47.5 97v6h44v-6q0 -75 -66 -122.5t-165 -47.5zM291 463q-103 0 -155 -53t-55 -148h407
q1 8 1 23q0 86 -52 132t-146 46z" />
    <glyph glyph-name="ecircumflex" unicode="&#xea;" horiz-adv-x="568" 
d="M180 560h-47l129 130h44l130 -130h-48l-101 101h-5zM292 -10q-116 0 -185 71.5t-69 184.5q0 112 69 183.5t185 71.5q105 0 171.5 -60t66.5 -166q0 -27 -5 -45h-444q3 -95 55 -148t155 -53q93 0 140.5 34t47.5 97v6h44v-6q0 -75 -66 -122.5t-165 -47.5zM291 463
q-103 0 -155 -53t-55 -148h407q1 8 1 23q0 86 -52 132t-146 46z" />
    <glyph glyph-name="edieresis" unicode="&#xeb;" horiz-adv-x="568" 
d="M380 560h-43v113h43v-113zM232 560h-44v113h44v-113zM292 -10q-116 0 -185 71.5t-69 184.5q0 112 69 183.5t185 71.5q105 0 171.5 -60t66.5 -166q0 -27 -5 -45h-444q3 -95 55 -148t155 -53q93 0 140.5 34t47.5 97v6h44v-6q0 -75 -66 -122.5t-165 -47.5zM291 463
q-103 0 -155 -53t-55 -148h407q1 8 1 23q0 86 -52 132t-146 46z" />
    <glyph glyph-name="igrave" unicode="&#xec;" horiz-adv-x="162" 
d="M106 560h-43l-136 130h56zM103 0h-44v500h44v-500z" />
    <glyph glyph-name="iacute" unicode="&#xed;" horiz-adv-x="162" 
d="M102 560h-43l123 130h56zM103 0h-44v500h44v-500z" />
    <glyph glyph-name="icircumflex" unicode="&#xee;" horiz-adv-x="162" 
d="M-23 560h-48l130 130h44l129 -130h-47l-102 101h-5zM103 0h-44v500h44v-500z" />
    <glyph glyph-name="idieresis" unicode="&#xef;" horiz-adv-x="162" 
d="M177 560h-43v113h43v-113zM28 560h-43v113h43v-113zM103 0h-44v500h44v-500z" />
    <glyph glyph-name="eth" unicode="&#xf0;" horiz-adv-x="585" 
d="M263 -10q-127 0 -198.5 56.5t-71.5 153.5q0 94 70.5 150t193.5 56q100 0 163 -39.5t83 -105.5h6q-1 150 -148 284l-209 -55l-8 31l188 49q-65 54 -147 100h60q73 -38 133 -88l178 47l8 -31l-157 -41q145 -134 145 -291q0 -128 -70.5 -202t-218.5 -74zM264 32
q228 0 228 173q0 76 -61 119t-167 43q-111 0 -169 -42.5t-58 -122.5q0 -170 227 -170z" />
    <glyph glyph-name="ntilde" unicode="&#xf1;" horiz-adv-x="594" 
d="M200 586h-32v33q0 32 15.5 51.5t46.5 19.5q28 0 68 -32l19 -16q27 -23 49 -23q32 0 32 41v29h32v-32q0 -33 -15.5 -52.5t-44.5 -19.5q-34 0 -70 32l-19 16q-28 23 -48 23q-33 0 -33 -39v-31zM111 0h-45v491h39v-155h4q15 68 71 116.5t141 48.5q100 0 155 -63t55 -158
v-280h-45v283q0 85 -43 131.5t-131 46.5q-96 0 -148.5 -60t-52.5 -166v-235z" />
    <glyph glyph-name="ograve" unicode="&#xf2;" horiz-adv-x="602" 
d="M326 560h-43l-136 130h56zM301 -10q-118 0 -190.5 72t-72.5 184q0 111 72.5 183t190.5 72q117 0 190 -72t73 -183t-73 -183.5t-190 -72.5zM301 30q108 0 163.5 57.5t55.5 158.5q0 100 -55.5 157.5t-163.5 57.5t-163.5 -57.5t-55.5 -157.5q0 -101 55.5 -158.5t163.5 -57.5
z" />
    <glyph glyph-name="oacute" unicode="&#xf3;" horiz-adv-x="602" 
d="M322 560h-43l123 130h56zM301 -10q-118 0 -190.5 72t-72.5 184q0 111 72.5 183t190.5 72q117 0 190 -72t73 -183t-73 -183.5t-190 -72.5zM301 30q108 0 163.5 57.5t55.5 158.5q0 100 -55.5 157.5t-163.5 57.5t-163.5 -57.5t-55.5 -157.5q0 -101 55.5 -158.5t163.5 -57.5z
" />
    <glyph glyph-name="ocircumflex" unicode="&#xf4;" horiz-adv-x="602" 
d="M197 560h-48l130 130h44l129 -130h-47l-102 101h-5zM301 -10q-118 0 -190.5 72t-72.5 184q0 111 72.5 183t190.5 72q117 0 190 -72t73 -183t-73 -183.5t-190 -72.5zM301 30q108 0 163.5 57.5t55.5 158.5q0 100 -55.5 157.5t-163.5 57.5t-163.5 -57.5t-55.5 -157.5
q0 -101 55.5 -158.5t163.5 -57.5z" />
    <glyph glyph-name="otilde" unicode="&#xf5;" horiz-adv-x="602" 
d="M202 586h-33v33q0 71 63 71q28 0 68 -32l18 -16q27 -23 49 -23q32 0 32 41v29h32v-32q0 -33 -15 -52.5t-44 -19.5q-34 0 -70 32l-20 16q-27 23 -48 23q-32 0 -32 -39v-31zM301 -10q-118 0 -190.5 72t-72.5 184q0 111 72.5 183t190.5 72q117 0 190 -72t73 -183t-73 -183.5
t-190 -72.5zM301 30q108 0 163.5 57.5t55.5 158.5q0 100 -55.5 157.5t-163.5 57.5t-163.5 -57.5t-55.5 -157.5q0 -101 55.5 -158.5t163.5 -57.5z" />
    <glyph glyph-name="odieresis" unicode="&#xf6;" horiz-adv-x="602" 
d="M397 560h-44v113h44v-113zM248 560h-43v113h43v-113zM301 -10q-118 0 -190.5 72t-72.5 184q0 111 72.5 183t190.5 72q117 0 190 -72t73 -183t-73 -183.5t-190 -72.5zM301 30q108 0 163.5 57.5t55.5 158.5q0 100 -55.5 157.5t-163.5 57.5t-163.5 -57.5t-55.5 -157.5
q0 -101 55.5 -158.5t163.5 -57.5z" />
    <glyph glyph-name="divide" unicode="&#xf7;" horiz-adv-x="467" 
d="M258 446h-48v124h48v-124zM419 315h-370v40h370v-40zM258 100h-48v124h48v-124z" />
    <glyph glyph-name="oslash" unicode="&#xf8;" horiz-adv-x="602" 
d="M301 -10q-102 0 -172 56l-57 -62l-24 23l57 61q-67 70 -67 178q0 111 72.5 183t190.5 72q93 0 162 -48l49 53l25 -23l-48 -52q75 -70 75 -185q0 -111 -73 -183.5t-190 -72.5zM82 246q0 -94 48 -151l307 331q-52 35 -136 35q-108 0 -163.5 -57.5t-55.5 -157.5zM301 30
q108 0 163.5 57.5t55.5 158.5q0 103 -56 158l-310 -332q56 -42 147 -42z" />
    <glyph glyph-name="ugrave" unicode="&#xf9;" horiz-adv-x="595" 
d="M321 560h-42l-137 130h56zM273 -10q-100 0 -154.5 63t-54.5 158v280h44v-283q0 -177 175 -177q96 0 149 59.5t53 166.5v234h44v-491h-39v155h-3q-15 -69 -71.5 -117t-142.5 -48z" />
    <glyph glyph-name="uacute" unicode="&#xfa;" horiz-adv-x="595" 
d="M317 560h-43l123 130h57zM273 -10q-100 0 -154.5 63t-54.5 158v280h44v-283q0 -177 175 -177q96 0 149 59.5t53 166.5v234h44v-491h-39v155h-3q-15 -69 -71.5 -117t-142.5 -48z" />
    <glyph glyph-name="ucircumflex" unicode="&#xfb;" horiz-adv-x="595" 
d="M192 560h-47l129 130h44l130 -130h-48l-101 101h-5zM273 -10q-100 0 -154.5 63t-54.5 158v280h44v-283q0 -177 175 -177q96 0 149 59.5t53 166.5v234h44v-491h-39v155h-3q-15 -69 -71.5 -117t-142.5 -48z" />
    <glyph glyph-name="udieresis" unicode="&#xfc;" horiz-adv-x="595" 
d="M392 560h-43v113h43v-113zM243 560h-43v113h43v-113zM273 -10q-100 0 -154.5 63t-54.5 158v280h44v-283q0 -177 175 -177q96 0 149 59.5t53 166.5v234h44v-491h-39v155h-3q-15 -69 -71.5 -117t-142.5 -48z" />
    <glyph glyph-name="yacute" unicode="&#xfd;" horiz-adv-x="546" 
d="M291 560h-43l123 130h57zM122 -170h-56v41h59q39 0 59 13.5t37 48.5l32 69l-245 489h48l158 -315l59 -122h4l58 122l151 315h47l-274 -571q-23 -49 -55 -69.5t-82 -20.5z" />
    <glyph glyph-name="thorn" unicode="&#xfe;" horiz-adv-x="593" 
d="M102 -170h-45v840h45v-323q19 72 78.5 113t141.5 41q114 0 177.5 -71t63.5 -184q0 -114 -63.5 -185t-177.5 -71q-82 0 -142 42t-78 112v-314zM102 236q0 -94 58.5 -149.5t154.5 -55.5q204 0 204 215q0 214 -204 214q-96 0 -154.5 -55t-58.5 -150v-19z" />
    <glyph glyph-name="ydieresis" unicode="&#xff;" horiz-adv-x="546" 
d="M366 560h-43v113h43v-113zM218 560h-44v113h44v-113zM122 -170h-56v41h59q39 0 59 13.5t37 48.5l32 69l-245 489h48l158 -315l59 -122h4l58 122l151 315h47l-274 -571q-23 -49 -55 -69.5t-82 -20.5z" />
    <glyph glyph-name="Amacron" unicode="&#x100;" horiz-adv-x="690" 
d="M470 779h-250v33h250v-33zM56 0h-48l306 670h61l306 -670h-48l-99 213h-380zM307 544l-134 -290h342l-134 290l-36 82h-4z" />
    <glyph glyph-name="amacron" unicode="&#x101;" horiz-adv-x="544" 
d="M403 609h-250v33h250v-33zM198 -10q-72 0 -116 33t-44 90q0 106 158 124l243 28v44q0 81 -38.5 116.5t-125.5 35.5q-181 0 -181 -141v-5h-44v5q0 76 60.5 128.5t166.5 52.5q102 0 153 -52.5t51 -134.5v-314h-39v139h-3q-24 -71 -88 -110t-153 -39zM82 116q0 -89 123 -89
q100 0 167 50.5t67 145.5v9l-227 -26q-69 -7 -99.5 -26.5t-30.5 -63.5z" />
    <glyph glyph-name="Abreve" unicode="&#x102;" horiz-adv-x="690" 
d="M345 720q-54 0 -87 28t-33 77v9h37v-10q0 -70 83 -70q45 0 64 17t19 53v10h36v-9q0 -49 -32.5 -77t-86.5 -28zM56 0h-48l306 670h61l306 -670h-48l-99 213h-380zM307 544l-134 -290h342l-134 290l-36 82h-4z" />
    <glyph glyph-name="abreve" unicode="&#x103;" horiz-adv-x="544" 
d="M278 550q-54 0 -87 28t-33 77v26h37v-27q0 -71 83 -71q44 0 63.5 17.5t19.5 53.5v27h37v-26q0 -49 -33 -77t-87 -28zM198 -10q-72 0 -116 33t-44 90q0 106 158 124l243 28v44q0 81 -38.5 116.5t-125.5 35.5q-181 0 -181 -141v-5h-44v5q0 76 60.5 128.5t166.5 52.5
q102 0 153 -52.5t51 -134.5v-314h-39v139h-3q-24 -71 -88 -110t-153 -39zM82 116q0 -89 123 -89q100 0 167 50.5t67 145.5v9l-227 -26q-69 -7 -99.5 -26.5t-30.5 -63.5z" />
    <glyph glyph-name="Aogonek" unicode="&#x104;" horiz-adv-x="690" 
d="M56 0h-48l306 670h61l306 -670l-41 -53q-29 -37 -29 -59q0 -41 54 -41h63v-34h-66q-43 0 -66.5 17.5t-23.5 49.5q0 17 7.5 33t13.5 23.5t22 24.5l34 39h-16l-99 213h-380zM307 544l-134 -290h342l-134 290l-36 82h-4z" />
    <glyph glyph-name="aogonek" unicode="&#x105;" horiz-adv-x="544" 
d="M198 -10q-72 0 -116 33t-44 90q0 106 158 124l243 28v44q0 81 -38.5 116.5t-125.5 35.5q-181 0 -181 -141v-5h-44v5q0 76 60.5 128.5t166.5 52.5q102 0 153 -52.5t51 -134.5v-314l-42 -53q-29 -39 -29 -59q0 -41 54 -41h63v-34h-65q-43 0 -67 17.5t-24 49.5q0 7 1 14
t4.5 14t5 11t7.5 12l7.5 10t9 10.5t8.5 9.5l34 39h-6v139h-3q-24 -71 -88 -110t-153 -39zM82 116q0 -89 123 -89q100 0 167 50.5t67 145.5v9l-227 -26q-69 -7 -99.5 -26.5t-30.5 -63.5z" />
    <glyph glyph-name="Cacute" unicode="&#x106;" horiz-adv-x="694" 
d="M371 730h-45l123 121h58zM365 -10q-143 0 -235 95t-92 250t92 250t235 95q124 0 207 -66.5t83 -173.5v-11h-47v11q0 93 -64 145t-179 52q-132 0 -206.5 -79t-74.5 -223t74.5 -222.5t206.5 -78.5q115 0 179 52t64 145v10h47v-10q0 -108 -83 -174.5t-207 -66.5z" />
    <glyph glyph-name="cacute" unicode="&#x107;" horiz-adv-x="569" 
d="M325 560h-43l124 130h56zM292 -10q-113 0 -183.5 72t-70.5 184q0 111 70.5 183t183.5 72q99 0 168.5 -55t69.5 -140v-6h-44v5q0 73 -51 114.5t-143 41.5q-107 0 -158.5 -56.5t-51.5 -158.5t51.5 -158.5t158.5 -56.5q92 0 143 41t51 114v6h44v-6q0 -85 -69.5 -140.5
t-168.5 -55.5z" />
    <glyph glyph-name="Ccircumflex" unicode="&#x108;" horiz-adv-x="694" 
d="M243 730h-48l130 130h44l129 -130h-47l-102 101h-5zM365 -10q-143 0 -235 95t-92 250t92 250t235 95q124 0 207 -66.5t83 -173.5v-11h-47v11q0 93 -64 145t-179 52q-132 0 -206.5 -79t-74.5 -223t74.5 -222.5t206.5 -78.5q115 0 179 52t64 145v10h47v-10
q0 -108 -83 -174.5t-207 -66.5z" />
    <glyph glyph-name="ccircumflex" unicode="&#x109;" horiz-adv-x="569" 
d="M200 560h-47l129 130h44l130 -130h-47l-102 101h-5zM292 -10q-113 0 -183.5 72t-70.5 184q0 111 70.5 183t183.5 72q99 0 168.5 -55t69.5 -140v-6h-44v5q0 73 -51 114.5t-143 41.5q-107 0 -158.5 -56.5t-51.5 -158.5t51.5 -158.5t158.5 -56.5q92 0 143 41t51 114v6h44v-6
q0 -85 -69.5 -140.5t-168.5 -55.5z" />
    <glyph glyph-name="Cdotaccent" unicode="&#x10a;" horiz-adv-x="694" 
d="M369 730h-44v113h44v-113zM365 -10q-143 0 -235 95t-92 250t92 250t235 95q124 0 207 -66.5t83 -173.5v-11h-47v11q0 93 -64 145t-179 52q-132 0 -206.5 -79t-74.5 -223t74.5 -222.5t206.5 -78.5q115 0 179 52t64 145v10h47v-10q0 -108 -83 -174.5t-207 -66.5z" />
    <glyph glyph-name="cdotaccent" unicode="&#x10b;" horiz-adv-x="569" 
d="M326 560h-44v113h44v-113zM292 -10q-113 0 -183.5 72t-70.5 184q0 111 70.5 183t183.5 72q99 0 168.5 -55t69.5 -140v-6h-44v5q0 73 -51 114.5t-143 41.5q-107 0 -158.5 -56.5t-51.5 -158.5t51.5 -158.5t158.5 -56.5q92 0 143 41t51 114v6h44v-6q0 -85 -69.5 -140.5
t-168.5 -55.5z" />
    <glyph glyph-name="Ccaron" unicode="&#x10c;" horiz-adv-x="694" 
d="M451 860h47l-129 -130h-44l-130 130h48l101 -101h5zM365 -10q-143 0 -235 95t-92 250t92 250t235 95q124 0 207 -66.5t83 -173.5v-11h-47v11q0 93 -64 145t-179 52q-132 0 -206.5 -79t-74.5 -223t74.5 -222.5t206.5 -78.5q115 0 179 52t64 145v10h47v-10
q0 -108 -83 -174.5t-207 -66.5z" />
    <glyph glyph-name="ccaron" unicode="&#x10d;" horiz-adv-x="569" 
d="M326 560h-44l-129 130h48l101 -101h5l101 101h48zM292 -10q-113 0 -183.5 72t-70.5 184q0 111 70.5 183t183.5 72q99 0 168.5 -55t69.5 -140v-6h-44v5q0 73 -51 114.5t-143 41.5q-107 0 -158.5 -56.5t-51.5 -158.5t51.5 -158.5t158.5 -56.5q92 0 143 41t51 114v6h44v-6
q0 -85 -69.5 -140.5t-168.5 -55.5z" />
    <glyph glyph-name="Dcaron" unicode="&#x10e;" horiz-adv-x="706" 
d="M472 860h47l-130 -130h-44l-129 130h47l102 -101h5zM346 0h-279v670h279q148 0 235 -91t87 -244t-87 -244t-235 -91zM346 629h-234v-588h234q136 0 206 75.5t70 218.5t-70 218.5t-206 75.5z" />
    <glyph glyph-name="dcaron" unicode="&#x10f;" horiz-adv-x="625" 
d="M276 -10q-116 0 -181.5 71t-65.5 185q0 112 65 183.5t177 71.5q84 0 141 -41.5t75 -107.5h4v318h44v-670h-38v149h-4q-19 -74 -77.5 -116.5t-139.5 -42.5zM594 482h-8v25h8q9 0 12.5 3t3.5 14v25h-21v121h47v-145q0 -43 -42 -43zM74 246q0 -215 208 -215q94 0 151.5 55.5
t57.5 149.5v10q0 100 -56.5 157t-154.5 57q-206 0 -206 -214z" />
    <glyph glyph-name="Dcroat" unicode="&#x110;" horiz-adv-x="749" 
d="M389 0h-279v315h-100v40h100v315h279q148 0 235 -91t87 -244t-87 -244t-235 -91zM402 315h-247v-274h234q136 0 206 75.5t70 218.5t-70 218.5t-206 75.5h-234v-274h247v-40z" />
    <glyph glyph-name="dcroat" unicode="&#x111;" horiz-adv-x="621" 
d="M272 -10q-115 0 -179 65.5t-64 170.5q0 104 63.5 169.5t173.5 65.5q86 0 144.5 -41t76.5 -103h4v233h-275v38h275v82h44v-82h78v-38h-78v-550h-38v142h-4q-18 -70 -78.5 -111t-142.5 -41zM74 226q0 -195 204 -195q96 0 154.5 50t58.5 135v10q0 86 -58.5 140t-157.5 54
q-201 0 -201 -194z" />
    <glyph glyph-name="Emacron" unicode="&#x112;" horiz-adv-x="599" 
d="M436 779h-251v33h251v-33zM556 0h-490v670h490v-41h-445v-272h430v-40h-430v-276h445v-41z" />
    <glyph glyph-name="emacron" unicode="&#x113;" horiz-adv-x="568" 
d="M409 609h-250v33h250v-33zM292 -10q-116 0 -185 71.5t-69 184.5q0 112 69 183.5t185 71.5q105 0 171.5 -60t66.5 -166q0 -27 -5 -45h-444q3 -95 55 -148t155 -53q93 0 140.5 34t47.5 97v6h44v-6q0 -75 -66 -122.5t-165 -47.5zM291 463q-103 0 -155 -53t-55 -148h407
q1 8 1 23q0 86 -52 132t-146 46z" />
    <glyph glyph-name="Ebreve" unicode="&#x114;" horiz-adv-x="599" 
d="M311 720q-55 0 -87.5 28t-32.5 77v9h36v-10q0 -70 84 -70q45 0 64 17t19 53v10h36v-9q0 -49 -32.5 -77t-86.5 -28zM556 0h-490v670h490v-41h-445v-272h430v-40h-430v-276h445v-41z" />
    <glyph glyph-name="ebreve" unicode="&#x115;" horiz-adv-x="568" 
d="M284 550q-54 0 -86.5 28t-32.5 77v26h36v-27q0 -71 83 -71q44 0 63.5 17.5t19.5 53.5v27h37v-26q0 -49 -33 -77t-87 -28zM292 -10q-116 0 -185 71.5t-69 184.5q0 112 69 183.5t185 71.5q105 0 171.5 -60t66.5 -166q0 -27 -5 -45h-444q3 -95 55 -148t155 -53
q93 0 140.5 34t47.5 97v6h44v-6q0 -75 -66 -122.5t-165 -47.5zM291 463q-103 0 -155 -53t-55 -148h407q1 8 1 23q0 86 -52 132t-146 46z" />
    <glyph glyph-name="Edotaccent" unicode="&#x116;" horiz-adv-x="599" 
d="M333 730h-44v113h44v-113zM556 0h-490v670h490v-41h-445v-272h430v-40h-430v-276h445v-41z" />
    <glyph glyph-name="edotaccent" unicode="&#x117;" horiz-adv-x="568" 
d="M306 560h-44v113h44v-113zM292 -10q-116 0 -185 71.5t-69 184.5q0 112 69 183.5t185 71.5q105 0 171.5 -60t66.5 -166q0 -27 -5 -45h-444q3 -95 55 -148t155 -53q93 0 140.5 34t47.5 97v6h44v-6q0 -75 -66 -122.5t-165 -47.5zM291 463q-103 0 -155 -53t-55 -148h407
q1 8 1 23q0 86 -52 132t-146 46z" />
    <glyph glyph-name="Eogonek" unicode="&#x118;" horiz-adv-x="599" 
d="M541 317h-430v-276h445v-41l-42 -53q-28 -37 -28 -59q0 -41 53 -41h63v-34h-65q-43 0 -67 17.5t-24 49.5q0 7 1 14t4.5 14t5 11t7.5 12l7.5 10t9 10.5t8.5 9.5l34 39h-457v670h490v-41h-445v-272h430v-40z" />
    <glyph glyph-name="eogonek" unicode="&#x119;" horiz-adv-x="568" 
d="M292 -10q-116 0 -185 71.5t-69 184.5q0 112 69 183.5t185 71.5q105 0 171.5 -60t66.5 -166q0 -27 -5 -45h-444q3 -95 55 -148t155 -53q93 0 140.5 34t47.5 97v6h44v-6q0 -65 -51.5 -110t-132.5 -57l-36 -46q-29 -37 -29 -59q0 -41 54 -41h63v-34h-66q-43 0 -66.5 17.5
t-23.5 49.5q0 17 7.5 33t13.5 23.5t22 24.5l25 29h-11zM291 463q-103 0 -155 -53t-55 -148h407q1 8 1 23q0 86 -52 132t-146 46z" />
    <glyph glyph-name="Ecaron" unicode="&#x11a;" horiz-adv-x="599" 
d="M415 860h47l-129 -130h-44l-130 130h47l102 -101h5zM556 0h-490v670h490v-41h-445v-272h430v-40h-430v-276h445v-41z" />
    <glyph glyph-name="ecaron" unicode="&#x11b;" horiz-adv-x="568" 
d="M306 560h-44l-129 130h48l101 -101h5l101 101h48zM292 -10q-116 0 -185 71.5t-69 184.5q0 112 69 183.5t185 71.5q105 0 171.5 -60t66.5 -166q0 -27 -5 -45h-444q3 -95 55 -148t155 -53q93 0 140.5 34t47.5 97v6h44v-6q0 -75 -66 -122.5t-165 -47.5zM291 463
q-103 0 -155 -53t-55 -148h407q1 8 1 23q0 86 -52 132t-146 46z" />
    <glyph glyph-name="Gcircumflex" unicode="&#x11c;" horiz-adv-x="710" 
d="M262 730h-47l129 130h44l130 -130h-48l-102 101h-4zM361 -10q-141 0 -232 95t-91 250t92.5 250t235.5 95q124 0 207.5 -66t83.5 -173v-9h-47v9q0 92 -64 144t-180 52q-132 0 -207 -79t-75 -223t74.5 -222.5t206.5 -78.5q120 0 184 54t64 159v37h-280v38h324v-322h-38v147
h-4q-26 -81 -94.5 -119t-159.5 -38z" />
    <glyph glyph-name="gcircumflex" unicode="&#x11d;" horiz-adv-x="604" 
d="M190 560h-47l129 130h44l130 -130h-48l-102 101h-4zM276 37q-108 0 -173 65t-65 167t67 167t179 65q80 0 138.5 -37t73.5 -102h3v129h39v-453q0 -113 -65 -165.5t-176 -52.5q-96 0 -161 48t-65 128h44q0 -137 183 -137q106 0 151 40t45 138v134h-4q-17 -60 -74 -97
t-140 -37zM83 269q0 -102 54.5 -147t146.5 -45q97 0 153.5 51t56.5 138v19q0 80 -56 128t-148 48q-95 0 -151 -45.5t-56 -146.5z" />
    <glyph glyph-name="Gbreve" unicode="&#x11e;" horiz-adv-x="710" 
d="M366 720q-54 0 -87 28t-33 77v9h37v-10q0 -70 83 -70q45 0 64 17t19 53v10h37v-9q0 -49 -33 -77t-87 -28zM361 -10q-141 0 -232 95t-91 250t92.5 250t235.5 95q124 0 207.5 -66t83.5 -173v-9h-47v9q0 92 -64 144t-180 52q-132 0 -207 -79t-75 -223t74.5 -222.5
t206.5 -78.5q120 0 184 54t64 159v37h-280v38h324v-322h-38v147h-4q-26 -81 -94.5 -119t-159.5 -38z" />
    <glyph glyph-name="gbreve" unicode="&#x11f;" horiz-adv-x="604" 
d="M294 550q-54 0 -87 28t-33 77v26h37v-27q0 -71 83 -71q44 0 63.5 17.5t19.5 53.5v27h37v-26q0 -49 -33 -77t-87 -28zM276 37q-108 0 -173 65t-65 167t67 167t179 65q80 0 138.5 -37t73.5 -102h3v129h39v-453q0 -113 -65 -165.5t-176 -52.5q-96 0 -161 48t-65 128h44
q0 -137 183 -137q106 0 151 40t45 138v134h-4q-17 -60 -74 -97t-140 -37zM83 269q0 -102 54.5 -147t146.5 -45q97 0 153.5 51t56.5 138v19q0 80 -56 128t-148 48q-95 0 -151 -45.5t-56 -146.5z" />
    <glyph glyph-name="Gdotaccent" unicode="&#x120;" horiz-adv-x="710" 
d="M388 730h-44v113h44v-113zM361 -10q-141 0 -232 95t-91 250t92.5 250t235.5 95q124 0 207.5 -66t83.5 -173v-9h-47v9q0 92 -64 144t-180 52q-132 0 -207 -79t-75 -223t74.5 -222.5t206.5 -78.5q120 0 184 54t64 159v37h-280v38h324v-322h-38v147h-4q-26 -81 -94.5 -119
t-159.5 -38z" />
    <glyph glyph-name="gdotaccent" unicode="&#x121;" horiz-adv-x="604" 
d="M316 560h-44v113h44v-113zM276 37q-108 0 -173 65t-65 167t67 167t179 65q80 0 138.5 -37t73.5 -102h3v129h39v-453q0 -113 -65 -165.5t-176 -52.5q-96 0 -161 48t-65 128h44q0 -137 183 -137q106 0 151 40t45 138v134h-4q-17 -60 -74 -97t-140 -37zM83 269
q0 -102 54.5 -147t146.5 -45q97 0 153.5 51t56.5 138v19q0 80 -56 128t-148 48q-95 0 -151 -45.5t-56 -146.5z" />
    <glyph glyph-name="Gcommaaccent" unicode="&#x122;" horiz-adv-x="710" 
d="M361 -10q-141 0 -232 95t-91 250t92.5 250t235.5 95q124 0 207.5 -66t83.5 -173v-9h-47v9q0 92 -64 144t-180 52q-132 0 -207 -79t-75 -223t74.5 -222.5t206.5 -78.5q120 0 184 54t64 159v37h-280v38h324v-322h-38v147h-4q-26 -81 -94.5 -119t-159.5 -38zM275 -200h-40
l83 130h51z" />
    <glyph glyph-name="gcommaaccent" unicode="&#x123;" horiz-adv-x="604" 
d="M326 690h37l-81 -130h-50zM276 37q-108 0 -173 65t-65 167t67 167t179 65q80 0 138.5 -37t73.5 -102h3v129h39v-453q0 -113 -65 -165.5t-176 -52.5q-96 0 -161 48t-65 128h44q0 -137 183 -137q106 0 151 40t45 138v134h-4q-17 -60 -74 -97t-140 -37zM83 269
q0 -102 54.5 -147t146.5 -45q97 0 153.5 51t56.5 138v19q0 80 -56 128t-148 48q-95 0 -151 -45.5t-56 -146.5z" />
    <glyph glyph-name="Hcircumflex" unicode="&#x124;" horiz-adv-x="680" 
d="M236 730h-47l129 130h44l130 -130h-48l-101 101h-5zM111 0h-45v670h45v-312h458v312h44v-670h-44v318h-458v-318z" />
    <glyph glyph-name="hcircumflex" unicode="&#x125;" horiz-adv-x="595" 
d="M-16 730h-47l129 130h44l130 -130h-48l-101 101h-5zM111 0h-45v670h45v-329h3q14 68 67 114t141 46q101 0 155 -60.5t54 -160.5v-280h-44v283q0 91 -43.5 134.5t-132.5 43.5q-102 0 -151 -63.5t-49 -172.5v-225z" />
    <glyph glyph-name="Hbar" unicode="&#x126;" horiz-adv-x="680" 
d="M111 0h-45v518h-97v41h97v111h45v-111h458v111h44v-111h98v-41h-98v-518h-44v318h-458v-318zM111 358h458v160h-458v-160z" />
    <glyph glyph-name="hbar" unicode="&#x127;" horiz-adv-x="581" 
d="M106 0h-44v550h-71v38h71v82h44v-82h281v-38h-281v-267h4q14 68 68.5 114t143.5 46q100 0 152.5 -61t52.5 -161v-221h-44v225q0 91 -42.5 134t-128.5 43q-105 0 -155.5 -63.5t-50.5 -171.5v-167z" />
    <glyph glyph-name="Itilde" unicode="&#x128;" 
d="M-10 756h-32v31q0 73 61 73q29 0 69 -32l19 -16q27 -23 49 -23q32 0 32 41v29h32v-32q0 -33 -15.5 -52.5t-44.5 -19.5q-34 0 -70 32l-19 16q-27 23 -49 23q-32 0 -32 -41v-29zM111 0h-45v670h45v-670z" />
    <glyph glyph-name="itilde" unicode="&#x129;" horiz-adv-x="162" 
d="M-18 586h-33v33q0 71 63 71q28 0 68 -32l18 -16q27 -23 49 -23q32 0 32 41v29h32v-32q0 -33 -15 -52.5t-44 -19.5q-34 0 -70 32l-20 16q-27 23 -48 23q-32 0 -32 -39v-31zM103 0h-44v500h44v-500z" />
    <glyph glyph-name="Imacron" unicode="&#x12a;" 
d="M214 779h-251v33h251v-33zM111 0h-45v670h45v-670z" />
    <glyph glyph-name="imacron" unicode="&#x12b;" horiz-adv-x="162" 
d="M206 609h-250v33h250v-33zM103 0h-44v500h44v-500z" />
    <glyph glyph-name="Ibreve" unicode="&#x12c;" 
d="M89 720q-55 0 -87.5 28t-32.5 77v9h36v-10q0 -70 84 -70q44 0 63.5 17.5t19.5 52.5v10h36v-9q0 -49 -32.5 -77t-86.5 -28zM111 0h-45v670h45v-670z" />
    <glyph glyph-name="ibreve" unicode="&#x12d;" horiz-adv-x="162" 
d="M81 550q-54 0 -87 28t-33 77v26h37v-27q0 -71 83 -71q44 0 63.5 17.5t19.5 53.5v27h36v-26q0 -49 -32.5 -77t-86.5 -28zM103 0h-44v500h44v-500z" />
    <glyph glyph-name="Iogonek" unicode="&#x12e;" 
d="M157 -187h-65q-43 0 -67 17.5t-24 49.5q0 17 7.5 33t13.5 23.5t22 24.5l34 39h-12v670h45v-670l-42 -53q-29 -39 -29 -59q0 -41 54 -41h63v-34z" />
    <glyph glyph-name="iogonek" unicode="&#x12f;" 
d="M111 559h-45v111h45v-111zM157 -187h-65q-43 0 -67 17.5t-24 49.5q0 17 7.5 33t13.5 23.5t22 24.5l34 39h-12v491h45v-491l-42 -53q-29 -39 -29 -59q0 -41 54 -41h63v-34z" />
    <glyph glyph-name="Idotaccent" unicode="&#x130;" 
d="M111 730h-45v113h45v-113zM111 0h-45v670h45v-670z" />
    <glyph glyph-name="dotlessi" unicode="&#x131;" horiz-adv-x="162" 
d="M103 0h-44v500h44v-500z" />
    <glyph glyph-name="IJ" unicode="&#x132;" horiz-adv-x="782" 
d="M111 0h-45v670h45v-670zM463 -10q-130 0 -194 67.5t-64 173.5v35h46v-40q0 -95 51 -143.5t161 -48.5q212 0 212 191v445h45v-440q0 -106 -63.5 -173t-193.5 -67z" />
    <glyph glyph-name="ij" unicode="&#x133;" horiz-adv-x="356" 
d="M111 559h-45v111h45v-111zM289 559h-44v111h44v-111zM111 0h-45v491h45v-491zM153 -170h-42v40h47q87 0 87 82v539h44v-527q0 -68 -38 -101t-98 -33z" />
    <glyph glyph-name="Jcircumflex" unicode="&#x134;" horiz-adv-x="605" 
d="M421 730h-47l129 130h44l130 -130h-48l-101 101h-5zM286 -10q-130 0 -194 67.5t-64 173.5v35h46v-40q0 -95 51 -143.5t161 -48.5q212 0 212 191v445h45v-440q0 -106 -63.5 -173t-193.5 -67z" />
    <glyph glyph-name="jcircumflex" unicode="&#x135;" horiz-adv-x="179" 
d="M-15 560h-47l129 130h44l130 -130h-47l-102 101h-5zM-24 -170h-42v40h47q87 0 87 82v539h44v-527q0 -68 -38 -101t-98 -33z" />
    <glyph glyph-name="Kcommaaccent" unicode="&#x136;" horiz-adv-x="661" 
d="M111 0h-45v670h45v-315h256l222 315h52l-235 -332l237 -338h-52l-222 314h-258v-314zM281 -200h-39l83 130h51z" />
    <glyph glyph-name="kcommaaccent" unicode="&#x137;" horiz-adv-x="537" 
d="M111 0h-45v670h45v-393h184l178 214h51l-193 -233l193 -258h-52l-178 237h-183v-237zM186 -200h-38l82 130h49z" />
    <glyph glyph-name="Lacute" unicode="&#x139;" horiz-adv-x="565" 
d="M112 730h-46l123 121h58zM545 0h-479v670h45v-629h434v-41z" />
    <glyph glyph-name="lacute" unicode="&#x13a;" 
d="M114 730h-46l123 121h58zM111 0h-45v670h45v-670z" />
    <glyph glyph-name="Lcommaaccent" unicode="&#x13b;" horiz-adv-x="565" 
d="M545 0h-479v670h45v-629h434v-41zM237 -200h-40l83 130h52z" />
    <glyph glyph-name="lcommaaccent" unicode="&#x13c;" 
d="M111 0h-45v670h45v-670zM17 -200h-37l81 130h49z" />
    <glyph glyph-name="Lcaron" unicode="&#x13d;" horiz-adv-x="565" 
d="M545 0h-479v670h45v-629h434v-41zM345 472h-10v28h10q9 0 13 3.5t4 14.5v26h-23v126h52v-151q0 -47 -46 -47z" />
    <glyph glyph-name="lcaron" unicode="&#x13e;" horiz-adv-x="196" 
d="M111 0h-45v670h45v-670zM163 482h-8v25h9q8 0 12 3.5t4 13.5v25h-21v121h46v-145q0 -43 -42 -43z" />
    <glyph glyph-name="Ldot" unicode="&#x13f;" horiz-adv-x="565" 
d="M110 730h-45v113h45v-113zM545 0h-479v670h45v-629h434v-41z" />
    <glyph glyph-name="ldot" unicode="&#x140;" horiz-adv-x="194" 
d="M111 0h-45v670h45v-670zM209 279h-44v112h44v-112z" />
    <glyph glyph-name="Lslash" unicode="&#x141;" horiz-adv-x="615" 
d="M595 0h-478v347l-107 -43v44l107 43v279h44v-261l249 101v-44l-249 -101v-324h434v-41z" />
    <glyph glyph-name="lslash" unicode="&#x142;" horiz-adv-x="262" 
d="M162 0h-44v384l-109 -66l-19 33l128 78v241h44v-214l91 55l19 -33l-110 -67v-411z" />
    <glyph glyph-name="Nacute" unicode="&#x143;" horiz-adv-x="697" 
d="M373 730h-45l123 121h58zM111 0h-45v670h50l389 -502l78 -102h4l-1 101v503h44v-670h-49l-384 495l-83 108h-4l1 -108v-495z" />
    <glyph glyph-name="nacute" unicode="&#x144;" horiz-adv-x="594" 
d="M320 560h-43l124 130h56zM111 0h-45v491h39v-155h4q15 68 71 116.5t141 48.5q100 0 155 -63t55 -158v-280h-45v283q0 85 -43 131.5t-131 46.5q-96 0 -148.5 -60t-52.5 -166v-235z" />
    <glyph glyph-name="Ncommaaccent" unicode="&#x145;" horiz-adv-x="697" 
d="M111 0h-45v670h50l389 -502l78 -102h4l-1 101v503h44v-670h-49l-384 495l-83 108h-4l1 -108v-495zM278 -200h-40l83 130h52z" />
    <glyph glyph-name="ncommaaccent" unicode="&#x146;" horiz-adv-x="594" 
d="M111 0h-45v491h39v-155h4q15 68 71 116.5t141 48.5q100 0 155 -63t55 -158v-280h-45v283q0 85 -43 131.5t-131 46.5q-96 0 -148.5 -60t-52.5 -166v-235zM228 -200h-37l81 130h49z" />
    <glyph glyph-name="Ncaron" unicode="&#x147;" horiz-adv-x="697" 
d="M453 860h47l-129 -130h-44l-130 130h48l102 -101h4zM111 0h-45v670h50l389 -502l78 -102h4l-1 101v503h44v-670h-49l-384 495l-83 108h-4l1 -108v-495z" />
    <glyph glyph-name="ncaron" unicode="&#x148;" horiz-adv-x="594" 
d="M321 560h-44l-129 130h48l101 -101h5l101 101h48zM111 0h-45v491h39v-155h4q15 68 71 116.5t141 48.5q100 0 155 -63t55 -158v-280h-45v283q0 85 -43 131.5t-131 46.5q-96 0 -148.5 -60t-52.5 -166v-235z" />
    <glyph glyph-name="Eng" unicode="&#x14a;" horiz-adv-x="697" 
d="M518 -170h-34v42h39q36 0 49 11t13 44v68l-364 469l-107 139h-4l1 -139v-464h-45v670h50l368 -475l99 -129h4l-1 128v476h44v-730q0 -61 -28 -85.5t-84 -24.5z" />
    <glyph glyph-name="eng" unicode="&#x14b;" horiz-adv-x="576" 
d="M102 0h-45v491h39v-155h4q15 68 71 116.5t141 48.5q100 0 154.5 -63t54.5 -158v-319q0 -67 -38 -99t-98 -32h-42v40h47q87 0 87 82v331q0 85 -43 131.5t-131 46.5q-96 0 -148.5 -60t-52.5 -166v-235z" />
    <glyph glyph-name="Omacron" unicode="&#x14c;" horiz-adv-x="739" 
d="M494 779h-250v33h250v-33zM369 -10q-145 0 -238 95t-93 250t93 250t238 95q146 0 238.5 -95t92.5 -250t-92.5 -250t-238.5 -95zM369 34q134 0 209.5 78.5t75.5 222.5t-75.5 223t-209.5 79t-209.5 -79t-75.5 -223t75.5 -222.5t209.5 -78.5z" />
    <glyph glyph-name="omacron" unicode="&#x14d;" horiz-adv-x="602" 
d="M426 609h-250v33h250v-33zM301 -10q-118 0 -190.5 72t-72.5 184q0 111 72.5 183t190.5 72q117 0 190 -72t73 -183t-73 -183.5t-190 -72.5zM301 30q108 0 163.5 57.5t55.5 158.5q0 100 -55.5 157.5t-163.5 57.5t-163.5 -57.5t-55.5 -157.5q0 -101 55.5 -158.5t163.5 -57.5
z" />
    <glyph glyph-name="Obreve" unicode="&#x14e;" horiz-adv-x="739" 
d="M369 720q-54 0 -86.5 28t-32.5 77v9h36v-10q0 -70 83 -70q45 0 64.5 17.5t19.5 52.5v10h36v-9q0 -49 -32.5 -77t-87.5 -28zM369 -10q-145 0 -238 95t-93 250t93 250t238 95q146 0 238.5 -95t92.5 -250t-92.5 -250t-238.5 -95zM369 34q134 0 209.5 78.5t75.5 222.5
t-75.5 223t-209.5 79t-209.5 -79t-75.5 -223t75.5 -222.5t209.5 -78.5z" />
    <glyph glyph-name="obreve" unicode="&#x14f;" horiz-adv-x="602" 
d="M301 550q-55 0 -87.5 28t-32.5 77v26h37v-27q0 -71 83 -71q44 0 63.5 17.5t19.5 53.5v27h36v-26q0 -49 -32.5 -77t-86.5 -28zM301 -10q-118 0 -190.5 72t-72.5 184q0 111 72.5 183t190.5 72q117 0 190 -72t73 -183t-73 -183.5t-190 -72.5zM301 30q108 0 163.5 57.5
t55.5 158.5q0 100 -55.5 157.5t-163.5 57.5t-163.5 -57.5t-55.5 -157.5q0 -101 55.5 -158.5t163.5 -57.5z" />
    <glyph glyph-name="Ohungarumlaut" unicode="&#x150;" horiz-adv-x="739" 
d="M446 730h-41l106 121h52zM310 730h-40l105 121h52zM369 -10q-145 0 -238 95t-93 250t93 250t238 95q146 0 238.5 -95t92.5 -250t-92.5 -250t-238.5 -95zM369 34q134 0 209.5 78.5t75.5 222.5t-75.5 223t-209.5 79t-209.5 -79t-75.5 -223t75.5 -222.5t209.5 -78.5z" />
    <glyph glyph-name="ohungarumlaut" unicode="&#x151;" horiz-adv-x="602" 
d="M389 560h-41l106 130h52zM253 560h-40l105 130h52zM301 -10q-118 0 -190.5 72t-72.5 184q0 111 72.5 183t190.5 72q117 0 190 -72t73 -183t-73 -183.5t-190 -72.5zM301 30q108 0 163.5 57.5t55.5 158.5q0 100 -55.5 157.5t-163.5 57.5t-163.5 -57.5t-55.5 -157.5
q0 -101 55.5 -158.5t163.5 -57.5z" />
    <glyph glyph-name="OE" unicode="&#x152;" horiz-adv-x="1063" 
d="M1020 0h-643q-161 0 -250 90t-89 245t89 245t250 90h643v-41h-445v-272h430v-40h-430v-276h445v-41zM377 41h153v588h-153q-293 0 -293 -294t293 -294z" />
    <glyph glyph-name="oe" unicode="&#x153;" horiz-adv-x="1051" 
d="M301 -10q-118 0 -190.5 72t-72.5 184q0 111 72.5 183t190.5 72q85 0 148 -39t93 -106q28 67 88 106t144 39q106 0 172.5 -60t66.5 -166q0 -27 -5 -45h-444q3 -95 55 -148t155 -53q93 0 140.5 34t47.5 97v6h44v-6q0 -75 -66 -122.5t-165 -47.5q-84 0 -145 38.5t-89 106.5
q-29 -67 -92 -106t-148 -39zM774 463q-103 0 -155 -53t-55 -148h407q1 8 1 23q0 86 -52 132t-146 46zM301 30q108 0 163.5 57.5t55.5 158.5q0 100 -55.5 157.5t-163.5 57.5t-163.5 -57.5t-55.5 -157.5q0 -101 55.5 -158.5t163.5 -57.5z" />
    <glyph glyph-name="Racute" unicode="&#x154;" horiz-adv-x="643" 
d="M364 730h-45l123 121h58zM111 0h-45v670h314q101 0 164 -51t63 -140q0 -85 -59.5 -136t-153.5 -51v-4q49 -14 87 -74l135 -214h-50l-129 201q-27 45 -63.5 64t-103.5 19h-159v-284zM111 629v-306h269q181 0 181 153t-181 153h-269z" />
    <glyph glyph-name="racute" unicode="&#x155;" horiz-adv-x="475" 
d="M279 560h-42l123 130h56zM111 0h-45v491h39v-134h4q12 62 57 103t119 41q81 0 123.5 -51.5t42.5 -124.5v-37h-44v33q0 72 -32 106.5t-102 34.5q-162 0 -162 -201v-261z" />
    <glyph glyph-name="Rcommaaccent" unicode="&#x156;" horiz-adv-x="643" 
d="M111 0h-45v670h314q101 0 164 -51t63 -140q0 -85 -59.5 -136t-153.5 -51v-4q49 -14 87 -74l135 -214h-50l-129 201q-27 45 -63.5 64t-103.5 19h-159v-284zM111 629v-306h269q181 0 181 153t-181 153h-269zM269 -200h-40l83 130h52z" />
    <glyph glyph-name="rcommaaccent" unicode="&#x157;" horiz-adv-x="475" 
d="M111 0h-45v491h39v-134h4q12 62 57 103t119 41q81 0 123.5 -51.5t42.5 -124.5v-37h-44v33q0 72 -32 106.5t-102 34.5q-162 0 -162 -201v-261zM19 -200h-38l82 130h49z" />
    <glyph glyph-name="Rcaron" unicode="&#x158;" horiz-adv-x="643" 
d="M444 860h47l-129 -130h-44l-130 130h48l102 -101h4zM111 0h-45v670h314q101 0 164 -51t63 -140q0 -85 -59.5 -136t-153.5 -51v-4q49 -14 87 -74l135 -214h-50l-129 201q-27 45 -63.5 64t-103.5 19h-159v-284zM111 629v-306h269q181 0 181 153t-181 153h-269z" />
    <glyph glyph-name="rcaron" unicode="&#x159;" horiz-adv-x="475" 
d="M280 560h-44l-129 130h48l101 -101h5l101 101h48zM111 0h-45v491h39v-134h4q12 62 57 103t119 41q81 0 123.5 -51.5t42.5 -124.5v-37h-44v33q0 72 -32 106.5t-102 34.5q-162 0 -162 -201v-261z" />
    <glyph glyph-name="Sacute" unicode="&#x15a;" horiz-adv-x="604" 
d="M322 730h-46l123 121h58zM312 -10q-140 0 -210 61t-70 157v6h45v-12q0 -169 235 -169q211 0 211 131q0 61 -37 91t-123 49l-127 26q-92 19 -144.5 58.5t-52.5 116.5q0 73 65 124t192 51q130 0 196.5 -62t66.5 -156v-6h-45v12q0 168 -219 168q-211 0 -211 -126
q0 -63 37 -91.5t127 -48.5l126 -26q92 -19 143 -59.5t51 -115.5t-65.5 -127t-190.5 -52z" />
    <glyph glyph-name="sacute" unicode="&#x15b;" horiz-adv-x="520" 
d="M275 560h-43l123 130h56zM272 -10q-111 0 -172 44t-61 128v2h44v-5q0 -71 44 -100.5t145 -29.5q90 0 128 23t38 73q0 44 -28 64t-98 31l-129 19q-70 11 -107 40t-37 86q0 64 57.5 100t152.5 36q103 0 164.5 -44.5t61.5 -127.5v-2h-44v5q0 66 -42 98.5t-141 32.5
q-86 0 -125.5 -23t-39.5 -75q0 -43 25.5 -62.5t92.5 -29.5l125 -19q76 -11 116 -40.5t40 -86.5q0 -67 -58 -102t-152 -35z" />
    <glyph glyph-name="Scircumflex" unicode="&#x15c;" horiz-adv-x="604" 
d="M193 730h-47l129 130h44l130 -130h-47l-102 101h-5zM312 -10q-140 0 -210 61t-70 157v6h45v-12q0 -169 235 -169q211 0 211 131q0 61 -37 91t-123 49l-127 26q-92 19 -144.5 58.5t-52.5 116.5q0 73 65 124t192 51q130 0 196.5 -62t66.5 -156v-6h-45v12q0 168 -219 168
q-211 0 -211 -126q0 -63 37 -91.5t127 -48.5l126 -26q92 -19 143 -59.5t51 -115.5t-65.5 -127t-190.5 -52z" />
    <glyph glyph-name="scircumflex" unicode="&#x15d;" horiz-adv-x="520" 
d="M149 560h-47l129 130h45l129 -130h-47l-102 101h-5zM272 -10q-111 0 -172 44t-61 128v2h44v-5q0 -71 44 -100.5t145 -29.5q90 0 128 23t38 73q0 44 -28 64t-98 31l-129 19q-70 11 -107 40t-37 86q0 64 57.5 100t152.5 36q103 0 164.5 -44.5t61.5 -127.5v-2h-44v5
q0 66 -42 98.5t-141 32.5q-86 0 -125.5 -23t-39.5 -75q0 -43 25.5 -62.5t92.5 -29.5l125 -19q76 -11 116 -40.5t40 -86.5q0 -67 -58 -102t-152 -35z" />
    <glyph glyph-name="Scedilla" unicode="&#x15e;" horiz-adv-x="604" 
d="M312 -10v-52h27q35 0 56 -18t21 -48q0 -31 -21 -49t-56 -18h-73v33h72q42 0 42 33t-42 33h-60v87q-123 8 -184.5 67.5t-61.5 149.5v6h45v-12q0 -169 235 -169q211 0 211 131q0 61 -37 91t-123 49l-127 26q-92 19 -144.5 58.5t-52.5 116.5q0 73 65 124t192 51
q130 0 196.5 -62t66.5 -156v-6h-45v12q0 168 -219 168q-211 0 -211 -126q0 -63 37 -91.5t127 -48.5l126 -26q92 -19 143 -59.5t51 -115.5t-65.5 -127t-190.5 -52z" />
    <glyph glyph-name="scedilla" unicode="&#x15f;" horiz-adv-x="520" 
d="M316 -195h-73v33h72q42 0 42 33t-42 33h-60v86q-103 4 -159.5 47.5t-56.5 124.5v2h44v-5q0 -71 44 -100.5t145 -29.5q90 0 128 23t38 73q0 44 -28 64t-98 31l-129 19q-70 11 -107 40t-37 86q0 64 57.5 100t152.5 36q103 0 164.5 -44.5t61.5 -127.5v-2h-44v5
q0 66 -42 98.5t-141 32.5q-86 0 -125.5 -23t-39.5 -75q0 -43 25.5 -62.5t92.5 -29.5l125 -19q76 -11 116 -40.5t40 -86.5q0 -64 -53.5 -99t-140.5 -38v-52h28q35 0 55.5 -18t20.5 -48q0 -31 -20.5 -49t-55.5 -18z" />
    <glyph glyph-name="Scaron" unicode="&#x160;" horiz-adv-x="604" 
d="M402 860h47l-129 -130h-45l-129 130h47l102 -101h5zM312 -10q-140 0 -210 61t-70 157v6h45v-12q0 -169 235 -169q211 0 211 131q0 61 -37 91t-123 49l-127 26q-92 19 -144.5 58.5t-52.5 116.5q0 73 65 124t192 51q130 0 196.5 -62t66.5 -156v-6h-45v12q0 168 -219 168
q-211 0 -211 -126q0 -63 37 -91.5t127 -48.5l126 -26q92 -19 143 -59.5t51 -115.5t-65.5 -127t-190.5 -52z" />
    <glyph glyph-name="scaron" unicode="&#x161;" horiz-adv-x="520" 
d="M276 560h-45l-129 130h48l101 -101h5l101 101h48zM272 -10q-111 0 -172 44t-61 128v2h44v-5q0 -71 44 -100.5t145 -29.5q90 0 128 23t38 73q0 44 -28 64t-98 31l-129 19q-70 11 -107 40t-37 86q0 64 57.5 100t152.5 36q103 0 164.5 -44.5t61.5 -127.5v-2h-44v5
q0 66 -42 98.5t-141 32.5q-86 0 -125.5 -23t-39.5 -75q0 -43 25.5 -62.5t92.5 -29.5l125 -19q76 -11 116 -40.5t40 -86.5q0 -67 -58 -102t-152 -35z" />
    <glyph glyph-name="Tcedilla" unicode="&#x162;" horiz-adv-x="634" 
d="M339 0h-40v-62h27q36 0 56.5 -18t20.5 -48q0 -31 -20.5 -49t-56.5 -18h-73v33h72q42 0 42 33t-42 33h-60v99h30v626h-285v41h613v-41h-284v-629z" />
    <glyph glyph-name="tcedilla" unicode="&#x163;" horiz-adv-x="372" 
d="M352 0h-68v-62h28q36 0 56.5 -18t20.5 -48q0 -31 -20.5 -49t-56.5 -18h-73v33h72q42 0 42 33t-42 33h-60v96q-73 0 -112 34t-39 115v303h-91v39h91v126h45v-126h207v-39h-207v-314q0 -55 28 -76t89 -21h90v-41z" />
    <glyph glyph-name="Tcaron" unicode="&#x164;" horiz-adv-x="634" 
d="M421 860h47l-129 -130h-44l-130 130h48l102 -101h4zM339 0h-44v629h-285v41h613v-41h-284v-629z" />
    <glyph glyph-name="tcaron" unicode="&#x165;" horiz-adv-x="367" 
d="M218 549h-8v25h9q16 0 16 16v26h-21v121h46v-145q0 -43 -42 -43zM352 0h-101q-73 0 -112 34t-39 115v303h-91v39h91v126h45v-126h207v-39h-207v-314q0 -55 28 -76t89 -21h90v-41z" />
    <glyph glyph-name="Tbar" unicode="&#x166;" horiz-adv-x="634" 
d="M339 0h-44v357h-174v41h174v231h-285v41h613v-41h-284v-231h174v-41h-174v-357z" />
    <glyph glyph-name="tbar" unicode="&#x167;" horiz-adv-x="372" 
d="M352 0h-101q-73 0 -112 34t-39 115v129h-91v37h91v139h-91v37h91v126h45v-126h207v-37h-207v-139h207v-37h-207v-140q0 -55 28 -76t89 -21h90v-41z" />
    <glyph glyph-name="Utilde" unicode="&#x168;" horiz-adv-x="709" 
d="M256 756h-32v31q0 73 61 73q29 0 69 -32l19 -16q27 -23 49 -23q32 0 32 41v29h32v-32q0 -33 -15.5 -52.5t-44.5 -19.5q-34 0 -70 32l-20 16q-25 23 -48 23q-32 0 -32 -41v-29zM354 -10q-134 0 -213.5 74.5t-79.5 211.5v394h45v-393q0 -243 248 -243q249 0 249 243v393h44
v-394q0 -137 -79.5 -211.5t-213.5 -74.5z" />
    <glyph glyph-name="utilde" unicode="&#x169;" horiz-adv-x="595" 
d="M197 586h-32v33q0 71 62 71q28 0 68 -32l18 -16q28 -23 50 -23q32 0 32 41v29h32v-32q0 -33 -15.5 -52.5t-44.5 -19.5q-34 0 -70 32l-20 16q-27 23 -48 23q-32 0 -32 -39v-31zM273 -10q-100 0 -154.5 63t-54.5 158v280h44v-283q0 -177 175 -177q96 0 149 59.5t53 166.5
v234h44v-491h-39v155h-3q-15 -69 -71.5 -117t-142.5 -48z" />
    <glyph glyph-name="Umacron" unicode="&#x16a;" horiz-adv-x="709" 
d="M479 779h-250v33h250v-33zM354 -10q-134 0 -213.5 74.5t-79.5 211.5v394h45v-393q0 -243 248 -243q249 0 249 243v393h44v-394q0 -137 -79.5 -211.5t-213.5 -74.5z" />
    <glyph glyph-name="umacron" unicode="&#x16b;" horiz-adv-x="595" 
d="M421 609h-250v33h250v-33zM273 -10q-100 0 -154.5 63t-54.5 158v280h44v-283q0 -177 175 -177q96 0 149 59.5t53 166.5v234h44v-491h-39v155h-3q-15 -69 -71.5 -117t-142.5 -48z" />
    <glyph glyph-name="Ubreve" unicode="&#x16c;" horiz-adv-x="709" 
d="M354 720q-54 0 -86.5 28t-32.5 77v9h36v-10q0 -70 83 -70q45 0 64.5 17.5t19.5 52.5v10h36v-9q0 -49 -32.5 -77t-87.5 -28zM354 -10q-134 0 -213.5 74.5t-79.5 211.5v394h45v-393q0 -243 248 -243q249 0 249 243v393h44v-394q0 -137 -79.5 -211.5t-213.5 -74.5z" />
    <glyph glyph-name="ubreve" unicode="&#x16d;" horiz-adv-x="595" 
d="M296 550q-54 0 -86.5 28t-32.5 77v26h36v-27q0 -71 83 -71q44 0 63.5 17.5t19.5 53.5v27h37v-26q0 -49 -33 -77t-87 -28zM273 -10q-100 0 -154.5 63t-54.5 158v280h44v-283q0 -177 175 -177q96 0 149 59.5t53 166.5v234h44v-491h-39v155h-3q-15 -69 -71.5 -117
t-142.5 -48z" />
    <glyph glyph-name="Uring" unicode="&#x16e;" horiz-adv-x="709" 
d="M354 710q-44 0 -72 25t-28 65t28 65t72 25q45 0 72.5 -25t27.5 -65t-27.5 -65t-72.5 -25zM354 739q69 0 69 61t-69 61q-68 0 -68 -61t68 -61zM354 -10q-134 0 -213.5 74.5t-79.5 211.5v394h45v-393q0 -243 248 -243q249 0 249 243v393h44v-394q0 -137 -79.5 -211.5
t-213.5 -74.5z" />
    <glyph glyph-name="uring" unicode="&#x16f;" horiz-adv-x="595" 
d="M296 544q-44 0 -71 24t-27 64t27 64t71 24t71 -24t27 -64t-27 -64t-71 -24zM296 571q68 0 68 61t-68 61t-68 -61t68 -61zM273 -10q-100 0 -154.5 63t-54.5 158v280h44v-283q0 -177 175 -177q96 0 149 59.5t53 166.5v234h44v-491h-39v155h-3q-15 -69 -71.5 -117
t-142.5 -48z" />
    <glyph glyph-name="Uhungarumlaut" unicode="&#x170;" horiz-adv-x="709" 
d="M431 730h-41l106 121h52zM295 730h-40l105 121h52zM354 -10q-134 0 -213.5 74.5t-79.5 211.5v394h45v-393q0 -243 248 -243q249 0 249 243v393h44v-394q0 -137 -79.5 -211.5t-213.5 -74.5z" />
    <glyph glyph-name="uhungarumlaut" unicode="&#x171;" horiz-adv-x="595" 
d="M384 560h-40l105 130h52zM249 560h-41l105 130h53zM273 -10q-100 0 -154.5 63t-54.5 158v280h44v-283q0 -177 175 -177q96 0 149 59.5t53 166.5v234h44v-491h-39v155h-3q-15 -69 -71.5 -117t-142.5 -48z" />
    <glyph glyph-name="Uogonek" unicode="&#x172;" horiz-adv-x="709" 
d="M354 -10q-134 0 -213.5 74.5t-79.5 211.5v394h45v-393q0 -243 248 -243q249 0 249 243v393h44v-394q0 -122 -63.5 -194.5t-174.5 -87.5l-36 -47q-29 -37 -29 -59q0 -41 54 -41h63v-34h-66q-43 0 -66.5 17.5t-23.5 49.5q0 17 7.5 33t13.5 23.5t22 24.5l26 29h-20z" />
    <glyph glyph-name="uogonek" unicode="&#x173;" horiz-adv-x="595" 
d="M273 -10q-100 0 -154.5 63t-54.5 158v280h44v-283q0 -177 175 -177q96 0 149 59.5t53 166.5v234h44v-491l-42 -53q-29 -39 -29 -59q0 -41 54 -41h63v-34h-65q-43 0 -67 17.5t-24 49.5q0 7 1 14t4.5 14t5 11t7.5 12l7.5 10t9 10.5t8.5 9.5l34 39h-6v155h-3
q-15 -69 -71.5 -117t-142.5 -48z" />
    <glyph glyph-name="Wcircumflex" unicode="&#x174;" horiz-adv-x="1008" 
d="M400 730h-47l130 130h44l129 -130h-47l-102 101h-5zM290 0h-66l-206 670h49l151 -489l39 -135h4l43 135l171 489h58l192 -489l50 -135h4l33 135l130 489h48l-178 -670h-66l-185 470l-54 143h-6l-48 -143z" />
    <glyph glyph-name="wcircumflex" unicode="&#x175;" horiz-adv-x="836" 
d="M314 560h-47l129 130h44l129 -130h-47l-102 101h-4zM233 0h-55l-165 491h46l121 -359l26 -88h4l33 90l147 357h56l148 -357l33 -89h4l25 87l121 359h46l-166 -491h-55l-143 351l-39 100h-4l-38 -100z" />
    <glyph glyph-name="Ycircumflex" unicode="&#x176;" horiz-adv-x="620" 
d="M206 730h-47l129 130h44l130 -130h-48l-101 101h-5zM332 0h-44v243l-289 427h52l204 -299l55 -80h3l54 80l202 299h53l-290 -425v-245z" />
    <glyph glyph-name="ycircumflex" unicode="&#x177;" horiz-adv-x="546" 
d="M166 560h-47l129 130h44l130 -130h-48l-101 101h-5zM122 -170h-56v41h59q39 0 59 13.5t37 48.5l32 69l-245 489h48l158 -315l59 -122h4l58 122l151 315h47l-274 -571q-23 -49 -55 -69.5t-82 -20.5z" />
    <glyph glyph-name="Ydieresis" unicode="&#x178;" horiz-adv-x="620" 
d="M406 730h-43v113h43v-113zM258 730h-44v113h44v-113zM332 0h-44v243l-289 427h52l204 -299l55 -80h3l54 80l202 299h53l-290 -425v-245z" />
    <glyph glyph-name="Zacute" unicode="&#x179;" horiz-adv-x="653" 
d="M352 730h-46l123 121h58zM615 0h-576v41l500 584v4h-482v41h543v-41l-502 -584v-4h517v-41z" />
    <glyph glyph-name="zacute" unicode="&#x17a;" horiz-adv-x="547" 
d="M295 560h-43l123 130h56zM518 0h-489v40l309 308l104 100v4l-104 -1h-294v40h459v-40l-329 -325l-87 -83v-4l87 1h344v-40z" />
    <glyph glyph-name="Zdotaccent" unicode="&#x17b;" horiz-adv-x="653" 
d="M349 730h-44v113h44v-113zM615 0h-576v41l500 584v4h-482v41h543v-41l-502 -584v-4h517v-41z" />
    <glyph glyph-name="zdotaccent" unicode="&#x17c;" horiz-adv-x="547" 
d="M296 560h-45v113h45v-113zM518 0h-489v40l309 308l104 100v4l-104 -1h-294v40h459v-40l-329 -325l-87 -83v-4l87 1h344v-40z" />
    <glyph glyph-name="Zcaron" unicode="&#x17d;" horiz-adv-x="653" 
d="M431 860h48l-130 -130h-44l-129 130h47l102 -101h5zM615 0h-576v41l500 584v4h-482v41h543v-41l-502 -584v-4h517v-41z" />
    <glyph glyph-name="zcaron" unicode="&#x17e;" horiz-adv-x="547" 
d="M296 560h-45l-129 130h48l101 -101h5l101 101h48zM518 0h-489v40l309 308l104 100v4l-104 -1h-294v40h459v-40l-329 -325l-87 -83v-4l87 1h344v-40z" />
    <glyph glyph-name="florin" unicode="&#x192;" horiz-adv-x="470" 
d="M39 -170h-49l7 41h45q55 0 84 24t38 75l60 345h-111l7 40h111l30 170q26 145 173 145h46l-7 -41h-48q-54 0 -82 -24t-37 -75l-31 -175h150l-7 -40h-150l-59 -340q-25 -145 -170 -145z" />
    <glyph glyph-name="AEacute" unicode="&#x1fc;" horiz-adv-x="1068" 
d="M804 730h-46l123 121h58zM53 0h-54l524 670h502v-41h-446v-272h431v-40h-431v-276h446v-41h-490v213h-314zM532 608l-279 -354h282v354h-3z" />
    <glyph glyph-name="aeacute" unicode="&#x1fd;" horiz-adv-x="964" 
d="M506 560h-43l123 130h56zM203 -10q-76 0 -123 33.5t-47 90.5q0 105 159 124l252 27v44q0 81 -39.5 116.5t-131.5 35.5q-184 0 -184 -141v-6h-44v6q0 77 61 129t168 52q162 0 202 -122q31 57 88 89.5t133 32.5q106 0 172.5 -60t66.5 -166q0 -27 -5 -45h-444q3 -95 55 -148
t155 -53q93 0 140.5 34t47.5 97v6h44v-6q0 -75 -66 -122.5t-165 -47.5q-91 0 -154 44.5t-87 120.5h-3q-24 -81 -93.5 -123t-157.5 -42zM697 463q-103 0 -155 -53t-55 -148h407q1 8 1 23q0 86 -52 132t-146 46zM78 117q0 -90 132 -90q98 0 163.5 50t71.5 149q-1 2 -1 6
l-237 -26q-66 -6 -97.5 -26t-31.5 -63z" />
    <glyph glyph-name="Oslashacute" unicode="&#x1fe;" horiz-adv-x="739" 
d="M394 730h-46l123 121h58zM369 -10q-130 0 -218 76l-75 -85l-28 25l76 86q-86 96 -86 243q0 155 93 250t238 95q125 0 213 -72l72 81l27 -25l-72 -81q91 -96 91 -248q0 -155 -92.5 -250t-238.5 -95zM84 335q0 -134 67 -213l405 457q-73 58 -187 58q-134 0 -209.5 -79
t-75.5 -223zM369 34q134 0 209.5 78.5t75.5 222.5q0 139 -71 218l-405 -457q73 -62 191 -62z" />
    <glyph glyph-name="oslashacute" unicode="&#x1ff;" horiz-adv-x="602" 
d="M322 560h-43l123 130h56zM301 -10q-102 0 -172 56l-57 -62l-24 23l57 61q-67 70 -67 178q0 111 72.5 183t190.5 72q93 0 162 -48l49 53l25 -23l-48 -52q75 -70 75 -185q0 -111 -73 -183.5t-190 -72.5zM82 246q0 -94 48 -151l307 331q-52 35 -136 35q-108 0 -163.5 -57.5
t-55.5 -157.5zM301 30q108 0 163.5 57.5t55.5 158.5q0 103 -56 158l-310 -332q56 -42 147 -42z" />
    <glyph glyph-name="Scommaaccent" unicode="&#x218;" horiz-adv-x="604" 
d="M312 -10q-140 0 -210 61t-70 157v6h45v-12q0 -169 235 -169q211 0 211 131q0 61 -37 91t-123 49l-127 26q-92 19 -144.5 58.5t-52.5 116.5q0 73 65 124t192 51q130 0 196.5 -62t66.5 -156v-6h-45v12q0 168 -219 168q-211 0 -211 -126q0 -63 37 -91.5t127 -48.5l126 -26
q92 -19 143 -59.5t51 -115.5t-65.5 -127t-190.5 -52zM263 -200h-40l83 130h52z" />
    <glyph glyph-name="scommaaccent" unicode="&#x219;" horiz-adv-x="520" 
d="M272 -10q-111 0 -172 44t-61 128v2h44v-5q0 -71 44 -100.5t145 -29.5q90 0 128 23t38 73q0 44 -28 64t-98 31l-129 19q-70 11 -107 40t-37 86q0 64 57.5 100t152.5 36q103 0 164.5 -44.5t61.5 -127.5v-2h-44v5q0 66 -42 98.5t-141 32.5q-86 0 -125.5 -23t-39.5 -75
q0 -43 25.5 -62.5t92.5 -29.5l125 -19q76 -11 116 -40.5t40 -86.5q0 -67 -58 -102t-152 -35zM197 -200h-37l81 130h50z" />
    <glyph glyph-name="Tcommaaccent" unicode="&#x21a;" horiz-adv-x="634" 
d="M339 0h-44v629h-285v41h613v-41h-284v-629zM250 -200h-40l83 130h52z" />
    <glyph glyph-name="tcommaaccent" unicode="&#x21b;" horiz-adv-x="372" 
d="M352 0h-101q-73 0 -112 34t-39 115v303h-91v39h91v126h45v-126h207v-39h-207v-314q0 -55 28 -76t89 -21h90v-41zM193 -200h-37l82 130h49z" />
    <glyph glyph-name="dotlessj" unicode="&#x237;" horiz-adv-x="179" 
d="M-24 -170h-42v40h47q87 0 87 82v539h44v-527q0 -68 -38 -101t-98 -33z" />
    <glyph glyph-name="gravecomb" unicode="&#x300;" horiz-adv-x="290" 
d="M179 560h-43l-136 130h56z" />
    <glyph glyph-name="acutecomb" unicode="&#x301;" horiz-adv-x="290" 
d="M158 560h-43l123 130h57z" />
    <glyph glyph-name="circumflexcomb" unicode="&#x302;" horiz-adv-x="467" 
d="M132 560h-47l129 130h44l130 -130h-48l-102 101h-4z" />
    <glyph glyph-name="tildecomb" unicode="&#x303;" horiz-adv-x="343" 
d="M73 586h-32v33q0 32 15.5 51.5t46.5 19.5q28 0 68 -32l19 -16q27 -23 49 -23q32 0 32 41v29h32v-32q0 -33 -15.5 -52.5t-44.5 -19.5q-34 0 -70 32l-19 16q-28 23 -48 23q-33 0 -33 -39v-31z" />
    <glyph glyph-name="macroncomb" unicode="&#x304;" horiz-adv-x="334" 
d="M292 609h-250v33h250v-33z" />
    <glyph glyph-name="brevecomb" unicode="&#x306;" horiz-adv-x="318" 
d="M159 550q-55 0 -87.5 28t-32.5 77v26h37v-27q0 -71 83 -71q44 0 63.5 17.5t19.5 53.5v27h36v-26q0 -49 -32.5 -77t-86.5 -28z" />
    <glyph glyph-name="dotaccentcomb" unicode="&#x307;" horiz-adv-x="140" 
d="M92 560h-44v113h44v-113z" />
    <glyph glyph-name="dieresiscomb" unicode="&#x308;" horiz-adv-x="323" 
d="M257 560h-43v113h43v-113zM109 560h-44v113h44v-113z" />
    <glyph glyph-name="ringcomb" unicode="&#x30a;" horiz-adv-x="273" 
d="M137 544q-44 0 -71 24t-27 64t27 64t71 24t71 -24t27 -64t-27 -64t-71 -24zM137 571q68 0 68 61t-68 61t-68 -61t68 -61z" />
    <glyph glyph-name="hungarumlautcomb" unicode="&#x30b;" horiz-adv-x="394" 
d="M299 560h-41l105 130h53zM163 560h-40l105 130h52z" />
    <glyph glyph-name="caroncomb" unicode="&#x30c;" horiz-adv-x="467" 
d="M258 560h-44l-129 130h48l101 -101h4l102 101h48z" />
    <glyph glyph-name="commaturnedabovecomb" unicode="&#x312;" horiz-adv-x="604" 
d="M375 690h37l-81 -130h-49z" />
    <glyph glyph-name="commaaccentcomb" unicode="&#x326;" horiz-adv-x="219" 
d="M43 -200h-37l81 130h49z" />
    <glyph glyph-name="cedillacomb" unicode="&#x327;" horiz-adv-x="232" 
d="M174 -195h-73v33h72q42 0 42 33q0 20 -11 26.5t-31 6.5h-60v99h33v-65h28q36 0 56.5 -18t20.5 -48q0 -31 -20.5 -49t-56.5 -18z" />
    <glyph glyph-name="ogonekcomb" unicode="&#x328;" horiz-adv-x="243" 
d="M204 -187h-65q-43 0 -66.5 17.5t-23.5 49.5q0 17 8 33.5t13 22.5t21 25l34 39h33l-41 -53q-29 -37 -29 -59q0 -41 53 -41h63v-34z" />
    <glyph glyph-name="strokeshortcomb" unicode="&#x335;" horiz-adv-x="621" 
d="M508 550h-396v38h396v-38z" />
    <glyph glyph-name="slashshortcomb" unicode="&#x337;" horiz-adv-x="282" 
d="M282 478l-263 -160l-19 33l263 160z" />
    <glyph glyph-name="slashlongcomb" unicode="&#x338;" horiz-adv-x="583" 
d="M536 484l-465 -499l-24 23l465 499z" />
    <glyph glyph-name="Wgrave" unicode="&#x1e80;" horiz-adv-x="1008" 
d="M526 730h-46l-135 121h58zM290 0h-66l-206 670h49l151 -489l39 -135h4l43 135l171 489h58l192 -489l50 -135h4l33 135l130 489h48l-178 -670h-66l-185 470l-54 143h-6l-48 -143z" />
    <glyph glyph-name="wgrave" unicode="&#x1e81;" horiz-adv-x="836" 
d="M443 560h-43l-136 130h56zM233 0h-55l-165 491h46l121 -359l26 -88h4l33 90l147 357h56l148 -357l33 -89h4l25 87l121 359h46l-166 -491h-55l-143 351l-39 100h-4l-38 -100z" />
    <glyph glyph-name="Wacute" unicode="&#x1e82;" horiz-adv-x="1008" 
d="M529 730h-45l123 121h58zM290 0h-66l-206 670h49l151 -489l39 -135h4l43 135l171 489h58l192 -489l50 -135h4l33 135l130 489h48l-178 -670h-66l-185 470l-54 143h-6l-48 -143z" />
    <glyph glyph-name="wacute" unicode="&#x1e83;" horiz-adv-x="836" 
d="M439 560h-43l123 130h57zM233 0h-55l-165 491h46l121 -359l26 -88h4l33 90l147 357h56l148 -357l33 -89h4l25 87l121 359h46l-166 -491h-55l-143 351l-39 100h-4l-38 -100z" />
    <glyph glyph-name="Wdieresis" unicode="&#x1e84;" horiz-adv-x="1008" 
d="M601 730h-44v113h44v-113zM452 730h-43v113h43v-113zM290 0h-66l-206 670h49l151 -489l39 -135h4l43 135l171 489h58l192 -489l50 -135h4l33 135l130 489h48l-178 -670h-66l-185 470l-54 143h-6l-48 -143z" />
    <glyph glyph-name="wdieresis" unicode="&#x1e85;" horiz-adv-x="836" 
d="M514 560h-43v113h43v-113zM365 560h-43v113h43v-113zM233 0h-55l-165 491h46l121 -359l26 -88h4l33 90l147 357h56l148 -357l33 -89h4l25 87l121 359h46l-166 -491h-55l-143 351l-39 100h-4l-38 -100z" />
    <glyph glyph-name="Etilde" unicode="&#x1ebc;" horiz-adv-x="599" 
d="M212 756h-32v31q0 73 61 73q31 0 69 -32l19 -16q27 -23 49 -23q32 0 32 41v29h32v-32q0 -33 -15.5 -52.5t-44.5 -19.5q-34 0 -70 32l-19 16q-27 23 -49 23q-32 0 -32 -41v-29zM556 0h-490v670h490v-41h-445v-272h430v-40h-430v-276h445v-41z" />
    <glyph glyph-name="etilde" unicode="&#x1ebd;" horiz-adv-x="568" 
d="M185 586h-32v33q0 71 62 71q28 0 68 -32l18 -16q28 -23 50 -23q32 0 32 41v29h32v-32q0 -33 -15.5 -52.5t-44.5 -19.5q-34 0 -70 32l-20 16q-27 23 -48 23q-32 0 -32 -39v-31zM292 -10q-116 0 -185 71.5t-69 184.5q0 112 69 183.5t185 71.5q105 0 171.5 -60t66.5 -166
q0 -27 -5 -45h-444q3 -95 55 -148t155 -53q93 0 140.5 34t47.5 97v6h44v-6q0 -75 -66 -122.5t-165 -47.5zM291 463q-103 0 -155 -53t-55 -148h407q1 8 1 23q0 86 -52 132t-146 46z" />
    <glyph glyph-name="Ygrave" unicode="&#x1ef2;" horiz-adv-x="620" 
d="M331 730h-45l-136 121h58zM332 0h-44v243l-289 427h52l204 -299l55 -80h3l54 80l202 299h53l-290 -425v-245z" />
    <glyph glyph-name="ygrave" unicode="&#x1ef3;" horiz-adv-x="546" 
d="M296 560h-43l-137 130h57zM122 -170h-56v41h59q39 0 59 13.5t37 48.5l32 69l-245 489h48l158 -315l59 -122h4l58 122l151 315h47l-274 -571q-23 -49 -55 -69.5t-82 -20.5z" />
    <glyph glyph-name="Ytilde" unicode="&#x1ef8;" horiz-adv-x="620" 
d="M212 756h-32v31q0 73 61 73q29 0 69 -32l18 -16q28 -23 49 -23q32 0 32 41v29h33v-32q0 -33 -15.5 -52.5t-44.5 -19.5q-34 0 -70 32l-20 16q-25 23 -49 23q-31 0 -31 -41v-29zM332 0h-44v243l-289 427h52l204 -299l55 -80h3l54 80l202 299h53l-290 -425v-245z" />
    <glyph glyph-name="ytilde" unicode="&#x1ef9;" horiz-adv-x="546" 
d="M171 586h-32v33q0 32 15.5 51.5t46.5 19.5q28 0 68 -32l19 -16q27 -23 49 -23q32 0 32 41v29h32v-32q0 -33 -15.5 -52.5t-44.5 -19.5q-34 0 -70 32l-19 16q-28 23 -48 23q-33 0 -33 -39v-31zM122 -170h-56v41h59q39 0 59 13.5t37 48.5l32 69l-245 489h48l158 -315
l59 -122h4l58 122l151 315h47l-274 -571q-23 -49 -55 -69.5t-82 -20.5z" />
    <glyph glyph-name="endash" unicode="&#x2013;" horiz-adv-x="429" 
d="M399 272h-369v39h369v-39z" />
    <glyph glyph-name="emdash" unicode="&#x2014;" horiz-adv-x="664" 
d="M634 272h-604v39h604v-39z" />
    <glyph glyph-name="quoteleft" unicode="&#x2018;" horiz-adv-x="112" 
d="M76 706h10v-26h-10q-9 0 -13 -3.5t-4 -14.5v-26h23v-127h-52v152q0 45 46 45z" />
    <glyph glyph-name="quoteright" unicode="&#x2019;" horiz-adv-x="112" 
d="M36 473h-10v27h10q10 0 13.5 3.5t3.5 14.5v26h-23v126h52v-151q0 -46 -46 -46z" />
    <glyph glyph-name="quotesinglbase" unicode="&#x201a;" horiz-adv-x="231" 
d="M36 -70h-10v26h10q9 0 13 3.5t4 14.5v26h-23v126h52v-151q0 -45 -46 -45z" />
    <glyph glyph-name="quotedblleft" unicode="&#x201c;" horiz-adv-x="214" 
d="M76 706h10v-26h-10q-9 0 -13 -3.5t-4 -14.5v-26h23v-127h-52v152q0 45 46 45zM178 706h10v-26h-10q-9 0 -13 -3.5t-4 -14.5v-26h23v-127h-52v152q0 45 46 45z" />
    <glyph glyph-name="quotedblright" unicode="&#x201d;" horiz-adv-x="214" 
d="M138 473h-10v27h10q10 0 13.5 3.5t3.5 14.5v26h-23v126h52v-151q0 -46 -46 -46zM36 473h-10v27h10q10 0 13.5 3.5t3.5 14.5v26h-23v126h52v-151q0 -46 -46 -46z" />
    <glyph glyph-name="quotedblbase" unicode="&#x201e;" horiz-adv-x="214" 
d="M36 -70h-10v26h10q9 0 13 3.5t4 14.5v26h-23v126h52v-151q0 -45 -46 -45zM138 -70h-10v26h10q9 0 13 3.5t4 14.5v26h-23v126h52v-151q0 -45 -46 -45z" />
    <glyph glyph-name="dagger" unicode="&#x2020;" horiz-adv-x="468" 
d="M256 0h-45v462h-191v40h191v168h45v-168h192v-40h-192v-462z" />
    <glyph glyph-name="daggerdbl" unicode="&#x2021;" horiz-adv-x="468" 
d="M256 0h-45v167h-191v40h191v255h-191v40h191v168h45v-168h192v-40h-192v-255h192v-40h-192v-167z" />
    <glyph glyph-name="bullet" unicode="&#x2022;" horiz-adv-x="239" 
d="M119 245q-38 0 -64 24.5t-26 65.5t26 65.5t64 24.5q39 0 65 -24.5t26 -65.5t-26 -65.5t-65 -24.5z" />
    <glyph glyph-name="ellipsis" unicode="&#x2026;" horiz-adv-x="440" 
d="M91 0h-52v126h52v-126zM246 0h-52v126h52v-126zM401 -1h-52v127h52v-127z" />
    <glyph glyph-name="perthousand" unicode="&#x2030;" horiz-adv-x="1174" 
d="M193 349q-79 0 -122 49t-43 117q0 67 43 116t122 49t121.5 -49t42.5 -116q0 -69 -42.5 -117.5t-121.5 -48.5zM132 0h-46l569 670h46zM193 385q125 0 125 130q0 129 -125 129q-126 0 -126 -129q0 -130 126 -130zM981 -10q-79 0 -122 49t-43 117q0 67 43 116t122 49
t122 -49t43 -116q0 -68 -43 -117t-122 -49zM595 -10q-79 0 -122 49t-43 117q0 67 43 116t122 49t121.5 -49t42.5 -116q0 -69 -42.5 -117.5t-121.5 -48.5zM981 26q126 0 126 130q0 129 -126 129q-125 0 -125 -129q0 -130 125 -130zM595 26q125 0 125 130q0 129 -125 129
q-126 0 -126 -129q0 -130 126 -130z" />
    <glyph glyph-name="guilsinglleft" unicode="&#x2039;" horiz-adv-x="242" 
d="M12 325l200 147v-47l-165 -118v-4l165 -118v-47l-200 147v40z" />
    <glyph glyph-name="guilsinglright" unicode="&#x203a;" horiz-adv-x="242" 
d="M230 285l-200 -147v47l165 118v4l-165 118v47l200 -147v-40z" />
    <glyph glyph-name="fraction" unicode="&#x2044;" horiz-adv-x="151" 
d="M-186 0h-46l569 670h46z" />
    <glyph glyph-name="zero.superior" unicode="&#x2070;" horiz-adv-x="389" 
d="M195 325q-80 0 -127.5 50.5t-47.5 126.5q0 77 47.5 127.5t127.5 50.5t127 -50.5t47 -127.5q0 -76 -47 -126.5t-127 -50.5zM195 361q135 0 135 141q0 142 -135 142t-135 -142q0 -141 135 -141z" />
    <glyph glyph-name="four.superior" unicode="&#x2074;" horiz-adv-x="380" 
d="M284 335h-39v69h-235v28l231 238h43v-230h68v-36h-68v-69zM66 440h179v178h-3l-176 -174v-4z" />
    <glyph glyph-name="Euro" unicode="&#x20ac;" horiz-adv-x="644" 
d="M488 252h-324q19 -103 87 -157t182 -54h181v-41h-181q-126 0 -208.5 67t-105.5 185h-109v36h104q-2 30 -2 47t2 47h-104v36h109q23 118 105.5 185t208.5 67h181v-41h-181q-230 0 -269 -211h324v-36h-329q-2 -30 -2 -47t2 -47h329v-36z" />
    <glyph glyph-name="indianrupee" unicode="&#x20b9;" horiz-adv-x="615" 
d="M534 0h-55l-161 208q-32 41 -70.5 61t-98.5 20h-101v39h218q151 0 151 133h-369v38h369v133h-369v38h520v-38h-107v-133h107v-38h-107q-1 -79 -49.5 -122t-135.5 -42v-4q42 -11 88 -72z" />
    <glyph glyph-name="trademark" unicode="&#x2122;" horiz-adv-x="556" 
d="M302 469h-34v201h44l89 -157h3l87 157h45v-201h-34v109l1 42h-4l-80 -138h-35l-80 138h-3l1 -40v-111zM133 469h-35v169h-96v32h228v-32h-97v-169z" />
    <glyph glyph-name="minus" unicode="&#x2212;" horiz-adv-x="448" 
d="M409 315h-370v40h370v-40z" />
    <glyph glyph-name="approxequal" unicode="&#x2248;" horiz-adv-x="478" 
d="M79 190h-40v80q0 40 24 63v2h-24v81q0 36 18.5 61t62.5 25q8 0 16 -1.5t14 -3t15 -6.5t13.5 -7t14.5 -9t13 -9.5t14 -11t14 -10.5l35 -24q49 -38 72 -44q8 -2 16 -2q43 0 43 50v76h39v-79q0 -40 -23 -64v-2h23v-79q0 -36 -18 -61.5t-59 -25.5q-7 0 -13.5 1t-12 2t-12 3.5
t-11 4t-11 5.5t-10 6t-10.5 6.5t-9.5 6.5t-10 7.5t-9.5 6.5l-44 32q-48 38 -68 44q-10 3 -19 3q-43 0 -43 -51v-76zM359 228q43 0 43 51v68q-16 -13 -43 -13q-20 0 -41 8.5t-31.5 15.5t-33.5 25l-45 33q-21 17 -30.5 24t-26 14.5t-31.5 7.5q-44 0 -44 -51v-68q16 13 47 13
q19 0 39.5 -9t33 -18.5t36.5 -28.5l36 -25q2 -2 10.5 -8.5t11.5 -8.5t10.5 -7.5t11.5 -7.5l11 -5.5t12 -5t11.5 -3t12.5 -1.5z" />
    <glyph glyph-name="notequal" unicode="&#x2260;" horiz-adv-x="448" 
d="M409 214h-253l-65 -85l-31 22l48 63h-69v39h99l125 164h-224v39h254l65 85l31 -22l-48 -63h68v-39h-98l-125 -164h223v-39z" />
    <glyph glyph-name="lessequal" unicode="&#x2264;" horiz-adv-x="439" 
d="M400 99h-370v40h332v4l-332 168v48l370 187v-47l-327 -162v-4l327 -161v-73z" />
    <glyph glyph-name="greaterequal" unicode="&#x2265;" horiz-adv-x="439" 
d="M409 99h-370v73l328 161v4l-328 162v47l370 -187v-48l-331 -168v-4h331v-40z" />
    <glyph glyph-name="t_t" horiz-adv-x="706" 
d="M352 0h-101q-73 0 -112 34t-39 115v303h-91v39h91v126h45v-126h289v126h44v-126h208v-39h-208v-314q0 -55 28.5 -76t89.5 -21h90v-41h-101q-73 0 -112 34t-39 115v303h-289v-314q0 -55 28 -76t89 -21h90v-41z" />
    <glyph glyph-name="d.component" horiz-adv-x="621" 
d="M272 -10q-115 0 -179 65.5t-64 170.5q0 104 63.5 169.5t173.5 65.5q86 0 144.5 -41t76.5 -103h4v353h44v-670h-38v142h-4q-18 -70 -78.5 -111t-142.5 -41zM74 226q0 -195 204 -195q96 0 154.5 50t58.5 135v10q0 86 -58.5 140t-157.5 54q-201 0 -201 -194z" />
    <glyph glyph-name="h.component" horiz-adv-x="581" 
d="M106 0h-44v670h44v-387h4q14 68 68.5 114t143.5 46q100 0 152.5 -61t52.5 -161v-221h-44v225q0 91 -42.5 134t-128.5 43q-105 0 -155.5 -63.5t-50.5 -171.5v-167z" />
    <glyph glyph-name="caroncomb.alt" horiz-adv-x="500" 
d="M234 482h-9v25h9q9 0 12.5 3t3.5 14v25h-21v121h46v-145q0 -43 -41 -43z" />
    <glyph glyph-name="dieresiscomb.case" horiz-adv-x="323" 
d="M257 730h-43v113h43v-113zM109 730h-44v113h44v-113z" />
    <glyph glyph-name="dotaccentcomb.case" horiz-adv-x="140" 
d="M92 730h-44v113h44v-113z" />
    <glyph glyph-name="gravecomb.case" horiz-adv-x="290" 
d="M174 730h-46l-135 121h58z" />
    <glyph glyph-name="acutecomb.case" horiz-adv-x="290" 
d="M163 730h-45l123 121h58z" />
    <glyph glyph-name="hungarumlautcomb.case" horiz-adv-x="394" 
d="M287 730h-41l106 121h52zM152 730h-41l105 121h53z" />
    <glyph glyph-name="caroncomb.alt.case" horiz-adv-x="564" 
d="M264 472h-10v28h10q10 0 13.5 3.5t3.5 14.5v26h-23v126h52v-151q0 -47 -46 -47z" />
    <glyph glyph-name="circumflexcomb.case" horiz-adv-x="476" 
d="M132 730h-47l129 130h44l130 -130h-48l-102 101h-4z" />
    <glyph glyph-name="caroncomb.case" horiz-adv-x="476" 
d="M344 860h47l-129 -130h-44l-130 130h48l101 -101h5z" />
    <glyph glyph-name="brevecomb.case" horiz-adv-x="318" 
d="M159 720q-55 0 -87.5 28t-32.5 77v9h37v-10q0 -70 83 -70q45 0 64 17t19 53v10h36v-9q0 -49 -32.5 -77t-86.5 -28z" />
    <glyph glyph-name="ringcomb.case" horiz-adv-x="273" 
d="M137 710q-45 0 -72.5 25t-27.5 65t27.5 65t72.5 25q44 0 72 -25t28 -65t-28 -65t-72 -25zM137 739q68 0 68 61t-68 61q-69 0 -69 -61t69 -61z" />
    <glyph glyph-name="tildecomb.case" horiz-adv-x="343" 
d="M74 756h-33v31q0 73 62 73q29 0 69 -32l18 -16q27 -23 49 -23q32 0 32 41v29h32v-32q0 -33 -15 -52.5t-44 -19.5q-34 0 -70 32l-20 16q-25 23 -49 23q-31 0 -31 -41v-29z" />
    <glyph glyph-name="macroncomb.case" horiz-adv-x="334" 
d="M292 779h-250v33h250v-33z" />
    <glyph glyph-name="commaaccentcomb.case" horiz-adv-x="219" 
d="M66 -200h-40l83 130h52z" />
    <glyph glyph-name="cedillacomb.case" horiz-adv-x="232" 
d="M156 -195h-72v33h72q41 0 41 33t-41 33h-60v99h34v-65h26q36 0 56.5 -18t20.5 -48q0 -31 -20.5 -49t-56.5 -18z" />
    <glyph glyph-name="ogonekcomb.case" horiz-adv-x="243" 
d="M204 -187h-66q-43 0 -66.5 17.5t-23.5 49.5q0 17 7.5 33t13.5 23.5t22 24.5l34 39h32l-41 -53q-29 -37 -29 -59q0 -41 54 -41h63v-34z" />
    <glyph glyph-name="strokeshortcomb.case" horiz-adv-x="749" 
d="M570 315h-392v40h392v-40z" />
    <glyph glyph-name="strokelongcomb.case" horiz-adv-x="762" 
d="M752 518h-742v41h742v-41z" />
    <glyph glyph-name="slashshortcomb.case" horiz-adv-x="616" 
d="M508 466l-401 -162v44l401 162v-44z" />
    <glyph glyph-name="slashlongcomb.case" horiz-adv-x="739" 
d="M681 664l-605 -683l-28 25l606 683z" />
    <glyph glyph-name="ITF" horiz-adv-x="1730" 
d="M106 0v700h216v-700h-216zM367 496v204h216v-204h-216zM627 0v700h217v-700h-217zM888 496v204h216v-204h-216zM1148 0v700h217v-700h-217zM1409 496v204h216v-204h-216zM1409 247v205h216v-205h-216z" />
  </font>
</defs>
</svg>
