<svg width="182" height="48" viewBox="0 0 182 48" fill="none" xmlns="http://www.w3.org/2000/svg">
<g clip-path="url(#clip0_385_34050)">
<path d="M27.2684 4.12121L23.0476 2.99023L19.4907 16.2649L16.2795 4.28044L12.0586 5.41141L15.5281 18.3597L6.88627 9.71792L3.79641 12.8078L13.2754 22.2869L1.47081 19.1238L0.339844 23.3446L13.2379 26.8006C13.0902 26.1637 13.0121 25.5001 13.0121 24.8182C13.0121 19.9915 16.9249 16.0787 21.7516 16.0787C26.5782 16.0787 30.491 19.9915 30.491 24.8182C30.491 25.4957 30.4139 26.1552 30.268 26.7884L41.9899 29.9293L43.1208 25.7085L30.1715 22.2387L41.977 19.0754L40.8459 14.8546L27.8972 18.3242L36.539 9.68244L33.4491 6.59258L24.1016 15.9402L27.2684 4.12121Z" fill="white"/>
<path d="M30.2557 26.8376C29.8938 28.3675 29.1298 29.7419 28.0815 30.8431L36.5735 39.3352L39.6634 36.2453L30.2557 26.8376Z" fill="white"/>
<path d="M27.9958 30.9318C26.9349 32.0154 25.5942 32.8241 24.0907 33.2408L27.1807 44.7731L31.4015 43.642L27.9958 30.9318Z" fill="white"/>
<path d="M23.933 33.283C23.2354 33.4623 22.5043 33.5576 21.7508 33.5576C20.9436 33.5576 20.1619 33.4481 19.4198 33.2433L16.3269 44.7861L20.5477 45.917L23.933 33.283Z" fill="white"/>
<path d="M19.2705 33.2007C17.79 32.7633 16.4731 31.9443 15.4339 30.8577L6.92094 39.3706L10.0108 42.4604L19.2705 33.2007Z" fill="white"/>
<path d="M15.3637 30.7824C14.3423 29.6888 13.5982 28.3328 13.2441 26.8265L1.48389 29.9776L2.61485 34.1984L15.3637 30.7824Z" fill="white"/>
</g>
<path d="M68.5191 12.9082V28.1182L58.7691 12.9082H54.8691V33.9082H58.7691V18.8182L68.5191 33.9082H72.4191V12.9082H68.5191Z" fill="white"/>
<path d="M74.1765 16.8382H78.1965V12.9082H74.1765V16.8382ZM74.2365 33.9082V18.9082H78.1365V33.9082H74.2365Z" fill="white"/>
<path d="M94.9166 26.4082C94.9166 21.2182 91.2266 18.7582 87.3266 18.7282C83.3966 18.6982 79.7666 21.2182 79.7666 26.4082C79.7666 31.5982 83.3966 34.1182 87.3266 34.0882C90.8966 34.0582 93.3566 32.4082 94.4966 29.6782L91.4666 28.4182C90.5366 30.2782 89.0666 30.9382 87.3266 30.9682C85.8266 30.9982 84.1166 30.2782 83.7566 27.6082H94.8266C94.8866 27.2182 94.9166 26.8282 94.9166 26.4082ZM87.3266 21.8182C88.8266 21.8482 90.3566 22.6582 90.8366 24.8182H83.8166C84.3266 22.6282 85.8566 21.7882 87.3266 21.8182Z" fill="white"/>
<path d="M103.93 21.6982V18.7282H101.47V14.7082L97.5697 15.9082V18.7282H95.1097V21.6982H97.5697V29.4682C97.5697 32.4082 97.8097 33.9082 102.37 33.9082H103.42V30.4882H102.37C101.65 30.4882 101.47 30.3682 101.47 29.4682V21.6982H103.93Z" fill="white"/>
<path d="M109.725 30.6382L118.005 22.1782V18.9082H105.585V22.1782H113.625L105.345 30.6382V33.9082H118.095V30.6382H109.725Z" fill="white"/>
<path d="M119.493 29.6782L123.423 29.0782C123.693 30.5782 125.463 31.1482 126.543 31.1482C127.653 31.1482 129.573 30.9082 129.573 29.1082C129.573 25.5982 119.943 29.9782 119.943 23.2582C119.943 18.9382 124.953 18.6982 126.543 18.6982C128.043 18.6982 132.393 18.9382 133.293 22.4182L129.573 23.1982C129.243 21.6082 127.563 21.3082 126.663 21.3082C125.763 21.3082 123.843 21.5182 123.843 23.2582C123.843 26.7382 133.473 22.2982 133.473 29.1082C133.473 33.6982 128.193 34.0882 126.543 34.0882C125.043 34.0882 120.273 33.6982 119.493 29.6782Z" fill="white"/>
<path d="M138.54 26.4082C138.54 30.0682 140.49 31.1782 142.53 31.1482C144.36 31.1182 145.62 30.3682 146.37 28.2682L149.58 29.8282C148.41 32.8882 145.56 34.0582 142.53 34.0882C138.6 34.1182 134.64 31.5982 134.64 26.4082C134.64 21.2182 138.6 18.6982 142.53 18.7282C145.56 18.7582 148.41 19.9282 149.58 22.9882L146.37 24.5482C145.62 22.4482 144.36 21.6982 142.53 21.6682C140.49 21.6382 138.54 22.7482 138.54 26.4082Z" fill="white"/>
<path d="M160.049 18.6682C158.039 18.6682 156.209 19.7182 155.039 21.9682V12.9082H151.139V33.9082H155.039V28.5982C155.039 21.7282 157.889 21.1582 158.939 21.1582C160.619 21.1582 160.859 22.8982 160.859 25.4482V33.9082H164.759V25.4482C164.759 22.2682 164.249 18.6682 160.049 18.6682Z" fill="white"/>
<path d="M181.225 26.4082C181.225 21.2182 177.535 18.7582 173.635 18.7282C169.705 18.6982 166.075 21.2182 166.075 26.4082C166.075 31.5982 169.705 34.1182 173.635 34.0882C177.205 34.0582 179.665 32.4082 180.805 29.6782L177.775 28.4182C176.845 30.2782 175.375 30.9382 173.635 30.9682C172.135 30.9982 170.425 30.2782 170.065 27.6082H181.135C181.195 27.2182 181.225 26.8282 181.225 26.4082ZM173.635 21.8182C175.135 21.8482 176.665 22.6582 177.145 24.8182H170.125C170.635 22.6282 172.165 21.7882 173.635 21.8182Z" fill="white"/>
<defs>
<clipPath id="clip0_385_34050">
<rect width="44" height="44" fill="white" transform="translate(0 2)"/>
</clipPath>
</defs>
</svg>
