<svg width="199" height="48" viewBox="0 0 199 48" fill="none" xmlns="http://www.w3.org/2000/svg">
<path opacity="0.8" d="M36.4943 11.1638C36.062 10.7316 35.6298 10.2994 35.1976 9.86715C33.9009 8.48405 32.5178 7.10094 30.789 6.2365C28.8007 5.19918 26.6397 5.4585 24.4786 5.4585C21.1937 5.4585 12.9815 5.4585 8.14062 5.4585L11.4255 9.86715C17.3901 9.86715 26.7261 9.86715 31.0483 9.86715C32.8636 9.86715 34.4196 10.2129 35.8892 11.1638C36.1485 11.2503 36.4078 11.2503 36.4943 11.1638Z" fill="white"/>
<path opacity="0.9" d="M40.1242 18.2517C39.692 17.8195 39.2598 17.3873 38.8276 16.955C37.5309 15.5719 36.1478 14.1888 34.419 13.3244C32.4307 12.2871 30.2696 12.5464 28.1085 12.5464C25.2559 12.5464 18.4268 12.5464 13.5859 12.5464L16.8708 16.955C22.749 16.955 30.7883 16.955 34.7647 16.955C36.58 16.955 38.136 17.3008 39.6056 18.2517C39.7785 18.3381 39.9514 18.3381 40.1242 18.2517Z" fill="white"/>
<path d="M44.1875 25.1677C43.7552 24.7355 43.323 24.3033 42.8908 23.8711C41.5941 22.488 40.211 21.1048 38.4822 20.2404C36.494 19.2031 34.3328 19.4624 32.1717 19.4624C29.492 19.4624 23.6138 19.4624 18.8594 19.4624L22.1442 23.8711C27.8495 23.8711 35.1109 23.8711 38.7415 23.8711C40.5568 23.8711 42.1128 24.2168 43.5824 25.1677C43.8417 25.2542 44.0146 25.3406 44.1875 25.1677Z" fill="white"/>
<path opacity="0.8" d="M7.79492 36.8363C8.22714 37.2685 8.65936 37.7008 9.09158 38.133C10.3882 39.5161 11.7713 40.8992 13.5002 41.7636C15.4884 42.8009 17.6495 42.5416 19.8106 42.5416H36.1486L32.8637 38.133C26.8991 38.133 17.5631 38.133 13.2409 38.133C11.4256 38.133 9.86958 37.7872 8.40003 36.8363C8.1407 36.7499 7.96781 36.7499 7.79492 36.8363Z" fill="white"/>
<path opacity="0.9" d="M4.16406 29.7484C4.59628 30.1806 5.0285 30.6129 5.46072 31.0451C6.75738 32.4282 8.14048 33.8113 9.86936 34.6757C11.8576 35.7131 14.0187 35.4537 16.1798 35.4537H30.7024L27.4175 31.0451C21.5393 31.0451 13.5 31.0451 9.52359 31.0451C7.70826 31.0451 6.15227 30.6993 4.68272 29.7484C4.50983 29.662 4.33695 29.662 4.16406 29.7484Z" fill="white"/>
<path d="M0.1875 22.7465C0.61972 23.1787 1.05194 23.6109 1.48416 24.0431C2.78082 25.4262 4.16393 26.8094 5.89281 27.6738C7.88102 28.7111 10.0421 28.4518 12.2032 28.4518H25.5156L22.2307 24.0431C16.5254 24.0431 9.26412 24.0431 5.63348 24.0431C3.81815 24.0431 2.26215 23.6974 0.792606 22.7465C0.533273 22.66 0.360388 22.66 0.1875 22.7465Z" fill="white"/>
<path d="M54.1191 14.0078V33.9998H58.5151V25.7398H66.8871V22.3238H58.5151V17.7038H68.1751V14.0078H54.1191Z" fill="white"/>
<path d="M79.2008 25.2078H72.7328C72.7515 24.9278 72.8075 24.6105 72.9008 24.2558C73.0128 23.9011 73.1901 23.5651 73.4328 23.2478C73.6941 22.9305 74.0301 22.6691 74.4408 22.4638C74.8701 22.2398 75.4021 22.1278 76.0368 22.1278C77.0075 22.1278 77.7261 22.3891 78.1928 22.9118C78.6781 23.4345 79.0141 24.1998 79.2008 25.2078ZM72.7328 27.7278H83.1768C83.2515 26.6078 83.1581 25.5345 82.8968 24.5078C82.6355 23.4811 82.2061 22.5665 81.6088 21.7638C81.0301 20.9611 80.2835 20.3265 79.3688 19.8598C78.4541 19.3745 77.3808 19.1318 76.1488 19.1318C75.0475 19.1318 74.0395 19.3278 73.1248 19.7198C72.2288 20.1118 71.4541 20.6531 70.8008 21.3438C70.1475 22.0158 69.6435 22.8185 69.2888 23.7518C68.9341 24.6851 68.7568 25.6931 68.7568 26.7758C68.7568 27.8958 68.9248 28.9225 69.2608 29.8558C69.6155 30.7891 70.1101 31.5918 70.7448 32.2638C71.3795 32.9358 72.1541 33.4585 73.0688 33.8318C73.9835 34.1865 75.0101 34.3638 76.1488 34.3638C77.7915 34.3638 79.1915 33.9905 80.3488 33.2438C81.5061 32.4971 82.3648 31.2558 82.9248 29.5198H79.4248C79.2941 29.9678 78.9395 30.3971 78.3608 30.8078C77.7821 31.1998 77.0915 31.3958 76.2888 31.3958C75.1688 31.3958 74.3101 31.1065 73.7128 30.5278C73.1155 29.9491 72.7888 29.0158 72.7328 27.7278Z" fill="white"/>
<path d="M84.5269 23.9758C84.5829 23.0425 84.8163 22.2678 85.2269 21.6518C85.6376 21.0358 86.1603 20.5411 86.7949 20.1678C87.4296 19.7945 88.1389 19.5331 88.9229 19.3838C89.7256 19.2158 90.5283 19.1318 91.3309 19.1318C92.0589 19.1318 92.7963 19.1878 93.5429 19.2998C94.2896 19.3931 94.9709 19.5891 95.5869 19.8878C96.2029 20.1865 96.7069 20.6065 97.0989 21.1478C97.4909 21.6705 97.6869 22.3705 97.6869 23.2478V30.7798C97.6869 31.4331 97.7243 32.0585 97.7989 32.6558C97.8736 33.2531 98.0043 33.7011 98.1909 33.9998H94.1589C94.0843 33.7758 94.0189 33.5518 93.9629 33.3278C93.9256 33.0851 93.8976 32.8425 93.8789 32.5998C93.2443 33.2531 92.4976 33.7105 91.6389 33.9718C90.7803 34.2331 89.9029 34.3638 89.0069 34.3638C88.3163 34.3638 87.6723 34.2798 87.0749 34.1118C86.4776 33.9438 85.9549 33.6825 85.5069 33.3278C85.0589 32.9731 84.7043 32.5251 84.4429 31.9838C84.2003 31.4425 84.0789 30.7985 84.0789 30.0518C84.0789 29.2305 84.2189 28.5585 84.4989 28.0358C84.7976 27.4945 85.1709 27.0651 85.6189 26.7478C86.0856 26.4305 86.6083 26.1971 87.1869 26.0478C87.7843 25.8798 88.3816 25.7491 88.9789 25.6558C89.5763 25.5625 90.1643 25.4878 90.7429 25.4318C91.3216 25.3758 91.8349 25.2918 92.2829 25.1798C92.7309 25.0678 93.0856 24.9091 93.3469 24.7038C93.6083 24.4798 93.7296 24.1625 93.7109 23.7518C93.7109 23.3225 93.6363 22.9865 93.4869 22.7438C93.3563 22.4825 93.1696 22.2865 92.9269 22.1558C92.7029 22.0065 92.4323 21.9131 92.1149 21.8758C91.8163 21.8198 91.4896 21.7918 91.1349 21.7918C90.3509 21.7918 89.7349 21.9598 89.2869 22.2958C88.8389 22.6318 88.5776 23.1918 88.5029 23.9758H84.5269ZM93.7109 26.9158C93.5429 27.0651 93.3283 27.1865 93.0669 27.2798C92.8243 27.3545 92.5536 27.4198 92.2549 27.4758C91.9749 27.5318 91.6763 27.5785 91.3589 27.6158C91.0416 27.6531 90.7243 27.6998 90.4069 27.7558C90.1083 27.8118 89.8096 27.8865 89.5109 27.9798C89.2309 28.0731 88.9789 28.2038 88.7549 28.3718C88.5496 28.5211 88.3816 28.7171 88.2509 28.9598C88.1203 29.2025 88.0549 29.5105 88.0549 29.8838C88.0549 30.2385 88.1203 30.5371 88.2509 30.7798C88.3816 31.0225 88.5589 31.2185 88.7829 31.3678C89.0069 31.4985 89.2683 31.5918 89.5669 31.6478C89.8656 31.7038 90.1736 31.7318 90.4909 31.7318C91.2749 31.7318 91.8816 31.6011 92.3109 31.3398C92.7403 31.0785 93.0576 30.7705 93.2629 30.4158C93.4683 30.0425 93.5896 29.6691 93.6269 29.2958C93.6829 28.9225 93.7109 28.6238 93.7109 28.3998V26.9158Z" fill="white"/>
<path d="M104.973 19.5238V15.1838H100.997V19.5238H98.589V22.1838H100.997V30.7238C100.997 31.4518 101.118 32.0398 101.361 32.4878C101.604 32.9358 101.93 33.2811 102.341 33.5238C102.77 33.7665 103.256 33.9251 103.797 33.9998C104.357 34.0931 104.945 34.1398 105.561 34.1398C105.953 34.1398 106.354 34.1305 106.765 34.1118C107.176 34.0931 107.549 34.0558 107.885 33.9998V30.9198C107.698 30.9571 107.502 30.9851 107.297 31.0038C107.092 31.0225 106.877 31.0318 106.653 31.0318C105.981 31.0318 105.533 30.9198 105.309 30.6958C105.085 30.4718 104.973 30.0238 104.973 29.3518V22.1838H107.885V19.5238H104.973Z" fill="white"/>
<path d="M108.937 14.0078V33.9998H112.913V26.4118C112.913 24.9371 113.155 23.8825 113.641 23.2478C114.126 22.5945 114.91 22.2678 115.993 22.2678C116.945 22.2678 117.607 22.5665 117.981 23.1638C118.354 23.7425 118.541 24.6291 118.541 25.8238V33.9998H122.517V25.0958C122.517 24.1998 122.433 23.3878 122.265 22.6598C122.115 21.9131 121.845 21.2878 121.453 20.7838C121.061 20.2611 120.519 19.8598 119.829 19.5798C119.157 19.2811 118.289 19.1318 117.225 19.1318C116.478 19.1318 115.713 19.3278 114.929 19.7198C114.145 20.0931 113.501 20.6998 112.997 21.5398H112.913V14.0078H108.937Z" fill="white"/>
<path d="M134.438 25.2078H127.97C127.989 24.9278 128.045 24.6105 128.138 24.2558C128.25 23.9011 128.428 23.5651 128.67 23.2478C128.932 22.9305 129.268 22.6691 129.678 22.4638C130.108 22.2398 130.64 22.1278 131.274 22.1278C132.245 22.1278 132.964 22.3891 133.43 22.9118C133.916 23.4345 134.252 24.1998 134.438 25.2078ZM127.97 27.7278H138.414C138.489 26.6078 138.396 25.5345 138.134 24.5078C137.873 23.4811 137.444 22.5665 136.846 21.7638C136.268 20.9611 135.521 20.3265 134.606 19.8598C133.692 19.3745 132.618 19.1318 131.386 19.1318C130.285 19.1318 129.277 19.3278 128.362 19.7198C127.466 20.1118 126.692 20.6531 126.038 21.3438C125.385 22.0158 124.881 22.8185 124.526 23.7518C124.172 24.6851 123.994 25.6931 123.994 26.7758C123.994 27.8958 124.162 28.9225 124.498 29.8558C124.853 30.7891 125.348 31.5918 125.982 32.2638C126.617 32.9358 127.392 33.4585 128.306 33.8318C129.221 34.1865 130.248 34.3638 131.386 34.3638C133.029 34.3638 134.429 33.9905 135.586 33.2438C136.744 32.4971 137.602 31.2558 138.162 29.5198H134.662C134.532 29.9678 134.177 30.3971 133.598 30.8078C133.02 31.1998 132.329 31.3958 131.526 31.3958C130.406 31.3958 129.548 31.1065 128.95 30.5278C128.353 29.9491 128.026 29.0158 127.97 27.7278Z" fill="white"/>
<path d="M139.933 19.5238V33.9998H143.909V27.4758C143.909 26.8225 143.974 26.2158 144.105 25.6558C144.235 25.0958 144.45 24.6105 144.749 24.1998C145.066 23.7705 145.477 23.4345 145.981 23.1918C146.485 22.9491 147.101 22.8278 147.829 22.8278C148.071 22.8278 148.323 22.8465 148.585 22.8838C148.846 22.9025 149.07 22.9305 149.257 22.9678V19.2718C148.939 19.1785 148.65 19.1318 148.389 19.1318C147.885 19.1318 147.399 19.2065 146.933 19.3558C146.466 19.5051 146.027 19.7198 145.617 19.9998C145.206 20.2611 144.842 20.5878 144.525 20.9798C144.207 21.3531 143.955 21.7638 143.769 22.2118H143.713V19.5238H139.933Z" fill="white"/>
<path d="M154.791 30.3038V17.7038H157.927C159.01 17.7038 159.915 17.8625 160.643 18.1798C161.39 18.4785 161.987 18.9171 162.435 19.4958C162.883 20.0745 163.201 20.7745 163.387 21.5958C163.593 22.3985 163.695 23.3038 163.695 24.3118C163.695 25.4131 163.555 26.3465 163.275 27.1118C162.995 27.8771 162.622 28.5025 162.155 28.9878C161.689 29.4545 161.157 29.7905 160.559 29.9958C159.962 30.2011 159.346 30.3038 158.711 30.3038H154.791ZM150.395 14.0078V33.9998H159.019C160.55 33.9998 161.875 33.7478 162.995 33.2438C164.134 32.7211 165.077 32.0118 165.823 31.1158C166.589 30.2198 167.158 29.1558 167.531 27.9238C167.905 26.6918 168.091 25.3478 168.091 23.8918C168.091 22.2305 167.858 20.7838 167.391 19.5518C166.943 18.3198 166.309 17.2931 165.487 16.4718C164.685 15.6505 163.723 15.0345 162.603 14.6238C161.502 14.2131 160.307 14.0078 159.019 14.0078H150.395Z" fill="white"/>
<path d="M179.633 25.2078H173.165C173.184 24.9278 173.24 24.6105 173.333 24.2558C173.445 23.9011 173.623 23.5651 173.865 23.2478C174.127 22.9305 174.463 22.6691 174.873 22.4638C175.303 22.2398 175.835 22.1278 176.469 22.1278C177.44 22.1278 178.159 22.3891 178.625 22.9118C179.111 23.4345 179.447 24.1998 179.633 25.2078ZM173.165 27.7278H183.609C183.684 26.6078 183.591 25.5345 183.329 24.5078C183.068 23.4811 182.639 22.5665 182.041 21.7638C181.463 20.9611 180.716 20.3265 179.801 19.8598C178.887 19.3745 177.813 19.1318 176.581 19.1318C175.48 19.1318 174.472 19.3278 173.557 19.7198C172.661 20.1118 171.887 20.6531 171.233 21.3438C170.58 22.0158 170.076 22.8185 169.721 23.7518C169.367 24.6851 169.189 25.6931 169.189 26.7758C169.189 27.8958 169.357 28.9225 169.693 29.8558C170.048 30.7891 170.543 31.5918 171.177 32.2638C171.812 32.9358 172.587 33.4585 173.501 33.8318C174.416 34.1865 175.443 34.3638 176.581 34.3638C178.224 34.3638 179.624 33.9905 180.781 33.2438C181.939 32.4971 182.797 31.2558 183.357 29.5198H179.857C179.727 29.9678 179.372 30.3971 178.793 30.8078C178.215 31.1998 177.524 31.3958 176.721 31.3958C175.601 31.3958 174.743 31.1065 174.145 30.5278C173.548 29.9491 173.221 29.0158 173.165 27.7278Z" fill="white"/>
<path d="M193.135 33.9998L198.035 19.5238H194.087L191.035 29.4078H190.979L187.927 19.5238H183.755L188.711 33.9998H193.135Z" fill="white"/>
</svg>
