<svg width="198" height="48" viewBox="0 0 198 48" fill="none" xmlns="http://www.w3.org/2000/svg">
<path d="M31.2414 2H14.3836L0.8125 15.5711V32.4289L14.3836 46H31.2414L44.8125 32.4289V15.5711L31.2414 2ZM16.7161 32.641L8.02216 23.947L16.7161 15.253C20.0029 11.9663 25.4101 11.9663 28.6969 15.253L37.3908 23.947L28.6969 32.641C25.4101 35.9277 20.1089 35.9277 16.7161 32.641Z" fill="white"/>
<path d="M64.152 34.2405C66.852 34.2405 69.072 32.8605 69.762 30.7905V34.0005H73.752V25.9005C73.752 24.0705 72.312 22.5105 70.362 22.5105H64.662V25.9005H68.712C69.222 25.9005 69.552 26.2305 69.552 26.7405C69.552 28.6905 66.972 30.5805 64.362 30.5805C60.882 30.5805 58.122 27.8505 58.122 23.5005C58.122 19.1505 60.882 16.6305 64.452 16.6305C67.152 16.6305 69.012 18.1005 69.342 20.3505H73.812C73.542 15.8505 69.762 12.7605 64.482 12.7605C58.932 12.7605 53.832 16.3305 53.832 23.5005C53.832 30.6705 58.782 34.2405 64.152 34.2405Z" fill="white"/>
<path d="M75.4648 34.0005H79.6348V12.3105H75.4648V34.0005Z" fill="white"/>
<path d="M88.6299 34.2405C93.2799 34.2405 96.6099 30.9405 96.6099 26.4405C96.6099 21.9405 93.2799 18.6405 88.6299 18.6405C83.9799 18.6405 80.6499 21.9405 80.6499 26.4405C80.6499 30.9405 83.9799 34.2405 88.6299 34.2405ZM88.6299 30.6405C86.3799 30.6405 84.8499 28.9305 84.8499 26.4405C84.8499 23.9205 86.3799 22.2105 88.6299 22.2105C90.8799 22.2105 92.4099 23.9205 92.4099 26.4405C92.4099 28.9305 90.8799 30.6405 88.6299 30.6405Z" fill="white"/>
<path d="M105.941 34.2405C110.411 34.2405 113.081 31.1505 113.081 26.4405C113.081 21.7305 110.411 18.6405 106.001 18.6405C104.111 18.6405 102.641 19.3605 101.801 20.4705V12.3105H97.6309V34.0005H101.801V32.3505C102.641 33.5205 104.201 34.2405 105.941 34.2405ZM105.281 30.6405C103.031 30.6405 101.561 28.9605 101.561 26.4405C101.561 23.8905 103.031 22.2105 105.281 22.2105C107.471 22.2105 108.971 23.8905 108.971 26.4405C108.971 28.9605 107.471 30.6405 105.281 30.6405Z" fill="white"/>
<path d="M120.061 18.6405C115.921 18.6405 113.461 21.0705 113.281 24.1005H117.001C117.061 22.8405 117.991 21.7005 119.821 21.7005C121.531 21.7005 122.521 22.5705 122.521 23.8305C122.521 24.4605 122.131 24.9405 121.381 24.9405H118.831C115.531 24.9405 113.311 26.7405 113.311 29.7105C113.311 32.2905 115.321 34.2405 118.261 34.2405C120.331 34.2405 122.011 33.3105 122.521 31.9005V34.0005H126.661V24.2805C126.661 20.8605 123.871 18.6405 120.061 18.6405ZM119.311 31.2105C118.141 31.2105 117.301 30.5205 117.301 29.5305C117.301 28.3605 118.201 27.5805 119.461 27.5805H122.521V27.7905C122.521 29.7105 121.351 31.2105 119.311 31.2105Z" fill="white"/>
<path d="M128.264 34.0005H132.434V12.3105H128.264V34.0005Z" fill="white"/>
<path d="M134.649 34.0005H143.229C147.669 34.0005 150.729 31.7205 150.729 27.7305C150.729 24.9705 149.109 23.2905 147.189 22.5405C148.419 21.8805 149.649 20.3805 149.649 18.4005C149.649 14.8905 146.799 13.0005 142.989 13.0005H134.649V34.0005ZM139.089 21.0105V16.5705H142.569C144.579 16.5705 145.479 17.3805 145.479 18.7905C145.479 20.2005 144.579 21.0105 142.659 21.0105H139.089ZM139.089 30.1005V24.8205H142.839C145.329 24.8205 146.439 25.7805 146.439 27.4905C146.439 29.2005 145.329 30.1005 142.839 30.1005H139.089Z" fill="white"/>
<path d="M157.983 18.6405C153.843 18.6405 151.383 21.0705 151.203 24.1005H154.923C154.983 22.8405 155.913 21.7005 157.743 21.7005C159.453 21.7005 160.443 22.5705 160.443 23.8305C160.443 24.4605 160.053 24.9405 159.303 24.9405H156.753C153.453 24.9405 151.233 26.7405 151.233 29.7105C151.233 32.2905 153.243 34.2405 156.183 34.2405C158.253 34.2405 159.933 33.3105 160.443 31.9005V34.0005H164.583V24.2805C164.583 20.8605 161.793 18.6405 157.983 18.6405ZM157.233 31.2105C156.063 31.2105 155.223 30.5205 155.223 29.5305C155.223 28.3605 156.123 27.5805 157.383 27.5805H160.443V27.7905C160.443 29.7105 159.273 31.2105 157.233 31.2105Z" fill="white"/>
<path d="M165.946 34.0005H170.146V25.7205C170.146 23.7705 171.436 22.3605 173.266 22.3605C175.006 22.3605 176.176 23.6805 176.176 25.5105V34.0005H180.376V24.5805C180.376 21.1005 178.156 18.6405 174.736 18.6405C172.666 18.6405 170.986 19.5105 170.146 20.9805V18.8805H165.946V34.0005Z" fill="white"/>
<path d="M192.346 34.0005H197.386L190.876 24.8205L196.906 18.8805H191.626L186.376 24.0405V12.3105H182.176V34.0005H186.376V29.2605L188.056 27.6105L192.346 34.0005Z" fill="white"/>
</svg>
