<svg width="66" height="64" viewBox="0 0 66 64" fill="none" xmlns="http://www.w3.org/2000/svg">
<g filter="url(#filter0_d_782_2201)">
<path d="M32.9008 39.7985L45.0976 30.9377L40.4384 16.6001H25.3632L20.7056 30.9377L32.9008 39.7985Z" fill="#31414C"/>
<path d="M40.8752 16H24.928L20 31.1664L32.9008 40.5392L45.8016 31.1664L40.8752 16ZM22.552 30.3376L26.504 18.1712H39.2976L43.2512 30.3376L32.9024 37.8576L22.552 30.3376Z" fill="url(#paint0_radial_782_2201)"/>
<g style="mix-blend-mode:multiply" opacity="0.2">
<path d="M26.5039 18.1711L32.9007 37.8575L39.2975 18.1711H26.5039Z" fill="#0C363D"/>
</g>
<g style="mix-blend-mode:multiply" opacity="0.6">
<path d="M32.9006 30.5296L26.187 27.2288V28.1024L32.9006 32.9808L39.6158 28.1024V27.2288L32.9006 30.5296Z" fill="#2753A0"/>
</g>
<path d="M40.875 16H24.9278L23.7886 19.5088C24.4974 19.5408 25.2318 19.6304 25.9838 19.7744L26.5054 18.1712H39.299L43.2526 30.3376L41.7518 31.4288C42.0894 32.0848 42.3886 32.7632 42.6446 33.4624L45.803 31.168L40.875 16Z" fill="url(#paint1_radial_782_2201)"/>
<path style="mix-blend-mode:screen" d="M40.875 16H24.9278L23.7886 19.5088C24.4974 19.5408 25.2318 19.6304 25.9838 19.7744L26.5054 18.1712H39.299L43.2526 30.3376L41.7518 31.4288C42.0894 32.0848 42.3886 32.7632 42.6446 33.4624L45.803 31.168L40.875 16Z" fill="url(#paint2_linear_782_2201)"/>
<path style="mix-blend-mode:screen" d="M40 35.3824C39.9248 34.5376 39.7984 33.7328 39.6288 32.9696L32.9008 37.8576L22.552 30.3376L25.3904 21.6016C24.584 21.6208 23.7904 21.712 23.0208 21.8688L20 31.1664L32.9008 40.5392L40 35.3808V35.3824Z" fill="url(#paint3_linear_782_2201)"/>
<path d="M22.5518 30.3375L23.5742 30.1087L27.1358 19.1439H38.6654L42.2286 30.1087L43.251 30.3375L39.2974 18.1711H26.5038L22.5518 30.3375Z" fill="#455A82"/>
<g style="mix-blend-mode:multiply" opacity="0.2">
<path d="M23.5744 30.1088L25.568 24.9936C26.7488 21.9648 29.6656 20.6512 32.9168 20.6512C36.1808 20.6512 39.1088 21.9824 40.2784 25.0304L42.2288 30.1088L38.6656 19.144H27.136L23.5728 30.1088H23.5744Z" fill="#2753A0"/>
</g>
<path d="M22.5518 30.3377L23.5742 30.1089L32.9006 36.8849L42.2286 30.1089L43.251 30.3377L32.9006 37.8577L22.5518 30.3377Z" fill="url(#paint4_linear_782_2201)"/>
<path d="M26.187 26.064V27.2288L32.9006 32.1072L39.6158 27.2288V26.064L32.9006 30.9408L26.187 26.064Z" fill="#455A82"/>
<g style="mix-blend-mode:multiply" opacity="0.6">
<path d="M23.5744 30.1088L27.232 20.7232C27.408 20.2704 27.8448 19.9712 28.3312 19.9712H37.5232C38.0112 19.9712 38.4496 20.272 38.624 20.728L42.2272 30.1088L38.664 19.144H27.136L23.5728 30.1088H23.5744Z" fill="#2753A0"/>
</g>
<path d="M26.5039 18.1711L27.1359 19.1439H38.6655L39.2975 18.1711H26.5039Z" fill="#2E3E54"/>
<path d="M32.9006 30.9408V32.1072L26.187 27.2288V26.064L32.9006 30.9408Z" fill="#2E3E54"/>
<path d="M32.9006 28.4896L26.8286 24.0896L26.187 26.064L32.9006 30.9408L39.6158 26.064L38.9742 24.0896L32.9006 28.4896Z" fill="url(#paint5_radial_782_2201)"/>
<path style="mix-blend-mode:screen" d="M32.901 30.9407L37.3922 27.6783C37.0146 27.1215 36.6034 26.6031 36.1666 26.1231L32.9026 28.4895L26.8306 24.0879L26.189 26.0623L32.9026 30.9407H32.901Z" fill="url(#paint6_linear_782_2201)"/>
<path style="mix-blend-mode:screen" d="M37.0786 25.4624C37.5746 25.9088 38.0514 26.3776 38.509 26.8672L39.6146 26.064L38.973 24.0896L37.0786 25.4624Z" fill="url(#paint7_linear_782_2201)"/>
<g style="mix-blend-mode:multiply" opacity="0.35">
<path d="M26.829 24.0896L26.5842 25.4304C26.5362 25.696 26.637 25.968 26.8498 26.136L32.9026 30.9424L26.189 26.064L26.8306 24.0896H26.829Z" fill="#455A82"/>
</g>
<g style="mix-blend-mode:multiply" opacity="0.35">
<path d="M21.768 25.728L20.5328 30.3552C20.4368 30.7536 20.6256 31.2832 20.9552 31.5296L32.9024 40.5408L20 31.1664L21.768 25.728Z" fill="#455A82"/>
</g>
<g style="mix-blend-mode:multiply" opacity="0.6">
<path d="M23.5742 30.1089L32.4718 36.1025C32.707 36.2609 33.0942 36.2609 33.3294 36.1025L42.227 30.1089L32.9006 36.8849L23.5742 30.1089Z" fill="#2753A0"/>
</g>
<g style="mix-blend-mode:multiply" opacity="0.35">
<path d="M32.9009 40.5392L44.3889 31.6656C45.1921 31.0704 45.3665 30.9408 45.0049 29.8L42.6081 21.3328L45.8033 31.1664L32.9025 40.5392H32.9009Z" fill="#455A82"/>
</g>
<g style="mix-blend-mode:multiply" opacity="0.35">
<path d="M22.0576 24.8337L24.752 17.1089C25.0304 16.3249 25.2336 16.1185 26.0656 16.0881L32.9024 16.0017H24.928L22.0576 24.8337Z" fill="#455A82"/>
</g>
<path d="M27.2002 33.7151L32.901 37.8575L40.6002 32.2639L32.901 38.2095L27.2002 33.7151Z" fill="#F3FEFF"/>
<path d="M28.3823 25.2144L32.9007 28.4896L38.0879 24.7312L32.9007 28.8912L28.3823 25.2144Z" fill="#F3FEFF"/>
<path d="M32.4688 16H40.8751L42.608 21.3328L40.5536 16.296L32.4688 16Z" fill="#F3FEFF"/>
<g style="mix-blend-mode:screen">
<path d="M35.8142 16C35.7438 16.6912 36.0463 17.464 36.6287 18.1712H39.2991L39.9598 20.2032C40.7966 20.408 41.5967 20.4144 42.2526 20.2352L40.8751 16H35.8142Z" fill="white"/>
</g>
<g style="mix-blend-mode:screen">
<path d="M35.1727 17.2065C34.6159 16.8017 33.9439 16.7761 33.6719 17.1489C33.4783 17.4161 33.5423 17.8161 33.7999 18.1697H35.7983C35.7679 17.8433 35.5423 17.4753 35.1711 17.2065H35.1727Z" fill="white"/>
</g>
<g style="mix-blend-mode:screen">
<path d="M26.5071 33.2112C26.3055 33.7312 26.6703 34.5056 27.4047 35.0384C28.1391 35.5712 28.9887 35.68 29.4191 35.328L26.5055 33.2112H26.5071Z" fill="white"/>
</g>
<g style="mix-blend-mode:screen">
<path d="M29.4384 36.7455C29.3152 36.9343 28.9744 36.9311 28.6784 36.7375C28.3824 36.5439 28.24 36.2335 28.3632 36.0447C28.4864 35.8559 28.8272 35.8591 29.1232 36.0527C29.4208 36.2463 29.5616 36.5567 29.4384 36.7455Z" fill="white"/>
</g>
<g style="mix-blend-mode:multiply" opacity="0.35">
<path d="M36.7295 28.1599L38.9215 26.2751C39.1551 26.0751 39.2655 25.7663 39.2127 25.4623L38.9743 24.0879L39.6159 26.0623L36.7311 28.1583L36.7295 28.1599Z" fill="#455A82"/>
</g>
</g>
<defs>
<filter id="filter0_d_782_2201" x="-7" y="-8" width="80" height="80" filterUnits="userSpaceOnUse" color-interpolation-filters="sRGB">
<feFlood flood-opacity="0" result="BackgroundImageFix"/>
<feColorMatrix in="SourceAlpha" type="matrix" values="0 0 0 0 0 0 0 0 0 0 0 0 0 0 0 0 0 0 127 0" result="hardAlpha"/>
<feOffset dy="4"/>
<feGaussianBlur stdDeviation="10"/>
<feComposite in2="hardAlpha" operator="out"/>
<feColorMatrix type="matrix" values="0 0 0 0 1 0 0 0 0 1 0 0 0 0 1 0 0 0 0.5 0"/>
<feBlend mode="normal" in2="BackgroundImageFix" result="effect1_dropShadow_782_2201"/>
<feBlend mode="normal" in="SourceGraphic" in2="effect1_dropShadow_782_2201" result="shape"/>
</filter>
<radialGradient id="paint0_radial_782_2201" cx="0" cy="0" r="1" gradientUnits="userSpaceOnUse" gradientTransform="translate(39.7952 16.8208) scale(20.4656 20.4656)">
<stop offset="0.01" stop-color="#5C6CBA"/>
<stop offset="1" stop-color="#81B3D4"/>
</radialGradient>
<radialGradient id="paint1_radial_782_2201" cx="0" cy="0" r="1" gradientUnits="userSpaceOnUse" gradientTransform="translate(43.5182 14.0336) scale(28.3136 28.3136)">
<stop offset="0.01" stop-color="#5C6CBA"/>
<stop offset="1" stop-color="#81B3D4"/>
</radialGradient>
<linearGradient id="paint2_linear_782_2201" x1="44.739" y1="12.0192" x2="31.907" y2="27.8496" gradientUnits="userSpaceOnUse">
<stop stop-color="#9CD3DE"/>
<stop offset="0.19" stop-color="#98CDDA"/>
<stop offset="0.41" stop-color="#8CBED0"/>
<stop offset="0.66" stop-color="#79A6C0"/>
<stop offset="0.93" stop-color="#5F84AA"/>
<stop offset="1" stop-color="#5779A3"/>
</linearGradient>
<linearGradient id="paint3_linear_782_2201" x1="24.304" y1="37.6592" x2="35.5232" y2="23.5968" gradientUnits="userSpaceOnUse">
<stop stop-color="#42495E"/>
<stop offset="1" stop-color="#4A5780"/>
</linearGradient>
<linearGradient id="paint4_linear_782_2201" x1="32.9006" y1="28.3153" x2="32.9006" y2="32.5905" gradientUnits="userSpaceOnUse">
<stop stop-color="#B4E6F7"/>
<stop offset="0.23" stop-color="#CCEEF9"/>
<stop offset="0.51" stop-color="#E3F7FC"/>
<stop offset="0.77" stop-color="#F2FCFE"/>
<stop offset="1" stop-color="#F7FEFF"/>
</linearGradient>
<radialGradient id="paint5_radial_782_2201" cx="0" cy="0" r="1" gradientUnits="userSpaceOnUse" gradientTransform="translate(37.7198 22.5456) scale(11.8528 11.8528)">
<stop offset="0.01" stop-color="#5C6CBA"/>
<stop offset="1" stop-color="#81B3D4"/>
</radialGradient>
<linearGradient id="paint6_linear_782_2201" x1="23.373" y1="36.8351" x2="34.549" y2="22.8271" gradientUnits="userSpaceOnUse">
<stop stop-color="#42495E"/>
<stop offset="1" stop-color="#4A5780"/>
</linearGradient>
<linearGradient id="paint7_linear_782_2201" x1="45.9106" y1="16.4336" x2="35.3122" y2="29.5072" gradientUnits="userSpaceOnUse">
<stop stop-color="#9CD3DE"/>
<stop offset="0.19" stop-color="#98CDDA"/>
<stop offset="0.41" stop-color="#8CBED0"/>
<stop offset="0.66" stop-color="#79A6C0"/>
<stop offset="0.93" stop-color="#5F84AA"/>
<stop offset="1" stop-color="#5779A3"/>
</linearGradient>
</defs>
</svg>
