<svg width="26" height="25" viewBox="0 0 26 25" fill="none" xmlns="http://www.w3.org/2000/svg">
<path d="M12.9008 23.7985L25.0976 14.9377L20.4384 0.600098H5.36317L0.705566 14.9377L12.9008 23.7985Z" fill="#31414C"/>
<path d="M20.8752 0H4.928L0 15.1664L12.9008 24.5392L25.8016 15.1664L20.8752 0ZM2.552 14.3376L6.504 2.1712H19.2976L23.2512 14.3376L12.9024 21.8576L2.552 14.3376Z" fill="url(#paint0_radial_782_2202)"/>
<g style="mix-blend-mode:multiply" opacity="0.2">
<path d="M6.50391 2.17114L12.9007 21.8575L19.2975 2.17114H6.50391Z" fill="#0C363D"/>
</g>
<g style="mix-blend-mode:multiply" opacity="0.6">
<path d="M12.9006 14.5296L6.18701 11.2288V12.1024L12.9006 16.9808L19.6158 12.1024V11.2288L12.9006 14.5296Z" fill="#2753A0"/>
</g>
<path d="M20.875 0H4.92777L3.78857 3.5088C4.49737 3.5408 5.23177 3.6304 5.98377 3.7744L6.50537 2.1712H19.299L23.2526 14.3376L21.7518 15.4288C22.0894 16.0848 22.3886 16.7632 22.6446 17.4624L25.803 15.168L20.875 0Z" fill="url(#paint1_radial_782_2202)"/>
<path style="mix-blend-mode:screen" d="M20.875 0H4.92777L3.78857 3.5088C4.49737 3.5408 5.23177 3.6304 5.98377 3.7744L6.50537 2.1712H19.299L23.2526 14.3376L21.7518 15.4288C22.0894 16.0848 22.3886 16.7632 22.6446 17.4624L25.803 15.168L20.875 0Z" fill="url(#paint2_linear_782_2202)"/>
<path style="mix-blend-mode:screen" d="M20 19.3824C19.9248 18.5376 19.7984 17.7328 19.6288 16.9696L12.9008 21.8576L2.552 14.3376L5.3904 5.60156C4.584 5.62076 3.7904 5.71196 3.0208 5.86876L0 15.1664L12.9008 24.5392L20 19.3808V19.3824Z" fill="url(#paint3_linear_782_2202)"/>
<path d="M2.55176 14.3375L3.57416 14.1087L7.13576 3.14394H18.6654L22.2286 14.1087L23.251 14.3375L19.2974 2.17114H6.50376L2.55176 14.3375Z" fill="#455A82"/>
<g style="mix-blend-mode:multiply" opacity="0.2">
<path d="M3.57435 14.1088L5.56795 8.99364C6.74875 5.96484 9.66555 4.65124 12.9168 4.65124C16.1808 4.65124 19.1088 5.98244 20.2784 9.03044L22.2288 14.1088L18.6656 3.14404H7.13595L3.57275 14.1088H3.57435Z" fill="#2753A0"/>
</g>
<path d="M2.55176 14.3377L3.57416 14.1089L12.9006 20.8849L22.2286 14.1089L23.251 14.3377L12.9006 21.8577L2.55176 14.3377Z" fill="url(#paint4_linear_782_2202)"/>
<path d="M6.18701 10.064V11.2288L12.9006 16.1072L19.6158 11.2288V10.064L12.9006 14.9408L6.18701 10.064Z" fill="#455A82"/>
<g style="mix-blend-mode:multiply" opacity="0.6">
<path d="M3.57435 14.1088L7.23195 4.72324C7.40795 4.27044 7.84475 3.97124 8.33115 3.97124H17.5232C18.0112 3.97124 18.4496 4.27204 18.624 4.72804L22.2272 14.1088L18.664 3.14404H7.13595L3.57275 14.1088H3.57435Z" fill="#2753A0"/>
</g>
<path d="M6.50391 2.17114L7.13591 3.14394H18.6655L19.2975 2.17114H6.50391Z" fill="#2E3E54"/>
<path d="M12.9006 14.9408V16.1072L6.18701 11.2288V10.064L12.9006 14.9408Z" fill="#2E3E54"/>
<path d="M12.9006 12.4896L6.82861 8.0896L6.18701 10.064L12.9006 14.9408L19.6158 10.064L18.9742 8.0896L12.9006 12.4896Z" fill="url(#paint5_radial_782_2202)"/>
<path style="mix-blend-mode:screen" d="M12.901 14.9407L17.3922 11.6783C17.0146 11.1215 16.6034 10.6031 16.1666 10.1231L12.9026 12.4895L6.83056 8.08789L6.18896 10.0623L12.9026 14.9407H12.901Z" fill="url(#paint6_linear_782_2202)"/>
<path style="mix-blend-mode:screen" d="M17.0786 9.4624C17.5746 9.9088 18.0514 10.3776 18.509 10.8672L19.6146 10.064L18.973 8.0896L17.0786 9.4624Z" fill="url(#paint7_linear_782_2202)"/>
<g style="mix-blend-mode:multiply" opacity="0.35">
<path d="M6.82896 8.0896L6.58417 9.4304C6.53617 9.696 6.63697 9.968 6.84977 10.136L12.9026 14.9424L6.18896 10.064L6.83056 8.0896H6.82896Z" fill="#455A82"/>
</g>
<g style="mix-blend-mode:multiply" opacity="0.35">
<path d="M1.768 9.72803L0.5328 14.3552C0.4368 14.7536 0.6256 15.2832 0.9552 15.5296L12.9024 24.5408L0 15.1664L1.768 9.72803Z" fill="#455A82"/>
</g>
<g style="mix-blend-mode:multiply" opacity="0.6">
<path d="M3.57422 14.1089L12.4718 20.1025C12.707 20.2609 13.0942 20.2609 13.3294 20.1025L22.227 14.1089L12.9006 20.8849L3.57422 14.1089Z" fill="#2753A0"/>
</g>
<g style="mix-blend-mode:multiply" opacity="0.35">
<path d="M12.9009 24.5392L24.3889 15.6656C25.1921 15.0704 25.3665 14.9408 25.0049 13.8L22.6081 5.33276L25.8033 15.1664L12.9025 24.5392H12.9009Z" fill="#455A82"/>
</g>
<g style="mix-blend-mode:multiply" opacity="0.35">
<path d="M2.05762 8.83371L4.75202 1.10891C5.03042 0.324909 5.23362 0.118509 6.06562 0.088109L12.9024 0.00170898H4.92802L2.05762 8.83371Z" fill="#455A82"/>
</g>
<path d="M7.2002 17.7151L12.901 21.8575L20.6002 16.2639L12.901 22.2095L7.2002 17.7151Z" fill="#F3FEFF"/>
<path d="M8.38232 9.2144L12.9007 12.4896L18.0879 8.7312L12.9007 12.8912L8.38232 9.2144Z" fill="#F3FEFF"/>
<path d="M12.4688 0H20.8751L22.608 5.3328L20.5536 0.296L12.4688 0Z" fill="#F3FEFF"/>
<g style="mix-blend-mode:screen">
<path d="M15.8142 0C15.7438 0.6912 16.0463 1.464 16.6287 2.1712H19.2991L19.9598 4.2032C20.7966 4.408 21.5967 4.4144 22.2526 4.2352L20.8751 0H15.8142Z" fill="white"/>
</g>
<g style="mix-blend-mode:screen">
<path d="M15.1727 1.20649C14.6159 0.801688 13.9439 0.776088 13.6719 1.14889C13.4783 1.41609 13.5423 1.81609 13.7999 2.16969H15.7983C15.7679 1.84329 15.5423 1.47529 15.1711 1.20649H15.1727Z" fill="white"/>
</g>
<g style="mix-blend-mode:screen">
<path d="M6.50713 17.2112C6.30553 17.7312 6.67033 18.5056 7.40473 19.0384C8.13913 19.5712 8.98873 19.68 9.41913 19.328L6.50553 17.2112H6.50713Z" fill="white"/>
</g>
<g style="mix-blend-mode:screen">
<path d="M9.43842 20.7455C9.31522 20.9343 8.97442 20.9311 8.67842 20.7375C8.38242 20.5439 8.24002 20.2335 8.36322 20.0447C8.48642 19.8559 8.82722 19.8591 9.12322 20.0527C9.42082 20.2463 9.56162 20.5567 9.43842 20.7455Z" fill="white"/>
</g>
<g style="mix-blend-mode:multiply" opacity="0.35">
<path d="M16.7295 12.1599L18.9215 10.2751C19.1551 10.0751 19.2655 9.76629 19.2127 9.46229L18.9743 8.08789L19.6159 10.0623L16.7311 12.1583L16.7295 12.1599Z" fill="#455A82"/>
</g>
<defs>
<radialGradient id="paint0_radial_782_2202" cx="0" cy="0" r="1" gradientUnits="userSpaceOnUse" gradientTransform="translate(19.7952 0.820799) scale(20.4656 20.4656)">
<stop offset="0.01" stop-color="#5C6CBA"/>
<stop offset="1" stop-color="#81B3D4"/>
</radialGradient>
<radialGradient id="paint1_radial_782_2202" cx="0" cy="0" r="1" gradientUnits="userSpaceOnUse" gradientTransform="translate(23.5182 -1.9664) scale(28.3136 28.3136)">
<stop offset="0.01" stop-color="#5C6CBA"/>
<stop offset="1" stop-color="#81B3D4"/>
</radialGradient>
<linearGradient id="paint2_linear_782_2202" x1="24.739" y1="-3.9808" x2="11.907" y2="11.8496" gradientUnits="userSpaceOnUse">
<stop stop-color="#9CD3DE"/>
<stop offset="0.19" stop-color="#98CDDA"/>
<stop offset="0.41" stop-color="#8CBED0"/>
<stop offset="0.66" stop-color="#79A6C0"/>
<stop offset="0.93" stop-color="#5F84AA"/>
<stop offset="1" stop-color="#5779A3"/>
</linearGradient>
<linearGradient id="paint3_linear_782_2202" x1="4.304" y1="21.6592" x2="15.5232" y2="7.59676" gradientUnits="userSpaceOnUse">
<stop stop-color="#42495E"/>
<stop offset="1" stop-color="#4A5780"/>
</linearGradient>
<linearGradient id="paint4_linear_782_2202" x1="12.9006" y1="12.3153" x2="12.9006" y2="16.5905" gradientUnits="userSpaceOnUse">
<stop stop-color="#B4E6F7"/>
<stop offset="0.23" stop-color="#CCEEF9"/>
<stop offset="0.51" stop-color="#E3F7FC"/>
<stop offset="0.77" stop-color="#F2FCFE"/>
<stop offset="1" stop-color="#F7FEFF"/>
</linearGradient>
<radialGradient id="paint5_radial_782_2202" cx="0" cy="0" r="1" gradientUnits="userSpaceOnUse" gradientTransform="translate(17.7198 6.5456) scale(11.8528 11.8528)">
<stop offset="0.01" stop-color="#5C6CBA"/>
<stop offset="1" stop-color="#81B3D4"/>
</radialGradient>
<linearGradient id="paint6_linear_782_2202" x1="3.37296" y1="20.8351" x2="14.549" y2="6.82709" gradientUnits="userSpaceOnUse">
<stop stop-color="#42495E"/>
<stop offset="1" stop-color="#4A5780"/>
</linearGradient>
<linearGradient id="paint7_linear_782_2202" x1="25.9106" y1="0.4336" x2="15.3122" y2="13.5072" gradientUnits="userSpaceOnUse">
<stop stop-color="#9CD3DE"/>
<stop offset="0.19" stop-color="#98CDDA"/>
<stop offset="0.41" stop-color="#8CBED0"/>
<stop offset="0.66" stop-color="#79A6C0"/>
<stop offset="0.93" stop-color="#5F84AA"/>
<stop offset="1" stop-color="#5779A3"/>
</linearGradient>
</defs>
</svg>
