<svg width="24" height="24" viewBox="0 0 24 24" fill="none" xmlns="http://www.w3.org/2000/svg">
<path d="M12.8991 16.5C12.8991 16.0858 12.5633 15.75 12.1491 15.75C11.7348 15.75 11.3991 16.0858 11.3991 16.5H12.8991ZM11.3991 18.6C11.3991 19.0142 11.7348 19.35 12.1491 19.35C12.5633 19.35 12.8991 19.0142 12.8991 18.6H11.3991ZM7.14906 22H6.39906V22.75H7.14906V22ZM17.1491 22V22.75H17.8991V22H17.1491ZM6.14906 21.25C5.73485 21.25 5.39906 21.5858 5.39906 22C5.39906 22.4142 5.73485 22.75 6.14906 22.75V21.25ZM18.1491 22.75C18.5633 22.75 18.8991 22.4142 18.8991 22C18.8991 21.5858 18.5633 21.25 18.1491 21.25V22.75ZM5.46906 11.65L5.24048 12.3643C5.5204 12.4539 5.82683 12.3717 6.02438 12.1541C6.22192 11.9365 6.27416 11.6236 6.15801 11.3536L5.46906 11.65ZM3.53906 10.45L2.98159 10.9517C2.99039 10.9615 2.99944 10.971 3.00873 10.9803L3.53906 10.45ZM5.18906 4.35L5.87687 4.64904C5.97766 4.41721 5.95489 4.15019 5.81627 3.93877C5.67766 3.72736 5.44187 3.6 5.18906 3.6V4.35ZM4.88906 8.85H5.63906H4.88906ZM18.5291 11.65L17.8401 11.3536C17.724 11.6236 17.7762 11.9365 17.9738 12.1541C18.1713 12.3717 18.4777 12.4539 18.7576 12.3643L18.5291 11.65ZM20.4591 10.45L20.9894 10.9803C20.9987 10.971 21.0077 10.9615 21.0165 10.9517L20.4591 10.45ZM18.8091 4.35V3.6C18.5563 3.6 18.3205 3.72736 18.1819 3.93877C18.0432 4.15019 18.0205 4.41721 18.1213 4.64904L18.8091 4.35ZM19.1091 8.85H19.8591H19.1091ZM12.1491 16.5H11.3991V18.6H12.1491H12.8991V16.5H12.1491ZM7.14906 22V22.75H17.1491V22V21.25H7.14906V22ZM17.1491 22H17.8991V21H17.1491H16.3991V22H17.1491ZM17.1491 21H17.8991C17.8991 19.4858 16.6633 18.25 15.1491 18.25V19V19.75C15.8348 19.75 16.3991 20.3142 16.3991 21H17.1491ZM15.1491 19V18.25H9.14906V19V19.75H15.1491V19ZM9.14906 19V18.25C7.63485 18.25 6.39906 19.4858 6.39906 21H7.14906H7.89906C7.89906 20.3142 8.46328 19.75 9.14906 19.75V19ZM7.14906 21H6.39906V22H7.14906H7.89906V21H7.14906ZM6.14906 22V22.75H18.1491V22V21.25H6.14906V22ZM11.9991 16V15.25C8.54328 15.25 5.74906 12.4558 5.74906 9H4.99906H4.24906C4.24906 13.2842 7.71485 16.75 11.9991 16.75V16ZM4.99906 9H5.74906V6H4.99906H4.24906V9H4.99906ZM4.99906 6H5.74906C5.74906 4.20421 7.20328 2.75 8.99906 2.75V2V1.25C6.37485 1.25 4.24906 3.37579 4.24906 6H4.99906ZM8.99906 2V2.75H14.9991V2V1.25H8.99906V2ZM14.9991 2V2.75C16.7948 2.75 18.2491 4.20421 18.2491 6H18.9991H19.7491C19.7491 3.37579 17.6233 1.25 14.9991 1.25V2ZM18.9991 6H18.2491V9H18.9991H19.7491V6H18.9991ZM18.9991 9H18.2491C18.2491 12.4558 15.4548 15.25 11.9991 15.25V16V16.75C16.2833 16.75 19.7491 13.2842 19.7491 9H18.9991ZM5.46906 11.65L5.69764 10.9357C5.07746 10.7372 4.51765 10.3679 4.06939 9.91967L3.53906 10.45L3.00873 10.9803C3.60048 11.5721 4.36067 12.0828 5.24048 12.3643L5.46906 11.65ZM3.53906 10.45L4.09653 9.94828C3.28555 9.04719 2.78906 8.01842 2.78906 6.85H2.03906H1.28906C1.28906 8.48158 1.99257 9.85281 2.98159 10.9517L3.53906 10.45ZM2.03906 6.85H2.78906C2.78906 5.86421 3.55328 5.1 4.53906 5.1V4.35V3.6C2.72485 3.6 1.28906 5.03579 1.28906 6.85H2.03906ZM4.53906 4.35V5.1H5.18906V4.35V3.6H4.53906V4.35ZM5.18906 4.35L4.50126 4.05096C4.25679 4.61323 4.13906 5.2261 4.13906 5.85H4.88906H5.63906C5.63906 5.4139 5.72133 5.00677 5.87687 4.64904L5.18906 4.35ZM4.88906 5.85H4.13906V8.85H4.88906H5.63906V5.85H4.88906ZM4.88906 8.85H4.13906C4.13906 9.95699 4.37189 10.9975 4.78012 11.9464L5.46906 11.65L6.15801 11.3536C5.82624 10.5825 5.63906 9.74301 5.63906 8.85H4.88906ZM18.5291 11.65L18.7576 12.3643C19.6375 12.0828 20.3976 11.5721 20.9894 10.9803L20.4591 10.45L19.9287 9.91967C19.4805 10.3679 18.9207 10.7372 18.3005 10.9357L18.5291 11.65ZM20.4591 10.45L21.0165 10.9517C22.0056 9.85281 22.7091 8.48158 22.7091 6.85H21.9591H21.2091C21.2091 8.01842 20.7126 9.04719 19.9016 9.94828L20.4591 10.45ZM21.9591 6.85H22.7091C22.7091 5.03579 21.2733 3.6 19.4591 3.6V4.35V5.1C20.4449 5.1 21.2091 5.86421 21.2091 6.85H21.9591ZM19.4591 4.35V3.6H18.8091V4.35V5.1H19.4591V4.35ZM18.8091 4.35L18.1213 4.64904C18.2768 5.00678 18.3591 5.4139 18.3591 5.85H19.1091H19.8591C19.8591 5.2261 19.7413 4.61322 19.4969 4.05096L18.8091 4.35ZM19.1091 5.85H18.3591V8.85H19.1091H19.8591V5.85H19.1091ZM19.1091 8.85H18.3591C18.3591 9.74301 18.1719 10.5825 17.8401 11.3536L18.5291 11.65L19.218 11.9464C19.6262 10.9975 19.8591 9.95699 19.8591 8.85H19.1091Z" fill="url(#paint0_linear_385_34197)"/>
<path d="M12.8991 16.5C12.8991 16.0858 12.5633 15.75 12.1491 15.75C11.7348 15.75 11.3991 16.0858 11.3991 16.5H12.8991ZM11.3991 18.6C11.3991 19.0142 11.7348 19.35 12.1491 19.35C12.5633 19.35 12.8991 19.0142 12.8991 18.6H11.3991ZM7.14906 22H6.39906V22.75H7.14906V22ZM17.1491 22V22.75H17.8991V22H17.1491ZM6.14906 21.25C5.73485 21.25 5.39906 21.5858 5.39906 22C5.39906 22.4142 5.73485 22.75 6.14906 22.75V21.25ZM18.1491 22.75C18.5633 22.75 18.8991 22.4142 18.8991 22C18.8991 21.5858 18.5633 21.25 18.1491 21.25V22.75ZM5.46906 11.65L5.24048 12.3643C5.5204 12.4539 5.82683 12.3717 6.02438 12.1541C6.22192 11.9365 6.27416 11.6236 6.15801 11.3536L5.46906 11.65ZM3.53906 10.45L2.98159 10.9517C2.99039 10.9615 2.99944 10.971 3.00873 10.9803L3.53906 10.45ZM5.18906 4.35L5.87687 4.64904C5.97766 4.41721 5.95489 4.15019 5.81627 3.93877C5.67766 3.72736 5.44187 3.6 5.18906 3.6V4.35ZM4.88906 8.85H5.63906H4.88906ZM18.5291 11.65L17.8401 11.3536C17.724 11.6236 17.7762 11.9365 17.9738 12.1541C18.1713 12.3717 18.4777 12.4539 18.7576 12.3643L18.5291 11.65ZM20.4591 10.45L20.9894 10.9803C20.9987 10.971 21.0077 10.9615 21.0165 10.9517L20.4591 10.45ZM18.8091 4.35V3.6C18.5563 3.6 18.3205 3.72736 18.1819 3.93877C18.0432 4.15019 18.0205 4.41721 18.1213 4.64904L18.8091 4.35ZM19.1091 8.85H19.8591H19.1091ZM12.1491 16.5H11.3991V18.6H12.1491H12.8991V16.5H12.1491ZM7.14906 22V22.75H17.1491V22V21.25H7.14906V22ZM17.1491 22H17.8991V21H17.1491H16.3991V22H17.1491ZM17.1491 21H17.8991C17.8991 19.4858 16.6633 18.25 15.1491 18.25V19V19.75C15.8348 19.75 16.3991 20.3142 16.3991 21H17.1491ZM15.1491 19V18.25H9.14906V19V19.75H15.1491V19ZM9.14906 19V18.25C7.63485 18.25 6.39906 19.4858 6.39906 21H7.14906H7.89906C7.89906 20.3142 8.46328 19.75 9.14906 19.75V19ZM7.14906 21H6.39906V22H7.14906H7.89906V21H7.14906ZM6.14906 22V22.75H18.1491V22V21.25H6.14906V22ZM11.9991 16V15.25C8.54328 15.25 5.74906 12.4558 5.74906 9H4.99906H4.24906C4.24906 13.2842 7.71485 16.75 11.9991 16.75V16ZM4.99906 9H5.74906V6H4.99906H4.24906V9H4.99906ZM4.99906 6H5.74906C5.74906 4.20421 7.20328 2.75 8.99906 2.75V2V1.25C6.37485 1.25 4.24906 3.37579 4.24906 6H4.99906ZM8.99906 2V2.75H14.9991V2V1.25H8.99906V2ZM14.9991 2V2.75C16.7948 2.75 18.2491 4.20421 18.2491 6H18.9991H19.7491C19.7491 3.37579 17.6233 1.25 14.9991 1.25V2ZM18.9991 6H18.2491V9H18.9991H19.7491V6H18.9991ZM18.9991 9H18.2491C18.2491 12.4558 15.4548 15.25 11.9991 15.25V16V16.75C16.2833 16.75 19.7491 13.2842 19.7491 9H18.9991ZM5.46906 11.65L5.69764 10.9357C5.07746 10.7372 4.51765 10.3679 4.06939 9.91967L3.53906 10.45L3.00873 10.9803C3.60048 11.5721 4.36067 12.0828 5.24048 12.3643L5.46906 11.65ZM3.53906 10.45L4.09653 9.94828C3.28555 9.04719 2.78906 8.01842 2.78906 6.85H2.03906H1.28906C1.28906 8.48158 1.99257 9.85281 2.98159 10.9517L3.53906 10.45ZM2.03906 6.85H2.78906C2.78906 5.86421 3.55328 5.1 4.53906 5.1V4.35V3.6C2.72485 3.6 1.28906 5.03579 1.28906 6.85H2.03906ZM4.53906 4.35V5.1H5.18906V4.35V3.6H4.53906V4.35ZM5.18906 4.35L4.50126 4.05096C4.25679 4.61323 4.13906 5.2261 4.13906 5.85H4.88906H5.63906C5.63906 5.4139 5.72133 5.00677 5.87687 4.64904L5.18906 4.35ZM4.88906 5.85H4.13906V8.85H4.88906H5.63906V5.85H4.88906ZM4.88906 8.85H4.13906C4.13906 9.95699 4.37189 10.9975 4.78012 11.9464L5.46906 11.65L6.15801 11.3536C5.82624 10.5825 5.63906 9.74301 5.63906 8.85H4.88906ZM18.5291 11.65L18.7576 12.3643C19.6375 12.0828 20.3976 11.5721 20.9894 10.9803L20.4591 10.45L19.9287 9.91967C19.4805 10.3679 18.9207 10.7372 18.3005 10.9357L18.5291 11.65ZM20.4591 10.45L21.0165 10.9517C22.0056 9.85281 22.7091 8.48158 22.7091 6.85H21.9591H21.2091C21.2091 8.01842 20.7126 9.04719 19.9016 9.94828L20.4591 10.45ZM21.9591 6.85H22.7091C22.7091 5.03579 21.2733 3.6 19.4591 3.6V4.35V5.1C20.4449 5.1 21.2091 5.86421 21.2091 6.85H21.9591ZM19.4591 4.35V3.6H18.8091V4.35V5.1H19.4591V4.35ZM18.8091 4.35L18.1213 4.64904C18.2768 5.00678 18.3591 5.4139 18.3591 5.85H19.1091H19.8591C19.8591 5.2261 19.7413 4.61322 19.4969 4.05096L18.8091 4.35ZM19.1091 5.85H18.3591V8.85H19.1091H19.8591V5.85H19.1091ZM19.1091 8.85H18.3591C18.3591 9.74301 18.1719 10.5825 17.8401 11.3536L18.5291 11.65L19.218 11.9464C19.6262 10.9975 19.8591 9.95699 19.8591 8.85H19.1091Z" fill="white" fill-opacity="0.2"/>
<defs>
<linearGradient id="paint0_linear_385_34197" x1="2.03906" y1="2" x2="8.86028" y2="12.1003" gradientUnits="userSpaceOnUse">
<stop stop-color="white"/>
<stop offset="1" stop-color="white" stop-opacity="0"/>
</linearGradient>
</defs>
</svg>
