<svg width="40" height="26" viewBox="0 0 40 26" fill="none" xmlns="http://www.w3.org/2000/svg">
<path d="M20.0703 24.4784L32.2655 15.6176L27.6079 1.28003H12.5327L7.87354 15.6176L20.0703 24.4784Z" fill="#104556"/>
<path d="M28.0432 0.679932H12.096L7.16797 15.8463L20.0688 25.2191L32.9696 15.8463L28.0432 0.679932ZM9.71997 15.0175L13.6736 2.85113H26.4672L30.4208 15.0175L20.072 22.5375L9.72157 15.0175H9.71997Z" fill="url(#paint0_radial_782_2102)"/>
<g style="mix-blend-mode:multiply" opacity="0.3">
<path d="M13.6733 2.85107L20.0701 22.5359L26.4669 2.85107H13.6733Z" fill="#0C363D"/>
</g>
<path d="M28.0429 0.679932H12.0957L10.9565 4.18873C11.6653 4.22073 12.3997 4.31033 13.1517 4.45433L13.6733 2.85113H26.4669L30.4205 15.0175L28.9197 16.1087C29.2573 16.7647 29.5565 17.4431 29.8125 18.1423L32.9709 15.8479L28.0429 0.679932Z" fill="url(#paint1_radial_782_2102)"/>
<path style="mix-blend-mode:screen" d="M28.0429 0.679932H12.0957L10.9565 4.18873C11.6653 4.22073 12.3997 4.31033 13.1517 4.45433L13.6733 2.85113H26.4669L30.4205 15.0175L28.9197 16.1087C29.2573 16.7647 29.5565 17.4431 29.8125 18.1423L32.9709 15.8479L28.0429 0.679932Z" fill="url(#paint2_linear_782_2102)"/>
<path style="mix-blend-mode:screen" d="M27.1676 20.0623C27.0924 19.2175 26.966 18.4127 26.7964 17.6495L20.0684 22.5375L9.71802 15.0175L12.5564 6.28149C11.75 6.30069 10.9564 6.39189 10.1868 6.54869L7.16602 15.8463L20.0668 25.2191L27.166 20.0607L27.1676 20.0623Z" fill="url(#paint3_linear_782_2102)"/>
<path d="M9.71973 15.0175L10.7421 14.7871L14.3053 3.82227H25.8333L29.3965 14.7871L30.4189 15.0175L26.4653 2.85107H13.6733L9.71973 15.0175Z" fill="#9E2C19"/>
<g style="mix-blend-mode:multiply" opacity="0.2">
<path d="M10.7423 14.7871L12.7359 9.67187C13.9167 6.64307 16.8335 5.32947 20.0847 5.32947C23.3487 5.32947 26.2767 6.66067 27.4463 9.70867L29.3967 14.7871L25.8335 3.82227H14.3039L10.7407 14.7871H10.7423Z" fill="#892334"/>
</g>
<path d="M9.71973 15.0175L10.7421 14.7871L20.0701 21.5647L29.3965 14.7871L30.4189 15.0175L20.0701 22.5359L9.71973 15.0175Z" fill="url(#paint4_linear_782_2102)"/>
<g style="mix-blend-mode:multiply" opacity="0.6">
<path d="M10.7425 14.7871L14.4001 5.40147C14.5761 4.94867 15.0129 4.64947 15.4993 4.64947H24.6913C25.1793 4.64947 25.6177 4.95027 25.7921 5.40627L29.3953 14.7871L25.8321 3.82227H14.3025L10.7393 14.7871H10.7425Z" fill="#892334"/>
</g>
<path d="M13.6733 2.85107L14.3053 3.82227H25.8333L26.4653 2.85107H13.6733Z" fill="#681D15"/>
<g style="mix-blend-mode:multiply" opacity="0.35">
<path d="M8.93583 10.408L7.70063 15.0352C7.60463 15.4336 7.79343 15.9632 8.12303 16.2096L20.0702 25.2208L7.16943 15.848L8.93743 10.4096L8.93583 10.408Z" fill="#9E2C19"/>
</g>
<g style="mix-blend-mode:multiply" opacity="0.6">
<path d="M10.7422 14.7871L19.6398 20.7807C19.875 20.9391 20.2622 20.9391 20.4974 20.7807L29.395 14.7871L20.0686 21.5631L10.7422 14.7871Z" fill="#892334"/>
</g>
<g style="mix-blend-mode:multiply" opacity="0.35">
<path d="M20.0703 25.2191L31.5583 16.3455C32.3615 15.7503 32.5359 15.6207 32.1743 14.4799L29.7775 6.0127L32.9727 15.8463L20.0719 25.2191H20.0703Z" fill="#9E2C19"/>
</g>
<path d="M14.3677 18.395L20.0701 22.5358L27.7677 16.9438L20.0701 22.8878L14.3677 18.395Z" fill="#FFF5CC"/>
<path d="M19.6367 0.679932H28.0431L29.7759 6.01273L27.7215 0.975932L19.6367 0.679932Z" fill="#FFF5CC"/>
<g style="mix-blend-mode:screen">
<path d="M22.9822 0.679932C22.9118 1.37113 23.2142 2.14393 23.7966 2.85113H26.467L27.1278 4.88313C27.9646 5.08793 28.7646 5.09433 29.4206 4.91513L28.043 0.679932H22.9822Z" fill="#FFF2BB"/>
</g>
<g style="mix-blend-mode:screen">
<path d="M13.6751 17.8911C13.4735 18.4111 13.8383 19.1855 14.5727 19.7183C15.3071 20.2511 16.1567 20.3599 16.5871 20.0079L13.6735 17.8911H13.6751Z" fill="#FFF2BB"/>
</g>
<g style="mix-blend-mode:screen">
<path d="M16.6079 21.4254C16.4847 21.6142 16.1439 21.611 15.8479 21.4174C15.5519 21.2238 15.4095 20.9134 15.5327 20.7246C15.6559 20.5358 15.9967 20.539 16.2927 20.7326C16.5887 20.9262 16.7311 21.2366 16.6079 21.4254Z" fill="#FFF2BB"/>
</g>
<path d="M10.8398 0.785557L10.3518 4.82236C9.19662 4.81596 8.23182 4.81116 6.49582 4.81276C0.351824 4.82076 0.319824 0.766357 0.319824 0.766357L10.8398 0.785557Z" fill="#681D15"/>
<path d="M10.8398 0.785557L9.80142 3.93916C8.64622 3.93276 8.45582 3.92796 6.72142 3.93116C0.577424 3.93756 0.319824 0.766357 0.319824 0.766357L10.8398 0.785557Z" fill="url(#paint5_radial_782_2102)"/>
<path d="M9.28294 5.57915L8.80294 9.61595C7.64774 9.60955 9.05254 9.61595 7.31814 9.61595C1.17414 9.62395 1.13574 5.55835 1.13574 5.55835L9.28454 5.57755L9.28294 5.57915Z" fill="#681D15"/>
<path d="M9.28321 5.57915L8.25601 8.73915C7.10081 8.73275 9.28321 8.72795 7.54721 8.72955C1.40321 8.73755 1.13281 5.55835 1.13281 5.55835L9.28161 5.57755L9.28321 5.57915Z" fill="url(#paint6_radial_782_2102)"/>
<path d="M7.72644 10.3711L3.39844 10.3535C3.39844 10.3535 4.07844 13.3935 7.24484 14.4095L7.72804 10.3711H7.72644Z" fill="#681D15"/>
<path d="M7.72644 10.3711L3.39844 10.3535C3.39844 10.3535 3.53284 12.5151 6.69924 13.5327L7.72804 10.3711H7.72644Z" fill="url(#paint7_radial_782_2102)"/>
<path d="M10.8397 0.785645L11.3581 1.78724L10.3517 4.82244L9.80127 3.93924L10.8397 0.785645Z" fill="#9E2C19"/>
<path d="M9.28306 5.5791L9.80146 6.5711L8.80146 9.6175L8.25586 8.7391L9.28306 5.5791Z" fill="#9E2C19"/>
<path d="M7.72447 10.3728L8.24287 11.3632L7.24287 14.4096L6.69727 13.5328L7.72447 10.3728Z" fill="#9E2C19"/>
<path d="M29.3022 0.785557L29.7902 4.82236C30.9454 4.81596 31.9102 4.81116 33.6462 4.81276C39.7902 4.82076 39.8222 0.766357 39.8222 0.766357L29.3022 0.785557Z" fill="#681D15"/>
<path d="M29.3022 0.785422L30.3406 3.93902C31.4958 3.93262 31.6862 3.92782 33.4206 3.93102C39.5646 3.93902 39.8222 0.767822 39.8222 0.767822L29.3022 0.787022V0.785422Z" fill="url(#paint8_radial_782_2102)"/>
<path d="M30.859 5.57915L31.339 9.61595C32.4942 9.60955 31.0894 9.61595 32.8238 9.61595C38.9678 9.62395 39.0062 5.55835 39.0062 5.55835L30.8574 5.57755L30.859 5.57915Z" fill="#681D15"/>
<path d="M30.8589 5.57915L31.8861 8.73915C33.0413 8.73275 30.8589 8.72795 32.5949 8.72955C38.7389 8.73755 39.0093 5.55835 39.0093 5.55835L30.8605 5.57755L30.8589 5.57915Z" fill="url(#paint9_radial_782_2102)"/>
<path d="M32.4157 10.3711L36.7437 10.3535C36.7437 10.3535 36.0637 13.3935 32.8973 14.4095L32.4141 10.3711H32.4157Z" fill="#681D15"/>
<path d="M32.4157 10.3711L36.7437 10.3535C36.7437 10.3535 36.6093 12.5151 33.4429 13.5327L32.4141 10.3711H32.4157Z" fill="url(#paint10_radial_782_2102)"/>
<path style="mix-blend-mode:screen" d="M29.3022 0.785422L30.3406 3.93902C31.4958 3.93262 31.6862 3.92782 33.4206 3.93102C39.5646 3.93902 39.8222 0.767822 39.8222 0.767822L29.3022 0.787022V0.785422Z" fill="url(#paint11_linear_782_2102)"/>
<path style="mix-blend-mode:screen" d="M30.8589 5.57915L31.8861 8.73915C33.0413 8.73275 30.8589 8.72795 32.5949 8.72955C38.7389 8.73755 39.0093 5.55835 39.0093 5.55835L30.8605 5.57755L30.8589 5.57915Z" fill="url(#paint12_linear_782_2102)"/>
<path style="mix-blend-mode:screen" d="M32.4157 10.3711L36.7437 10.3535C36.7437 10.3535 36.6093 12.5151 33.4429 13.5327L32.4141 10.3711H32.4157Z" fill="url(#paint13_linear_782_2102)"/>
<path d="M29.3021 0.785645L28.7837 1.78724L29.7901 4.82244L30.3405 3.93924L29.3021 0.785645Z" fill="#9E2C19"/>
<path d="M30.8592 5.5791L30.3408 6.5711L31.3408 9.6175L31.8864 8.7391L30.8592 5.5791Z" fill="#9E2C19"/>
<path d="M32.4173 10.3728L31.8989 11.3632L32.8989 14.4096L33.4445 13.5328L32.4173 10.3728Z" fill="#9E2C19"/>
<path style="mix-blend-mode:screen" d="M10.8398 0.785557L0.319824 0.766357C0.319824 0.766357 0.577424 3.93756 6.72142 3.92956C8.45742 3.92796 8.64622 3.93276 9.80142 3.93916L10.8398 0.785557Z" fill="url(#paint14_linear_782_2102)"/>
<path style="mix-blend-mode:screen" d="M7.72644 10.3711L3.39844 10.3535C3.39844 10.3535 3.53284 12.5151 6.69924 13.5327L7.72804 10.3711H7.72644Z" fill="url(#paint15_linear_782_2102)"/>
<path style="mix-blend-mode:screen" d="M8.25585 8.73924L8.86065 6.87524C8.03665 7.14404 7.25585 7.49924 6.53745 7.93924C6.23985 8.12164 5.89105 8.34564 5.51025 8.59684C6.10545 8.68324 6.78065 8.73124 7.54705 8.73124C9.28305 8.72964 7.10065 8.73444 8.25585 8.74084V8.73924Z" fill="url(#paint16_linear_782_2102)"/>
<g style="mix-blend-mode:multiply" opacity="0.35">
<path d="M9.22705 9.51353L11.9215 1.78713C12.1999 1.00313 12.4031 0.796732 13.2335 0.766332L20.0703 0.679932H12.0975L9.22705 9.51353Z" fill="#9E2C19"/>
</g>
<g style="mix-blend-mode:screen">
<path d="M22.4798 1.88642C21.923 1.48162 21.251 1.45602 20.979 1.82882C20.7854 2.09602 20.8494 2.49602 21.107 2.84962H23.1054C23.075 2.52322 22.8494 2.15522 22.4782 1.88642H22.4798Z" fill="#FFF2BB"/>
</g>
<g style="mix-blend-mode:multiply" opacity="0.6">
<path d="M23.3441 13.28L24.9937 10.424V9.54881L21.6945 10.424L20.0465 7.56641L18.3969 10.424L15.0977 9.54881V10.424L16.7473 13.28L15.0977 15.2624V16.136H18.3969L20.0465 18.9936L21.6945 16.136H24.9937V15.2624L23.3441 13.28Z" fill="#892334"/>
</g>
<path d="M23.3441 12.4065L24.9937 9.54887V8.48007L21.6945 9.54887L20.0465 6.69287L18.3969 9.54887L15.0977 8.48007V9.54887L16.7473 12.4065L15.0977 14.1937V15.2625H18.3969L20.0465 18.1185L21.6945 15.2625H24.9937V14.1937L23.3441 12.4065Z" fill="#9E2C19"/>
<path d="M23.3441 11.3376L24.9937 8.48002H21.6945L20.0465 5.62402L18.3969 8.48002H15.0977L16.7473 11.3376L15.0977 14.1936H18.3969L20.0465 17.0496L21.6945 14.1936H24.9937L23.3441 11.3376Z" fill="url(#paint17_radial_782_2102)"/>
<path d="M24.9935 14.1936H21.6943V15.2624H24.9935V14.1936Z" fill="#681D15"/>
<path d="M18.3969 15.2624L20.0465 18.1184V17.0496L18.3969 14.1936H15.0977V15.2624H18.3969Z" fill="#681D15"/>
<path style="mix-blend-mode:screen" d="M18.9201 7.57446L18.3969 8.48006H15.0977L16.7473 11.3361L15.0977 14.1921H18.3969L20.0465 17.0481L21.6961 14.1921H24.9953L23.3457 11.3361L23.5297 11.0177C22.2081 9.50406 20.6241 8.36006 18.9217 7.57446H18.9201Z" fill="url(#paint18_linear_782_2102)"/>
<path d="M15.0977 8.47998L16.7473 11.3376L16.4385 11.872L15.0977 9.54878V8.47998Z" fill="#681D15"/>
<g style="mix-blend-mode:multiply" opacity="0.35">
<path d="M15.0977 8.47998L17.0353 10.9344C17.2561 11.2304 17.3233 11.336 17.0353 11.7376L15.0977 14.192L16.7473 11.336L15.0977 8.47998Z" fill="#9E2C19"/>
</g>
<g style="mix-blend-mode:screen" opacity="0.8">
<path d="M20.0464 5.62402L21.6368 8.76162L24.9936 8.48002H21.6944L20.0464 5.62402Z" fill="#FFE67B"/>
</g>
<g style="mix-blend-mode:screen" opacity="0.5">
<path d="M15.0977 14.1936L18.7073 13.8816L20.0465 17.0496L18.3969 14.1936H15.0977Z" fill="#FFE67B"/>
</g>
<g style="mix-blend-mode:multiply" opacity="0.35">
<path d="M20.0464 17.0496L21.3344 13.8976C21.4752 13.5968 21.6592 13.5632 21.8736 13.6048L24.9952 14.1936H21.696L20.0464 17.0496Z" fill="#9E2C19"/>
</g>
<path style="mix-blend-mode:screen" d="M24.1537 9.93438L24.9937 8.47998H22.3633C22.9809 8.93438 23.5793 9.41918 24.1537 9.93438Z" fill="url(#paint19_linear_782_2102)"/>
<path style="mix-blend-mode:screen" d="M21.2514 7.71042L20.0466 5.62402L19.4546 6.64962C20.0642 6.97442 20.6642 7.32962 21.2514 7.71042Z" fill="url(#paint20_linear_782_2102)"/>
<path d="M21.2481 11.2224C20.9921 11.6656 20.2337 11.7088 19.5553 11.3168C18.8769 10.9248 18.5345 10.248 18.7905 9.8032C19.0465 9.36 19.8049 9.3168 20.4833 9.7088C21.1617 10.1008 21.5041 10.7776 21.2481 11.2224Z" fill="#FCE265"/>
<path d="M18.7954 11.4943C18.7138 11.6367 18.4434 11.6335 18.1922 11.4895C17.941 11.3439 17.8034 11.1119 17.8866 10.9695C17.9682 10.8271 18.2386 10.8303 18.4898 10.9743C18.741 11.1199 18.8786 11.3519 18.7954 11.4943Z" fill="#FCE265"/>
<g style="mix-blend-mode:multiply" opacity="0.35">
<path fill-rule="evenodd" clip-rule="evenodd" d="M31.6846 3.69911C30.9838 3.62871 30.4958 3.37591 30.1758 2.74871L29.3022 0.787109L30.3406 3.94071C31.4958 3.93431 31.6862 3.92951 33.4206 3.93111C34.3998 3.93111 35.2286 3.85271 35.931 3.71831C34.4078 3.90231 32.8446 3.81591 31.6846 3.70071V3.69911Z" fill="#9E2C19"/>
</g>
<g style="mix-blend-mode:multiply" opacity="0.35">
<path fill-rule="evenodd" clip-rule="evenodd" d="M32.5952 8.7311C34.0816 8.7327 35.224 8.5471 36.1008 8.2671C34.8384 8.6175 33.7776 8.5935 32.9712 8.5439C32.416 8.5103 31.9648 8.1023 31.7296 7.5983L30.8608 5.5791L31.888 8.7391C33.0432 8.7327 30.8608 8.7279 32.5968 8.7295L32.5952 8.7311Z" fill="#9E2C19"/>
</g>
<g style="mix-blend-mode:multiply" opacity="0.35">
<path fill-rule="evenodd" clip-rule="evenodd" d="M33.4447 13.5328C34.1311 13.312 34.6735 13.0384 35.1039 12.744C34.5935 12.9376 33.6367 13.0784 33.6367 13.0784L32.4175 10.3728V10.376L33.4447 13.5328Z" fill="#9E2C19"/>
</g>
<g style="mix-blend-mode:multiply" opacity="0.35">
<path d="M6.72142 3.93116C8.45742 3.92956 8.64622 3.93436 9.80142 3.94076L10.6238 1.44156L10.0126 2.80476C9.71982 3.52316 9.54542 3.75996 8.82862 3.76636C8.05582 3.77276 6.59822 3.75676 5.85742 3.72796C2.63182 3.60156 0.732624 2.20796 0.319824 0.766357C0.319824 0.766357 0.577424 3.93756 6.72142 3.92956V3.93116Z" fill="#9E2C19"/>
</g>
<g style="mix-blend-mode:multiply" opacity="0.35">
<path d="M8.39324 7.80782C8.19804 8.21742 7.98844 8.55982 7.53564 8.54382C7.06684 8.52782 5.75164 8.51822 4.99964 8.34862C3.25404 7.95502 2.21244 7.30542 1.50684 6.50862C2.10044 7.44462 3.62844 8.73582 7.54844 8.73102C9.28444 8.72942 7.10204 8.73422 8.25724 8.74062L9.10684 6.12622L8.39484 7.80942L8.39324 7.80782Z" fill="#9E2C19"/>
</g>
<g style="mix-blend-mode:multiply" opacity="0.35">
<path d="M6.69728 13.5329L7.59328 10.7761C7.42528 11.1281 7.09088 11.9409 6.75168 12.6929C6.52128 13.2049 6.30048 13.1409 5.94528 12.9921C4.17728 12.2561 3.77088 11.3809 3.39648 10.3521C3.39648 10.3521 3.53088 12.5137 6.69728 13.5313V13.5329Z" fill="#9E2C19"/>
</g>
<path d="M29.3022 0.785557L38.923 0.950357C39.3102 0.956757 39.4894 1.24636 39.3214 1.59516C39.147 1.95836 38.8654 2.39356 38.4046 2.76796C39.7326 1.86556 39.8222 0.766357 39.8222 0.766357L29.3022 0.785557Z" fill="#FFF5CC"/>
<path d="M30.8589 5.57912L37.9565 5.74552C38.7853 5.76312 38.6509 6.11512 38.4349 6.54712C38.3021 6.81272 38.1197 7.10392 37.8781 7.34712C38.9277 6.49272 39.0077 5.56152 39.0077 5.56152L30.8589 5.58072V5.57912Z" fill="#FFF5CC"/>
<path d="M35.9999 11.9423C36.6959 11.1119 36.7439 10.3535 36.7439 10.3535L32.4223 10.3711H32.4175L35.9903 10.5231C36.5183 10.5551 36.4223 10.7535 36.3615 11.0095C36.2911 11.3055 36.1727 11.6527 35.9999 11.9423Z" fill="#FFF5CC"/>
<g style="mix-blend-mode:screen" opacity="0.5">
<path d="M3.1167 0.766357L10.8399 0.785557L10.5807 1.57436C10.5807 1.16956 10.3887 0.964757 9.9231 0.959957L3.1167 0.766357Z" fill="#FFE67B"/>
</g>
<g style="mix-blend-mode:screen" opacity="0.5">
<path d="M3.1167 5.5791H9.2831L8.9999 6.4527L9.0303 6.1631C9.0463 5.8895 8.9487 5.7455 8.4495 5.7215L3.1183 5.5791H3.1167Z" fill="#FFE67B"/>
</g>
<g style="mix-blend-mode:screen" opacity="0.5">
<path d="M4.22998 10.3568L7.72598 10.3712L7.46038 11.1856L7.44438 10.8064C7.43478 10.5952 7.37718 10.5232 7.08918 10.504L4.23158 10.3552L4.22998 10.3568Z" fill="#FFE67B"/>
</g>
<g style="mix-blend-mode:screen">
<path d="M30.3406 3.93919C31.0846 3.93599 31.4286 3.93119 32.043 3.93119C33.1326 3.24799 33.8574 2.23359 33.9598 1.05279C33.9678 0.959988 33.971 0.868788 33.971 0.777588L29.3022 0.785588L30.3406 3.93919Z" fill="#FFF2BB"/>
</g>
<path style="mix-blend-mode:screen" d="M1.13428 5.55981C1.13428 5.55981 1.17908 6.07501 1.63028 6.68781C2.30068 6.30861 3.04788 5.92141 3.84628 5.56621L1.13428 5.55981Z" fill="url(#paint21_linear_782_2102)"/>
<defs>
<radialGradient id="paint0_radial_782_2102" cx="0" cy="0" r="1" gradientUnits="userSpaceOnUse" gradientTransform="translate(26.9632 1.49913) scale(20.4656 20.4656)">
<stop offset="0.01" stop-color="#E8B321"/>
<stop offset="1" stop-color="#E36C0B"/>
</radialGradient>
<radialGradient id="paint1_radial_782_2102" cx="0" cy="0" r="1" gradientUnits="userSpaceOnUse" gradientTransform="translate(30.6861 -1.28647) scale(28.3136 28.3136)">
<stop offset="0.01" stop-color="#E8B321"/>
<stop offset="1" stop-color="#E36C0B"/>
</radialGradient>
<linearGradient id="paint2_linear_782_2102" x1="31.9085" y1="-3.30087" x2="19.0749" y2="12.5295" gradientUnits="userSpaceOnUse">
<stop stop-color="#FFE969"/>
<stop offset="0.11" stop-color="#FEE366"/>
<stop offset="0.24" stop-color="#FBD45F"/>
<stop offset="0.38" stop-color="#F6BC54"/>
<stop offset="0.53" stop-color="#F09945"/>
<stop offset="0.69" stop-color="#E86D31"/>
<stop offset="0.85" stop-color="#DE3719"/>
<stop offset="1" stop-color="#D40000"/>
</linearGradient>
<linearGradient id="paint3_linear_782_2102" x1="11.4716" y1="22.3391" x2="22.6908" y2="8.27509" gradientUnits="userSpaceOnUse">
<stop stop-color="#D40000"/>
<stop offset="1" stop-color="#FFE447"/>
</linearGradient>
<linearGradient id="paint4_linear_782_2102" x1="20.0701" y1="12.9951" x2="20.0701" y2="17.2703" gradientUnits="userSpaceOnUse">
<stop offset="0.63" stop-color="#F7D24A"/>
<stop offset="1" stop-color="#F7E399"/>
</linearGradient>
<radialGradient id="paint5_radial_782_2102" cx="0" cy="0" r="1" gradientUnits="userSpaceOnUse" gradientTransform="translate(14.3614 -2.52164) scale(22.7152)">
<stop offset="0.01" stop-color="#E8B321"/>
<stop offset="1" stop-color="#E36C0B"/>
</radialGradient>
<radialGradient id="paint6_radial_782_2102" cx="0" cy="0" r="1" gradientUnits="userSpaceOnUse" gradientTransform="translate(14.3616 -2.52165) scale(22.7152)">
<stop offset="0.01" stop-color="#E8B321"/>
<stop offset="1" stop-color="#E36C0B"/>
</radialGradient>
<radialGradient id="paint7_radial_782_2102" cx="0" cy="0" r="1" gradientUnits="userSpaceOnUse" gradientTransform="translate(14.3616 -2.52169) scale(22.7152 22.7152)">
<stop offset="0.01" stop-color="#E8B321"/>
<stop offset="1" stop-color="#E36C0B"/>
</radialGradient>
<radialGradient id="paint8_radial_782_2102" cx="0" cy="0" r="1" gradientUnits="userSpaceOnUse" gradientTransform="translate(28.1422 1.16622) scale(23.4736 23.4736)">
<stop offset="0.01" stop-color="#E8B321"/>
<stop offset="1" stop-color="#E36C0B"/>
</radialGradient>
<radialGradient id="paint9_radial_782_2102" cx="0" cy="0" r="1" gradientUnits="userSpaceOnUse" gradientTransform="translate(28.1421 1.16635) scale(23.4736 23.4736)">
<stop offset="0.01" stop-color="#E8B321"/>
<stop offset="1" stop-color="#E36C0B"/>
</radialGradient>
<radialGradient id="paint10_radial_782_2102" cx="0" cy="0" r="1" gradientUnits="userSpaceOnUse" gradientTransform="translate(28.1421 1.16632) scale(23.4752 23.4752)">
<stop offset="0.01" stop-color="#E8B321"/>
<stop offset="1" stop-color="#E36C0B"/>
</radialGradient>
<linearGradient id="paint11_linear_782_2102" x1="35.891" y1="-0.800178" x2="23.4798" y2="16.067" gradientUnits="userSpaceOnUse">
<stop stop-color="#FFE969"/>
<stop offset="0.11" stop-color="#FEE366"/>
<stop offset="0.24" stop-color="#FBD45F"/>
<stop offset="0.38" stop-color="#F6BC54"/>
<stop offset="0.53" stop-color="#F09945"/>
<stop offset="0.69" stop-color="#E86D31"/>
<stop offset="0.85" stop-color="#DE3719"/>
<stop offset="1" stop-color="#D40000"/>
</linearGradient>
<linearGradient id="paint12_linear_782_2102" x1="38.4189" y1="1.05915" x2="26.0093" y2="17.9279" gradientUnits="userSpaceOnUse">
<stop stop-color="#FFE969"/>
<stop offset="0.11" stop-color="#FEE366"/>
<stop offset="0.24" stop-color="#FBD45F"/>
<stop offset="0.38" stop-color="#F6BC54"/>
<stop offset="0.53" stop-color="#F09945"/>
<stop offset="0.69" stop-color="#E86D31"/>
<stop offset="0.85" stop-color="#DE3719"/>
<stop offset="1" stop-color="#D40000"/>
</linearGradient>
<linearGradient id="paint13_linear_782_2102" x1="40.5101" y1="2.59831" x2="28.0989" y2="19.4655" gradientUnits="userSpaceOnUse">
<stop stop-color="#FFE969"/>
<stop offset="0.11" stop-color="#FEE366"/>
<stop offset="0.24" stop-color="#FBD45F"/>
<stop offset="0.38" stop-color="#F6BC54"/>
<stop offset="0.53" stop-color="#F09945"/>
<stop offset="0.69" stop-color="#E86D31"/>
<stop offset="0.85" stop-color="#DE3719"/>
<stop offset="1" stop-color="#D40000"/>
</linearGradient>
<linearGradient id="paint14_linear_782_2102" x1="17.395" y1="-14.4096" x2="4.98383" y2="2.45756" gradientUnits="userSpaceOnUse">
<stop stop-color="#FFE969"/>
<stop offset="0.11" stop-color="#FEE366"/>
<stop offset="0.24" stop-color="#FBD45F"/>
<stop offset="0.38" stop-color="#F6BC54"/>
<stop offset="0.53" stop-color="#F09945"/>
<stop offset="0.69" stop-color="#E86D31"/>
<stop offset="0.85" stop-color="#DE3719"/>
<stop offset="1" stop-color="#D40000"/>
</linearGradient>
<linearGradient id="paint15_linear_782_2102" x1="1.88164" y1="16.7087" x2="11.5136" y2="2.21112" gradientUnits="userSpaceOnUse">
<stop stop-color="#D40000"/>
<stop offset="1" stop-color="#FFE447"/>
</linearGradient>
<linearGradient id="paint16_linear_782_2102" x1="1.64625" y1="16.552" x2="11.2783" y2="2.05444" gradientUnits="userSpaceOnUse">
<stop stop-color="#D40000"/>
<stop offset="1" stop-color="#FFE447"/>
</linearGradient>
<radialGradient id="paint17_radial_782_2102" cx="0" cy="0" r="1" gradientUnits="userSpaceOnUse" gradientTransform="translate(28.7457 1.11523) scale(23.3632 23.3632)">
<stop offset="0.01" stop-color="#E8B321"/>
<stop offset="1" stop-color="#E36C0B"/>
</radialGradient>
<linearGradient id="paint18_linear_782_2102" x1="14.8913" y1="19.1105" x2="24.3441" y2="4.85446" gradientUnits="userSpaceOnUse">
<stop stop-color="#D40000"/>
<stop offset="1" stop-color="#FFE447"/>
</linearGradient>
<linearGradient id="paint19_linear_782_2102" x1="30.4065" y1="-1.48962" x2="19.1105" y2="15.416" gradientUnits="userSpaceOnUse">
<stop stop-color="#FFE969"/>
<stop offset="0.11" stop-color="#FEE366"/>
<stop offset="0.24" stop-color="#FBD45F"/>
<stop offset="0.38" stop-color="#F6BC54"/>
<stop offset="0.53" stop-color="#F09945"/>
<stop offset="0.69" stop-color="#E86D31"/>
<stop offset="0.85" stop-color="#DE3719"/>
<stop offset="1" stop-color="#D40000"/>
</linearGradient>
<linearGradient id="paint20_linear_782_2102" x1="27.429" y1="-3.47998" x2="16.1314" y2="13.4272" gradientUnits="userSpaceOnUse">
<stop stop-color="#FFE969"/>
<stop offset="0.11" stop-color="#FEE366"/>
<stop offset="0.24" stop-color="#FBD45F"/>
<stop offset="0.38" stop-color="#F6BC54"/>
<stop offset="0.53" stop-color="#F09945"/>
<stop offset="0.69" stop-color="#E86D31"/>
<stop offset="0.85" stop-color="#DE3719"/>
<stop offset="1" stop-color="#D40000"/>
</linearGradient>
<linearGradient id="paint21_linear_782_2102" x1="17.2591" y1="-14.5106" x2="4.84788" y2="2.35822" gradientUnits="userSpaceOnUse">
<stop stop-color="#FFE969"/>
<stop offset="0.11" stop-color="#FEE366"/>
<stop offset="0.24" stop-color="#FBD45F"/>
<stop offset="0.38" stop-color="#F6BC54"/>
<stop offset="0.53" stop-color="#F09945"/>
<stop offset="0.69" stop-color="#E86D31"/>
<stop offset="0.85" stop-color="#DE3719"/>
<stop offset="1" stop-color="#D40000"/>
</linearGradient>
</defs>
</svg>
